<svg width="200" height="200" viewBox="0 0 200 200" fill="none" xmlns="http://www.w3.org/2000/svg">
<path d="M109.723 55.1328C110.229 56.4468 110.483 57.7044 110.483 58.9057L110.455 59.4406C110.361 60.2102 110.126 60.6795 109.751 60.8484C109.413 60.9798 109.038 60.8859 108.625 60.5668C107.686 59.7973 106.963 58.2581 106.457 55.9493C105.969 53.7532 105.931 52.3736 106.344 51.8105L106.935 51.7823L107.583 52.0639C108.446 52.6082 109.16 53.6312 109.723 55.1328Z" fill="#0D131A"/>
<path d="M109.103 60.0037C108.502 59.4969 108.033 58.5584 107.695 57.1882C107.414 56.0807 107.273 54.9733 107.273 53.8658L107.386 52.8241C108.08 53.3872 108.662 54.3069 109.131 55.5833C109.544 56.7658 109.751 57.8733 109.751 58.9057L109.722 59.3561C109.685 59.8442 109.6 60.1164 109.469 60.1727L109.103 60.0037Z" fill="#3D62AC"/>
<path d="M108.85 56.8503L108.934 57.8921C108.897 58.2112 108.822 58.3895 108.709 58.427C108.578 58.4646 108.446 58.3519 108.315 58.0892C108.184 57.8264 108.08 57.4979 108.005 57.1037L107.921 56.062C107.958 55.7429 108.034 55.5645 108.146 55.527C108.278 55.5082 108.409 55.6209 108.54 55.8649L108.85 56.8503Z" fill="#0D131A"/>
<path d="M175.353 132.11L176.198 131.772C176.498 131.678 176.723 131.763 176.873 132.026H177.183C178.122 133.771 178.103 136.437 177.127 140.022C176.263 143.213 175.231 145.475 174.03 146.807C173.729 147.145 173.438 147.258 173.157 147.145C172.838 147.032 172.622 146.535 172.509 145.653C172.453 145.221 172.387 144.039 172.312 142.105L172.143 138.952C172.049 137.751 172.359 136.371 173.072 134.813C173.804 133.236 174.565 132.335 175.353 132.11Z" fill="#0D131A"/>
<path d="M175.55 132.814C175.776 132.758 175.954 132.87 176.085 133.152C176.479 133.865 176.676 134.804 176.676 135.967C176.676 137.713 176.273 139.74 175.466 142.049C174.771 144.057 174.133 145.381 173.551 146.019L173.467 146.103C173.279 145.803 173.138 144.461 173.044 142.077L172.875 138.53C172.875 137.46 173.185 136.277 173.805 134.982C174.424 133.687 175.006 132.964 175.55 132.814Z" fill="#FFF3C2"/>
<path d="M176.085 133.152L176.508 134.278L175.55 135.376C174.649 136.784 174.03 140.275 173.692 145.85L173.467 146.103C173.279 145.803 173.138 144.461 173.044 142.077L172.875 138.53C172.875 137.46 173.185 136.277 173.805 134.982C174.424 133.687 175.006 132.964 175.55 132.814C175.776 132.758 175.954 132.87 176.085 133.152Z" fill="#DBD2A9"/>
<path d="M137.907 93.1147C138.657 94.6163 139.915 95.9302 141.679 97.0564C142.993 97.9199 145.067 98.9241 147.902 100.069L153.589 102.322C155.072 102.978 156.264 103.748 157.165 104.63C159.849 107.296 163.34 111.003 167.639 115.752C172.031 120.594 174.753 123.767 175.804 125.268C176.874 126.789 177.559 128.375 177.859 130.027C178.141 131.66 178 133.124 177.437 134.419C176.724 136.071 174.865 137.084 171.862 137.46L161.332 137.769C159.117 137.244 157.503 135.695 156.489 133.124C154.5 127.999 152.472 123.213 150.408 118.764C147.273 112.026 144.983 108.215 143.538 107.333C141.567 106.151 139.258 105.062 136.611 104.067L128.503 101.364C127.02 100.876 126.1 99.5341 125.743 97.338C125.462 95.5548 125.565 93.6214 126.053 91.5379C126.372 90.1677 126.879 89.1259 127.573 88.4127C128.249 87.7369 129.056 87.4178 129.995 87.4554C133.449 87.5868 136.086 89.4732 137.907 93.1147Z" fill="#0D131A"/>
<path d="M147.536 100.998C149.769 101.918 151.374 102.603 152.35 103.054C153.983 103.842 155.11 104.555 155.729 105.193C158.676 108.122 162.195 111.782 166.287 116.174C170.811 121.017 173.57 124.133 174.565 125.522C175.541 126.892 176.17 128.29 176.451 129.717C176.714 131.125 176.602 132.392 176.114 133.518C175.363 135.207 173.908 136.202 171.749 136.502C166.926 137.103 163.528 137.037 161.557 136.305C159.812 135.648 158.469 134.118 157.531 131.716C155.992 127.868 154.293 123.954 152.435 119.975C148.699 112.035 145.893 107.54 144.016 106.488C140.3 104.349 135.466 102.321 129.516 100.407C128.352 100.013 127.527 98.8959 127.039 97.0564C126.607 95.3295 126.597 93.5557 127.01 91.735C127.198 90.9279 127.461 90.2428 127.799 89.6796C128.381 88.7411 129.066 88.3282 129.854 88.4408C131.468 88.666 132.839 89.2948 133.965 90.3272C134.659 90.9654 135.673 92.2512 137.006 94.1845L138.075 95.7049C138.695 96.5871 139.924 97.4975 141.764 98.436C142.834 98.9991 144.758 99.8532 147.536 100.998Z" fill="#E73820"/>
<path d="M168.342 135.855C172.115 135.273 174.828 134.128 176.479 132.42L176.113 133.518C175.363 135.207 173.908 136.202 171.749 136.502L163.584 136.784C161.745 136.54 160.337 135.902 159.361 134.869C163.152 135.864 166.146 136.193 168.342 135.855Z" fill="#C82E19"/>
<path d="M129.854 88.4408C131.074 88.6097 132.125 88.9945 133.007 89.5952C133.758 90.0832 134.528 90.8246 135.316 91.8195C135.429 95.7237 136.32 99.6185 137.991 103.504C135.588 102.49 132.763 101.458 129.516 100.407C128.352 100.013 127.527 98.8959 127.039 97.0564C126.607 95.3295 126.597 93.5557 127.01 91.735C127.198 90.9279 127.461 90.2428 127.799 89.6796C128.381 88.7411 129.066 88.3282 129.854 88.4408Z" fill="#C82E19"/>
<path d="M173.016 130.252C173.654 131.359 173.955 133.218 173.917 135.827C173.88 138.849 173.345 141.72 172.312 144.442L171.411 146.188C170.98 146.845 170.642 147.164 170.398 147.145C170.154 147.126 169.825 146.648 169.412 145.709L167.779 140.979C166.935 138.332 166.493 136.652 166.456 135.939C166.437 135.188 167.094 134.072 168.427 132.589C169.741 131.125 170.839 130.261 171.721 129.998C172.378 129.811 172.81 129.895 173.016 130.252Z" fill="#0D131A"/>
<path d="M172.256 130.984C172.782 131.904 172.96 134.043 172.791 137.403C172.641 140.913 172.162 143.344 171.355 144.696L170.736 145.484L170.51 145.597L170.201 145.202L168.68 140.5C167.892 137.891 167.488 136.239 167.47 135.545C167.432 135.038 167.948 134.203 169.018 133.039C170.107 131.857 171.036 131.153 171.806 130.927L172.256 130.984Z" fill="#FFF3C2"/>
<path d="M167.469 135.545C167.451 135.188 167.798 134.55 168.511 133.63C168.68 135.132 169.037 137.14 169.581 139.656C170.088 142.04 170.548 143.907 170.961 145.259L170.623 145.568L170.51 145.597L170.201 145.202L168.68 140.5C167.892 137.891 167.488 136.24 167.469 135.545Z" fill="#DBD2A9"/>
<path d="M162.289 128.225C163.171 128.074 163.763 128.281 164.063 128.844C164.645 129.895 164.805 131.866 164.542 134.757C164.204 138.323 163.171 141.458 161.445 144.161C161.294 144.405 161.079 144.452 160.797 144.301C160.215 144.039 159.474 142.18 158.573 138.727C157.728 135.498 157.343 133.574 157.418 132.955C157.493 132.392 158.094 131.528 159.22 130.364C160.422 129.107 161.445 128.394 162.289 128.225Z" fill="#0D131A"/>
<path d="M163.303 129.773C163.491 130.111 163.584 130.928 163.584 132.223C163.584 134.025 163.387 135.808 162.993 137.572C162.505 139.787 161.792 141.486 160.853 142.668C160.478 142.124 159.962 140.529 159.305 137.882C158.648 135.31 158.319 133.63 158.319 132.842L158.347 132.673C158.404 132.298 158.864 131.697 159.727 130.871C160.684 129.951 161.52 129.426 162.233 129.295C162.74 129.219 163.096 129.379 163.303 129.773Z" fill="#FFF3C2"/>
<path d="M158.347 132.673C158.385 132.373 158.779 131.829 159.53 131.04C159.793 133.011 160.103 134.954 160.459 136.868C160.891 139.252 161.266 140.801 161.585 141.514L160.853 142.668C160.478 142.124 159.962 140.529 159.305 137.882C158.648 135.31 158.319 133.63 158.319 132.842L158.347 132.673Z" fill="#DBD2A9"/>
<path d="M129.46 167.389C129.573 166.732 130.276 165.925 131.572 164.968C132.792 164.048 133.608 163.616 134.021 163.672C134.453 163.747 135.71 164.357 137.794 165.502C140.065 166.76 141.304 167.661 141.51 168.205C141.604 168.412 141.586 168.59 141.454 168.74C141.098 169.172 139.399 169.313 136.358 169.163L130.333 168.487C129.92 168.393 129.648 168.205 129.516 167.924C129.422 167.736 129.404 167.558 129.46 167.389Z" fill="#0D131A"/>
<path d="M130.164 167.558C130.183 167.145 130.746 166.526 131.853 165.7C132.886 164.911 133.59 164.489 133.965 164.433C134.378 164.526 135.514 165.09 137.372 166.122C139.268 167.173 140.216 167.793 140.216 167.98L136.274 168.234L130.502 167.755C130.277 167.717 130.164 167.652 130.164 167.558Z" fill="#FFF3C2"/>
<path d="M130.502 167.755C130.277 167.717 130.164 167.652 130.164 167.558C130.183 167.107 130.793 166.45 131.994 165.587C134.528 166.432 137.259 167.22 140.187 167.952L140.216 167.98L136.274 168.234L130.502 167.755Z" fill="#DBD2A9"/>
<path d="M120.816 126.113L122.365 125.916C122.721 125.897 122.937 125.991 123.012 126.197L125.518 133.152C126.438 135.292 127.677 137.253 129.235 139.036C132.426 142.64 134.303 145.475 134.866 147.539C135.823 150.955 134.969 155.188 132.304 160.237C132.21 160.425 132.275 160.679 132.501 160.998L133.458 162.068C134.922 163.532 135.795 164.564 136.076 165.165C136.358 165.784 136.395 166.375 136.189 166.938L135.119 168.515C133.974 169.942 131.787 170.965 128.559 171.584L121.689 171.809L113.833 170.373C108.578 169.303 105.725 168.449 105.274 167.811C104.786 167.117 104.842 165.906 105.443 164.179C105.894 162.884 106.438 161.73 107.076 160.716C107.508 160.04 107.771 159.449 107.865 158.942C107.958 158.379 107.883 157.807 107.639 157.225C107.208 156.286 105.865 155.301 103.613 154.268C102.224 153.649 99.5399 152.645 95.5605 151.256L95.7858 150.749L96.1518 149.792C96.3583 147.896 99.7839 143.616 106.429 136.953C113.299 130.064 118.094 126.451 120.816 126.113Z" fill="#0D131A"/>
<path d="M121.886 127.549C122.937 130.533 123.923 132.936 124.842 134.757C125.931 136.915 127.189 138.839 128.615 140.529C131.374 143.776 132.998 146.451 133.486 148.553C134.162 151.481 133.477 155.244 131.431 159.843C131.224 160.312 131.28 160.819 131.6 161.364C131.769 161.664 132.153 162.124 132.754 162.743C133.58 163.569 134.096 164.217 134.303 164.686C134.791 165.737 134.678 166.694 133.965 167.558C132.951 168.815 131.008 169.773 128.136 170.43C125.527 171.03 123.444 171.171 121.886 170.852L112.398 168.881C108.925 168.093 107.048 167.464 106.766 166.995C106.504 166.563 106.766 165.099 107.555 162.602L108.85 158.379C108.85 157.872 108.747 157.356 108.54 156.831C107.47 154.428 103.669 152.1 97.1372 149.848C97.1935 148.384 100.366 144.47 106.654 138.107C113.186 131.5 117.832 127.849 120.591 127.155C121.266 126.986 121.698 127.117 121.886 127.549Z" fill="#E73820"/>
<path d="M120.591 127.155C121.267 126.986 121.698 127.117 121.886 127.549C122.731 129.951 123.519 131.941 124.251 133.518C125.096 135.339 126.006 136.972 126.982 138.417C123.66 140.407 120.807 142.894 118.423 145.878C115.476 149.595 114.453 152.87 115.354 155.704C115.804 157.093 115.832 158.313 115.438 159.365C115.157 160.134 114.556 160.988 113.636 161.927C112.585 162.997 112.097 163.935 112.172 164.742C112.229 165.531 112.829 166.169 113.974 166.657L117.55 167.868L120.168 168.459L122.365 168.909C122.853 169.059 123.434 169.369 124.11 169.838L124.87 170.937L121.886 170.852L115.664 169.557L109.864 168.262L109.329 168.093H109.3C107.799 167.661 106.954 167.295 106.766 166.995C106.504 166.563 106.766 165.099 107.555 162.602L108.85 158.379C108.85 157.872 108.747 157.356 108.54 156.831C107.47 154.428 103.669 152.1 97.1372 149.848C97.1935 148.384 100.366 144.47 106.654 138.107C113.186 131.5 117.832 127.849 120.591 127.155Z" fill="#C82E19"/>
<path d="M129.009 168.346C129.441 167.558 130.229 166.676 131.374 165.7C132.613 164.667 133.467 164.264 133.936 164.489C134.331 164.677 135.354 165.512 137.005 166.995C138.92 168.722 139.999 169.97 140.243 170.739C140.337 171.04 140.29 171.246 140.103 171.359C139.596 171.678 137.991 171.706 135.288 171.443C132.435 171.162 130.502 170.711 129.488 170.092L129.066 169.895C128.859 169.782 128.756 169.651 128.756 169.501C128.756 169.05 128.84 168.665 129.009 168.346Z" fill="#0D131A"/>
<path d="M129.882 169.388C129.882 169.2 130.013 168.872 130.276 168.402C130.745 167.67 131.365 166.938 132.134 166.206C132.866 165.512 133.364 165.165 133.627 165.165C134.021 165.371 135.016 166.244 136.611 167.783C138.263 169.36 139.061 170.242 139.004 170.43L135.119 170.542C132.51 170.355 130.764 169.998 129.882 169.472V169.388Z" fill="#FFF3C2"/>
<path d="M134.809 170.542C132.369 170.336 130.727 169.979 129.882 169.472V169.388C129.882 169.2 130.013 168.872 130.276 168.403L130.67 167.868C133.298 168.881 136.048 169.754 138.92 170.486C138.451 170.693 137.08 170.711 134.809 170.542Z" fill="#DBD2A9"/>
<path d="M127.292 165.84C128.569 166.366 129.751 167.276 130.84 168.571C131.722 169.623 132.37 170.692 132.783 171.781L133.036 172.738C133.036 172.907 132.961 173.02 132.811 173.076C132.172 173.358 130.239 173.217 127.011 172.654C124.101 172.147 122.337 171.762 121.717 171.5C121.286 171.293 121.07 171.087 121.07 170.88C121.089 170.355 121.83 169.435 123.294 168.121C124.627 166.92 125.565 166.197 126.11 165.953L126.898 165.7L127.292 165.84Z" fill="#0D131A"/>
<path d="M129.938 169.078L131.458 171.105C131.815 171.706 131.918 172.053 131.768 172.147L127.263 171.781C124.729 171.349 123.068 170.993 122.28 170.711C122.411 170.336 123.021 169.594 124.11 168.487C125.199 167.398 125.94 166.788 126.334 166.657C126.653 166.544 127.16 166.723 127.855 167.192C128.512 167.642 129.206 168.271 129.938 169.078Z" fill="#FFF3C2"/>
<path d="M122.28 170.711C122.336 170.524 122.571 170.186 122.984 169.698C127.357 170.768 130.248 171.368 131.656 171.5C131.825 171.856 131.862 172.072 131.768 172.147L127.263 171.781C124.729 171.349 123.068 170.993 122.28 170.711Z" fill="#DBD2A9"/>
<path d="M144.635 19.2908C144.917 18.8403 145.752 18.6808 147.141 18.8122C148.511 18.9248 149.656 19.2439 150.576 19.7695C152.153 20.6329 152.941 21.7779 152.941 23.2044C152.941 23.7675 152.678 24.5371 152.153 25.5132L147.845 33.1152L144.692 38.4647C146.982 41.4492 148.906 44.781 150.464 48.46C152.209 52.5707 153.082 56.2403 153.082 59.4688C153.082 61.7588 152.312 64.0393 150.773 66.3106C149.347 68.4128 146.794 71.1627 143.115 74.5601C134.818 82.2372 130.67 88.9195 130.67 94.6069V94.8603C130.464 96.1742 130.37 97.7321 130.389 99.5341L130.332 103.898C130.107 107.239 129.441 111.303 128.333 116.09C127.32 120.463 126.184 124.395 124.927 127.887C122.299 135.132 118.685 140.697 114.087 144.583C107.874 149.82 99.4739 152.504 88.8874 152.635L68.1087 151.988C62.853 151.124 56.6494 148.769 49.4978 144.921C33.0926 136.099 24.5145 124.358 23.7637 109.698C23.4634 103.973 24.0452 98.0982 25.5093 92.0729C26.7669 86.8172 28.8223 80.9608 31.6754 74.5038L31.8443 74.1378L32.2385 74.2223C33.6087 74.5226 34.5003 74.9637 34.9133 75.5456L36.8279 74.5038L36.4618 75.6582C35.7298 78.0984 35.5139 81.4864 35.8143 85.8223C36.2272 92.148 37.9447 97.4694 40.9667 101.787C43.4069 105.259 46.3914 107.878 49.9202 109.642C53.5804 111.481 58.0759 112.533 63.4067 112.795C64.2701 112.852 65.6404 112.242 67.5174 110.965C68.8876 110.045 70.7459 108.591 73.0922 106.601C77.3531 103.016 83.3596 99.0179 91.1117 94.6069C92.313 93.8936 94.4247 92.9739 97.4467 91.8476C101.726 90.2334 104.795 88.7411 106.654 87.3709C109.751 85.0434 111.919 81.8243 113.158 77.7136C112.895 77.9388 112.51 78.0233 112.003 77.967C111.459 77.9294 110.914 77.7511 110.37 77.432C108.174 76.1556 106.41 74.6728 105.077 72.9834C103.613 71.1252 102.881 69.2294 102.881 67.296C102.881 65.5879 103.463 63.9361 104.626 62.3406C105.734 60.839 107.32 59.45 109.385 58.1736C107.489 55.4519 106.184 53.0587 105.471 50.9939C104.889 49.3046 104.739 48.0095 105.021 47.1085C105.509 45.513 106.729 44.3117 108.681 43.5046C109.281 43.2418 109.704 42.979 109.948 42.7162L110.398 41.7871C111.112 39.7411 112.266 38.1269 113.861 36.9443C115.814 35.499 119.84 33.4624 125.94 30.8346C129.807 29.164 133.955 26.874 138.385 23.9646C142.158 21.4869 144.241 19.929 144.635 19.2908Z" fill="#0D131A"/>
<path d="M150.379 21.4025C151.036 21.9844 151.365 22.6507 151.365 23.4015C151.365 23.9271 151.215 24.4621 150.914 25.0064L146.409 33.0307L143.791 37.423L142.13 35.79L141.482 35.8181C141.445 36.1748 141.576 36.5408 141.876 36.9162C142.533 37.7045 143.763 39.6097 145.565 42.6318C147.874 46.5172 149.45 49.6988 150.295 52.1765C151.196 54.8231 151.646 57.0192 151.646 58.7649C151.646 61.0173 150.942 63.251 149.535 65.4659C148.127 67.7183 145.706 70.4307 142.271 73.6029C139.005 76.6249 136.32 79.6563 134.218 82.6971C131.196 87.0331 129.685 91.003 129.685 94.6069L129.713 94.7477C129.319 97.2066 128.991 100.426 128.728 104.405C128.427 108.929 128.043 112.411 127.573 114.851C126.785 118.849 125.415 122.847 123.463 126.845L122.59 128.703C119.718 134.991 116.64 139.675 113.355 142.753C107.461 148.271 99.568 151.087 89.676 151.2C71.7316 151.425 58.2638 148.647 49.2728 142.865L48.7942 142.556C42.356 138.426 37.5414 134.522 34.3504 130.843C28.6067 124.255 25.5096 116.587 25.0591 107.84L24.9746 104.743C24.9746 99.9001 25.6503 94.9823 27.0018 89.9894C28.128 85.7848 29.9675 80.7919 32.5203 75.0106C33.4964 75.9304 34.5287 76.1462 35.6174 75.6582C34.9229 78.9618 34.5756 81.7117 34.5756 83.9078C34.5756 87.2489 34.9229 90.4305 35.6174 93.4525C36.4996 97.2817 37.898 100.557 39.8126 103.279C42.2527 106.751 45.9411 109.567 50.8777 111.725C55.7017 113.828 60.1315 114.644 64.1671 114.175C65.2746 114.062 66.5603 113.537 68.0244 112.598C69.3196 111.791 71.0465 110.477 73.205 108.657C76.2083 106.122 78.7423 104.077 80.807 102.519C84.2983 99.9283 87.8928 97.5726 91.5906 95.4516C92.8107 94.7383 94.8848 93.8373 97.813 92.7486C102.074 91.1719 105.19 89.6609 107.161 88.2156C110.427 85.7942 112.717 82.4625 114.031 78.2204C114.087 78.089 114.068 77.8637 113.974 77.5446L113.89 76.8407L114.706 75.8271L113.636 76.5029C113.017 76.8971 112.182 76.8971 111.131 76.5029C109.404 75.8459 107.836 74.6071 106.429 72.7863C104.964 70.9093 104.232 69.1167 104.232 67.4086C104.232 65.7944 104.674 64.2928 105.556 62.9038C106.569 61.2895 108.09 59.9474 110.117 58.8775C111.037 58.3707 111.543 57.9859 111.637 57.7231C111.712 57.4603 111.572 57.404 111.215 57.5542L110.23 57.8076L109.047 55.9775C107.958 54.2506 107.198 52.8616 106.766 51.8105C106.034 50.0461 105.856 48.5726 106.231 47.3901C106.682 46.001 107.63 45.0062 109.075 44.4056C109.845 44.0865 110.398 43.7204 110.736 43.3075C110.962 43.0447 111.159 42.6505 111.328 42.125C111.741 40.9424 112.613 39.8068 113.946 38.7181C116.292 36.8036 120.431 34.476 126.363 31.7356C130.286 29.9148 134.471 27.6061 138.92 24.8093C143.012 22.2378 145.255 20.6048 145.649 19.9102L145.621 19.9666L147.564 20.051C148.746 20.3326 149.685 20.7831 150.379 21.4025Z" fill="#E73820"/>
<path d="M151.364 23.4015C151.364 23.9271 151.214 24.4621 150.914 25.0064L146.409 33.0307L143.791 37.423L142.129 35.79L141.482 35.8181C141.444 36.1748 141.576 36.5408 141.876 36.9162C142.533 37.7045 143.762 39.6097 145.564 42.6318C147.873 46.5172 149.45 49.6988 150.295 52.1765C151.196 54.8231 151.646 57.0192 151.646 58.7649C151.646 61.0173 150.942 63.251 149.534 65.4659C148.127 67.7183 145.705 70.4307 142.27 73.6028C139.004 76.6249 136.32 79.6563 134.218 82.6971C131.196 87.033 129.685 91.003 129.685 94.6069L129.713 94.7477L129.6 95.4797C128.793 94.4286 127.967 93.0114 127.123 91.2282L125.067 86.9204C123.303 83.6168 120.844 81.4489 117.69 80.4165C117.953 80.2476 118.704 80.0786 119.943 79.9097C121.276 79.7408 122.261 79.5061 122.899 79.2058L125.49 77.6854C126.972 76.7281 128.136 76.1838 128.981 76.0524L134.302 75.7145C137.137 75.3203 139.633 74.1941 141.792 72.3358C144.119 70.365 145.639 67.3711 146.353 63.3542C146.878 60.4261 146.963 57.0568 146.606 53.2464C146.437 51.3881 145.001 47.7561 142.298 42.3502C139.99 37.7327 139.182 35.0579 139.877 34.3259L144.579 28.6948C146.869 25.6164 148.436 22.9417 149.281 20.6704C149.713 20.8957 150.079 21.1397 150.379 21.4025C151.036 21.9844 151.364 22.6507 151.364 23.4015Z" fill="#C82E19"/>
<path d="M117.606 97.9292C120.253 96.6716 122.496 96.2305 124.336 96.6059C125.725 96.8875 126.87 97.6289 127.771 98.8302C128.897 100.332 129.451 102.368 129.432 104.94C129.394 107.474 128.765 111.19 127.545 116.09C126.55 120.031 125.452 123.738 124.251 127.211L123.801 128.225C121.098 134.7 118.038 139.59 114.622 142.894C108.484 148.881 100.169 151.941 89.6761 152.072C71.5627 152.298 57.9355 149.473 48.7943 143.597L48.3156 143.288C41.7836 139.083 36.8939 135.113 33.6466 131.378C27.809 124.658 24.6556 116.831 24.1863 107.896C24.055 105.4 24.299 101.937 24.9184 97.5069C25.2938 94.879 25.7161 92.4013 26.1854 90.0738L26.9174 90.2146C25.9601 95.6955 26.6077 101.552 28.8602 107.784C31.1126 113.997 34.5007 119.28 39.0243 123.635C43.304 127.765 47.7619 130.608 52.3982 132.166C57.3348 133.856 62.5623 134.109 68.0808 132.927C76.1896 131.2 84.0544 127.417 91.6752 121.58C96.7244 117.713 101.774 112.805 106.823 106.855C110.427 102.612 114.021 99.6373 117.606 97.9292Z" fill="#0D131A"/>
<path d="M127.855 100.829C128.625 102.293 128.953 103.842 128.84 105.475C128.709 107.296 128.183 110.252 127.264 114.344C126.137 119.28 124.908 123.476 123.575 126.929L123.125 127.943C120.459 134.306 117.466 139.102 114.143 142.33C108.118 148.206 99.9622 151.209 89.676 151.34C71.694 151.528 58.1981 148.741 49.1884 142.978L48.7097 142.668C42.2715 138.539 37.4475 134.625 34.2378 130.927C28.4753 124.32 25.3688 116.624 24.9183 107.84L24.8901 106.545C24.8901 104.048 25.2092 100.642 25.8474 96.3243C25.7723 101.374 26.861 106.46 29.1135 111.585C31.3284 116.596 34.3504 120.951 38.1795 124.649C42.478 128.778 47.255 131.669 52.5107 133.321C57.9353 134.991 63.5195 135.226 69.2633 134.025C77.3345 132.298 85.2462 128.337 92.9984 122.143C96.9965 118.933 102.13 113.912 108.399 107.08C111.253 103.964 113.139 102.059 114.059 101.364C117.663 98.6425 120.91 97.4787 123.801 97.8729C125.565 98.0981 126.916 99.0836 127.855 100.829Z" fill="#FFF3C2"/>
<path d="M49.1884 142.978L48.7098 142.668L43.3602 139.064C41.1078 137.45 39.0994 135.808 37.335 134.137C40.6198 136.577 44.768 138.877 49.7797 141.035C56.0865 143.776 62.5717 145.7 69.2352 146.807C87.311 149.867 103.716 146.62 118.451 137.065C112.257 146.432 102.665 151.19 89.6761 151.34C71.6941 151.528 58.1982 148.741 49.1884 142.978Z" fill="#DBD2A9"/>
<path d="M135.203 72.8145L127.939 72.5048L121.182 72.1388C120.394 72.3077 119.333 72.852 118 73.7718C116.705 74.654 115.532 75.6207 114.481 76.6718C114.143 77.0097 114.171 77.5071 114.565 78.164C114.922 78.7647 115.363 79.1776 115.889 79.4029C116.771 79.7971 117.991 79.9003 119.549 79.7126C120.957 79.5437 122.299 79.187 123.575 78.6427C124.345 78.3048 124.73 78.2391 124.73 78.4456C124.73 78.6333 124.429 78.8679 123.829 79.1495C122.271 79.8815 120.656 80.3602 118.986 80.5854L115.466 80.4165C114.641 80.0223 114.002 79.4217 113.552 78.6145L113.129 77.4602L111.891 77.0097C111.196 76.7281 111.149 76.653 111.75 76.7844C112.557 76.9534 113.317 76.7281 114.03 76.1087L116.733 73.5465C118.254 72.2702 119.699 71.5193 121.069 71.2941L128.446 71.6883L134.95 72.0824C136.208 71.6883 137.231 71.1533 138.019 70.4776C138.563 70.0271 138.901 69.8675 139.033 69.9989C139.145 70.1116 138.976 70.4213 138.526 70.9281C137.606 71.9417 136.499 72.5705 135.203 72.8145Z" fill="#0D131A"/>
<path d="M121.041 79.7689L121.463 79.6281L121.97 79.5718L123.688 80.8106C124.082 81.0734 124.26 81.2518 124.223 81.3456L123.603 81.2893C123.284 81.1767 122.843 80.9514 122.28 80.6136L121.041 79.7689Z" fill="#0D131A"/>
<path d="M109.835 51.1347C109.685 50.8344 109.676 50.5998 109.807 50.4308C109.939 50.2431 110.136 50.3182 110.399 50.6561C111.168 51.5571 111.562 52.6645 111.581 53.9784C111.6 54.6354 111.506 54.9357 111.3 54.8794C111.093 54.8231 110.943 54.5509 110.849 54.0629C110.736 53.2746 110.399 52.2985 109.835 51.1347Z" fill="#0D131A"/>
<path d="M119.521 53.2182C119.333 52.7115 119.267 52.0545 119.324 51.2474C119.38 50.2338 119.624 49.3797 120.056 48.6852C120.769 47.6153 120.975 47.7655 120.675 49.1357C120.469 49.9241 120.328 51.2567 120.253 53.1338C120.215 53.7532 120.112 54.0348 119.943 53.9784C119.812 53.9221 119.671 53.6687 119.521 53.2182Z" fill="#0D131A"/>
<path d="M112.651 70.2805C112.839 69.7362 113.064 69.3514 113.327 69.1261C113.571 68.9009 113.824 68.8633 114.087 69.0135C114.369 69.1637 114.359 69.3889 114.059 69.6892C113.815 69.9332 113.627 70.2899 113.496 70.7591L113.186 71.7446L112.792 72.1951C112.66 72.2138 112.548 72.0449 112.454 71.6883C112.36 71.3316 112.426 70.8624 112.651 70.2805Z" fill="#0D131A"/>
<path d="M128.869 61.4678C126.56 61.3176 124.655 60.8202 123.153 59.9756L122.365 60.06C122.252 59.985 122.243 59.8254 122.336 59.5814L122.534 59.2717C123.547 57.3571 125.593 55.2548 128.671 52.9648C131.525 50.8438 134.059 49.4079 136.273 48.657C137.325 48.2816 137.878 48.169 137.935 48.3192L137.4 48.9668L136.555 49.6425L136.133 49.8959C136.996 50.7218 137.747 51.9512 138.385 53.5843C138.798 54.6917 138.995 55.8086 138.976 56.9348C138.939 58.0422 138.714 58.9526 138.301 59.6659L138.695 59.9756C138.807 60.2196 138.526 60.4167 137.85 60.5668C134.49 61.3552 131.496 61.6555 128.869 61.4678Z" fill="#0D131A"/>
<path d="M135.203 50.3464C135.504 50.4778 135.842 50.8156 136.217 51.36C136.649 51.9794 137.024 52.7208 137.343 53.5843C137.85 54.8794 138.103 56.0995 138.103 57.2445C138.103 58.2018 137.916 59.0277 137.54 59.7222C134.556 60.5856 131.656 60.9047 128.84 60.6795C126.682 60.4918 124.87 60.0413 123.406 59.328C124.457 57.8076 126.494 55.9399 129.516 53.725C132.35 51.6415 134.246 50.5153 135.203 50.3464Z" fill="white"/>
<path d="M131.628 51.6134L131.825 51.5007C132.838 52.4393 133.542 53.8095 133.936 55.6114C134.387 57.5636 134.274 59.328 133.599 60.9047L133.43 61.1862H133.289L126.278 60.9047H126.25L126.222 60.8765L124.392 60.1163C123.753 59.8535 123.312 59.45 123.068 58.9056L124.279 57.3008L124.364 57.2163C125.509 56.015 127.723 54.2975 131.008 52.0638L131.628 51.6134Z" fill="#0D131A"/>
<path d="M131.684 52.1765C132.904 53.8846 133.514 55.7898 133.514 57.8921C133.514 58.8118 133.364 59.7503 133.064 60.7076C131.412 60.8953 129.816 60.9329 128.277 60.8202C126.757 60.7076 125.659 60.4918 124.983 60.1727L123.969 59.7222C123.632 59.5157 123.519 59.3374 123.632 59.1872C124.232 58.2675 125.518 56.9817 127.489 55.3299C129.253 53.8283 130.652 52.7771 131.684 52.1765Z" fill="#3D62AC"/>
<path d="M128.784 53.5843C129.891 54.7293 130.276 56.1933 129.938 57.9765C129.619 59.7222 128.934 60.595 127.883 60.595C126.419 60.595 125.452 59.328 124.983 56.794L127.432 54.6823L128.784 53.5843Z" fill="#0D131A"/>
<path d="M55.7767 29.6239C52.1916 33.4155 51.1217 35.8369 52.567 36.888L53.0175 36.8317L53.4117 36.3812C53.8809 35.4239 54.3408 34.8233 54.7913 34.5793L57.1 34.4666L57.4098 34.6356L57.1845 34.9171C56.5275 35.3489 55.833 36.0997 55.101 37.1696L53.2427 40.323L52.7359 41.1958C51.4596 43.5046 51.0091 44.9687 51.3845 45.5881C51.6473 46.0761 52.0602 46.1043 52.6233 45.6725C53.0926 45.3159 53.4398 44.856 53.6651 44.2929C53.9091 43.6172 54.1062 43.2981 54.2563 43.3356C54.3877 43.3544 54.4534 43.6923 54.4534 44.3492C54.4534 46.3389 54.1156 47.8781 53.4398 48.9667C52.8204 49.9803 51.6473 50.9658 49.9204 51.9231C49.2071 52.2985 48.7003 53.237 48.4 54.7386C48.3249 55.1516 48.3531 55.3862 48.4845 55.4425C48.6346 55.5364 48.8974 55.3768 49.2728 54.9639C49.9673 54.2318 50.5492 53.7156 51.0184 53.4153C51.8819 52.871 52.9612 52.5331 54.2563 52.4017C54.5379 52.4017 54.6505 52.458 54.5942 52.5707L53.7495 53.6687C52.7735 54.8137 51.957 56.1089 51.3 57.5542C50.5117 59.2623 50.0612 60.9798 49.9485 62.7066C49.5919 67.7934 48.1466 71.1908 45.6126 72.8989C44.4301 73.7061 42.4122 74.2129 39.5591 74.4193C38.3391 74.5132 37.4381 74.7666 36.8562 75.1795C35.9177 75.8553 34.9323 76.0993 33.8999 75.9116C33.1303 75.7427 32.5203 75.3579 32.0698 74.7572C31.8258 74.2504 31.3753 73.6216 30.7183 72.8708C29.8736 71.876 28.372 70.8248 26.2134 69.7174C24.8057 68.9853 23.6794 67.8216 22.8348 66.2261C22.0839 64.8183 21.6241 63.2416 21.4551 61.496C21.2674 59.5063 21.5302 57.6574 22.2435 55.9493C22.938 54.26 23.9891 52.8522 25.3969 51.726C27.9497 49.6988 29.7235 47.8124 30.7183 46.0667C31.4691 44.7528 31.8821 43.2606 31.9572 41.59C31.9947 41.0457 32.0604 40.7453 32.1542 40.689L32.4358 40.9424C33.2054 42.0686 33.5902 43.589 33.5902 45.5036C33.928 44.2835 34.5099 42.9321 35.3358 41.4492C36.9876 38.5023 39.0336 36.4845 41.4737 35.3958C41.8304 35.2081 42.0368 35.1424 42.0931 35.1987C42.1682 35.2362 42.065 35.4239 41.7834 35.7618C41.1265 36.5314 40.554 37.5731 40.0659 38.8871C39.5967 40.1447 39.4747 40.8673 39.6999 41.055L39.9533 41.2521C40.141 41.2897 40.385 41.1489 40.6854 40.8298C41.7365 39.7787 42.5812 38.3896 43.2194 36.6628C43.989 34.6168 44.8055 33.087 45.6689 32.0734C46.645 30.9097 47.7993 30.2715 49.132 30.1588L49.5825 30.2152L49.301 30.5812C48.7379 31.1068 48.3718 31.7731 48.2029 32.5802C48.0715 33.2747 48.0997 33.8848 48.2874 34.4103C48.3812 34.6731 48.5595 34.7764 48.8223 34.72C49.1039 34.6825 49.3197 34.4666 49.4699 34.0725C50.2582 32.064 51.2719 30.4404 52.5107 29.2016C53.712 28.0003 55.9644 26.3203 59.268 24.1617C59.925 23.73 60.3098 23.5329 60.4224 23.5705C60.535 23.6268 60.3942 24.0116 60.0001 24.7248C59.5496 25.532 58.5735 26.7051 57.0719 28.2443L55.7767 29.6239Z" fill="#0D131A"/>
<path d="M59.5779 24.4433C59.1462 25.2316 58.1983 26.386 56.7342 27.9064L55.4109 29.2579C54.341 30.4216 53.5526 31.3695 53.0458 32.1016C52.0886 33.4718 51.6099 34.6356 51.6099 35.5929C51.6099 36.2123 51.807 36.7472 52.2012 37.1977C52.4452 37.4605 52.6704 37.5825 52.8769 37.5637C53.1022 37.545 53.4212 37.2447 53.8342 36.6628C54.2096 36.0809 54.5381 35.6773 54.8196 35.4521C55.2889 35.0579 55.8426 34.8702 56.4808 34.889C55.8614 35.3958 55.2138 36.156 54.5381 37.1696L52.7924 40.0696L52.3138 40.9706C51.1125 43.2042 50.5118 44.8091 50.5118 45.7852C50.5118 46.0479 50.5588 46.2732 50.6526 46.4609C50.8028 46.7049 51.0186 46.8269 51.3002 46.8269C51.8633 46.8269 52.4264 46.5548 52.9895 46.0104C53.4025 45.5975 53.731 45.1 53.975 44.5182C53.9374 45.7007 53.6559 46.8269 53.1303 47.8968C52.3983 49.3797 51.2439 50.581 49.6672 51.5007C49.0665 51.8386 48.5503 52.4674 48.1186 53.3872C47.7244 54.2131 47.5274 54.9545 47.5274 55.6114V55.6678C47.5649 56.0619 47.6775 56.3153 47.8652 56.428L48.5691 56.3153L49.639 55.3017C50.2021 54.6635 50.6902 54.2037 51.1031 53.9221C51.8164 53.4529 52.6798 53.1431 53.6934 52.993L53.3837 53.359C52.1636 54.748 51.2908 55.893 50.7652 56.794C49.883 58.3331 49.3762 59.9568 49.2448 61.6649C48.907 66.6015 47.5555 69.9989 45.1904 71.8572C43.8765 72.8896 41.9338 73.4996 39.3623 73.6873C37.992 73.7624 37.1567 73.9313 36.8564 74.1941C36.0868 74.8323 35.2985 75.0857 34.4913 74.9543C33.7968 74.8605 33.2525 74.5507 32.8583 74.0252L30.6903 71.463C29.7143 70.3931 28.1657 69.2763 26.0447 68.1125C25.2563 67.6808 24.5618 66.8643 23.9612 65.663C23.3418 64.4241 22.957 63.0445 22.8068 61.5241L22.7505 60.2571C22.7505 58.6053 23.0696 57.0849 23.7078 55.6959C24.3272 54.2881 25.2282 53.115 26.4107 52.1765C28.8696 50.2244 30.5402 48.3379 31.4224 46.5172C32.0043 45.3159 32.3421 43.8049 32.436 41.9842C32.8677 42.9415 33.0836 44.1146 33.0836 45.5036C33.0836 46.4609 33.0085 47.3243 32.8583 48.0939L32.802 48.9667C32.8208 49.3797 32.9991 49.1263 33.337 48.2065C33.6373 46.8363 34.1629 45.3253 34.9137 43.6735C36.4341 40.4075 38.3674 37.9955 40.7137 36.4375C40.1882 37.2447 39.7658 38.0705 39.4467 38.9152C39.1276 39.7599 38.9681 40.4638 38.9681 41.0269C38.9681 41.4398 39.0619 41.7308 39.2496 41.8997C39.6438 42.2563 40.2445 42.0123 41.0516 41.1677L42.4031 39.2812L43.6419 36.888C44.5429 35.1048 45.2561 33.8378 45.7817 33.087C46.6452 31.8669 47.5461 31.1067 48.4846 30.8064C47.9215 31.576 47.64 32.4394 47.64 33.3967C47.64 33.9035 47.7057 34.2977 47.8371 34.5793C48.0248 35.1424 48.3157 35.4239 48.7099 35.4239C49.1416 35.4427 49.5452 35.0579 49.9206 34.2695C50.8779 32.111 51.9947 30.3935 53.2711 29.1171C54.1158 28.2724 55.7206 27.0523 58.0857 25.4569L59.5779 24.4433Z" fill="#E50020"/>
<path d="M45.4717 39.3657C46.0348 38.9152 46.4196 38.7369 46.626 38.8308C46.7574 38.8683 46.6542 39.1029 46.3163 39.5346C45.4153 40.8673 44.9086 41.8903 44.7959 42.6036C44.7584 42.8852 44.8147 43.88 44.9649 45.5881C45.0963 47.2023 44.7865 48.7134 44.0357 50.1211C43.4726 51.1347 42.5998 52.1953 41.4173 53.3027C40.2347 54.4477 39.5215 55.5082 39.2774 56.4843C38.9959 57.573 39.0616 58.2862 39.4745 58.6241C39.8687 58.962 40.1409 58.8587 40.291 58.3144C40.6289 57.1506 41.0512 56.2121 41.558 55.4988C41.9898 54.8606 42.581 54.2788 43.3318 53.7532C43.6509 53.5467 43.8386 53.4435 43.895 53.4435C43.9888 53.4435 43.9794 53.5936 43.8668 53.894C42.8344 56.6532 42.581 58.2112 43.1066 58.5678C43.2755 58.6429 43.5477 58.5115 43.9231 58.1736C44.3548 57.7982 44.7396 57.3196 45.0775 56.7377C46.016 55.2173 46.4853 53.894 46.4853 52.7678C46.4853 51.9043 46.6448 51.8198 46.9639 52.5144C47.1141 52.8334 47.2079 53.3121 47.2455 53.9503C47.283 54.7386 47.2173 55.4801 47.0484 56.1746C46.6167 57.8264 45.2558 59.8911 42.9658 62.3688C41.2953 64.1707 40.5351 65.6536 40.6852 66.8174C40.7978 67.6433 41.1357 68.075 41.6988 68.1125C42.1681 68.1125 42.6843 67.8685 43.2474 67.3805C43.9231 66.7798 44.4674 65.9258 44.8804 64.8183C44.993 64.4992 45.0963 64.3303 45.1901 64.3115C45.284 64.274 45.3872 64.4148 45.4998 64.7339C46.0442 66.2355 45.9972 67.662 45.359 69.0135C44.6458 70.44 43.5383 71.2284 42.0367 71.3786C41.4548 71.4349 40.8354 71.632 40.1784 71.9698C39.5215 72.2889 38.949 72.6737 38.4609 73.1242L36.3774 74.5883C36.002 74.9074 35.5609 75.1045 35.0541 75.1796L33.7308 75.0951C33.2991 74.9825 32.7829 74.4663 32.1822 73.5465L31.4502 72.6456L30.5492 71.463L29.7609 69.8582C28.034 65.2782 28.0997 61.5054 29.958 58.5396C30.5586 57.6199 30.8214 57.526 30.7463 58.2581C30.7088 58.9526 30.812 59.5439 31.056 60.0319C31.3188 60.5387 31.6379 60.7545 32.0133 60.6795C32.2949 60.6231 32.5389 60.2571 32.7454 59.5814C32.9518 58.8681 33.0551 58.0235 33.0551 57.0474C33.0738 54.7011 33.9654 52.5237 35.7298 50.5153C37.1189 48.9386 38.2357 48.0845 39.0804 47.9532C39.3995 47.9344 39.437 48.0752 39.193 48.3755C38.0104 49.7833 37.2784 50.9846 36.9968 51.9794C36.7528 52.8053 36.8373 53.2558 37.2502 53.3309C37.8321 53.4059 38.4703 52.993 39.1648 52.092C39.8969 51.1347 40.7603 49.5486 41.7551 47.3337L42.6561 45.2502C42.8814 44.5933 43.0127 43.9175 43.0503 43.223C43.1254 41.7965 43.9325 40.5107 45.4717 39.3657Z" fill="#EFE908"/>
<path d="M57.973 124.705C58.6112 122.453 60.7229 121.495 64.308 121.833C67.3488 122.115 71.1029 123.279 75.5702 125.325C79.6059 127.183 83.2098 129.276 86.382 131.603C89.6292 133.968 91.3186 135.78 91.45 137.037C91.6752 139.346 89.8451 143.907 85.9596 150.721C82.3557 157.065 79.7279 160.894 78.0761 162.208C81.2858 166.019 82.7217 168.787 82.3839 170.514C82.2525 171.209 81.802 171.875 81.0324 172.513L78.5829 174.259C76.9123 175.404 73.0175 176.023 66.8983 176.117C61.0232 176.192 57.5413 175.845 56.4526 175.075C54.5381 173.705 53.4775 172.86 53.2711 172.541C52.295 171.152 52.417 169.275 53.6371 166.91C55.4766 163.306 56.4902 160.406 56.6779 158.21C56.828 156.183 56.2931 154.156 55.073 152.129C54.2096 150.683 53.5245 149.088 53.0177 147.342C52.1355 144.264 52.1636 141.552 53.1021 139.205L55.1293 134.053L57.973 124.705Z" fill="#E73820"/>
<path d="M81.7076 149.707C86.0436 143.982 88.2585 138.454 88.3523 133.124C90.3045 134.775 91.3368 136.08 91.4494 137.037C91.6747 139.346 89.8446 143.907 85.9591 150.721C82.3552 157.065 79.7274 160.894 78.0756 162.208C80.6096 165.212 82.0361 167.53 82.3552 169.163C82.618 170.458 82.1675 171.584 81.0037 172.541C78.7888 170.026 76.7616 168.074 74.9221 166.685C73.7396 165.784 71.9283 164.648 69.4881 163.278C67.7425 162.283 67.3765 161.345 68.3901 160.463C68.7467 160.162 70.2108 159.421 72.7823 158.238C75.3163 157.056 78.2914 154.212 81.7076 149.707Z" fill="#C82E19"/>
<path d="M57.494 124.593C57.9632 123.504 58.3105 123.025 58.5357 123.157C58.761 123.288 58.7328 123.842 58.4513 124.818L56.3114 131.575L53.5522 139.374C52.6324 141.664 52.6324 144.339 53.5522 147.399C54.0402 149.05 54.6878 150.543 55.4949 151.875C56.8088 154.053 57.3626 156.239 57.1561 158.435C56.9496 160.632 55.9266 163.532 54.0871 167.136C53.0735 169.088 52.8389 170.646 53.3833 171.809C53.7024 172.485 54.5376 173.255 55.8891 174.118L56.7338 174.681C57.7098 175.376 61.0603 175.695 66.7853 175.639C72.8106 175.582 76.6491 174.982 78.3009 173.837L79.0893 173.302C80.0278 172.682 80.666 172.213 81.0038 171.894C81.5294 171.387 81.8297 170.852 81.9048 170.289C82.0362 169.482 81.7922 168.487 81.1728 167.304C80.5346 166.084 79.4459 164.564 77.9067 162.743C76.574 163.457 75.7951 163.672 75.5698 163.391C75.4009 163.184 75.4009 163.006 75.5698 162.856L76.865 161.814C79.23 159.9 82.1113 156.305 85.5087 151.031C89.5256 144.799 91.3369 140.153 90.9427 137.094L91.9282 136.981L91.9845 137.882C91.9845 141.317 90.511 145.54 87.5641 150.552C84.9925 154.907 82.055 158.717 78.7514 161.983C80.3469 163.935 81.4919 165.465 82.1864 166.572C83.0686 167.943 83.5097 169.05 83.5097 169.895L83.2563 170.937C83.1437 171.65 82.7119 172.26 81.9611 172.767L79.6524 174.118L78.864 174.653C77.0996 175.873 73.1297 176.53 66.9542 176.624C60.9853 176.737 57.3907 176.352 56.1707 175.47L54.7066 174.991C53.2613 174.09 52.3603 173.264 52.0036 172.513C51.3279 171.143 51.5719 169.313 52.7357 167.023C54.5376 163.513 55.4198 160.369 55.3823 157.591C55.3635 155.376 54.7441 153.264 53.524 151.256C52.548 149.66 51.8629 148.206 51.4687 146.892C50.6428 144.151 50.7179 141.561 51.6939 139.121L57.494 124.593Z" fill="#0D131A"/>
<path d="M59.7751 168.346C60.7324 167.633 61.4269 167.464 61.8586 167.839C62.4592 168.309 63.0693 169.106 63.6887 170.233C64.4583 171.584 64.89 172.87 64.9838 174.09C65.0777 175.16 64.9369 176.295 64.5615 177.497C64.1673 178.811 63.5855 179.89 62.8159 180.735C62.6469 180.941 62.3935 181.007 62.0557 180.932C61.3612 180.8 60.2631 179.834 58.7615 178.032C57.4288 176.417 56.6123 175.244 56.3119 174.512C56.1055 173.968 56.4152 172.964 57.2411 171.5C58.067 170.036 58.9116 168.984 59.7751 168.346Z" fill="#0D131A"/>
<path d="M61.4922 168.994C62.0741 169.463 62.6185 170.101 63.1253 170.908C63.7822 171.978 64.1576 173.058 64.2515 174.146V174.625C64.2515 176.258 63.5945 177.797 62.2806 179.242C61.924 179.317 61.023 178.67 59.5777 177.3C58.1324 175.911 57.2783 174.897 57.0155 174.259C56.8841 173.959 57.1751 173.245 57.8883 172.119C58.6392 170.899 59.4369 169.979 60.2816 169.36C60.8447 168.947 61.2482 168.825 61.4922 168.994Z" fill="#FFF3C2"/>
<path d="M61.8303 177.553C62.0555 177.553 62.3934 177.375 62.8439 177.018C63.3507 176.624 63.7918 176.155 64.1672 175.61C63.9419 176.887 63.3131 178.097 62.2808 179.242C61.9241 179.318 61.0231 178.67 59.5778 177.3C58.1325 175.911 57.2785 174.897 57.0157 174.259C56.9031 174.015 57.1377 173.395 57.7196 172.401C58.3953 173.996 59.2306 175.319 60.2254 176.371C60.9762 177.159 61.5112 177.553 61.8303 177.553Z" fill="#DBD2A9"/>
<path d="M71.797 168.262C72.2662 167.98 72.9795 168.224 73.9368 168.994C74.8002 169.688 75.551 170.533 76.1892 171.528C76.9025 172.673 77.4281 174.418 77.7659 176.765C78.085 178.998 78.0756 180.247 77.7378 180.509C77.4375 180.772 76.9213 180.828 76.1892 180.678L74.5562 180.2C73.2235 179.73 71.8157 178.951 70.3329 177.863C68.9814 176.887 68.2118 176.155 68.0241 175.667C67.7989 175.141 68.1367 173.921 69.0377 172.006C69.9762 170.017 70.896 168.769 71.797 168.262Z" fill="#0D131A"/>
<path d="M73.7402 170.204C74.5285 170.805 75.1104 171.406 75.4858 172.006C76.2179 173.17 76.7153 174.493 76.9781 175.976C77.2221 177.384 77.1658 178.407 76.8091 179.045C76.7341 179.195 76.5464 179.28 76.246 179.299C75.2887 179.317 73.9185 178.801 72.1353 177.75C70.4835 176.812 69.4887 176.07 69.1508 175.526C68.8693 175.094 69.1414 174.062 69.9673 172.429C70.7745 170.852 71.4502 169.885 71.9945 169.529C72.3324 169.341 72.9143 169.566 73.7402 170.204Z" fill="#FFF3C2"/>
<path d="M69.7983 172.767C71.206 174.475 72.5481 175.789 73.8245 176.708C75.1947 177.684 76.2834 178.06 77.0905 177.835C77.053 178.36 76.9592 178.764 76.809 179.045C76.7339 179.195 76.5462 179.28 76.2459 179.299C75.2886 179.317 73.9184 178.801 72.1352 177.75C70.4834 176.812 69.4886 176.07 69.1507 175.526C68.8879 175.132 69.1038 174.212 69.7983 172.767Z" fill="#DBD2A9"/>
<path d="M81.2576 166.995C82.2149 166.938 83.5945 167.999 85.3964 170.176C87.2359 172.41 88.2214 174.278 88.3528 175.779C88.3716 175.986 88.2308 176.098 87.9304 176.117L87.3392 176.089C86.4382 176.183 84.7958 175.976 82.412 175.47C80.0469 174.982 78.7424 174.578 78.4983 174.259C78.3294 174.034 78.2637 173.527 78.3013 172.738C78.3388 171.988 78.4608 171.274 78.6673 170.599C78.9113 169.735 79.2116 168.994 79.5683 168.374C80.0938 167.492 80.6569 167.032 81.2576 166.995Z" fill="#0D131A"/>
<path d="M81.4544 167.98C81.7923 168.036 82.4868 168.656 83.5379 169.838C84.6829 171.096 85.5745 172.307 86.2127 173.47C86.5881 174.184 86.7758 174.691 86.7758 174.991L86.7477 175.16C86.4098 175.366 85.171 175.226 83.0311 174.737C80.9289 174.249 79.69 173.855 79.3146 173.555L79.2583 173.048C79.2583 172.053 79.4648 171.03 79.8777 169.979C80.2907 168.928 80.8162 168.262 81.4544 167.98Z" fill="#FFF3C2"/>
<path d="M79.54 171.021L79.8779 169.979C80.2909 168.928 80.8164 168.262 81.4546 167.98C81.7925 168.036 82.487 168.656 83.5381 169.838C84.6831 171.096 85.5747 172.307 86.2129 173.47C86.5883 174.184 86.776 174.691 86.776 174.991L86.7479 175.16C86.3349 175.385 84.9553 175.207 82.609 174.625C82.4776 174.249 82.1303 173.743 81.5672 173.104L79.54 171.021Z" fill="#DBD2A9"/>
<path d="M77.2029 143.598C77.2592 142.884 78.3572 142.593 80.4971 142.725C81.7359 142.781 82.7589 143.185 83.566 143.935C84.5233 144.818 85.0113 146.075 85.0301 147.708C85.0489 149.135 85.199 151.612 85.4806 155.141L85.9874 159.702C86.1 160.998 86.0062 161.72 85.7058 161.87C85.5369 161.964 85.2647 161.824 84.8893 161.448L84.1291 160.66C82.7214 159.346 81.2103 157.046 79.5961 153.762C77.7003 149.876 76.8744 146.723 77.1184 144.301L77.2029 143.598Z" fill="#0D131A"/>
<path d="M80.4412 143.457C81.2859 143.475 82.0367 143.72 82.6937 144.189C83.7448 144.921 84.2798 146.094 84.2985 147.708C84.3173 149.735 84.4675 152.232 84.749 155.198L85.0024 158.83L84.8617 159.787L84.4675 159.505C83.2474 158.36 81.9241 156.324 80.4975 153.396C78.8833 150.073 78.0762 147.267 78.0762 144.977L78.1325 144.132C78.1513 143.982 78.3671 143.832 78.7801 143.682L80.4412 143.457Z" fill="#FFF3C2"/>
<path d="M78.7801 143.682L80.4412 143.457C81.2859 143.475 82.0367 143.72 82.6937 144.189C83.7448 144.921 84.2798 146.094 84.2985 147.708C84.3173 149.735 84.4675 152.232 84.749 155.198L85.0024 158.83L84.918 159.674C84.6552 157.76 84.3079 155.845 83.8762 153.931C83.3882 151.772 82.9565 150.364 82.5811 149.707C82.2995 149.238 81.7552 148.741 80.948 148.215C80.1597 147.689 79.2587 147.23 78.2451 146.835C78.1325 146.197 78.0762 145.578 78.0762 144.977L78.1325 144.132C78.1513 143.982 78.3671 143.832 78.7801 143.682Z" fill="#DBD2A9"/>
<path d="M107.892 97.9292C104.758 99.825 102.064 101.486 99.8116 102.913C95.5132 105.653 92.8947 107.568 91.9562 108.656C91.5433 110.383 92.4067 114.86 94.5465 122.087C96.8177 129.726 97.9534 133.752 97.9534 134.165C97.9534 137 97.0242 139.9 95.166 142.865C92.463 147.145 88.6902 148.666 83.8474 147.427L80.6095 146.413C79.2581 145.944 78.1882 145.259 77.3998 144.358C75.1474 141.824 74.3402 136.577 74.9784 128.619C75.3914 123.57 75.8419 119.562 76.3299 116.596C76.9681 112.73 77.8128 109.642 78.8639 107.333C79.84 105.156 81.6419 103.232 84.2698 101.561C85.4523 100.81 87.517 99.7781 90.464 98.4642C91.9468 97.826 93.7769 96.3244 95.9543 93.9593C97.6061 92.1761 98.9106 90.5525 99.8679 89.0884C100.506 88.1123 102.073 87.3428 104.57 86.7796L110.398 86.5826C111.731 86.9767 111.984 88.7693 111.158 91.9603C110.351 95.0761 109.262 97.0658 107.892 97.9292Z" fill="#E73820"/>
<path d="M93.6739 127.464L93.871 119.722L96.5739 128.731C97.4749 131.753 97.9347 133.565 97.9535 134.165C97.9535 136.418 97.259 138.905 95.87 141.627C93.8991 145.493 91.1399 147.549 87.5923 147.793C90.5017 145.052 92.3412 140.838 93.1108 135.151C93.3923 133.142 93.58 130.58 93.6739 127.464Z" fill="#C82E19"/>
<path d="M103.416 86.1602C105.481 85.6159 107.827 85.5971 110.455 86.1039C111.168 86.2353 111.487 86.4324 111.412 86.6952C111.318 86.9579 110.811 87.0424 109.892 86.9486C107.902 86.7421 105.997 86.9016 104.176 87.4272C102.28 87.9715 100.919 88.7787 100.093 89.8486C98.2352 92.2512 96.7524 94.025 95.6449 95.17C93.918 96.9719 92.2568 98.2202 90.6614 98.9147L89.9856 99.2244C87.3766 100.388 85.4244 101.392 84.1293 102.237C81.8205 103.795 80.2157 105.559 79.3147 107.53C77.4001 111.735 76.1237 118.774 75.4855 128.647C75.3729 130.261 75.3166 131.716 75.3166 133.011C75.3166 137.948 76.0674 141.448 77.569 143.513C78.4512 144.714 80.028 145.672 82.2992 146.385L83.9603 146.948C87.1701 147.755 89.9012 147.286 92.1536 145.54C93.918 144.17 95.307 142.115 96.3206 139.374C97.0714 137.309 97.4469 135.573 97.4469 134.165C97.4469 133.64 96.7617 131.096 95.3915 126.535C92.5196 117.15 91.2151 111.153 91.4779 108.544C91.628 107.192 91.8627 106.62 92.1818 106.826C92.3507 106.939 92.5009 107.183 92.6323 107.558C93.6271 106.432 96.1423 104.593 100.178 102.04C103.5 99.9189 105.837 98.5205 107.189 97.8447C108.015 97.4318 108.493 97.291 108.625 97.4224C108.756 97.5538 108.446 97.9761 107.695 98.6894L100.572 103.363C96.3112 106.047 93.7209 107.887 92.8012 108.882C92.7824 110.346 93.186 112.964 94.0119 116.737C94.7815 120.172 95.6355 123.419 96.574 126.479L98.1507 131.772C98.6388 133.443 98.8828 134.503 98.8828 134.954C98.8828 136.362 98.4229 138.117 97.5032 140.219C96.3206 142.865 94.7721 144.94 92.8575 146.441C90.3986 148.356 87.3484 148.844 83.707 147.905L80.9477 147.342C78.3386 146.535 76.593 145.362 75.7108 143.823C74.2091 141.157 73.693 136.268 74.1622 129.154C74.5376 123.541 74.9787 119.13 75.4855 115.921C76.0674 112.204 76.837 109.295 77.7943 107.192C78.7516 105.09 80.5441 103.204 83.172 101.533C84.4484 100.707 86.5882 99.6373 89.5915 98.3234L90.2672 98.0418C92.2944 97.0282 94.1527 95.4234 95.842 93.2272L98.8546 88.9194C99.9996 87.5867 101.52 86.667 103.416 86.1602Z" fill="#0D131A"/>
<path d="M95.7012 135.996C96.7336 134.325 97.5501 133.621 98.1508 133.884C98.864 134.184 99.5022 134.869 100.065 135.939C100.535 136.84 100.891 137.891 101.135 139.093C102.168 144.386 102.233 148.299 101.332 150.833L100.488 152.635C100.131 153.18 99.8495 153.433 99.643 153.396C99.399 153.358 99.1174 152.936 98.7983 152.129L98.01 150.073C96.9025 147.408 95.476 145.137 93.7304 143.26L93.477 143.119C93.0077 142.725 93.1109 141.636 93.7867 139.853C94.3122 138.445 94.9504 137.159 95.7012 135.996Z" fill="#0D131A"/>
<path d="M94.1812 142.162C94.1812 141.523 94.4346 140.538 94.9414 139.205C95.4857 137.76 96.0863 136.596 96.7433 135.714C97.2501 135.057 97.6067 134.785 97.8132 134.897C98.2825 135.104 98.7236 135.63 99.1365 136.474C99.5495 137.356 99.8873 138.473 100.15 139.825C100.582 142.021 100.76 144.273 100.685 146.582C100.61 148.816 100.357 150.148 99.9249 150.58L99.6433 150.777C99.4932 150.758 99.221 150.252 98.8268 149.257L97.3064 146.103C96.4805 144.733 95.4669 143.532 94.2656 142.499C94.2093 142.443 94.1812 142.331 94.1812 142.162Z" fill="#FFF3C2"/>
<path d="M97.8414 137.403L98.7987 140.613C99.0802 141.964 99.2679 143.541 99.3618 145.343C99.4744 147.164 99.465 148.834 99.3336 150.355L98.8268 149.257L97.3064 146.103C96.4805 144.733 95.4669 143.532 94.2656 142.499C94.2093 142.443 94.1812 142.33 94.1812 142.162C94.1812 141.523 94.4346 140.538 94.9414 139.205C95.4857 137.76 96.0863 136.596 96.7433 135.714L97.1656 135.263C97.222 135.583 97.4472 136.296 97.8414 137.403Z" fill="#DBD2A9"/>
<path d="M90.239 141.458C91.6656 142.396 92.529 143.917 92.8293 146.019L93.8993 152.551L95.1099 158.773C95.3352 160.294 95.2507 161.12 94.8565 161.251C94.1433 161.495 92.2381 159.693 89.141 155.845C86.1753 152.166 84.4578 149.688 83.9885 148.412C82.5432 144.545 82.3649 141.974 83.4535 140.697C83.6788 140.416 84.0542 140.238 84.5798 140.163L86.0157 140.191L86.6351 140.275C88.1743 140.482 89.3756 140.876 90.239 141.458Z" fill="#0D131A"/>
<path d="M93.1675 152.692C93.8057 156.014 94.1248 158.013 94.1248 158.689L94.0403 159.196C93.3646 158.933 91.7879 157.262 89.3102 154.184C86.7949 151.049 85.3027 148.844 84.8334 147.567C84.2703 145.916 83.9888 144.461 83.9888 143.203C83.9888 142.321 84.1483 141.683 84.4674 141.289C84.7677 140.932 85.237 140.81 85.8752 140.923L86.5509 141.007C88.0338 141.214 89.1318 141.57 89.8451 142.077C91.0464 142.941 91.7972 144.452 92.0976 146.61L93.1675 152.692Z" fill="#FFF3C2"/>
<path d="M91.2523 149.285C90.8394 147.633 90.8018 145.719 91.1397 143.541C91.5902 144.367 91.9093 145.39 92.097 146.61L93.1669 152.692C93.8051 156.014 94.1242 158.013 94.1242 158.689L94.0397 159.196L93.8426 159.083L92.4067 153.649L91.2523 149.285Z" fill="#DBD2A9"/>
<path d="M130.389 53.0775C130.727 53.1713 130.999 53.4622 131.205 53.9503C131.393 54.4008 131.487 54.9357 131.487 55.5551C131.487 56.2121 131.337 56.7752 131.036 57.2445C130.755 57.7137 130.407 57.9484 129.995 57.9484C129.582 57.9484 129.225 57.7137 128.925 57.2445C128.624 56.7752 128.474 56.2121 128.474 55.5551C128.474 55.1234 128.549 54.7105 128.699 54.3163L130.389 53.0775Z" fill="white"/>
</svg>
