<svg width="173" height="176" viewBox="0 0 173 176" fill="none" xmlns="http://www.w3.org/2000/svg">
<path d="M130.46 108.71C131.353 108.413 131.981 108.54 132.342 109.093L133.012 107.436C134.564 109.666 135.202 114.69 134.926 122.506C134.607 131.406 132.959 139.35 129.982 146.338C126.112 155.344 122.646 159.922 119.584 160.07L118.117 160.229L111.769 159.847C108.495 159.444 106.453 158.987 105.645 158.477L97.9584 146.784C97.9159 145.743 99.3512 143.173 102.264 139.074C104.837 135.42 107.952 131.417 111.61 127.062C115.437 122.495 118.978 118.587 122.231 115.337C126.059 111.493 128.802 109.284 130.46 108.71Z" fill="#0D131A"/>
<path d="M104.083 153.379C107.187 149.514 111.366 146.264 116.618 143.63C122.146 140.869 126.665 139.966 130.173 140.922C129.557 143.279 128.823 145.52 127.973 147.644C126.08 152.445 124.262 155.673 122.518 157.33C121.498 158.286 120.275 158.796 118.85 158.859L118.149 158.923L111.897 158.445C108.708 157.957 106.762 157.5 106.06 157.075C105.741 156.884 105.156 155.822 104.306 153.889L104.083 153.379H104.051V153.348L104.083 153.379Z" fill="#5DC1CF"/>
<path d="M131.608 109.602C132.65 111.11 133.118 114.913 133.012 121.009C132.884 127.848 131.938 134.486 130.173 140.922C126.665 139.966 122.146 140.869 116.617 143.63C111.365 146.264 107.176 149.514 104.051 153.379V153.348C103.179 151.478 102.435 150.098 101.818 149.206C100.861 147.825 99.8722 146.997 98.8516 146.72V146.657C98.8516 145.913 99.9573 143.949 102.169 140.762C104.572 137.258 107.644 133.243 111.387 128.719C115.49 123.77 119.254 119.575 122.678 116.134C126.08 112.714 128.6 110.601 130.237 109.794C130.981 109.39 131.438 109.326 131.608 109.602Z" fill="#50A8B4"/>
<path d="M130.907 118.938C131.758 119.936 132.183 120.743 132.183 121.359L132.151 121.614C131.343 125.097 130.088 128.23 128.387 131.013C126.941 133.371 124.751 136.079 121.817 139.138C119.967 141.07 117.032 142.993 113.014 144.904C108.548 147.028 103.976 148.515 99.2984 149.365L100.415 157.712C100.861 161.833 101.085 164.902 101.085 166.92C101.085 167.494 100.914 168.11 100.574 168.768C100.362 169.512 99.9575 170.043 99.3622 170.361C97.7674 171.232 94.8223 171.912 90.527 172.4C86.2743 172.868 83.6907 172.836 82.7764 172.305C79.0765 170.117 75.0151 165.72 70.5922 159.114C66.0843 152.402 63.118 146.221 61.6933 140.571C59.5457 139.722 57.2705 138.553 54.8676 137.067C52.5286 135.622 50.6999 134.273 49.3816 133.02C48.8075 135.463 47.7549 137.704 46.2239 139.743C45.4797 140.741 44.778 141.506 44.1188 142.037C43.247 143.099 40.1425 143.587 34.8052 143.502L27.0546 143.025C25.5661 142.77 24.4498 142.292 23.7055 141.591C22.8975 140.805 22.4191 139.647 22.2702 138.118C22.0151 135.654 22.0895 133.222 22.4935 130.822L23.0357 126.903L23.3866 124.067C23.5142 123.388 23.5035 122.389 23.3547 121.072L23.0995 119.288C22.3128 113.235 22.1533 108.753 22.6211 105.843C23.1952 102.317 25.0239 97.8138 28.1071 92.3338C31.6157 86.1102 36.7934 81.586 43.6404 78.761C47.723 77.083 51.9651 76.1271 56.3667 75.8935C59.7052 75.7236 66.2013 78.06 75.855 82.9029C81.6813 85.8129 87.9967 89.2857 94.8011 93.3214C103.37 98.398 111.015 103.326 117.734 108.105C124.453 112.884 128.844 116.495 130.907 118.938Z" fill="#0D131A"/>
<path d="M44.5013 79.7168C48.4564 77.9751 52.4221 76.998 56.3984 76.7856C61.2678 76.5307 75.1106 83.9012 97.9266 98.8971C109.345 106.416 120.264 113.978 130.684 121.582C129.748 124.683 128.557 127.466 127.111 129.93C125.368 132.882 123.114 135.665 120.349 138.277C117.245 141.187 112.886 143.619 107.272 145.573C103.232 146.997 100.542 147.708 99.2025 147.708C98.9048 147.708 98.6815 147.198 98.5326 146.179L98.2137 143.407C98.1499 142.536 97.8841 142.249 97.4163 142.547C96.9698 142.844 96.8315 143.534 97.0017 144.618C97.5332 147.464 98.1499 151.648 98.8516 157.171C99.6809 163.819 99.968 167.611 99.7128 168.545C99.7128 168.694 99.4683 168.906 98.9792 169.182C97.4695 169.99 94.7158 170.659 90.7182 171.19L83.6692 171.476C83.0101 171.285 81.7236 170.234 79.8099 168.322C77.4709 166.028 75.2382 163.394 73.1118 160.421C66.924 151.818 63.3836 143.035 62.4905 134.072C62.2991 132.117 62.044 130.801 61.725 130.121C61.3848 129.484 61.1509 129.717 61.0233 130.822C60.8319 132.266 60.9701 134.921 61.4379 138.787C56.93 137.067 52.2201 133.753 47.3081 128.846C40.0359 121.603 35.9639 113.468 35.0921 104.441C34.9858 103.315 34.8263 102.529 34.6137 102.083C34.401 101.658 34.2203 101.68 34.0714 102.147C33.6887 103.4 33.8588 106.076 34.5818 110.176C35.1134 113.065 35.9852 115.73 37.1972 118.173C39.4724 122.676 43.1192 127.328 48.1374 132.128C47.9248 133.381 47.4783 134.73 46.7978 136.174C46.0536 137.767 45.1605 139.18 44.1186 140.412C43.7146 140.943 42.8002 141.41 41.3755 141.814C38.5475 142.642 34.5711 142.78 29.4466 142.228L28.1069 141.973C26.6185 141.718 25.5021 141.208 24.7579 140.444C24.0774 139.743 23.6734 138.766 23.5458 137.513C23.4183 135.962 23.5246 134.125 23.8648 132.001L24.5984 127.126C24.811 125.278 24.8642 123.781 24.7579 122.634C24.12 116.049 23.8754 111.726 24.0243 109.666C24.4283 104.101 26.2889 98.536 29.606 92.971C33.1571 86.9599 38.1222 82.5418 44.5013 79.7168Z" fill="#5DC1CF"/>
<path d="M52.0286 127.954C55.367 129.484 58.3652 130.439 61.0232 130.822C60.8318 132.266 60.97 134.921 61.4378 138.787C58.0144 137.47 54.1869 134.974 49.9554 131.3C43.8527 126.011 39.5786 120.053 37.1333 113.426C40.3867 120.032 45.3518 124.874 52.0286 127.954Z" fill="#50A8B4"/>
<path d="M48.1371 132.128C47.9245 133.381 47.4779 134.73 46.7975 136.174C46.0533 137.767 45.1602 139.18 44.1183 140.412L42.7148 141.336C41.2902 141.973 39.3445 142.355 36.8779 142.483C40.0462 141.23 41.4497 137.916 41.0882 132.542C40.7692 128.082 39.3871 123.111 36.9417 117.631C39.1957 122.347 42.9275 127.179 48.1371 132.128Z" fill="#50A8B4"/>
<path d="M41.0884 81.3099C43.8739 79.7168 46.904 78.5167 50.1787 77.7096C52.3476 77.1998 54.4208 76.8918 56.3983 76.7856C61.2677 76.5307 75.1105 83.9012 97.9265 98.8971C109.345 106.416 120.264 113.978 130.683 121.582C129.748 124.683 128.557 127.466 127.111 129.93C125.367 132.882 123.113 135.665 120.349 138.277C117.245 141.187 112.886 143.619 107.272 145.573C103.232 146.997 100.542 147.708 99.2024 147.708C98.9047 147.708 98.6814 147.198 98.5325 146.179L98.2136 143.407C98.1498 142.536 97.884 142.249 97.4162 142.547C96.9697 142.844 96.8314 143.534 97.0016 144.618C97.5331 147.464 98.1498 151.648 98.8515 157.171C99.6808 163.819 99.9679 167.611 99.7127 168.545C99.7127 168.694 99.4681 168.906 98.9791 169.182L97.6395 169.724C97.7458 163.67 97.0441 158.583 95.5343 154.463C93.0677 147.708 88.4748 142.993 81.7554 140.316C80.352 126.637 77.7791 115.805 74.0366 107.818C67.2748 93.4595 56.292 84.6234 41.0884 81.3099Z" fill="#50A8B4"/>
<path d="M29.989 138.946C30.393 138.989 30.9458 139.424 31.6475 140.253C32.3918 141.124 32.7426 141.899 32.7001 142.579C32.6576 143.301 32.3493 144.087 31.7751 144.936C31.201 145.786 30.7226 146.211 30.3398 146.211C29.9571 146.211 29.3298 145.658 28.458 144.554C27.5862 143.471 27.1503 142.727 27.1503 142.324C27.129 141.941 27.5117 141.283 28.2985 140.348C29.0853 139.392 29.6488 138.925 29.989 138.946Z" fill="#0D131A"/>
<path d="M31.488 141.145C31.8707 141.74 32.0515 142.186 32.0302 142.483C32.0302 142.802 31.8069 143.343 31.3604 144.108C30.8926 144.851 30.5736 145.223 30.4035 145.223C30.1909 145.223 29.7337 144.862 29.032 144.14C28.309 143.396 27.9688 142.855 28.0114 142.515C28.0326 142.196 28.4685 141.442 29.3191 140.253C29.553 139.913 29.755 139.722 29.9251 139.679C30.0739 139.658 30.276 139.754 30.5311 139.966L31.488 141.145Z" fill="white"/>
<path d="M35.1241 143.279C35.0816 142.94 35.4218 142.207 36.1448 141.081C36.889 139.913 37.4525 139.307 37.8353 139.265C38.2393 139.244 38.8241 139.732 39.5895 140.731C40.355 141.75 40.6846 142.483 40.5783 142.929L40.0042 144.809C39.6427 145.637 39.2493 146.168 38.8241 146.402C38.3988 146.635 37.6758 146.253 36.6551 145.255C35.6983 144.32 35.1879 143.662 35.1241 143.279Z" fill="#0D131A"/>
<path d="M37.8352 140.189C38.0266 140.125 38.4094 140.476 38.9835 141.24C39.5576 142.026 39.8766 142.642 39.9403 143.088L39.43 144.49C39.0685 145.234 38.7921 145.637 38.6007 145.701C38.3881 145.765 37.8778 145.446 37.0697 144.745C36.283 144.044 35.8683 143.556 35.8258 143.279C35.8045 143.003 36.0916 142.43 36.687 141.559C37.2611 140.731 37.6439 140.274 37.8352 140.189Z" fill="white"/>
<path d="M41.9819 142.324C41.9819 141.835 42.1839 141.155 42.5879 140.285C43.0982 139.222 43.6723 138.543 44.3102 138.245C44.9907 137.906 45.6924 138.585 46.4154 140.285C47.1171 141.941 47.3403 143.248 47.0852 144.203C46.9576 144.734 46.0645 144.649 44.4059 143.949C42.7686 143.226 41.9606 142.685 41.9819 142.324Z" fill="#0D131A"/>
<path d="M44.2462 138.978C44.5438 138.872 44.9798 139.552 45.5539 141.017C46.128 142.44 46.3832 143.248 46.3194 143.439C46.2768 143.566 45.724 143.428 44.6608 143.025C43.5551 142.621 42.9597 142.292 42.8746 142.037C42.7896 141.74 42.9172 141.187 43.2574 140.38C43.6189 139.573 43.9485 139.106 44.2462 138.978Z" fill="white"/>
<path d="M83.1272 171.731C83.2123 171.115 83.5419 170.468 84.116 169.788C84.6901 169.129 85.1792 168.779 85.5832 168.736C86.0935 168.715 86.657 169.023 87.2737 169.66C87.8265 170.255 88.1774 170.839 88.3262 171.413C88.4113 171.753 88.188 172.592 87.6564 173.93C87.1036 175.289 86.6889 175.937 86.4125 175.873C86.051 175.788 85.4131 175.172 84.4987 174.025C83.5419 172.857 83.0847 172.092 83.1272 171.731Z" fill="#0D131A"/>
<path d="M84.0839 171.922C84.1265 171.498 84.286 171.052 84.5624 170.584C84.8601 170.053 85.1684 169.745 85.4874 169.66C85.8276 169.554 86.2741 169.809 86.827 170.425C87.3373 170.977 87.6031 171.413 87.6244 171.731L87.1459 173.324C86.827 174.089 86.5824 174.514 86.4123 174.599C86.221 174.684 85.785 174.355 85.1046 173.611C84.4029 172.825 84.0627 172.262 84.0839 171.922Z" fill="white"/>
<path d="M92.6318 167.812C93.0784 167.77 93.7801 168.067 94.7369 168.705C95.7789 169.384 96.2892 170 96.2679 170.552L95.8533 173.197C95.5769 174.365 95.3004 174.981 95.024 175.045C94.5349 175.172 93.6525 174.79 92.3767 173.898C91.0796 173.006 90.3885 172.284 90.3034 171.731C90.2609 171.328 90.548 170.584 91.1646 169.501C91.8025 168.397 92.2916 167.834 92.6318 167.812Z" fill="#0D131A"/>
<path d="M92.9829 168.8C93.1743 168.758 93.5996 168.959 94.2588 169.405C94.9392 169.852 95.3007 170.191 95.3432 170.425L95.1837 172.305C95.0136 173.324 94.8542 173.877 94.7053 173.962C94.5139 174.068 93.8973 173.739 92.8554 172.974C91.8134 172.188 91.2925 171.646 91.2925 171.349C91.2925 171.052 91.5264 170.552 91.9942 169.852C92.462 169.193 92.7916 168.843 92.9829 168.8Z" fill="white"/>
<path d="M99.075 165.55C99.8405 165.253 100.776 166.092 101.882 168.067C102.988 170.043 103.307 171.37 102.839 172.05C102.711 172.241 101.935 172.146 100.51 171.763L97.7354 170.839L96.9699 170.298C96.8636 170.106 96.8636 169.756 96.9699 169.246C97.0762 168.673 97.3633 167.961 97.8311 167.111C98.3201 166.198 98.7348 165.678 99.075 165.55Z" fill="#0D131A"/>
<path d="M99.4575 166.474C100.202 166.899 100.861 167.727 101.435 168.959C101.924 170.043 102.126 170.744 102.041 171.062C101.977 171.253 101.318 171.137 100.064 170.712C98.8302 170.287 98.1391 169.99 97.9903 169.82C97.8414 169.628 97.969 168.981 98.373 167.876C98.777 166.75 99.1385 166.283 99.4575 166.474Z" fill="white"/>
<path d="M104.178 155.96C104.221 155.769 104.593 155.503 105.295 155.164C106.06 154.781 106.624 154.675 106.985 154.845C107.41 155.036 107.836 155.578 108.261 156.47C108.707 157.362 108.835 157.946 108.644 158.222L107.145 159.656C106.294 160.314 105.677 160.612 105.295 160.548C104.912 160.463 104.604 159.773 104.37 158.477C104.136 157.288 104.072 156.449 104.178 155.96Z" fill="#0D131A"/>
<path d="M106.602 155.418C106.815 155.461 107.081 155.801 107.399 156.438C107.697 157.075 107.793 157.489 107.687 157.681L106.634 158.859C106.017 159.454 105.624 159.752 105.454 159.752C105.305 159.752 105.167 159.242 105.039 158.222L104.912 156.438C104.933 156.268 105.167 156.045 105.613 155.769C106.081 155.493 106.411 155.376 106.602 155.418Z" fill="white"/>
<path d="M112.248 157.362C112.95 156.746 113.524 156.406 113.97 156.342C114.438 156.257 115.034 156.64 115.756 157.489C116.437 158.297 116.777 158.87 116.777 159.21C116.777 159.507 116.362 160.187 115.533 161.249C114.64 162.396 113.949 162.948 113.46 162.906C112.95 162.863 112.376 162.205 111.738 160.93C111.121 159.698 110.919 158.913 111.132 158.573C111.302 158.297 111.674 157.893 112.248 157.362Z" fill="#0D131A"/>
<path d="M114.066 157.012C114.321 157.096 114.672 157.373 115.119 157.84C115.65 158.371 115.884 158.775 115.82 159.051L114.704 160.899C114.002 161.812 113.566 162.258 113.396 162.237C113.184 162.237 112.865 161.738 112.439 160.739C111.993 159.741 111.833 159.082 111.961 158.764C112.089 158.424 112.429 158.031 112.982 157.585C113.535 157.118 113.896 156.927 114.066 157.012Z" fill="white"/>
<path d="M120.477 157.489C121.263 156.555 121.933 156.109 122.486 156.151C123.188 156.215 123.602 157.001 123.73 158.509C123.879 160.038 123.56 161.238 122.773 162.109C122.284 162.64 121.593 162.385 120.7 161.345C119.871 160.368 119.456 159.582 119.456 158.987C119.456 158.817 119.796 158.318 120.477 157.489Z" fill="#0D131A"/>
<path d="M121.338 157.712C121.891 157.16 122.252 156.958 122.422 157.107C122.592 157.256 122.763 157.574 122.933 158.063L123.156 159.274L122.869 160.293C122.678 160.909 122.486 161.302 122.295 161.472C122.103 161.642 121.731 161.323 121.178 160.516C120.689 159.794 120.413 159.274 120.349 158.955C120.54 158.615 120.87 158.201 121.338 157.712Z" fill="white"/>
<path d="M52.8578 36.7045L60.2257 40.8783L77.8002 60.0586L52.5388 64.2961L42.5236 60.4728C35.868 57.8814 32.5827 56.4902 32.6678 56.299C32.7528 56.1503 34.0499 55.4175 36.5591 54.1006L42.8106 50.6596C41.1733 51.2119 38.9087 52.1465 36.0168 53.4634L32.1893 55.152C31.9554 55.1308 30.7434 54.228 28.5532 52.4438C26.3418 50.6384 25.3105 49.6719 25.4594 49.5445L28.936 47.6647C31.3175 46.3478 33.008 45.222 34.0074 44.2874C32.1574 44.7972 29.8822 45.6362 27.1817 46.8044L23.5775 48.3338C23.3223 48.3125 22.3017 47.5372 20.5155 46.0079C18.7294 44.4573 17.9001 43.6077 18.0277 43.459C18.134 43.3316 19.0483 42.8749 20.7707 42.089L25.3956 39.9225L19.5586 41.0057L15.5398 41.643C15.1783 41.6217 14.6148 41.3668 13.8493 40.8783C13.1051 40.3685 12.7223 40.018 12.7011 39.8269C12.6798 39.6782 13.4028 39.2428 14.87 38.5206L18.4423 36.7682L14.2002 36.7364C12.414 36.6514 11.606 36.4496 11.7761 36.131C11.9462 35.8336 12.7861 35.1433 14.2959 34.06L16.6242 32.467L18.2828 32.8175L17.1346 32.4351C16.5179 32.2015 16.2947 32.0422 16.4648 31.9572L19.0483 31.097C20.558 30.6297 21.3873 30.4067 21.5362 30.4279L26.2886 33.1042L24.7258 31.2881L23.5456 29.7588C23.3968 29.419 24.662 29.1535 27.3412 28.9623L31.679 29.1216L34.135 33.3272L33.6884 30.9377C33.5396 30.0668 33.5077 29.5889 33.5928 29.5039L35.1875 29.6314C36.1231 29.8225 36.6866 29.9818 36.878 30.1093C37.0269 30.2367 37.6435 31.2457 38.728 33.1361L37.8349 30.8421C37.4947 29.9925 37.3671 29.5039 37.4521 29.3765C37.5372 29.2278 39.1001 29.7907 42.1408 31.0651C45.139 32.3396 46.7019 33.083 46.8295 33.2954L48.0415 36.4815L47.7226 35.0159L47.5631 34.06C47.6269 33.9751 49.3918 34.8566 52.8578 36.7045Z" fill="#0D131A"/>
<path d="M76.2375 59.517L52.6346 63.4677L34.5498 56.2034C40.6737 52.8899 44.2886 50.7977 45.3943 49.9268L46.702 48.9073L45.0753 49.2259C43.9909 49.502 41.7369 50.3198 38.3135 51.6792C35.2089 52.9324 33.2101 53.782 32.3171 54.228L26.8948 49.7038L31.1688 47.3142C33.3377 45.9761 34.9112 44.7972 35.8894 43.7776L36.9738 42.7262C36.9951 42.62 36.3678 42.7687 35.092 43.1723L28.7766 45.4026L23.7052 47.3779L19.4631 43.6821L23.769 41.6111L28.1387 39.4127L29.3508 38.8073C29.8824 38.4675 29.3933 38.425 27.8836 38.6799L15.6994 40.8146L14.2641 39.8906L20.3243 36.7045L21.313 36.3222C21.7383 36.0461 21.3343 35.9186 20.101 35.9399L16.2416 36.0354L12.8926 36.0036C13.7644 35.1115 15.0827 34.1981 16.8476 33.2635L22.557 34.761L24.1837 35.3982C25.0129 35.6319 24.7471 35.3345 23.3863 34.5061C22.0466 33.6777 21.026 33.1042 20.3243 32.7856L18.6976 32.1165L21.4406 31.2881L27.8836 34.8884C28.0537 34.9309 28.0111 34.7291 27.756 34.2831C26.8416 32.6688 25.906 31.2775 24.9492 30.1093L31.424 29.8863C32.6573 32.3289 33.6992 34.2087 34.5498 35.5257C35.0176 36.2266 35.294 36.4602 35.3791 36.2266V35.685C34.8687 32.9662 34.5604 31.1819 34.4541 30.3323L36.4635 30.8102L40.8332 38.2657C41.2372 38.733 41.2372 38.2445 40.8332 36.8001L39.6212 33.0086L38.76 30.8102L46.1917 33.9007L49.3175 42.089L49.6364 40.7509L48.6158 35.207C49.7002 35.6743 51.497 36.6196 54.0061 38.0427C56.409 39.4233 58.3227 40.5809 59.7474 41.5155L76.2375 59.517Z" fill="#00A63C"/>
<path d="M57.3872 58.4974L54.6122 52.4438L66.8283 57.9876L95.7258 68.7566L95.3431 69.2346C93.0678 72.0383 90.6757 74.7996 88.1665 77.5184C83.2121 82.8923 79.6185 86.0359 77.3858 86.9493L77.2263 87.013L77.0668 86.9493C74.8129 86.1209 69.869 85.7385 62.2353 85.8023H51.4227C51.2313 85.5049 50.8804 84.6553 50.3701 83.2534L48.871 78.8566L49.4451 85.866L49.3814 86.7899C49.3176 86.9811 49.1581 87.1086 48.9029 87.1723C40.5037 88.2768 36.2403 88.6804 36.1127 88.383C36.0277 88.1918 35.9958 87.1298 36.0171 85.1969L36.1127 80.7682C35.6237 81.9577 35.3047 83.6994 35.1559 85.9934L34.9645 89.3388C34.8369 89.5512 32.6255 90.2628 28.3302 91.4735C24.0349 92.663 21.8447 93.194 21.7597 93.0666C21.6959 92.9391 21.6534 92.0576 21.6321 90.4221L21.6959 87.1723L20.1011 91.6965C19.5695 93.2471 19.2293 94.0649 19.0804 94.1498L13.8814 95.2331L8.9376 95.9022L10.66 92.5568L13.3073 87.5546C12.6056 88.0219 10.3304 90.0185 6.48163 93.5445C2.93058 96.7943 1.08063 98.398 0.93178 98.3555C0.719142 98.2918 0.697878 97.1872 0.867988 95.0419C1.01683 92.9391 1.16568 91.7815 1.31453 91.5691C1.52717 91.2717 3.80239 89.6787 8.14021 86.7899C7.37471 87.0236 5.7374 87.6396 3.22827 88.6379C1.14442 89.4663 0.0705958 89.838 0.00680442 89.753C-0.0782508 89.6043 0.634087 88.1706 2.14382 85.4518C3.63228 82.7118 4.51473 81.2461 4.79116 81.055C4.98253 80.9063 6.01383 80.524 7.88504 79.908L13.0203 78.1875L8.77812 78.5698L6.41784 78.6335C6.33279 78.4211 7.06639 77.2104 8.61864 75.0014C10.256 72.6437 11.4361 71.3374 12.1591 71.0825C13.0521 70.7214 16.6989 70.2966 23.0993 69.8081C22.5677 69.5957 21.1962 69.2027 18.9847 68.6292C17.1986 68.1831 16.3055 67.8858 16.3055 67.7371C16.3055 67.5459 17.6451 66.4096 20.3244 64.328C22.9823 62.2676 24.4602 61.2162 24.7579 61.1737L27.2457 61.4923L31.5517 62.3207L28.5216 61.11C27.4371 60.6852 26.9693 60.4516 27.1182 60.4091L31.456 58.1151C34.2203 56.6282 35.7087 55.853 35.9214 55.7892C36.134 55.7043 37.1653 55.991 39.0153 56.6495L44.3418 58.5293L41.4393 57.0637C40.3549 56.5327 39.9509 56.1928 40.2273 56.0441C40.5675 55.853 42.3643 55.46 45.6177 54.8653L50.9123 54.0369C51.3164 54.1006 53.4746 55.5874 57.3872 58.4974Z" fill="#0D131A"/>
<path d="M56.3982 54.228L66.4773 58.816L94.2584 69.139C91.643 72.3038 89.1126 75.1926 86.6673 77.8052C82.3082 82.4356 79.1399 85.1863 77.1623 86.0572C74.7383 85.2288 70.124 84.7827 63.3196 84.719C59.4071 84.6765 55.537 84.7402 51.7096 84.9102L48.4881 74.874C48.1904 73.9606 47.9565 73.5146 47.7864 73.5358C47.595 73.5358 47.5419 74.0349 47.6269 75.0333C48.0947 79.4301 48.3605 83.1897 48.4243 86.312L36.9737 87.3953C37.2927 82.5737 37.2927 79.4088 36.9737 77.9007C36.7824 76.9024 36.2295 78.2087 35.3152 81.8196C34.4221 85.3031 33.9649 87.5334 33.9437 88.5104L22.4612 91.7603L22.4293 90.5177C22.4293 89.6043 22.5037 88.5317 22.6526 87.2997C22.8227 86.0253 22.9077 84.8783 22.9077 83.8587C22.929 82.3931 22.8865 81.671 22.7802 81.6922C22.7164 81.7134 22.4718 82.3613 22.0466 83.6357L18.4423 93.3533L10.596 94.7233L14.6786 86.6944L15.6036 85.643C15.9651 85.1119 15.476 85.2606 14.1364 86.089C12.648 87.0236 11.1382 88.1387 9.60723 89.4344L4.21685 94.2773L1.82468 96.4757C1.8672 95.4349 1.98415 93.8949 2.17553 91.8558L10.9787 85.9297L11.9356 85.2925C12.3184 84.9102 11.8825 84.8571 10.6279 85.1332C8.16129 85.6642 5.16309 86.62 1.6333 88.0007C2.52638 86.2589 3.77031 84.1986 5.3651 81.8196C11.1701 79.7168 14.8381 78.4318 16.3691 77.9645C17.5599 77.6034 18.1659 77.3591 18.1872 77.2317L16.1777 77.1042L8.04434 77.6459C8.85236 76.2865 9.63912 75.0864 10.4046 74.0456C11.3402 72.7924 12.0207 72.0808 12.4459 71.9109L18.6337 71.1144L25.0448 70.5727L26.4801 70.3816C26.5651 70.3178 26.1292 70.0948 25.1723 69.7125C21.9615 68.3743 19.6012 67.5141 18.0915 67.1317L21.9828 64.1687L25.1085 62.0021L29.4783 62.8624L35.2833 63.9138L37.1651 64.0412C37.2289 63.9563 36.6867 63.6376 35.5384 63.0854L29.1593 60.3135L35.985 56.7451L49.6044 61.0782C50.455 61.2268 49.9553 60.7914 48.1053 59.7719L44.246 57.5416L42.6512 56.4902L50.7208 54.9608L59.4921 61.0463L56.3982 54.228Z" fill="#00A63C"/>
<path d="M59.4926 61.0463L56.3987 54.228L66.4777 58.816L94.2589 69.139C91.6434 72.3038 89.113 75.1926 86.6677 77.8052C82.3086 82.4356 79.1403 85.1863 77.1628 86.0572C75.6318 85.5261 73.2183 85.1544 69.9225 84.942C70.1564 80.7789 69.6248 77.4016 68.3277 74.8102C66.7116 71.5179 63.8198 69.2346 59.652 67.9601C59.652 66.1547 59.0886 64.2855 57.9616 62.3526C57.1323 60.9719 55.8033 59.2621 53.9746 57.223L59.4926 61.0463Z" fill="#009233"/>
<path d="M169.054 42.8537C171.499 44.1069 172.743 44.8184 172.786 44.9884C172.828 45.1158 171.616 45.6362 169.15 46.5496L163.313 48.6842L168.926 48.6524L171.733 48.9073C171.797 49.0135 170.925 49.9587 169.118 51.7429L166.088 54.5467L162.165 54.0369L155.849 53.0173L161.399 55.3113C163.525 56.1822 164.599 56.6601 164.621 56.7451L160.474 60.1861C157.667 62.3526 156.168 63.4146 155.977 63.3722L151.48 60.5365C148.354 58.6036 146.025 57.3717 144.494 56.8407C150.108 60.6215 152.862 62.65 152.755 62.9261C152.692 63.1173 151.171 63.8607 148.194 65.1564C145.281 66.4096 143.697 67.0468 143.442 67.068L138.562 63.9138C135.053 61.641 132.438 60.2285 130.715 59.6763C131.949 60.7171 133.82 62.5756 136.329 65.252C138.817 67.907 140.008 69.3089 139.901 69.4576C139.774 69.6063 139.136 69.8824 137.988 70.286L135.946 70.8276L133.714 68.7567C132.204 67.3335 131.066 66.452 130.301 66.1122L133.012 69.2346C134.309 70.7002 134.936 71.4755 134.894 71.5604C134.809 71.7304 133.852 72.41 132.023 73.5995C130.131 74.8315 129.099 75.405 128.929 75.32L126.346 72.8349C124.56 71.1569 123.092 70.0736 121.944 69.585L124.879 73.3765C126.495 75.3094 127.26 76.3077 127.175 76.3714L114.927 80.2903L92.313 72.7074L101.116 51.3606L101.18 51.2968C102.35 50.1286 105.316 48.217 110.079 45.5619C114.714 42.9918 117.138 41.8129 117.351 42.0253C117.5 42.174 117.245 43.1935 116.586 45.084L115.118 49.3533L117.383 44.2556C118.063 42.6413 118.489 41.7704 118.659 41.643C118.978 41.4306 120.743 40.8677 123.954 39.9543C127.186 39.041 128.812 38.6799 128.834 38.8711L127.59 41.5474C126.59 43.459 125.952 44.7972 125.676 45.5619L128.515 41.2288C129.557 39.657 130.163 38.818 130.333 38.7118C130.567 38.5631 131.747 38.3401 133.873 38.0427L137.126 37.7241L134.639 43.4272L137.732 39.8906L139.774 37.6922L143.633 37.4692C146.015 37.3842 147.248 37.3948 147.333 37.501C147.418 37.6072 147.269 38.2551 146.887 39.4446L145.77 42.3439C149.3 39.4127 151.607 37.6816 152.692 37.1506L152.755 37.1187H152.851C153.765 37.1187 155.637 37.4798 158.465 38.202C161.186 38.8817 162.547 39.2959 162.547 39.4446L160.984 41.4199L158.369 44.4149L162.292 42.2802C163.866 41.4306 164.759 40.9951 164.971 40.9739C165.248 40.9527 166.609 41.5792 169.054 42.8537Z" fill="#0D131A"/>
<path d="M158.975 42.6307C157.742 44.16 156.902 45.1052 156.455 45.4663C155.86 45.9548 155.562 46.2522 155.562 46.3584C155.584 46.5071 156.051 46.4115 156.966 46.0716C158.242 45.5619 160.91 44.16 164.972 41.866L170.84 44.8928L166.184 46.7407C163.611 47.739 161.931 48.3338 161.144 48.5249L158.943 49.0029C158.582 49.1091 158.88 49.194 159.836 49.2577L169.947 49.5764L165.833 53.4634L160.634 52.8262L152.915 51.7748C151.384 51.5836 150.884 51.6473 151.416 51.9659L152.692 52.5076C159.432 55.2688 162.866 56.7451 162.994 56.9362C163.079 57.0637 161.963 57.977 159.645 59.6763L156.009 62.1296C148.035 57.7965 143.474 55.5768 142.326 55.4706L140.827 55.375C140.763 55.4388 141.188 55.7149 142.102 56.2034L147.333 59.6444C149.821 61.3862 151.076 62.3632 151.097 62.5756C151.118 62.7243 150.012 63.2978 147.78 64.2961L143.506 66.1441C136.999 61.4286 132.3 58.8798 129.408 58.4974C127.537 58.2638 126.782 58.2638 127.143 58.4974L128.993 59.3258C129.567 59.6869 130.918 60.9082 133.044 62.9898C135.426 65.3263 137.233 67.291 138.466 68.8841C137.765 69.0753 136.988 69.3833 136.138 69.8081C135.691 69.3195 134.66 68.5018 133.044 67.3548C131.407 66.1865 130.205 65.4113 129.44 65.0289C128.738 64.6891 128.398 64.5722 128.419 64.6785L129.025 65.5706L131.162 68.3425L133.682 71.4011L129.089 74.3005L125.804 71.4648C123.975 70.0205 122.54 69.054 121.498 68.5655C120.775 68.2256 120.403 68.1194 120.381 68.2469L120.86 69.2983C121.115 69.8293 121.806 70.8701 122.933 72.4207L125.772 75.9891L114.927 79.4619L93.3657 72.2295L101.786 51.8066C103.296 50.341 108.048 47.5904 116.044 43.5546L114.768 48.2063L113.556 52.3483C113.215 53.3041 113.077 53.867 113.141 54.0369C113.226 54.2281 113.609 53.7289 114.289 52.5394L117.224 46.7726L119.329 42.1209L127.207 39.8588C126.314 41.473 125.23 44.2343 123.954 48.1426C123.507 49.4383 123.305 50.1286 123.348 50.2136L124.655 48.4612C125.761 46.6982 127.813 43.6927 130.811 39.4446L136.202 38.6799C135.16 40.1455 134.139 42.3121 133.14 45.1795C132.821 46.1141 132.704 46.592 132.789 46.6133L133.809 45.5937L140.157 38.4887L146.568 38.2976L145.547 40.6871L144.112 43.7458L143.538 45.1795L144.718 44.2556L148.673 41.0376C150.714 39.3808 152.139 38.3401 152.947 37.9152C154.074 37.9577 156.806 38.6056 161.144 39.8588L158.975 42.6307Z" fill="#00A63C"/>
<path d="M107.113 48.2701C109.558 52.0509 111.291 55.2264 112.312 57.7965C119.074 58.0089 124.336 59.3046 128.1 61.6835C129.333 62.4482 130.854 63.627 132.661 65.2201L137.477 69.2346L136.138 69.8081C135.691 69.3195 134.66 68.5018 133.044 67.3548C131.407 66.1865 130.205 65.4113 129.44 65.0289C128.738 64.6891 128.398 64.5722 128.419 64.6785L129.025 65.5706L131.162 68.3425L133.682 71.4011L129.089 74.3005L125.804 71.4648C123.975 70.0205 122.54 69.054 121.498 68.5655C120.775 68.2256 120.403 68.1194 120.381 68.2469L120.86 69.2983C121.115 69.8293 121.806 70.8701 122.933 72.4207L125.772 75.9891L114.927 79.4619L93.3657 72.2295L101.786 51.8066C102.509 51.1269 104.285 49.9481 107.113 48.2701Z" fill="#009233"/>
<path d="M72.8247 73.026L66.4456 72.8986C62.8307 72.8136 61.1615 72.6543 61.438 72.4207L67.5619 67.7371L57.7381 64.6466L56.3984 64.105L57.8656 63.8501L72.8247 64.6466L86.4442 72.803L77.4496 75.4793C71.4957 77.1998 68.6145 77.9114 68.8059 77.614L70.8153 75.3519L72.8247 73.026Z" fill="#0D131A"/>
<path d="M68.6463 67.8964L69.4437 67.4185L68.6463 66.9087C68.1998 66.6963 66.7751 66.3033 64.3723 65.7298L60.9595 64.8377L66.7007 65.0289L72.6014 65.4431L84.4028 72.5162C76.599 74.8739 72.5163 75.9466 72.1549 75.7342C71.9847 75.628 72.2931 75.0757 73.0798 74.0774C73.8879 73.0366 74.2493 72.4419 74.1643 72.2932L68.9015 71.9109L63.6387 71.7197C63.5324 71.656 64.2235 71.0719 65.7119 69.9674L68.6463 67.8964Z" fill="#00A63C"/>
<path d="M92.2493 2.64514C93.4401 2.17784 94.1205 2.16722 94.2906 2.61328C94.3544 2.82568 94.2587 3.29298 94.0036 4.01516C93.557 5.45953 93.3231 6.649 93.3018 7.58359L95.2794 5.67193C96.0874 4.90727 96.7041 4.45059 97.1293 4.30191L98.3733 4.23819C98.6284 4.40811 98.6284 4.7692 98.3733 5.32146C97.8204 6.51094 97.5121 8.10399 97.4483 10.1006C97.3632 13.0318 98.0968 15.432 99.6491 17.3012L99.968 17.7154L99.5215 17.9703C96.7572 19.4996 93.9291 20.8484 91.0373 22.0166L87.4968 23.291L87.146 23.3866L80.2246 10.7378L82.2021 6.81893C83.6481 4.05764 84.6581 2.26281 85.2322 1.43442C85.9339 0.457352 86.4974 -0.0205628 86.9227 0.000677893C87.348 0.0431592 87.5075 0.542314 87.4011 1.49814C87.231 3.49476 87.1991 4.84355 87.3055 5.54449L89.4106 4.1426C90.4312 3.48414 91.3775 2.98499 92.2493 2.64514Z" fill="#0D131A"/>
<path d="M96.3956 10.005C96.3956 12.9362 97.1398 15.4214 98.6283 17.4605C94.6732 19.6483 90.9946 21.2732 87.5924 22.3352L81.2451 10.7697C84.3709 4.92851 85.9444 2.28405 85.9657 2.8363L85.9338 4.74796C85.9338 5.68255 85.9976 6.29853 86.1252 6.5959L86.4122 7.23312L87.2096 6.62776C87.7199 6.1817 88.7619 5.54448 90.3354 4.7161C91.9514 3.86647 92.7382 3.5691 92.6957 3.82399L92.3448 5.86309L92.0897 8.28453C92.0897 9.51649 92.4405 9.72889 93.1422 8.92175C93.5462 8.45445 94.3117 7.75351 95.4387 6.81892C96.5657 5.88434 97.0654 5.53386 96.9378 5.76751C96.8102 6.0224 96.6933 6.57466 96.5869 7.42428C96.4594 8.33763 96.3956 9.19788 96.3956 10.005Z" fill="#C94772"/>
<path d="M81.1813 10.2599C81.6703 10.09 82.0212 10.1643 82.2338 10.4829L83.9562 12.8407C85.0194 14.7311 85.551 16.7065 85.551 18.7668C85.551 20.5085 85.1895 22.1972 84.4665 23.8327C83.9562 25.0009 83.3608 27.1037 82.6804 30.1412L80.7347 39.5401C79.1399 47.739 77.8854 53.4953 76.971 56.8088C75.4613 62.2889 73.9516 65.4219 72.4418 66.2078L70.7514 66.2396L69.2204 65.5387C65.4992 63.8607 62.8731 62.2039 61.3421 60.5684C58.8117 57.7859 57.302 53.697 56.8129 48.3019C56.3239 42.8431 59.7473 35.1221 67.0834 25.139C69.8477 21.3582 72.6545 17.9809 75.5038 15.0072C78.2256 12.1822 80.1181 10.5998 81.1813 10.2599Z" fill="#0D131A"/>
<path d="M81.8513 29.7588L79.8737 39.3808C78.364 47.07 77.1732 52.5819 76.3014 55.9167C74.7917 61.5667 73.367 64.7316 72.0274 65.4113C71.7297 65.5599 71.432 65.5599 71.1343 65.4113L69.5714 64.7103C65.9991 63.1385 63.49 61.5561 62.044 59.963C59.62 57.3079 58.174 53.389 57.7062 48.2063L57.6743 47.3142C57.6743 42.9599 60.0771 37.1081 64.8827 29.7588C68.8165 23.769 72.9949 18.6181 77.4178 14.3063C78.566 13.1805 79.5441 12.3309 80.3522 11.7574L81.5642 11.0564L81.5961 11.0883L83.1909 13.2548C84.1903 14.9753 84.69 16.7914 84.69 18.7031C84.69 20.2749 84.3391 21.8679 83.6374 23.4822C83.1058 24.6717 82.5104 26.7639 81.8513 29.7588Z" fill="#0D131A"/>
<path d="M107.974 25.9992C117.436 39.4021 116.734 51.9022 105.869 63.4996C102.998 66.5795 99.3937 68.7673 95.0559 70.063C91.4836 71.1462 87.8368 71.5392 84.1157 71.2418C80.7985 70.9657 77.3857 70.1373 73.8772 68.7567C70.9215 67.6097 69.0715 66.622 68.3273 65.7936C62.5435 63.3721 57.908 59.8993 54.4208 55.375C51.4438 51.5092 49.7321 47.5479 49.2856 43.4909C48.5626 37.0975 51.3481 30.5553 57.6422 23.8645C61.1295 20.105 65.0208 16.8976 69.3161 14.2425C71.4212 12.9469 73.0479 11.5237 74.1961 9.97316C75.1955 8.59252 75.6952 7.30746 75.6952 6.11799L75.6314 4.36563C75.5464 3.96206 75.355 3.55849 75.0573 3.15492C74.7171 2.68762 74.6533 2.37963 74.8659 2.23095C75.0998 2.08226 75.5783 2.17785 76.3012 2.5177C77.3644 3.00623 78.2256 3.72841 78.8848 4.68424L80.2244 7.10568L80.7347 5.16216C81.0324 4.31253 81.3726 4.08951 81.7554 4.49308C82.4358 5.21526 83.1801 7.97654 83.9881 12.7769L84.4665 10.6422C84.5728 10.3449 84.9875 10.7591 85.7105 11.8848C87.0076 13.9452 87.8794 15.4851 88.3259 16.5047C88.9 14.8054 89.8144 12.9575 91.0689 10.9609C91.5793 10.1537 91.9939 9.7289 92.3129 9.68641C92.6106 9.66517 92.7381 10.0156 92.6956 10.7378C92.6531 11.8211 92.8657 13.138 93.3335 14.6886C93.6738 13.7752 94.2479 12.7557 95.0559 11.6299C95.8214 10.5679 96.5763 9.70766 97.3205 9.0492C98.0647 8.39074 98.7664 8.02964 99.4256 7.96592C100.085 7.88096 100.276 8.13585 99.9997 8.73059L99.2342 10.5785C99.0003 11.3644 98.8515 12.3096 98.7877 13.4141C99.5107 12.4158 100.127 11.683 100.638 11.2157C100.999 10.8759 101.605 10.4192 102.456 9.84572C104.391 8.5288 105.071 8.56066 104.497 9.9413C103.179 12.9575 102.658 15.2515 102.934 16.8233C103.296 18.7137 104.975 21.7723 107.974 25.9992Z" fill="#0D131A"/>
<path d="M77.8643 20.7422C73.5903 24.6929 70.6878 27.4224 69.1568 28.9304C62.8414 35.1115 59.7476 41.781 59.8751 48.9391C59.9389 52.6775 60.7044 55.9379 62.1716 58.7204C62.8308 59.9099 63.8727 61.3012 65.2974 62.8942C55.7925 56.6707 51.0081 49.7781 50.9443 42.2165V42.089C50.9443 36.4815 53.5492 30.7147 58.7588 24.7885C62.4587 20.5829 66.435 17.2268 70.6878 14.7204C74.4302 12.5114 76.5353 9.98378 77.0031 7.13753L77.0669 4.93913C77.0669 4.40811 77.152 4.23819 77.3221 4.42935C78.1514 5.36394 78.8318 6.28791 79.3634 7.20126C79.576 7.54111 79.8099 8.15708 80.0651 9.04919C80.214 9.58021 80.3415 9.69703 80.4479 9.39966L80.8306 7.42428C81.0007 6.57466 81.1708 6.23481 81.3409 6.40473C81.83 6.89327 82.3935 8.57128 83.0314 11.4388L83.1271 12.4265C83.1271 14.4018 81.3728 17.1737 77.8643 20.7422Z" fill="#E85382"/>
<path d="M78.2789 24.8522C73.2607 30.1624 70.1456 33.6777 68.9335 35.3982C65.3612 40.4535 63.575 45.53 63.575 50.6278C63.575 53.7076 64.7233 57.9027 67.0198 63.2128C65.5313 62.1296 64.0428 59.825 62.5544 56.299C61.7038 54.2811 61.3211 52.0934 61.4061 49.7357C61.555 46.1247 62.3417 42.6731 63.7664 39.3808C65.0848 36.3222 66.8816 33.5397 69.1568 31.0333C70.624 29.4402 73.367 26.7639 77.3859 23.0043C80.8306 19.4784 82.9251 16.4091 83.6693 13.7965C83.8607 14.6249 83.7756 15.655 83.4142 16.887C82.6912 19.3297 80.9795 21.9847 78.2789 24.8522Z" fill="#C94772"/>
<path d="M104.848 62.7987C102.126 65.6874 98.6604 67.6521 94.4502 68.6929C91.2606 69.5001 87.7521 69.7443 83.9246 69.4257C80.3522 69.1284 76.8969 68.4274 73.5585 67.3229C70.858 66.4096 69.327 65.698 68.9655 65.1882L69.0612 65.2201L68.4552 64.1049C66.1374 59.8356 64.9785 55.5981 64.9785 51.3924C64.9785 46.3372 66.6477 41.2394 69.9861 36.0992C71.8574 33.2104 74.8343 29.6632 78.9169 25.4576C80.0227 24.2894 81.3729 22.3989 82.9677 19.7863C84.8602 16.6215 85.615 14.5399 85.2323 13.5416C85.5938 13.9027 86.0403 14.5505 86.5719 15.4851C87.1673 16.5259 87.6989 17.3118 88.1667 17.8428C88.7833 18.5438 89.1555 18.788 89.283 18.5756L89.3787 17.2056C89.4 16.6321 89.6871 15.825 90.2399 14.7842C90.7077 13.8283 91.2712 12.8937 91.9304 11.9804C92.1218 13.8496 92.4939 15.2833 93.0467 16.2816L93.589 16.9507L93.876 16.0586C94.195 15.2302 94.6734 14.2532 95.3113 13.1274C96.2469 11.5343 97.1081 10.398 97.8949 9.71827L98.7242 9.14478C98.469 9.73951 98.267 10.5679 98.1182 11.6299C97.948 12.6282 97.863 13.5735 97.863 14.4656C97.8843 15.2515 97.9693 15.6232 98.1182 15.5807L98.6285 14.7842C98.8411 14.3594 99.4897 13.6797 100.574 12.7451C101.659 11.8105 102.148 11.5237 102.041 11.8848C101.637 13.4991 101.435 14.7098 101.435 15.517C101.435 16.8126 101.818 18.257 102.584 19.8501C103.37 21.4431 104.763 23.6415 106.762 26.4453C108.506 28.888 109.866 31.5855 110.845 34.538C111.865 37.6391 112.376 40.7827 112.376 43.9688C112.376 47.3248 111.791 50.5428 110.621 53.6227C109.345 56.9787 107.421 60.0374 104.848 62.7987Z" fill="#E85382"/>
<path d="M65.2973 62.8942C61.5124 60.3878 58.4823 57.7965 56.207 55.1201C57.2915 55.5025 58.9394 55.9273 61.1509 56.3946C61.725 57.9664 62.4799 59.4001 63.4155 60.6958L65.2973 62.8942Z" fill="#C94772"/>
<path d="M111.674 37.6922C112.141 39.8375 112.375 41.9297 112.375 43.9688C112.375 47.3248 111.791 50.5428 110.621 53.6227C109.345 56.9787 107.421 60.0374 104.848 62.7987C102.126 65.6874 98.6602 67.6521 94.45 68.6929C91.2604 69.5001 87.7519 69.7443 83.9244 69.4257C80.3521 69.1284 76.8967 68.4274 73.5583 67.3229C70.8578 66.4096 69.3268 65.698 68.9653 65.1882L69.061 65.2201L68.455 64.105C67.2429 61.8534 66.3605 59.6763 65.8076 57.5735C75.4826 60.2498 84.8175 59.8356 93.812 56.3309C103.402 52.5713 109.356 46.3584 111.674 37.6922Z" fill="#C94772"/>
<path d="M136.265 82.3613C136.754 82.7011 136.733 85.0482 136.201 89.4026C135.627 94.0543 134.681 98.9077 133.363 103.963C133.83 106.299 133.788 109.539 133.235 113.681C132.661 117.886 131.768 121.423 130.556 124.29C129.408 127.03 127.685 129.484 125.389 131.65C123.496 133.456 120.477 135.707 116.33 138.405C112.099 141.145 106.241 142.621 98.7558 142.833C90.3566 143.067 82.8824 141.421 76.3331 137.895C67.7213 133.264 62.5329 127.19 60.768 119.67C59.7686 118.311 59.4072 116.899 59.6836 115.433C59.8962 114.371 60.4278 113.362 61.2784 112.406C60.9594 110.813 61.2252 108.402 62.0758 105.174L63.4154 100.809L62.618 99.375C62.0864 98.2705 61.8738 97.3572 61.9801 96.635C61.5123 95.4668 61.0338 93.0241 60.5448 89.307C60.0132 85.2925 59.9494 82.8392 60.3534 81.9471C61.289 81.2461 63.9576 80.9275 68.3592 80.9913L76.3331 81.5648C76.9285 81.055 78.5552 80.2478 81.2132 79.1433C84.3602 77.8264 86.9119 77.0511 88.8682 76.8175C93.5249 76.2652 97.7458 76.4882 101.531 77.4865C105.061 78.4424 108.325 80.1098 111.323 82.4887C116.362 80.5771 121.891 79.908 127.908 80.4815C132.353 80.9063 135.138 81.5329 136.265 82.3613Z" fill="#5DC1CF"/>
<path d="M81.2134 79.1433C84.3604 77.8264 86.9121 77.0511 88.8683 76.8175C96.3319 75.9466 102.711 77.083 108.006 80.2266C105.029 82.0958 102.158 84.3579 99.3939 87.013C97.5865 88.7335 95.1092 91.3779 91.9622 94.9463C85.3704 86.6625 78.3853 83.8587 71.0067 86.5351C70.9217 85.1332 70.4326 83.8906 69.5395 82.8073C68.6464 81.724 67.6258 81.1293 66.4775 81.0231L72.442 81.1824L76.3333 81.5647C76.9287 81.055 78.5554 80.2478 81.2134 79.1433Z" fill="#50A8B4"/>
<path d="M62.4268 121.423C62.4268 121.253 63.2348 121.253 64.8508 121.423C66.5094 121.593 67.6258 121.88 68.1999 122.283L67.8171 124.386L67.1792 126.361C66.9028 127.105 66.6051 127.498 66.2861 127.54C65.7545 127.604 64.9997 126.892 64.0215 125.405C63.0434 123.855 62.5118 122.527 62.4268 121.423Z" fill="#0D131A"/>
<path d="M67.4983 122.634L66.9242 124.131C66.4989 125.384 66.1906 126.021 65.9992 126.043C65.8503 126.043 65.6058 125.841 65.2656 125.437L64.0536 123.749C63.4156 122.687 63.0967 121.922 63.0967 121.455V121.359L64.9147 121.55C65.9141 121.848 66.7753 122.209 67.4983 122.634Z" fill="white"/>
<path d="M136.265 82.3613C136.754 82.7011 136.733 85.0482 136.202 89.4026C135.627 94.0543 134.681 98.9077 133.363 103.963C133.831 106.299 133.788 109.539 133.235 113.681C132.661 117.886 131.768 121.423 130.556 124.29C129.344 127.158 127.207 130.1 124.145 133.116C121.126 136.089 118.521 137.852 116.331 138.405C118.861 137.088 121.094 135.059 123.029 132.319C125.091 129.431 126.558 126.117 127.43 122.379C129.514 113.479 127.951 104.282 122.742 94.7871C121.317 92.1532 120.605 90.6345 120.605 90.2309C120.605 89.9973 121.2 89.4663 122.391 88.6379C125.495 86.4501 128.674 84.7402 131.928 83.5083C134.522 82.51 135.968 82.1276 136.265 82.3613Z" fill="#50A8B4"/>
<path d="M117.702 129.356L116.618 130.567C116.214 131.013 115.863 131.183 115.565 131.077C115.331 130.992 115.033 130.673 114.672 130.121L112.694 126.839L113.077 126.329L120.126 125.756L117.702 129.356Z" fill="#0D131A"/>
<path d="M113.683 126.871C115.958 126.276 117.659 126.032 118.786 126.138C117.022 128.815 116.033 130.11 115.82 130.025L114.863 128.719L113.683 126.871Z" fill="white"/>
<path d="M137.222 81.278C137.796 81.7028 137.849 84.2942 137.382 89.0521C136.807 94.5746 135.617 99.768 133.809 104.632C134.958 109.348 134.809 114.297 133.363 119.479C131.917 124.683 129.546 128.719 126.25 131.586C128.504 127.36 130.131 123.844 131.13 121.04C132.278 117.791 132.906 114.668 133.012 111.673C133.054 110.102 132.916 108.307 132.597 106.289C132.321 104.611 132.066 103.496 131.832 102.943C131.662 102.519 131.63 102.243 131.736 102.115C131.842 101.988 132.034 102.041 132.31 102.274L133.171 103.166C134.553 97.8563 135.478 93.0984 135.946 88.8928C136.35 85.3668 136.361 83.2959 135.978 82.6799C134.724 81.9152 132.012 81.3311 127.845 80.9275C121.912 80.354 116.458 81.0125 111.482 82.9029L111.227 82.9666L111.036 82.8392C108.038 80.4602 104.72 78.899 101.084 78.1556C97.6395 77.4547 93.6207 77.4334 89.0277 78.0919C86.1784 78.5167 83.1164 79.5256 79.8417 81.1187C77.609 82.202 75.6634 83.349 74.0048 84.5597C73.0267 85.2606 72.4526 85.5474 72.2825 85.4199C72.1124 85.335 72.2718 85.0164 72.7609 84.4641L74.4195 82.871L75.4401 81.9789L67.9127 81.4054C63.9152 81.3205 61.4592 81.5754 60.5448 82.1701C60.1621 82.5312 60.0877 83.8375 60.3216 86.089C60.598 88.7228 61.2465 91.7603 62.2672 95.2012L62.5862 94.9145C61.5868 88.9884 61.1296 85.3243 61.2146 83.9225C61.2359 83.5614 61.406 83.3383 61.725 83.2534C62.3416 83.2321 63.3517 84.4322 64.7551 86.8537C66.116 89.2114 66.8815 91.0062 67.0516 92.2382L67.4024 92.047L68.6782 91.8558C69.2949 91.8558 69.5926 91.9939 69.5713 92.27C69.5288 92.5462 69.1992 92.7586 68.5826 92.9073C67.9234 93.0772 66.924 93.5445 65.5844 94.3091C64.0534 95.18 62.9689 95.9871 62.331 96.7306C61.927 97.2191 61.8951 98.2493 62.2353 99.8211L62.8732 102.019C62.129 103.613 61.6612 105.875 61.4698 108.806C61.3635 110.25 61.3316 111.546 61.3741 112.693C60.1408 114.222 59.7687 115.858 60.2578 117.6C60.7468 119.341 61.8419 120.34 63.543 120.594C64.8827 120.786 66.9771 121.444 69.8265 122.57C73.4413 123.972 76.3119 125.48 78.4383 127.094L78.534 127.158L78.5659 127.222C79.2676 128.475 80.3627 129.664 81.8512 130.79C83.4034 131.958 84.6686 132.489 85.6468 132.383C86.795 132.277 89.2722 131.363 93.0784 129.643H93.1103C99.0004 128.092 106.209 126.818 114.736 125.82L119.775 125.182C120.498 125.119 121.21 124.853 121.912 124.386L123.284 123.303C123.666 123.005 123.932 122.931 124.081 123.08C124.251 123.228 124.198 123.515 123.922 123.94L122.901 125.119C122.369 125.544 121.561 125.905 120.477 126.202L118.882 126.425L115.948 126.744C106.166 127.891 98.8516 129.101 94.0034 130.376C89.7719 132.542 87.0395 133.689 85.8062 133.817C84.6367 133.944 83.1695 133.264 81.4046 131.778C79.8311 130.482 78.651 129.144 77.8642 127.763C75.8229 126.255 73.133 124.896 69.7946 123.685C67.3493 122.793 65.4143 122.241 63.9896 122.028C63.0114 121.858 62.2353 121.593 61.6612 121.232C63.7025 127.859 68.657 133.286 76.5246 137.513C82.4572 140.699 88.7619 142.26 95.4387 142.196C101.69 142.132 108.665 140.635 116.362 137.704C117.596 137.236 118.329 137.067 118.563 137.194C118.797 137.321 118.148 137.746 116.617 138.468C109.473 141.824 102.456 143.524 95.5663 143.566C88.6768 143.609 82.202 142.005 76.1418 138.755C67.53 134.125 62.3204 128.007 60.5129 120.403C59.2371 119.724 58.5992 118.502 58.5992 116.739C58.5779 115.04 59.1521 113.543 60.3216 112.247C60.2578 108.296 60.7894 104.919 61.9164 102.115C61.3422 101.202 61.0126 100.15 60.9276 98.9608C60.8213 97.7926 60.9914 96.8899 61.4379 96.2527C60.077 92.578 59.2796 89.0839 59.0457 85.7704C58.8544 82.9029 59.0776 81.2568 59.7156 80.8319C60.9701 80.046 63.7982 79.8124 68.1998 80.131L76.2375 81.0868C77.1944 80.4284 78.938 79.5894 81.4684 78.5698C84.4879 77.3379 86.9438 76.6051 88.8363 76.3714C93.4506 75.8192 97.5757 75.9678 101.212 76.8175C104.933 77.6883 108.346 79.3345 111.45 81.7559C116.511 79.8867 122.125 79.1539 128.291 79.5575C133.054 79.8761 136.031 80.4496 137.222 81.278Z" fill="#0D131A"/>
<path d="M61.8843 84.2092V84.0499C62.3946 84.5597 63.1601 85.8447 64.1808 87.9051C65.2652 90.0716 65.9244 91.7496 66.1583 92.9391C65.244 93.2152 64.2765 93.7781 63.2558 94.6277L62.4265 89.4981C62.065 86.9068 61.8843 85.1438 61.8843 84.2092Z" fill="#431E37"/>
<path d="M65.4565 99.8848C66.0306 100.097 66.4559 100.31 66.7323 100.522C68.3697 101.796 70.3047 104.547 72.5374 108.774C74.5149 112.597 75.9077 115.89 76.7157 118.651L77.1303 120.308C77.1516 120.711 77.0559 120.902 76.8433 120.881L76.333 120.531L76.1735 120.212C74.6637 120.594 72.3566 119.978 69.2521 118.364C66.743 117.09 64.6591 115.741 63.0005 114.318C62.6178 114.19 62.3839 113.967 62.2988 113.649C62.2563 113.458 62.3095 113.288 62.4583 113.139L62.7135 112.98C62.2882 110.558 62.3626 108.105 62.9368 105.62C63.4896 103.347 64.202 101.892 65.0738 101.255L64.2445 100.395C64.0956 100.097 64.0956 99.8848 64.2445 99.7574L65.4565 99.8848Z" fill="#0D131A"/>
<path d="M63.4155 110.813C63.4155 108.732 63.7451 106.682 64.4043 104.664C64.9784 102.922 65.4887 101.935 65.9353 101.701C66.9559 102.02 68.5826 104.282 70.8153 108.487C73.0055 112.587 74.5684 116.229 75.504 119.416C74.1431 119.522 72.1337 118.885 69.4757 117.504C67.2217 116.314 65.2867 115.061 63.6707 113.744C63.5006 112.682 63.4155 111.705 63.4155 110.813Z" fill="white"/>
<path d="M68.9335 104.632L69.5076 104.6C70.826 106.682 72.1656 109.209 73.5265 112.183C74.8874 115.178 75.8443 117.684 76.3971 119.702L76.4928 120.021L73.5584 119.702C71.347 119.32 69.6246 118.683 68.3913 117.791L68.2956 117.759L68.2318 117.631C67.2537 114.955 66.754 112.725 66.7327 110.941C66.6902 108.562 67.4238 106.459 68.9335 104.632Z" fill="#0D131A"/>
<path d="M67.8169 111.642C67.8169 109.411 68.2953 107.362 69.2522 105.492C70.4855 107.489 71.7188 109.836 72.9521 112.534C74.1854 115.252 75.0785 117.578 75.6313 119.511C74.1216 119.681 71.857 118.938 68.8376 117.281C68.1571 115.454 67.8169 113.574 67.8169 111.642Z" fill="#91308C"/>
<path d="M121.625 100.395C122.242 100.31 122.54 100.437 122.518 100.777C122.497 101.096 122.327 101.34 122.008 101.51L120.732 102.051C122.051 103.028 122.827 105.248 123.061 108.71C123.252 111.854 122.997 114.265 122.295 115.943C123.188 115.985 123.592 116.155 123.507 116.453L122.965 116.93L121.275 117.345L101.882 121.391L101.148 121.678C100.702 121.72 100.553 121.402 100.702 120.722C101.255 118.046 102.275 115.55 103.764 113.235C105.188 110.962 107.219 108.615 109.856 106.193C113.428 102.943 117.351 101.011 121.625 100.395Z" fill="#0D131A"/>
<path d="M110.334 108.009C112.078 106.416 113.832 105.078 115.597 103.995C117.213 103.018 118.574 102.412 119.68 102.179C120.317 102.943 120.817 104.356 121.179 106.416C121.519 108.264 121.689 110.208 121.689 112.247C121.689 114.074 121.551 115.401 121.274 116.229C119.02 116.548 113.428 117.759 104.497 119.862L102.201 120.403C102.413 118.683 103.232 116.739 104.657 114.573C106.081 112.385 107.974 110.197 110.334 108.009Z" fill="white"/>
<path d="M114.417 103.772L114.799 103.517L114.927 103.963C116.926 108.296 117.308 112.916 116.075 117.823L116.011 118.046L115.82 118.077L104.688 120.626L101.339 121.391V120.977C101.446 118.279 102.987 115.125 105.964 111.514C108.495 108.455 111.312 105.875 114.417 103.772Z" fill="#0D131A"/>
<path d="M114.417 104.6C115.374 108.211 115.852 111.27 115.852 113.776C115.852 115.114 115.714 116.346 115.438 117.472L104.529 119.989L102.073 120.563C102.307 118.035 103.796 115.125 106.539 111.833C108.878 109.029 111.504 106.618 114.417 104.6Z" fill="#91308C"/>
<path d="M134.894 84.3048L134.415 84.7827L134.16 84.942C134.713 85.7492 134.617 88.2237 133.873 92.3656C133.235 95.8703 132.682 98.2387 132.214 99.4706L131.704 100.586L131.353 100.044C131.141 99.5131 130.216 98.3555 128.578 96.5713C126.707 94.5747 125.017 93.0666 123.507 92.047L122.805 92.5249C122.529 92.7161 122.348 92.7161 122.263 92.5249C122.178 92.3125 122.327 91.9833 122.709 91.5372C123.284 90.8575 124.857 89.5406 127.43 87.5865C130.279 85.3987 132.172 84.2092 133.107 84.0181L134.926 83.8269C135.074 83.8906 135.064 84.0499 134.894 84.3048Z" fill="#0D131A"/>
<path d="M132.725 92.4931C132.342 95.1057 131.938 97.2722 131.513 98.9927C130.811 97.8245 129.886 96.5819 128.738 95.265C127.356 93.6507 125.984 92.3656 124.624 91.4098C125.984 90.0716 127.388 88.8609 128.834 87.7776C130.641 86.397 132.119 85.5367 133.267 85.1969L133.363 86.089C133.363 87.5121 133.15 89.6468 132.725 92.4931Z" fill="#431E37"/>
<path d="M76.2694 103.708C75.9292 102.986 75.8441 102.54 76.0143 102.37C76.1844 102.2 76.4927 102.508 76.9392 103.294C77.5771 104.356 78.1406 105.514 78.6297 106.767C79.2676 108.445 79.6291 109.974 79.7142 111.355C79.7992 112.735 79.746 113.213 79.5547 112.788L78.8849 110.622L77.7366 107.213L76.2694 103.708Z" fill="#0D131A"/>
<path d="M104.88 101.382C105.326 101.064 105.603 100.979 105.709 101.127C105.816 101.297 105.699 101.531 105.358 101.828C104.444 102.657 103.583 103.974 102.775 105.779C101.903 107.733 101.223 109.985 100.733 112.534C100.585 113.383 100.415 113.872 100.223 113.999C100.032 114.148 99.9574 113.712 99.9999 112.693C100.255 107.213 101.882 103.443 104.88 101.382Z" fill="#0D131A"/>
<path d="M79.778 125.692L80.4797 125.724C80.8624 125.979 81.1708 126.308 81.4047 126.712L81.915 127.922C82.0426 128.305 82.0426 128.496 81.915 128.496L81.3409 128.114L80.0332 126.552C79.778 126.213 79.6929 125.926 79.778 125.692Z" fill="#0D131A"/>
<path d="M87.6245 128.878C87.8159 128.22 88.5707 127.593 89.8891 126.999C90.2718 126.807 90.527 126.839 90.6546 127.094C90.8034 127.349 90.7077 127.593 90.3675 127.827L88.1986 129.229L87.4331 129.547L87.6245 128.878Z" fill="#0D131A"/>
<path d="M71.3256 108.87L72.4738 111.164L73.5583 113.521C73.4732 114.498 73.3031 115.306 73.0479 115.943C72.7715 116.601 72.4632 116.93 72.123 116.93C71.719 116.93 71.3681 116.506 71.0704 115.656C70.794 114.785 70.6558 113.744 70.6558 112.534C70.6558 110.941 70.879 109.719 71.3256 108.87Z" fill="#0D131A"/>
<path d="M108.484 115.178C108.314 116.283 107.995 117.207 107.527 117.95C107.081 118.672 106.624 118.991 106.156 118.906C105.709 118.842 105.38 118.396 105.167 117.568C104.976 116.718 104.965 115.741 105.135 114.636C105.305 113.532 105.624 112.619 106.092 111.896C106.539 111.153 106.996 110.824 107.464 110.909C107.931 110.994 108.261 111.45 108.452 112.279C108.644 113.107 108.654 114.074 108.484 115.178Z" fill="#0D131A"/>
<path d="M107.623 60.4091C110.748 58.901 115.246 57.0743 121.115 54.929C127.154 52.6987 131.672 51.2544 134.67 50.5959L135.531 50.6596C135.574 50.8295 135.329 50.9782 134.798 51.1057C132.097 51.7854 127.494 53.389 120.987 55.9167C114.821 58.3169 110.026 60.3241 106.602 61.9384L107.623 60.4091Z" fill="#0D131A"/>
<path d="M147.812 49.5764C143.006 50.7021 136.127 52.858 127.175 56.0441C117.011 59.655 109.175 62.8942 103.668 65.7617L104.019 64.6466C109.356 61.8428 116.873 58.7311 126.569 55.3113C135.798 52.0828 142.836 50.0012 147.684 49.0666C148.216 48.9816 148.503 49.0135 148.545 49.1622C148.588 49.3321 148.343 49.4702 147.812 49.5764Z" fill="#0D131A"/>
<path d="M125.804 53.5908C126.123 51.488 126.644 49.5232 127.367 47.6965C127.473 47.3779 127.59 47.2399 127.717 47.2824C127.866 47.3248 127.888 47.5054 127.781 47.824C127.292 49.3321 126.867 51.2013 126.505 53.4315L125.804 53.5908Z" fill="#0D131A"/>
<path d="M116.841 57C117.287 54.706 117.755 52.7412 118.244 51.1057C118.351 50.7871 118.468 50.6596 118.595 50.7233C118.723 50.7871 118.744 50.9782 118.659 51.2968C118.276 52.72 117.947 54.4829 117.67 56.5858L116.841 57Z" fill="#0D131A"/>
<path d="M128.004 52.6987C128.153 51.573 128.355 50.5747 128.61 49.7038C128.674 49.4489 128.781 49.3427 128.929 49.3852C129.057 49.4277 129.099 49.5764 129.057 49.8312L128.61 52.5394L128.004 52.6987Z" fill="#0D131A"/>
<path d="M133.713 53.4952L136.01 55.5025C136.201 55.6724 136.244 55.8105 136.137 55.9167L135.691 55.8211L132.916 53.6545L133.713 53.4952Z" fill="#0D131A"/>
<path d="M117.064 59.4214L117.734 59.0709C118.478 59.5594 119.424 60.3135 120.572 61.333L123.156 63.9456C123.347 64.1793 123.39 64.3492 123.284 64.4554C123.156 64.5616 122.997 64.4979 122.805 64.2642L119.966 61.7154L117.064 59.4214Z" fill="#0D131A"/>
<path d="M122.008 57.4779L122.741 57.1593C124.464 58.4549 125.984 59.8993 127.302 61.4923C127.515 61.726 127.558 61.8853 127.43 61.9703C127.302 62.0552 127.132 61.9809 126.92 61.7472C125.389 60.1754 123.751 58.7523 122.008 57.4779Z" fill="#0D131A"/>
<path d="M62.2992 61.811L63.6389 62.6393C59.7689 63.4677 54.9313 64.6253 49.1263 66.1122C42.2581 67.8964 37.6013 69.2664 35.156 70.2222L34.2948 70.2541C34.231 70.1054 34.4543 69.9249 34.9646 69.7125C37.6651 68.608 42.1731 67.153 48.4884 65.3475C54.1446 63.7545 58.7482 62.5756 62.2992 61.811Z" fill="#0D131A"/>
<path d="M23.6416 76.467L22.8123 76.5307C22.7485 76.382 22.9612 76.2015 23.4502 75.9891C27.6179 74.1412 33.4123 72.1339 40.8334 69.9674C48.1907 67.8008 54.7718 66.1759 60.5768 65.0926L62.363 65.698C56.6855 66.8025 49.7748 68.4911 41.6308 70.7639C33.6356 72.9942 27.6392 74.8952 23.6416 76.467Z" fill="#0D131A"/>
<path d="M41.6306 62.7349C41.3541 62.5438 41.2584 62.3951 41.3435 62.2889L41.8857 62.3845C43.4592 63.4253 45.0115 64.7316 46.5425 66.3034L45.8727 66.5901C44.363 65.0183 42.9489 63.7332 41.6306 62.7349Z" fill="#0D131A"/>
<path d="M48.903 65.475L48.297 65.698L46.3832 63.7545C46.1281 63.5208 46.043 63.3509 46.1281 63.2447C46.2131 63.1385 46.3939 63.1916 46.6703 63.404L48.903 65.475Z" fill="#0D131A"/>
<path d="M29.064 74.1411L29.67 73.9181C29.4999 74.8739 29.3936 75.8404 29.3511 76.8175C29.3298 77.1361 29.2448 77.306 29.0959 77.3272C28.9683 77.3272 28.8939 77.1679 28.8726 76.8493C28.8514 76.1484 28.9152 75.2457 29.064 74.1411Z" fill="#0D131A"/>
<path d="M43.3531 69.7443C43.2893 70.8488 43.2575 72.102 43.2575 73.5039C43.2787 75.2032 43.3425 76.4139 43.4488 77.1361C43.4914 77.4334 43.4382 77.5928 43.2893 77.614C43.1405 77.6565 43.0342 77.529 42.9704 77.2317C42.8003 76.3183 42.6727 75.097 42.5876 73.5676C42.5238 71.9958 42.5451 70.7745 42.6514 69.9036L43.3531 69.7443Z" fill="#0D131A"/>
<path d="M40.4826 70.5409C40.1849 72.7711 40.0786 74.9164 40.1637 76.9768C40.1849 77.2954 40.1211 77.4759 39.9723 77.5184C39.8447 77.5397 39.7596 77.4016 39.7171 77.1042C39.4832 75.1076 39.4938 73.0048 39.749 70.7958L40.4826 70.5409Z" fill="#0D131A"/>
<path d="M88.2941 85.7385C89.5699 84.5066 93.3655 84.6022 99.6809 86.0253C106.039 87.4484 109.281 89.0308 109.409 90.7726C109.515 92.3231 107.432 95.0632 103.158 98.9927C98.8622 102.943 95.864 104.802 94.1629 104.568C92.5256 104.335 90.8564 101.404 89.1553 95.7748C87.4755 90.1672 87.1884 86.8218 88.2941 85.7385Z" fill="#008982"/>
<path d="M87.9752 90.6451C87.5712 87.99 87.6775 86.3545 88.2942 85.7385C88.9108 85.1438 90.4312 84.9102 92.8553 85.0376C95.1092 85.1438 97.5865 85.5261 100.287 86.1846C98.3307 87.99 95.5558 90.9106 91.9622 94.9464C90.4737 93.1409 89.1447 91.7072 87.9752 90.6451Z" fill="#00736D"/>
<path d="M87.6243 103.804C88.1133 104.675 88.0495 106.374 87.4329 108.901C86.8375 111.344 86.2527 112.587 85.6786 112.629C85.2533 112.672 84.4985 111.705 83.414 109.73C82.3083 107.691 81.8618 106.31 82.0744 105.588C82.287 104.866 83.2226 104.303 84.8812 103.899L87.6243 103.804Z" fill="#008982"/>
<path d="M50.7527 114.732L47.882 114.636C47.5206 114.424 46.9677 113.744 46.2235 112.597C45.4367 111.344 45.0752 110.484 45.139 110.017C45.2028 109.443 45.5962 108.402 46.3192 106.894C47.0634 105.28 47.7119 104.175 48.2648 103.581C48.8602 102.965 50.1254 102.529 52.0604 102.274C53.9529 102.019 54.9841 102.104 55.1543 102.529C55.4519 103.251 55.4519 105.152 55.1543 108.232C54.8778 111.418 54.4844 113.256 53.9741 113.744C53.485 114.233 52.4112 114.562 50.7527 114.732Z" fill="#008982"/>
<path d="M45.4264 99.152C45.3626 99.5981 44.8735 100.108 43.9592 100.681C43.0874 101.212 42.4813 101.457 42.1411 101.414C41.7796 101.35 41.2693 100.713 40.6101 99.5025C39.9297 98.2281 39.7596 97.4422 40.0998 97.1448C40.5038 96.7837 41.5032 96.8899 43.098 97.4634C44.7353 98.0581 45.5114 98.621 45.4264 99.152Z" fill="#008982"/>
<path d="M24.7261 125.82L24.758 122.634L24.2477 118.014C24.0563 116.123 23.95 114.467 23.9287 113.043C25.6511 112.555 26.7674 112.342 27.2778 112.406C27.618 112.449 28.3941 113.543 29.6061 115.688C30.8182 117.854 31.4242 119.278 31.4242 119.957C31.4242 120.658 30.967 121.869 30.0527 123.589C29.1383 125.289 28.4685 126.223 28.0433 126.393C27.5329 126.627 26.4272 126.436 24.7261 125.82Z" fill="#008982"/>
<path d="M82.5848 144.968C83.0101 144.883 84.5198 145.903 87.114 148.027C89.7082 150.13 91.0797 151.457 91.2285 152.009C91.3774 152.562 91.1541 153.656 90.5587 155.291C89.9846 156.927 89.5274 157.829 89.1872 157.999C88.8683 158.127 88.0709 158.127 86.795 157.999L84.4667 157.553C84.1477 157.383 83.5948 156.746 82.8081 155.642C82.0213 154.516 81.5535 153.698 81.4047 153.188C81.2346 152.636 81.309 151.16 81.6279 148.76C81.9256 146.296 82.2446 145.032 82.5848 144.968Z" fill="#008982"/>
<path d="M80.8622 159.656C81.2237 159.529 82.0636 159.762 83.3819 160.357C84.7215 160.952 85.4339 161.461 85.5189 161.886C85.604 162.311 85.2638 163.001 84.4983 163.957C83.7753 164.892 83.2437 165.402 82.9035 165.487L81.4044 165.295C80.724 165.083 80.3199 164.817 80.1924 164.499C80.001 163.989 80.001 163.076 80.1924 161.759C80.3837 160.442 80.607 159.741 80.8622 159.656Z" fill="#008982"/>
<path d="M122.327 149.46C122.136 149.843 121.2 150.14 119.52 150.353C117.84 150.565 116.947 150.469 116.841 150.066C116.735 149.641 117.107 148.791 117.957 147.517C118.808 146.243 119.435 145.616 119.839 145.637C120.243 145.68 120.807 146.243 121.53 147.326C122.231 148.43 122.497 149.142 122.327 149.46Z" fill="#008982"/>
<path d="M127.973 147.644L127.877 147.899L125.325 147.804C124.942 147.421 124.698 146.338 124.592 144.554C124.485 142.897 124.528 141.739 124.719 141.081L124.783 140.826C126.867 140.486 128.664 140.518 130.173 140.922C129.557 143.279 128.823 145.52 127.973 147.644Z" fill="#008982"/>
<path d="M131.258 136.461L130.173 140.922C128.663 140.518 126.867 140.486 124.783 140.826C125.038 140.104 125.442 139.276 125.995 138.341C126.611 137.3 127.079 136.716 127.398 136.589L129.057 136.397L131.258 136.461Z" fill="#00736D"/>
<path d="M99.4575 86.7262C93.1634 85.3668 89.6124 85.2288 88.8043 86.312C88.0388 87.3741 88.3897 90.454 89.8569 95.5517C91.3241 100.713 92.7594 103.496 94.1628 103.899C95.6088 104.345 98.3943 102.519 102.519 98.4192C106.432 94.5534 108.473 92.0576 108.643 90.9319C108.856 89.4875 105.794 88.0856 99.4575 86.7262ZM110.111 91.0593C109.919 92.5886 107.697 95.4137 103.444 99.5343C98.9578 103.889 95.7682 105.779 93.8758 105.206C91.8132 104.611 89.9845 101.414 88.3897 95.6154C86.8374 89.9654 86.5929 86.482 87.6561 85.165C88.2302 84.4641 89.7612 84.1455 92.2491 84.2092C94.5668 84.2729 97.1504 84.634 99.9997 85.2925C107.038 86.9493 110.408 88.8715 110.111 91.0593Z" fill="#0D131A"/>
<path d="M82.5528 105.62C82.4465 106.13 82.8505 107.319 83.7649 109.188C84.6792 111.057 85.2959 111.95 85.6148 111.865C86.0188 111.758 86.4547 110.548 86.9225 108.232C87.3904 105.917 87.4435 104.579 87.082 104.218C86.7843 103.921 85.9657 103.984 84.6261 104.409C83.3077 104.855 82.6166 105.259 82.5528 105.62ZM87.9113 103.262C88.6343 103.921 88.7087 105.662 88.1346 108.487C87.5605 111.291 86.8162 112.852 85.9019 113.171C85.0939 113.468 84.0519 112.427 82.7761 110.048C81.5428 107.754 81.0112 106.193 81.1813 105.365C81.3302 104.664 82.3402 104.006 84.2114 103.39L87.9113 103.262Z" fill="#0D131A"/>
<path d="M43.8634 100.267C44.6714 99.7786 45.0223 99.4175 44.916 99.1839C44.7671 98.8015 44.076 98.3767 42.8427 97.9094C41.6094 97.4634 40.8333 97.3253 40.5143 97.4952C40.2592 97.6227 40.3974 98.1962 40.929 99.2157C41.4606 100.214 41.8859 100.766 42.2048 100.873C42.5238 100.957 43.0766 100.756 43.8634 100.267ZM41.9816 101.924C41.4287 101.754 40.8014 100.968 40.0997 99.5662C39.398 98.1006 39.2598 97.1448 39.6851 96.6987C40.1316 96.2102 41.2692 96.3058 43.0979 96.9855C44.9266 97.6652 45.8728 98.3555 45.9366 99.0564C46.0004 99.6087 45.4901 100.267 44.4056 101.032C43.3212 101.796 42.5131 102.094 41.9816 101.924Z" fill="#0D131A"/>
<path d="M45.9367 106.416C46.9998 104.271 47.6803 103.103 47.978 102.912C48.6797 102.466 49.9343 102.083 51.7417 101.765C53.6767 101.404 54.8887 101.425 55.3778 101.828C55.9307 102.274 56.0582 104.25 55.7605 107.754C55.4841 111.153 55.0907 113.224 54.5804 113.967C54.1764 114.562 53.0813 114.976 51.2951 115.21C49.7641 115.401 48.6372 115.412 47.9142 115.242C47.4251 115.136 46.7447 114.413 45.8729 113.075C45.0011 111.758 44.5226 110.76 44.4376 110.08C44.395 109.762 44.8947 108.54 45.9367 106.416ZM46.9254 106.862C46.0749 108.689 45.6602 109.73 45.6815 109.985C45.7028 110.495 46.0323 111.28 46.6703 112.342C47.3294 113.426 47.861 114.042 48.265 114.19C48.6903 114.339 49.6153 114.328 51.04 114.159C52.5497 113.967 53.4322 113.681 53.6873 113.298C54.0913 112.704 54.4209 110.877 54.6761 107.818C54.91 104.76 54.8781 103.113 54.5804 102.88L52.0287 102.784C50.5828 102.997 49.4133 103.368 48.5202 103.899C48.3076 104.048 47.776 105.036 46.9254 106.862Z" fill="#0D131A"/>
<path d="M25.5553 113.203C24.7898 113.373 24.1413 113.585 23.6097 113.84L23.5459 112.565C24.12 112.332 24.8324 112.119 25.6829 111.928L27.5329 111.705C28.107 111.833 29.032 113.15 30.3078 115.656C31.5624 118.077 32.1577 119.564 32.0939 120.117C32.0089 120.902 31.5198 122.177 30.6267 123.94C29.6061 125.915 28.7555 126.945 28.0751 127.03L26.0019 126.807C25.1301 126.595 24.4815 126.361 24.0562 126.106V124.736C24.439 125.055 25.0131 125.331 25.7786 125.565L27.6604 125.82C28.0857 125.756 28.7024 124.917 29.5104 123.303C30.2759 121.731 30.6586 120.679 30.6586 120.148C30.6586 119.575 30.1589 118.279 29.1595 116.261C28.1389 114.243 27.4478 113.171 27.0863 113.043L25.5553 113.203Z" fill="#0D131A"/>
<path d="M82.7763 145.637C82.4574 145.765 82.2235 146.784 82.0746 148.696C81.947 150.246 81.9045 151.733 81.947 153.156C81.9683 153.411 82.3617 154.07 83.1272 155.132C83.8927 156.151 84.3924 156.735 84.6263 156.884L86.8271 157.394C88.0816 157.564 88.8152 157.574 89.0279 157.426C89.3468 157.192 89.7402 156.364 90.208 154.941C90.6758 153.454 90.8034 152.498 90.5908 152.073C90.2505 151.393 88.9534 150.119 86.6995 148.25C84.4243 146.359 83.1165 145.488 82.7763 145.637ZM81.0539 148.441C81.3091 145.998 81.7025 144.671 82.2341 144.458C82.8933 144.203 84.5412 145.138 87.1779 147.262C89.687 149.301 91.1649 150.756 91.6114 151.627C91.9304 152.285 91.8028 153.475 91.2287 155.195C90.7183 156.746 90.2293 157.755 89.7615 158.222C89.4425 158.562 88.5282 158.668 87.0184 158.541C85.6576 158.435 84.6901 158.254 84.1159 157.999C83.8182 157.893 83.2016 157.15 82.266 155.769C81.3304 154.388 80.8519 153.517 80.8307 153.156C80.7669 151.903 80.8413 150.331 81.0539 148.441Z" fill="#0D131A"/>
<path d="M84.3072 163.32C84.7325 162.577 84.9026 162.12 84.8176 161.95C84.6687 161.674 84.0946 161.302 83.0952 160.835C82.0745 160.368 81.4047 160.145 81.0858 160.166C80.9157 160.166 80.7668 160.676 80.6392 161.695C80.4904 162.757 80.501 163.575 80.6711 164.148C80.7349 164.361 81.0751 164.573 81.6918 164.786L82.9357 164.945C83.3823 164.669 83.8394 164.127 84.3072 163.32ZM86.0296 161.695C86.0084 162.311 85.6681 163.108 85.009 164.085C84.3923 164.998 83.8607 165.593 83.4142 165.869L81.3728 165.741C80.3522 165.423 79.7993 165.072 79.7143 164.69C79.5016 163.968 79.491 162.885 79.6824 161.44C79.8525 159.911 80.1502 159.082 80.5754 158.955C81.0858 158.785 82.1277 159.082 83.7012 159.847C85.2747 160.612 86.0509 161.228 86.0296 161.695Z" fill="#0D131A"/>
<path d="M119.839 146.147C119.626 146.147 119.137 146.71 118.372 147.836C117.606 148.983 117.287 149.641 117.415 149.811L119.615 149.747C120.955 149.514 121.667 149.269 121.753 149.014C121.838 148.823 121.593 148.303 121.019 147.453C120.445 146.604 120.051 146.168 119.839 146.147ZM119.934 145.096C120.445 145.18 121.125 145.86 121.976 147.135C122.805 148.409 123.135 149.237 122.965 149.62C122.731 150.151 121.657 150.565 119.743 150.862C117.808 151.16 116.639 151.085 116.235 150.639C115.894 150.257 116.288 149.216 117.415 147.517C118.542 145.818 119.382 145.011 119.934 145.096Z" fill="#0D131A"/>
<path d="M129.822 135.792L132.342 136.079L131.959 137.385L129.854 137.067C128.855 137.003 128.111 137.003 127.622 137.067C127.345 137.088 126.888 137.704 126.25 138.914C125.655 140.083 125.293 140.964 125.166 141.559C124.996 142.366 124.964 143.481 125.07 144.904C125.198 146.37 125.389 147.177 125.644 147.326L126.665 147.485L129.025 147.039L128.419 148.409C126.697 148.834 125.516 148.834 124.879 148.409C124.39 148.09 124.081 146.901 123.954 144.841C123.826 143.141 123.826 141.973 123.954 141.336C124.039 140.805 124.443 139.838 125.166 138.437C125.995 136.759 126.686 135.888 127.239 135.824C127.792 135.76 128.653 135.75 129.822 135.792Z" fill="#0D131A"/>
<path d="M120.349 69.2983L121.083 70.4771L121.944 71.9427C122.306 72.6225 122.423 73.0048 122.295 73.0897L121.306 73.1216L119.967 72.9623L121.274 73.4402C121.678 73.5889 121.944 73.7482 122.072 73.9181C122.306 74.2155 122.423 75.2032 122.423 76.8812C122.444 78.5805 122.242 79.3239 121.817 79.1115L117.83 77.614L113.747 76.2121C116.022 77.7414 117.883 79.1115 119.329 80.3222L120.317 81.1824C120.615 81.501 120.69 81.7878 120.541 82.0427C117.543 87.544 115.895 90.3053 115.597 90.3265C115.427 90.3265 114.778 89.6787 113.651 88.383L111.036 85.2606L112.981 92.047C113.194 93.0028 113.067 93.8312 112.599 94.5322C112.322 94.957 111.142 96.0403 109.058 97.782C106.974 99.5237 105.89 100.341 105.805 100.235L105.518 97.1129L105.263 92.748L104.019 95.265C103.53 96.2633 103.179 96.7837 102.966 96.8262C102.69 96.8899 101.18 96.2527 98.437 94.9145C95.694 93.5763 94.3437 92.7692 94.3863 92.4931C94.4288 92.2594 95.1518 91.1655 96.5552 89.2114L99.043 85.8023C98.6816 86.1846 97.8735 87.1723 96.619 88.7653L94.8966 90.7726L92.1217 89.1795L89.5062 87.3953C89.5062 87.2041 90.2505 86.3014 91.7389 84.6871C93.3124 82.9666 94.7052 81.5754 95.9173 80.5133C95.0455 80.9169 93.6952 81.979 91.8665 83.6994L89.1554 86.089C88.9002 86.1103 87.6669 85.1863 85.4555 83.3171C83.2653 81.4692 82.1596 80.4071 82.1383 80.131C82.1171 79.8761 82.8507 78.8778 84.3391 77.1361C85.7638 75.4368 87.1247 73.95 88.4218 72.6756C87.55 73.1641 85.7425 74.7359 82.9995 77.391C80.4478 79.8761 79.087 81.1187 78.9168 81.1187C78.6192 81.1187 78.0238 80.3434 77.1307 78.7929C76.2589 77.2635 75.8442 76.3289 75.8868 75.9891C75.9293 75.6492 76.4715 74.8102 77.5134 73.4721C78.8531 71.7303 80.3628 70.2435 82.0426 69.0115C87.231 65.167 92.7171 64.551 98.5008 67.1636L99.0749 66.9406C106.836 63.4784 113.896 64.243 120.254 69.2346L120.349 69.2983Z" fill="#0D131A"/>
<path d="M117.224 76.8175L111.45 74.8102C110.111 74.4492 109.441 74.3323 109.441 74.4598C109.441 74.566 110.036 74.9271 111.227 75.543C112.354 76.1378 113.853 77.1361 115.724 78.538L119.711 81.8834L117.383 86.0253C116.277 87.9794 115.639 88.9671 115.469 88.9884C115.235 88.9884 113.587 87.1617 110.525 83.5083L109.632 82.6162L109.856 83.8906L111.227 88.9884C112.035 91.7921 112.407 93.2684 112.343 93.4171L109.856 95.711L106.475 98.5785L106.411 94.118C106.39 91.739 106.315 90.4434 106.188 90.231C105.975 89.8911 104.805 91.7284 102.679 95.7429C99.2131 93.6826 96.9379 92.4294 95.8534 91.9833L98.6921 88.0325L101.499 84.1136L102.392 82.9666C102.498 82.6693 102.052 82.7861 101.052 83.3171C99.4363 84.1667 97.3206 86.3014 94.7052 89.7212L90.7182 87.2042L94.1948 83.4127C96.0448 81.501 97.2887 80.3753 97.9266 80.0354L99.2024 79.3345L97.799 79.3026C95.46 79.4513 92.5575 81.3524 89.0915 85.0057L83.2227 80.0354C83.9669 79.0371 85.0833 77.6777 86.5717 75.9572C88.4004 73.8332 89.5912 72.58 90.1441 72.1976L91.1966 71.433L90.0165 71.4967C87.9964 71.8153 85.8169 73.026 83.4779 75.1289C82.2233 76.2758 80.7348 77.837 79.0125 79.8124L76.6841 76.1803C78.534 72.9942 80.9475 70.4878 83.9244 68.6611C88.5599 65.7936 93.5675 65.5175 98.9473 67.8327L99.3619 67.6734C102.254 66.5264 104.912 65.8892 107.336 65.7617C111.844 65.5493 115.969 66.8981 119.711 69.8081L120.892 72.2295L119.998 72.1339L117.893 72.0702L116.267 72.2614C116.33 72.3676 116.809 72.5587 117.702 72.8349C118.723 73.1535 119.977 73.7163 121.466 74.5235L121.593 76.2758C121.636 77.3591 121.604 78.0388 121.498 78.3149L117.224 76.8175Z" fill="#00A63C"/>
<path d="M50.3064 44.0007L50.3701 44.7972C45.8835 42.9493 42.2899 41.6536 39.5894 40.9102C39.0578 40.7615 38.8239 40.6022 38.8877 40.4323L39.7489 40.3685C42.6408 41.1757 46.1599 42.3864 50.3064 44.0007Z" fill="#0D131A"/>
<path d="M50.7209 46.3902L50.8804 47.2824C43.7357 43.7989 37.3566 41.2394 31.7429 39.6039C31.2326 39.4552 31.0093 39.2959 31.0731 39.1259L31.9024 39.0941C37.5373 40.6871 43.8101 43.1192 50.7209 46.3902Z" fill="#0D131A"/>
<path d="M46.734 42.9493L46.0323 42.7581C45.8197 40.5491 45.5007 38.6693 45.0754 37.1187C44.9904 36.8001 45.0117 36.6196 45.1392 36.5771C45.2668 36.5346 45.3838 36.6727 45.4901 36.9913C46.0855 38.8392 46.5001 40.8252 46.734 42.9493Z" fill="#0D131A"/>
<path d="M44.7244 42.2165L44.0865 42.0253C44.0865 40.9208 43.9696 39.8694 43.7357 38.8711C43.6931 38.6162 43.7357 38.4675 43.8633 38.425L44.1822 38.7436C44.5437 39.6782 44.7244 40.8358 44.7244 42.2165Z" fill="#0D131A"/>
<path d="M44.5012 44.0007L45.171 44.2874L42.6193 46.5177L39.7806 48.4293C39.5042 48.5568 39.334 48.5568 39.2703 48.4293C39.1852 48.3019 39.2809 48.1638 39.5573 48.0152C40.5355 47.4417 42.1834 46.1035 44.5012 44.0007Z" fill="#0D131A"/>
<path d="M104.688 76.0528C103.583 72.1445 101.669 69.4045 98.9473 67.8327L99.7128 67.291C102.562 69.0115 104.518 71.9534 105.582 76.1165C106.56 79.9186 106.634 83.9968 105.805 88.3511C105.677 88.9671 105.528 89.2539 105.358 89.2114C105.188 89.1689 105.146 88.8397 105.231 88.2237C105.911 83.7632 105.73 79.7062 104.688 76.0528Z" fill="#0D131A"/>
<path d="M106.953 83.1897C107.506 75.6917 105.422 70.1798 100.702 66.6538L101.595 66.3671C106.464 69.978 108.431 75.6174 107.495 83.2852C107.41 83.9225 107.293 84.2304 107.145 84.2092C106.974 84.1667 106.911 83.8269 106.953 83.1897Z" fill="#0D131A"/>
<path d="M103.19 71.7197L103.923 72.6756C102.307 72.5906 100.765 72.8242 99.2982 73.3765C97.8736 73.9287 96.3957 74.8315 94.8647 76.0847C94.4607 76.4033 94.2056 76.5095 94.0992 76.4033C93.9717 76.3183 94.0886 76.0953 94.4501 75.7342C97.0655 73.1004 99.9787 71.7622 103.19 71.7197Z" fill="#0D131A"/>
</svg>
