<svg width="186" height="179" viewBox="0 0 186 179" fill="none" xmlns="http://www.w3.org/2000/svg">
<path d="M85.211 92.3299C83.4531 91.3541 80.3767 87.3369 75.9819 80.2784C72.2055 74.1957 69.6988 69.7394 68.4618 66.9095C67.3224 64.3723 66.0853 60.8919 64.7506 56.4681C63.1554 51.3938 62.6345 48.6452 63.1879 48.2223C64.0344 47.6043 66.5736 47.2302 70.8057 47.1001L72.2706 42.1722C73.41 38.8543 74.3704 37.1954 75.1517 37.1954C75.933 37.1954 80.1163 40.2693 87.7015 46.417L98.8351 55.6386L101.179 60.3714C103.49 64.2097 106.469 67.7389 110.115 70.9592L109.529 77.6924C108.52 82.6692 106.404 86.4098 103.181 88.9145C99.4699 91.8094 96.1331 93.4846 93.1706 93.94C90.5663 94.3303 87.9131 93.7936 85.211 92.3299Z" fill="#AFCEE5"/>
<path d="M161.779 11.6287C169.495 17.1258 173.352 23.3224 173.352 30.2182C173.352 31.5194 172.994 32.5928 172.278 33.4385L170.667 31.2429C168.29 35.9919 167.102 40.1717 167.102 43.7823C167.102 49.0843 167.932 51.7353 169.592 51.7353C170.341 51.7353 171.025 51.3775 171.643 50.6619L172.376 49.5397L173.743 51.2474C174.622 52.7437 175.062 54.3375 175.062 56.029C175.062 57.7529 174.492 59.2492 173.352 60.5178L171.643 61.9327C170.602 66.7468 167.118 71.2031 161.193 75.3016C154.682 79.7904 147.439 82.0349 139.463 82.0349C127.353 82.0349 116.805 77.6924 107.82 69.0075C99.0957 60.6154 94.7334 51.1498 94.7334 40.6108C94.7334 29.4538 99.0957 20.2973 107.82 13.1412C115.829 6.60314 125.123 3.33411 135.703 3.33411C145.339 3.33411 154.031 6.09896 161.779 11.6287Z" fill="#AFCEE5"/>
<path d="M160.559 77.2533C162.121 77.9364 163.668 78.6845 165.198 79.4977C167.672 80.8314 171.074 82.9619 175.403 85.8894H178.529C180.645 85.987 181.735 86.2635 181.8 86.7189C181.963 87.402 181.703 89.0609 181.019 91.6956L182.826 92.4763C184.063 93.0618 184.73 93.5822 184.828 94.0376C184.991 94.7207 183.754 96.3796 181.117 99.0143C181.963 100.25 182.158 101.373 181.703 102.381C181.28 103.292 179.212 104.398 175.501 105.699C171.302 107.13 167.281 107.846 163.44 107.846C159.924 107.846 156.571 107.358 153.38 106.382L149.62 104.918C150.109 100.82 150.271 96.7537 150.109 92.7202C150.011 90.2156 149.523 87.5158 148.644 84.6208L147.325 81.0103L153.576 79.0586C154.682 78.6683 156.392 77.8063 158.703 76.4727L160.559 77.2533Z" fill="#AFCEE5"/>
<path d="M73.5405 118.287C75.2984 118.287 77.3331 119.312 79.6444 121.361C82.3465 123.735 84.4951 126.842 86.0902 130.68C89.8991 139.918 91.1362 146.001 89.8014 148.928C89.3131 150.067 88.0272 152.034 85.9437 154.832C83.2092 158.507 81.3536 161.11 80.3769 162.638L74.1265 171.665C71.75 174.918 70.3501 176.625 69.9269 176.788C69.4061 177.016 67.1272 175.08 63.0905 170.982C56.3517 173.682 52.8196 174.95 52.494 174.788C52.201 174.657 51.8592 172.348 51.4685 167.859C46.1947 165.062 43.5253 163.24 43.4601 162.395C43.4276 161.874 44.5833 160.557 46.9272 158.442L50.4431 155.417C50.671 152.75 51.1104 149.758 51.7615 146.44C53.0963 139.772 54.903 134.762 57.1819 131.412C63.0742 122.662 68.5271 118.287 73.5405 118.287Z" fill="#AFCEE5"/>
<path d="M129.208 140.926C131.91 139.17 134.824 136.324 137.949 132.388L141.856 126.972L146.934 131.705C150.287 135.673 151.964 139.707 151.964 143.805C151.964 146.7 151.736 149.058 151.28 150.88L150.548 152.734L154.552 154.734C157.156 156.166 158.377 157.174 158.214 157.759C158.084 158.41 156.815 159.548 154.406 161.175C154.21 161.305 154.357 161.565 154.845 161.955C155.333 162.378 155.447 162.671 155.187 162.834C151.834 164.85 147.309 166.867 141.612 168.884C136.208 170.836 132.838 171.73 131.504 171.567C130.657 171.47 128.932 169.778 126.327 166.493C124.016 163.566 122.616 161.565 122.128 160.492C121.835 159.874 119.719 157.889 115.78 154.539L109.92 149.709C118.417 146.619 124.846 143.691 129.208 140.926Z" fill="#AFCEE5"/>
<path d="M2.34375 92.769C2.34375 83.9215 5.25738 76.619 11.0846 70.8616C16.6189 65.3644 23.26 62.6158 31.008 62.6158C37.9746 62.6158 43.5414 65.0717 47.7084 69.9834C52.0382 75.0577 54.203 82.0837 54.203 91.0613L53.2752 100.478C52.6567 105.78 52.3474 110.285 52.3474 113.993C52.3474 118.059 53.2589 122.044 55.082 125.947C55.961 127.866 56.8562 129.395 57.7677 130.534L55.6192 135.022L53.2752 141.073C50.9964 141.04 48.2293 140.634 44.9738 139.853C38.4629 138.226 32.7659 135.478 27.8827 131.607C20.7533 125.915 14.8772 119.8 10.2545 113.261C4.98066 105.78 2.34375 98.9493 2.34375 92.769Z" fill="#AFCEE5"/>
<path d="M110.116 70.9592L115.096 74.1795C119.198 76.6191 123.219 78.587 127.158 80.0832C131.097 81.5795 135.638 82.1813 140.782 81.8885L147.325 81.0103L148.888 85.987C149.897 89.9879 150.402 93.7937 150.402 97.4042C150.402 111.977 145.34 124.581 135.215 135.218C124.928 146.017 112.541 151.416 98.0541 151.416C95.6126 151.416 93.464 151.14 91.6084 150.587L89.5574 149.709C89.9155 148.245 89.9969 146.261 89.8016 143.756C89.3784 138.747 87.7344 133.624 84.8696 128.387C82.0373 123.15 79.0912 119.881 76.031 118.58C75.087 118.157 74.1917 117.962 73.3453 117.994L72.3198 118.141L75.2009 115.555C77.4472 113.148 79.433 110.301 81.1584 107.016C82.9163 103.731 84.1208 100.364 84.7719 96.9163L85.2114 92.769L86.5787 93.4033C87.7506 93.8262 88.9877 94.0864 90.2899 94.184C94.4894 94.4442 98.6238 92.8992 102.693 89.5488C106.144 86.7189 108.406 82.7668 109.481 77.6925L110.116 70.9592Z" fill="#F2E100"/>
<path d="M81.1093 88.5241C81.9231 89.6626 83.3718 91.0613 85.4553 92.7202L84.7228 97.2578C83.9415 100.836 82.8021 104.007 81.3046 106.772C79.8397 109.57 77.8538 112.318 75.3471 115.018L72.0266 118.238L70.5128 118.775L67.3876 120.092C66.5086 120.548 65.418 121.442 64.1158 122.776L62.4067 124.679C62.6997 122.825 63.0904 120.824 63.5787 118.677C64.5228 114.416 65.4343 111.586 66.3133 110.188C66.8993 109.277 68.2828 107.634 70.464 105.26C72.5475 102.95 74.1101 100.901 75.1518 99.1119C76.3238 97.0952 77.1051 94.0051 77.4957 89.8415L77.7887 84.1817L81.1093 88.5241Z" fill="#EEEEEF"/>
<path d="M77.4472 89.6951C77.1542 94.184 76.3891 97.4367 75.1521 99.4534C74.1103 101.21 72.4012 103.357 70.0247 105.894C67.7134 108.333 66.2973 110.025 65.7764 110.968C64.6044 113.05 63.4325 117.425 62.2605 124.093L57.768 130.534C56.8565 129.655 55.9612 128.257 55.0822 126.338C53.2592 122.467 52.3477 117.88 52.3477 112.578C52.3477 100.153 54.9846 88.6055 60.2584 77.9364C62.8953 72.6018 65.5322 68.5196 68.1691 65.6897L72.6128 74.277L77.496 83.5474L77.4472 89.6951Z" fill="#CF7100"/>
<path d="M88.8735 47.4904L94.245 43.7823L97.1749 55.0043L88.8735 47.4904Z" fill="#EEEEEF"/>
<path d="M119.54 42.221C119.215 41.6355 119.149 40.1067 119.345 37.6346C119.605 34.9023 120.126 32.2187 120.907 29.584C123.186 22.2002 126.702 18.5083 131.455 18.5083C133.376 18.5083 134.792 19.8419 135.703 22.5092C136.81 25.6644 136.566 29.6653 134.971 34.5119C134.124 37.0491 133.05 39.3748 131.748 41.4891C130.478 43.5384 129.404 44.7419 128.525 45.0997C127.744 45.3924 126.084 45.0834 123.544 44.1727C121.103 43.2944 119.768 42.6439 119.54 42.221Z" fill="#C6000B"/>
<path d="M170.667 31.2429C171.155 31.2429 171.757 31.9422 172.474 33.3409C173.45 35.2275 173.939 37.537 173.939 40.2693C173.939 43.3594 173.401 46.1243 172.327 48.5639C171.318 50.8408 170.276 51.9793 169.202 51.9793C167.639 51.9793 166.858 49.7836 166.858 45.3924C166.858 41.8794 167.493 38.464 168.762 35.1462L170.667 31.2429Z" fill="#C6000B"/>
<path d="M128.867 45.246C130.592 43.6197 131.976 41.8632 133.017 39.9766C134.059 38.0574 134.987 36.0732 135.801 34.024L135.215 39.3423C134.661 42.9528 134.01 44.9533 133.262 45.3436L130.38 45.6364L128.867 45.246Z" fill="white"/>
<path d="M129.453 23.485C130.267 23.6477 130.885 24.4934 131.308 26.0222C131.731 27.6486 131.748 29.5352 131.357 31.682C130.999 33.6011 130.332 35.195 129.355 36.4636C128.346 37.7972 127.304 38.3502 126.23 38.1225C125.188 37.8948 124.488 36.9678 124.13 35.3414C123.772 33.8451 123.804 32.1374 124.228 30.2183C124.716 28.0064 125.514 26.2499 126.62 24.9488C127.63 23.8103 128.574 23.3224 129.453 23.485Z" fill="#0D131A"/>
<path d="M168.176 46.3682C167.688 46.2056 167.411 45.5388 167.346 44.3678C167.281 43.3594 167.379 42.2372 167.639 41.0012C167.9 39.7651 168.307 38.6429 168.86 37.6346C169.511 36.4961 170.113 36.057 170.667 36.3172C171.253 36.5774 171.562 37.3418 171.595 38.6104C171.66 39.6513 171.529 40.8873 171.204 42.3185C170.943 43.457 170.455 44.4654 169.739 45.3436C169.088 46.1243 168.567 46.4658 168.176 46.3682Z" fill="#0D131A"/>
<path d="M130.82 18.9962C131.439 19.354 131.959 20.1184 132.383 21.2894C132.838 22.7206 132.855 24.1193 132.432 25.4855C131.976 26.9818 131.146 28.0877 129.941 28.8033C128.867 29.4864 127.858 29.6653 126.914 29.34C125.742 28.9822 124.96 28.169 124.57 26.9004C124.179 25.5993 124.293 24.1193 124.911 22.4604C125.432 21.0942 126.409 20.0534 127.841 19.3378C129.144 18.6872 130.136 18.5733 130.82 18.9962Z" fill="white"/>
<path d="M170.569 32.9505C170.862 33.0481 171.09 33.4385 171.253 34.1215C171.416 34.8372 171.416 35.569 171.253 36.3172C170.765 38.5616 170.146 39.6187 169.397 39.4886C168.941 39.391 168.649 39.0007 168.518 38.3176C168.388 37.6345 168.437 36.8213 168.665 35.878C169.251 33.7312 169.886 32.7554 170.569 32.9505Z" fill="white"/>
<path d="M110.115 70.9592L116.17 74.4722C121.249 77.0419 126.295 78.9773 131.308 80.2784C134.466 81.0591 138.096 81.3518 142.198 81.1567L147.374 80.62L148.106 82.4252C147.325 83.1083 146.186 83.8077 144.688 84.5233C141.693 85.8894 138.389 86.5725 134.775 86.5725C130.804 86.5725 125.92 84.5558 120.126 80.5224C114.917 76.8793 111.58 73.6916 110.115 70.9592Z" fill="#CBBD00"/>
<path d="M127.011 142.292C118.156 148.375 108.667 151.416 98.5422 151.416L92.1941 150.587L89.5572 149.709L90.0943 147.367C90.3548 145.513 90.3222 143.87 89.9967 142.439L89.1177 137.706L88.7759 135.51C95.3519 137.885 103.588 138.975 113.485 138.779C124.358 138.584 132.285 136.714 137.266 133.168C134.857 136.226 131.439 139.267 127.011 142.292Z" fill="#CBBD00"/>
<path d="M80.621 57.8343C80.2954 58.8752 79.9048 59.5257 79.449 59.786C79.0258 60.0462 78.7165 59.7534 78.5212 58.9077C78.2282 57.4114 78.1143 55.4923 78.1794 53.1503L78.3747 50.0764C78.3747 48.9705 78.5375 48.1736 78.863 47.6857C79.2211 47.0676 79.6769 47.5068 80.2303 49.003C81.3697 52.0606 81.4999 55.0044 80.621 57.8343Z" fill="#88A3D4"/>
<path d="M84.8693 92.4763C82.8184 90.9149 79.9048 87.158 76.1285 81.2054C72.7754 75.8709 70.3826 71.5284 68.9502 68.1781C67.8108 65.5758 66.6714 62.502 65.532 58.9565C64.5554 55.9639 63.888 53.6707 63.5299 52.0768C63.1067 50.3204 63.1881 49.2469 63.774 48.8566C64.4577 48.3687 65.6622 49.4421 67.3876 52.0768L85.553 74.033C95.417 85.9057 99.7956 92.151 98.6887 92.769C96.8982 93.7774 94.8147 94.3466 92.4383 94.4767C89.4107 94.6719 86.8877 94.0051 84.8693 92.4763Z" fill="#88A3D4"/>
<path d="M162.658 107.797C159.045 107.797 155.789 107.325 152.892 106.382L149.62 104.918L150.401 97.4042C152.583 98.7053 156.619 99.9576 162.512 101.161C169.771 102.657 176.168 103.064 181.703 102.381C181.084 103.292 179.831 104.202 177.943 105.113C174.134 106.902 169.039 107.797 162.658 107.797Z" fill="#88A3D4"/>
<path d="M127.646 142.146C126.018 143.317 125.514 145.008 126.132 147.22C126.686 149.335 128.134 151.449 130.478 153.563C136.208 158.735 142.995 160.833 150.841 159.857L149.376 159.223C148.269 158.8 147.781 158.573 147.911 158.54L153.185 158.052L158.508 156.93C157.824 158.296 156.489 159.678 154.503 161.077C154.373 161.142 154.454 161.419 154.747 161.907C155.04 162.362 155.106 162.639 154.943 162.736C153.576 163.614 150.743 165.111 146.446 167.225C142.181 169.274 138.487 170.608 135.361 171.226L130.918 171.421C130.169 171.193 127.402 167.501 122.616 160.345L109.676 150.197L113.485 148.831L120.028 146.196C122.535 145.057 125.074 143.707 127.646 142.146Z" fill="#88A3D4"/>
<path d="M43.8507 162.736C43.7205 162.118 45.1855 162.476 48.2456 163.809C51.1755 165.078 52.4451 166.314 52.0545 167.518L47.562 166.005L43.8507 162.736Z" fill="#88A3D4"/>
<path d="M62.7488 170.787L56.4007 173.714L53.715 174.3L52.0547 174.495L52.4942 172.934C52.6895 173.226 54.0242 172.706 56.4984 171.372C59.3632 169.876 61.0886 169.063 61.6745 168.933C62.5861 168.705 63.1395 168.9 63.3348 169.518C63.4976 170.071 63.3023 170.494 62.7488 170.787Z" fill="#88A3D4"/>
<path d="M67.5342 175.275C67.8597 175.438 68.8689 174.511 70.5617 172.494C72.2546 170.478 73.5242 168.672 74.3706 167.079L82.2814 151.807C86.6111 142.959 88.6132 137.722 88.2877 136.096L89.6549 141.024C90.4362 144.699 90.4037 147.594 89.5573 149.709C88.8085 151.595 87.7017 153.384 86.2367 155.076C84.0556 157.548 82.4116 159.63 81.3047 161.321C74.4032 171.86 70.692 177.13 70.1711 177.13L68.5596 176.203L67.5342 175.275Z" fill="#88A3D4"/>
<path d="M56.01 133.851L53.2754 141.073C51.0943 141.17 48.3271 140.796 44.974 139.95C38.2678 138.259 32.0011 135.071 26.1738 130.387C20.0861 125.508 14.9588 120.06 10.7918 114.042L6.39697 106.479C12.68 109.927 16.2773 111.7 17.1888 111.798C18.1329 111.928 21.2581 111.245 26.5645 109.748C29.8199 116.449 34.7356 122.272 41.3116 127.216C47.204 131.64 52.1035 133.851 56.01 133.851Z" fill="#88A3D4"/>
<path d="M3.41828 83.1571C4.13448 80.8476 5.12739 78.6357 6.39701 76.5214L8.05729 74.0331C7.01555 79.758 7.38992 84.9136 9.18042 89.5C10.743 93.5009 13.1846 96.6561 16.5052 98.9655C19.5653 101.112 22.7556 102.137 26.0762 102.039C29.4619 101.909 32.0825 100.624 33.9381 98.1849L33.3033 100.576C32.7499 102.365 32.0825 103.845 31.3012 105.016C30.2594 106.61 28.5829 108.09 26.2715 109.456C23.6346 111.017 21.1279 111.798 18.7514 111.798C16.2447 111.798 13.7706 111.05 11.329 109.553C8.95254 108.122 7.14577 106.349 5.9087 104.235C1.9696 97.5669 1.13946 90.5409 3.41828 83.1571Z" fill="#88A3D4"/>
<path d="M58.6957 81.6933C59.8351 78.961 61.0559 76.5377 62.3581 74.4234L63.9695 72.0326C61.6582 78.1803 60.8118 86.1496 61.4303 95.9405C62.0163 105.081 63.3347 110.741 65.3857 112.92L62.2604 124.093L57.7679 130.534C56.7913 129.883 55.8309 128.615 54.8868 126.728C52.9987 122.955 52.2011 117.929 52.4941 111.651C53.015 100.364 55.0822 90.3782 58.6957 81.6933Z" fill="#A95B00"/>
<path d="M77.3004 112.725L72.8079 118.141L70.6593 118.775C69.0641 119.328 67.8108 119.897 66.8993 120.483L62.2603 124.093C62.8788 120.873 63.3508 118.645 63.6764 117.409L64.7018 114.432L65.3855 112.92C65.6785 113.831 66.883 114.384 68.999 114.579C71.5708 114.806 74.338 114.188 77.3004 112.725Z" fill="#C8C9CA"/>
<path d="M169.251 17.8252C171.725 21.0454 173.32 24.2006 174.036 27.2908C174.752 30.3484 174.443 32.6253 173.108 34.1216C172.978 34.2842 172.799 34.0077 172.571 33.2921C172.343 32.544 172.278 32.0723 172.376 31.8772C173.157 30.6086 173.011 28.6407 171.936 25.9734C170.829 23.2411 169.039 20.4599 166.565 17.63C160.314 10.5065 152.941 6.31039 144.444 5.04181C132.366 3.22026 121.754 5.23698 112.606 11.092C103.458 16.9469 98.0376 25.209 96.3448 35.8781C94.7171 46.2219 97.533 55.6549 104.793 64.1772C112.02 72.6344 121.64 77.8551 133.652 79.8393C142.084 81.2379 150.06 79.9856 157.58 76.0823C164.677 72.3742 169.071 67.5926 170.764 61.7376L171.643 61.7864C172.132 62.0141 172.343 62.2418 172.278 62.4695C170.52 68.6497 165.914 73.6915 158.459 77.5948C150.613 81.6608 142.247 82.9619 133.359 81.4982C120.858 79.4164 110.75 73.9192 103.035 65.0066C95.2217 55.9965 92.1778 46.1243 93.9032 35.3902C95.7263 23.9079 101.309 15.2067 110.652 9.28668C120.028 3.33411 131.39 1.36618 144.737 3.3829C154.927 4.9117 163.098 9.7258 169.251 17.8252Z" fill="#0D131A"/>
<path d="M171.839 49.6373C171.741 49.5397 171.855 49.3445 172.181 49.0518C172.506 48.7915 172.75 48.7265 172.913 48.8566C174.899 50.7432 175.827 53.1991 175.697 56.2241C175.534 59.2167 174.427 61.4611 172.376 62.9574L171.302 62.8598C170.911 62.4694 170.439 62.1116 169.886 61.7864C169.104 61.331 168.404 61.1033 167.786 61.1033L162.512 63.2989C159.094 64.7301 156.424 65.4132 154.504 65.3481C153.69 65.3156 151.671 64.3398 148.449 62.4207C144.835 60.2738 142.605 59.054 141.759 58.7613C140.391 58.3059 137.706 57.7041 133.701 56.956L124.716 55.5898C122.438 55.3621 120.24 54.4351 118.124 52.8087C116.106 51.2799 114.576 49.4746 113.534 47.3929C113.046 46.3845 112.98 45.799 113.339 45.6364C113.664 45.4737 114.071 45.8966 114.559 46.9049C115.438 48.694 116.854 50.2553 118.808 51.5889C120.794 52.9226 122.828 53.7032 124.912 53.9309L134.043 55.2971C138.178 56.0778 140.945 56.7283 142.345 57.2488C143.191 57.574 145.372 58.7613 148.888 60.8105C152.046 62.6646 153.967 63.6242 154.65 63.6892C156.408 63.8193 158.98 63.1688 162.366 61.7376L167.688 59.4444C169.088 59.3793 170.504 59.9648 171.937 61.2009C173.109 60.16 173.76 58.436 173.89 56.029C174.02 53.3942 173.336 51.2637 171.839 49.6373Z" fill="#0D131A"/>
<path d="M149.571 53.7846C149.962 53.5894 150.548 54.0936 151.329 55.2971C152.143 56.5006 152.29 57.2162 151.769 57.4439C151.248 57.6716 150.662 57.1674 150.011 55.9314C149.36 54.6628 149.213 53.9472 149.571 53.7846Z" fill="#0D131A"/>
<path d="M162.61 56.956C162.805 57.3463 162.43 57.8993 161.486 58.6149C160.575 59.298 160.021 59.5094 159.826 59.2492C159.631 58.989 160.005 58.436 160.949 57.5903C161.861 56.7446 162.414 56.5331 162.61 56.956Z" fill="#0D131A"/>
<path d="M169.202 26.315L170.325 26.1686C170.455 26.3637 170.227 26.6565 169.641 27.0468L168.469 28.2666L167.297 30.1207C167.004 30.7387 166.679 30.9501 166.321 30.755C165.963 30.5598 165.914 30.1532 166.174 29.5352C166.923 27.9413 167.932 26.8679 169.202 26.315Z" fill="#0D131A"/>
<path d="M134.775 15.6784C134.157 15.3531 133.896 15.0441 133.994 14.7513C134.124 14.4911 134.499 14.4911 135.117 14.7513C136.289 15.2718 137.266 16.0199 138.047 16.9957C138.894 18.0691 139.382 19.2564 139.512 20.5575C139.577 21.5984 139.431 22.1351 139.073 22.1676C138.682 22.1676 138.405 21.6797 138.242 20.7039C137.787 18.4269 136.631 16.7518 134.775 15.6784Z" fill="#0D131A"/>
<path d="M135.948 41.3915C135.101 44.319 134.336 45.9291 133.652 46.2219C132.318 46.8074 129.599 46.5797 125.498 45.5388C121.233 44.4654 118.938 43.2944 118.612 42.0258C118.319 40.8548 118.319 38.9682 118.612 36.366C118.905 33.4385 119.491 30.6574 120.37 28.0226C122.779 20.834 126.344 17.4023 131.064 17.7276C135.915 18.0529 138.064 22.7531 137.51 31.8284C137.315 35.1462 136.794 38.3339 135.948 41.3915ZM130.967 19.3865C129.079 19.2564 127.353 20.1347 125.791 22.0213C124.228 23.9404 122.91 26.8028 121.835 30.6086C121.282 32.5602 120.842 34.8534 120.517 37.4882C120.224 39.7651 120.126 41.1475 120.224 41.6355L120.468 41.9282L121.396 42.5625C122.861 43.3106 125.042 43.9287 127.939 44.4166L132.92 44.7581C133.343 44.3027 133.848 42.8552 134.434 40.4157C135.117 37.6833 135.541 35.0161 135.703 32.4139L135.801 29.4376C135.801 25.5993 135.264 22.867 134.19 21.2406C133.408 20.1021 132.334 19.4841 130.967 19.3865Z" fill="#0D131A"/>
<path d="M135.313 24.1681C135.28 23.9404 135.508 23.794 135.996 23.729C136.485 23.6639 136.745 23.7452 136.777 23.9729C137.266 27.1606 136.94 30.7549 135.801 34.7558C134.499 39.3748 132.48 42.8227 129.746 45.0997L128.964 45.0021C128.574 44.872 128.46 44.7418 128.623 44.6117C131.227 42.3348 133.148 38.9682 134.385 34.5119C135.492 30.6086 135.801 27.1606 135.313 24.1681Z" fill="#0D131A"/>
<path d="M172.327 35.0974C171.904 33.6987 171.383 32.6741 170.765 32.0235C169.853 33.78 169.121 35.9594 168.567 38.5616C168.079 41.0012 167.835 43.3432 167.835 45.5876C167.835 47.5718 168.046 49.1494 168.469 50.3204C168.697 50.8733 168.909 51.1498 169.104 51.1498C169.527 51.1824 169.934 51.036 170.325 50.7107C171.041 50.1252 171.644 49.0193 172.132 47.3929C172.588 45.7665 172.881 43.8148 173.011 41.5379L173.06 40.3181C173.06 38.4315 172.815 36.6913 172.327 35.0974ZM171.302 29.4864C171.692 29.0635 171.871 29.0473 171.839 29.4376L171.302 30.9989C172.409 31.8446 173.288 33.3572 173.939 35.5365C174.557 37.5858 174.801 39.6188 174.671 41.6355C174.443 45.6364 173.711 48.6289 172.474 50.6131C171.464 52.207 170.292 52.9389 168.958 52.8087C168.111 52.7437 167.444 52.1094 166.956 50.9059C166.012 48.5964 165.963 45.1322 166.809 40.5133C167.721 35.6016 169.218 31.926 171.302 29.4864Z" fill="#0D131A"/>
<path d="M88.776 48.3199L87.604 47.1001C89.4271 44.8557 91.6896 43.4895 94.3916 43.0016C94.7171 42.9365 94.8962 43.213 94.9288 43.8311C94.9613 44.4491 94.8311 44.7906 94.5381 44.8557C92.1942 45.5062 90.2735 46.661 88.776 48.3199Z" fill="#0D131A"/>
<path d="M67.7293 64.5187L68.9501 66.9095C65.5319 71.4959 62.5694 76.4727 60.0627 81.8397C56.4492 89.4512 54.2843 97.9735 53.5681 107.406C52.7543 117.978 54.3494 125.508 58.3536 129.997C58.5164 130.16 58.4025 130.42 58.0118 130.778C57.6211 131.135 57.3444 131.233 57.1817 131.07C52.917 126.321 51.0126 118.433 51.4684 107.406C51.859 97.2904 53.8774 88.4103 57.5235 80.7663C60.3232 74.8788 63.7251 69.4629 67.7293 64.5187Z" fill="#0D131A"/>
<path d="M76.2262 91.8908C76.8122 88.02 76.861 84.751 76.3727 82.0837C76.3076 81.8885 76.6168 82.0674 77.3005 82.6204C77.9516 83.1734 78.2934 83.5637 78.326 83.7914C78.8794 86.7514 78.8306 89.9554 78.1795 93.4033C77.5609 96.6886 76.6006 99.2583 75.2984 101.112L70.2199 106.919C68.3968 108.805 67.2249 110.285 66.704 111.359C65.8901 113.115 65.1088 115.246 64.3601 117.75C63.6439 120.255 63.2044 122.223 63.0416 123.654L62.1627 125.02L61.3325 125.752C61.593 123.573 62.0975 121.003 62.8463 118.043C63.6602 114.953 64.474 112.513 65.2879 110.724C65.8739 109.456 67.1923 107.699 69.2433 105.455L73.7358 100.039C74.8101 98.3475 75.6402 95.6315 76.2262 91.8908Z" fill="#0D131A"/>
<path d="M57.4751 83.645C57.5076 83.4173 57.7844 83.3685 58.3052 83.4986C58.8261 83.5962 59.0703 83.7426 59.0377 83.9378C58.3215 87.5809 58.5168 92.0534 59.6237 97.3554C60.8608 103.113 62.8954 108.203 65.7277 112.627C65.8579 112.822 65.6951 113.066 65.2393 113.359L64.4092 113.457C61.0235 108.22 58.7773 102.853 57.6704 97.3554C56.6612 92.5413 56.5961 87.9712 57.4751 83.645Z" fill="#0D131A"/>
<path d="M84.2348 92.4762C84.2348 92.2811 84.5441 92.3299 85.1626 92.6226L86.0904 93.2081C85.8951 102.609 81.6142 110.952 73.2477 118.238C73.0849 118.368 72.6617 118.368 71.9781 118.238C71.327 118.108 71.0828 117.978 71.2456 117.848C74.2732 115.538 77.1054 112.042 79.7423 107.358C82.7373 102.023 84.2348 97.0626 84.2348 92.4762Z" fill="#0D131A"/>
<path d="M146.446 81.3518C146.348 81.1241 146.544 80.9127 147.032 80.7175C147.52 80.4898 147.797 80.4898 147.862 80.7175C150.174 85.9545 151.329 90.9475 151.329 95.6965C151.329 118.271 142.556 134.6 125.009 144.683C118.465 148.456 111.548 150.815 104.255 151.758C97.7446 152.571 92.78 152.132 89.3618 150.441C89.1665 150.343 89.1827 150.067 89.4106 149.611C89.6385 149.123 89.8501 148.928 90.0454 149.026C93.4311 150.717 98.2817 151.075 104.597 150.099C111.531 149.058 118.124 146.635 124.374 142.829C131.764 138.34 137.575 132.485 141.807 125.264C146.82 116.807 149.327 106.951 149.327 95.6965C149.327 90.6222 148.367 85.8406 146.446 81.3518Z" fill="#0D131A"/>
<path d="M107.039 84.5232C106.974 84.3606 107.104 84.019 107.43 83.4986C107.788 83.0107 108 82.8643 108.065 83.0595C109.399 86.2472 111.808 89.1096 115.292 91.6468C118.808 94.1514 122.991 96.0218 127.842 97.2578C132.236 98.3963 136.42 98.8191 140.391 98.5264C144.363 98.2011 147.39 97.209 149.474 95.5501C149.637 95.42 149.881 95.5664 150.206 95.9892C150.532 96.4121 150.613 96.6886 150.451 96.8187C148.107 98.6728 144.851 99.8275 140.684 100.283C136.387 100.771 131.943 100.429 127.353 99.2583C122.568 98.0222 118.352 96.0543 114.706 93.3545C111.19 90.7848 108.634 87.841 107.039 84.5232Z" fill="#0D131A"/>
<path d="M137.266 99.5022C136.713 105.878 134.011 114.497 129.16 125.362C124.179 136.519 119.752 143.463 115.878 146.196L115.145 145.757C114.852 145.334 114.787 145.057 114.95 144.927C118.108 142.683 122.275 135.771 127.451 124.191C132.497 112.871 135.248 104.593 135.703 99.3559C135.703 99.1282 135.964 99.0468 136.485 99.1119C137.038 99.1444 137.299 99.2745 137.266 99.5022Z" fill="#0D131A"/>
<path d="M100.935 89.8416L101.521 90.0367L101.765 90.5734L102.596 103.357L103.182 114.92L102.986 115.457L97.4682 120.824C93.2687 124.597 89.3459 127.395 85.6998 129.216L85.1138 129.265L84.6255 128.875L84.5767 128.533C84.5767 128.208 84.7232 127.964 85.0161 127.801C90.0295 125.297 95.5638 120.905 101.619 114.628L100.984 103.162L100.203 90.671V90.6222C100.203 90.1018 100.447 89.8416 100.935 89.8416Z" fill="#0D131A"/>
<path d="M126.474 127.265L134.141 127.606C137.266 127.509 139.757 127.216 141.612 126.728C141.84 126.695 141.873 126.923 141.71 127.411L141.173 128.192C139.35 128.81 136.973 129.233 134.043 129.46C131.016 129.72 128.281 129.688 125.84 129.363C120.989 128.745 116.448 127.232 112.215 124.825C108.081 122.451 104.842 119.556 102.498 116.14C102.368 115.945 102.384 115.571 102.547 115.018C102.677 114.465 102.807 114.27 102.937 114.432C105.021 117.523 108.325 120.255 112.85 122.629C117.05 124.809 121.591 126.354 126.474 127.265Z" fill="#0D131A"/>
<path d="M90.0454 144.634C89.8175 144.602 89.7524 144.374 89.8501 143.951C89.9152 143.528 90.0617 143.333 90.2896 143.366L102.693 144.537C108.618 144.895 112.834 144.976 115.34 144.781L115.877 144.927L116.17 145.415L116.415 147.855C116.48 148.082 116.284 148.245 115.829 148.343L115.096 148.196L114.754 146.391L101.863 146.001L90.0454 144.634Z" fill="#0D131A"/>
<path d="M76.8609 119.897C75.4936 118.954 73.8659 118.694 71.9777 119.116C70.1546 119.474 68.2502 120.466 66.2644 122.093C63.4321 124.402 60.6813 127.818 58.0118 132.339C55.9934 135.722 54.2355 140.568 52.738 146.879C52.0218 150.034 51.4847 152.88 51.1266 155.417L50.8336 155.905L46.3899 159.809C45.1203 161.11 44.4854 161.955 44.4854 162.346C44.5506 162.736 45.3319 163.387 46.8294 164.297C48.2943 165.241 49.9871 166.135 51.9079 166.981C52.2334 167.079 52.3962 167.306 52.3962 167.664C52.3962 170.884 52.6078 172.885 53.031 173.665C54.3332 173.405 57.6212 172.202 62.895 170.055L63.8228 170.25L67.1434 173.861C68.3479 174.999 69.1455 175.617 69.5361 175.715C70.1546 175.389 71.6521 173.584 74.0286 170.299L79.1071 162.785C80.214 160.996 82.5905 157.727 86.2366 152.978L88.141 150.489C88.9548 149.449 89.3618 147.806 89.3618 145.561L89.1176 142.292C88.434 137.999 86.9039 133.656 84.5274 129.265C82.1184 124.906 79.5629 121.784 76.8609 119.897ZM51.2242 144.878C52.4938 138.698 54.1053 133.965 56.0586 130.68C59.6395 124.662 63.6112 120.629 67.9735 118.58C71.8149 116.726 75.0704 116.726 77.7398 118.58C83.1439 122.353 87.083 128.159 89.5571 135.998C91.901 143.48 91.8359 148.798 89.3618 151.953C85.325 156.995 82.3626 160.882 80.4744 163.614L75.2006 172.007C72.6939 175.975 71.0173 178.04 70.1709 178.203C68.9013 178.496 66.5085 176.333 62.9927 171.714C60.7464 173.145 58.5001 174.316 56.2539 175.227C54.0727 176.105 52.6729 176.43 52.0544 176.203C51.5335 176.007 51.1917 175.341 51.0289 174.202C50.9312 173.324 50.8661 171.323 50.8336 168.201L45.3156 165.859C42.9717 164.72 41.7509 163.728 41.6532 162.882C41.5881 162.167 42.1904 161.126 43.46 159.76C44.8924 158.199 46.9433 156.572 49.6128 154.881L51.2242 144.878Z" fill="#0D131A"/>
<path d="M149.913 139.414C148.221 134.535 145.242 130.615 140.977 127.655C140.847 127.557 141.059 127.216 141.612 126.63C142.133 126.012 142.491 125.768 142.686 125.898C147.439 129.216 150.597 133.738 152.16 139.462C153.559 144.569 153.397 148.896 151.671 152.441C156.913 154.685 159.533 156.442 159.533 157.711C159.533 158.491 157.987 159.906 154.894 161.955L153.38 160.687C156.017 159.093 157.336 158.068 157.336 157.613C157.336 157.255 156.587 156.67 155.09 155.856C153.722 155.076 152.111 154.311 150.255 153.563L149.718 153.075L149.913 152.343C151.574 148.473 151.574 144.163 149.913 139.414Z" fill="#0D131A"/>
<path d="M159.045 76.3263C159.533 75.8383 159.842 75.6269 159.973 75.692C162.219 76.5052 165.279 78.1641 169.153 80.6687C173.352 83.336 176.217 85.6129 177.747 87.4995C178.105 87.9549 178.154 88.329 177.894 88.6217C177.601 88.8819 177.275 88.7844 176.917 88.329C175.452 86.5074 172.392 84.2467 167.737 81.5469C163.505 79.1074 160.445 77.6436 158.556 77.1557C158.361 77.0907 158.524 76.8142 159.045 76.3263Z" fill="#0D131A"/>
<path d="M175.355 85.7918C174.964 85.434 174.866 85.2389 175.062 85.2063L179.456 85.0112C181.214 85.1413 182.289 85.4666 182.679 85.987C182.907 86.3123 182.924 87.0279 182.728 88.1338L181.849 91.2077C184.421 91.9884 185.788 92.8991 185.951 93.94C185.984 94.2978 185.674 94.9321 185.023 95.8429C184.242 96.9488 183.151 98.0873 181.752 99.2583C182.403 100.071 182.728 100.95 182.728 101.893C182.728 102.836 181.735 103.893 179.749 105.064C177.666 106.268 175.094 107.211 172.034 107.894C164.058 109.683 156.522 108.968 149.425 105.748C149.197 105.65 149.165 105.292 149.327 104.674C149.458 104.024 149.62 103.747 149.816 103.845C151.639 104.658 153.885 105.341 156.554 105.894L166.663 106.87C169.983 106.87 173.287 106.154 176.575 104.723C179.44 103.454 180.873 102.479 180.873 101.795C180.873 101.242 180.612 100.478 180.091 99.5023C179.896 99.177 179.929 98.868 180.189 98.5752C182.435 96.3308 183.64 94.8508 183.802 94.1352C183.51 93.6473 182.468 93.078 180.677 92.4275L180.14 92.0859V91.5004C180.726 89.4512 181.019 87.9549 181.019 87.0116V86.914L179.066 86.5237L176.136 86.3773L175.355 85.7918Z" fill="#0D131A"/>
<path d="M26.8086 84.6696C25.7668 84.3769 24.7902 84.3769 23.8787 84.6696C22.9671 84.9949 22.2509 85.5641 21.7301 86.3773C21.3394 87.0279 20.9976 87.2718 20.7046 87.1092C20.4116 86.9465 20.4279 86.5399 20.7534 85.8894C21.4371 84.5232 22.3486 83.6287 23.488 83.2059C24.4972 82.8481 25.7505 82.8318 27.248 83.1571C29.7873 83.71 31.8708 85.19 33.4985 87.5971C35.1262 89.9391 35.9401 92.5901 35.9401 95.5501C35.9401 100.104 34.1659 104.121 30.6174 107.602C27.1015 111.017 23.0973 112.725 18.6048 112.725C13.917 112.725 9.79884 110.659 6.2504 106.528C2.6043 102.332 0.78125 97.3879 0.78125 91.6956C0.78125 82.7505 4.00414 75.3179 10.4499 69.3978C16.4074 63.9332 23.2601 61.2009 31.0081 61.2009C38.9514 61.2009 44.974 63.9982 49.0758 69.593C53.2102 75.1878 55.1635 83.2546 54.9356 93.7936C54.9031 94.7044 54.6101 95.4851 54.0567 96.1356C53.5032 96.7536 53.2428 96.7374 53.2753 96.0868C53.8939 85.3852 52.0383 77.1232 47.7085 71.3007C43.7043 65.9336 38.1375 63.2501 31.0081 63.2501C24.4972 63.2501 18.5234 65.6734 13.0868 70.5201C6.86894 76.0498 3.75998 83.1083 3.75998 91.6956C3.75998 97.0301 5.19238 101.535 8.05718 105.211C10.922 108.886 14.4379 110.724 18.6048 110.724C22.609 110.724 26.0435 109.244 28.9083 106.284C31.7406 103.324 33.1567 99.7462 33.1567 95.5501C33.1567 92.46 32.473 89.9066 31.1057 87.8898C29.9338 86.2309 28.5014 85.1575 26.8086 84.6696Z" fill="#0D131A"/>
<path d="M1.9043 98.2337C1.83919 98.0385 2.09962 97.9897 2.68561 98.0873C3.27159 98.1849 3.58085 98.2987 3.61341 98.4288C7.45484 109.651 14.3076 119.36 24.1716 127.557C34.0681 135.819 43.8833 139.95 53.6171 139.95C53.845 139.95 53.8775 140.292 53.7147 140.975C53.552 141.658 53.3566 142 53.1288 142C43.2973 142 33.3194 137.739 23.1949 129.216C12.8752 120.531 5.77828 110.204 1.9043 98.2337Z" fill="#0D131A"/>
<path d="M108.651 150.685C108.488 150.587 108.781 150.359 109.53 150.001C110.246 149.644 110.669 149.497 110.799 149.562C115.52 151.969 120.354 156.279 125.302 162.492L129.746 168.347C131.015 169.974 131.878 170.77 132.334 170.738C135.459 170.543 139.968 169.242 145.86 166.835C151.492 164.525 154.324 162.98 154.357 162.199C154.39 161.874 153.934 161.451 152.99 160.931C152.046 160.41 150.923 159.971 149.62 159.613C148.351 159.223 147.781 158.865 147.911 158.54L150.011 158.394C151.867 158.751 153.462 159.369 154.796 160.248C156.034 161.093 156.554 161.793 156.359 162.346C155.675 164.395 152.094 166.688 145.616 169.225C139.235 171.697 134.58 172.738 131.65 172.348C130.934 172.25 128.199 169.437 123.447 163.907C118.108 157.629 113.176 153.222 108.651 150.685Z" fill="#0D131A"/>
<path d="M98.1514 53.7846C98.3793 53.9147 98.5747 54.4351 98.7374 55.3459C98.9328 56.2242 98.9328 56.5982 98.7374 56.4681C96.8493 55.2971 92.373 51.8167 85.3087 46.0267C78.9931 40.8548 75.6563 38.3014 75.2982 38.3665C74.8424 38.4315 74.1914 39.7001 73.3449 42.1722C72.5636 44.5467 72.0753 46.5797 71.88 48.2711C71.7498 49.5723 71.4893 50.2065 71.0987 50.174C70.708 50.174 70.5127 49.5235 70.5127 48.2224C70.5452 45.6852 70.9847 43.1155 71.8312 40.5133C72.7427 37.8135 73.7193 36.3497 74.7611 36.122C75.7377 35.9269 79.3024 38.3827 85.4552 43.4896C92.9427 49.7349 97.1748 53.1666 98.1514 53.7846Z" fill="#0D131A"/>
<path d="M110.164 70.9104L110.994 71.3983C111.19 73.4801 110.929 76.001 110.213 78.961C109.464 82.0836 108.471 84.5069 107.234 86.2309C104.272 90.3294 100.593 93.0455 96.1983 94.3791C91.8685 95.7127 88.1247 95.3549 84.967 93.3057C80.8976 90.6709 75.754 83.0595 69.5361 70.4712C63.3833 58.0782 60.8115 50.483 61.8207 47.6856C62.1463 46.7748 63.481 46.2544 65.8249 46.1243L71.1476 46.4658C71.3429 46.4983 71.4243 46.7748 71.3917 47.2953C71.3917 47.8157 71.2778 48.0597 71.0499 48.0271C69.6826 47.9296 68.2502 47.9296 66.7527 48.0271C65.1901 48.1572 64.2949 48.3362 64.067 48.5638C63.2206 50.9709 65.597 58.0619 71.1964 69.837C76.9911 82.0023 81.8743 89.3698 85.8459 91.9395C88.6131 93.7611 91.9011 93.9888 95.7099 92.6226C99.5188 91.2564 102.791 88.6705 105.525 84.8647C106.795 83.1083 107.836 80.7825 108.65 77.8876C109.432 74.9926 109.676 72.6831 109.383 70.9592L110.164 70.9104Z" fill="#0D131A"/>
<path d="M82.916 47.0513C84.5111 48.0922 85.6017 49.0518 86.1877 49.9301C86.8062 50.9059 86.8876 51.5402 86.4319 51.8329C85.9761 52.0931 85.4389 51.7516 84.8204 50.8083C84.4298 50.1903 83.5833 49.5235 82.2812 48.8078C81.0441 48.1248 80.2302 47.832 79.8396 47.9296C79.514 48.2549 79.2699 49.2632 79.1071 50.9547C78.9443 52.8738 78.9769 55.102 79.2048 57.6391C79.335 58.9077 79.1234 59.5582 78.5699 59.5908C78.0491 59.6233 77.7398 59.0053 77.6421 57.7367C77.0236 50.483 77.4468 46.5146 78.9118 45.8316C79.7582 45.4412 81.0929 45.8478 82.916 47.0513Z" fill="#0D131A"/>
</svg>
