<svg width="170" height="157" viewBox="0 0 170 157" fill="none" xmlns="http://www.w3.org/2000/svg">
<path d="M153.417 75.5289C159.088 80.0871 163.417 85.1463 166.402 90.7063C168.8 95.1643 170 99.134 170 102.615C170 107.161 168.257 111.794 164.772 116.515C161.412 121.074 157.165 124.761 152.031 127.579C153.193 128.819 154.023 129.808 154.523 130.547C155.197 131.549 155.535 132.425 155.535 133.177C155.535 133.427 155.422 133.74 155.197 134.116L154.654 134.98C153.355 137.572 148.952 139.175 141.445 139.789C135.511 140.277 129.853 140.133 124.469 139.357C120.534 138.781 117.168 137.848 114.37 136.558C113.745 136.282 111.953 135.255 108.992 133.477C107.693 132.688 106.756 132.194 106.182 131.993C105.295 131.668 104.389 131.605 103.465 131.805C90.6613 134.548 80.8931 135.475 74.1604 134.585C70.6878 134.122 67.4338 133.17 64.3984 131.73C61.6379 130.415 58.7149 128.518 55.6296 126.039C46.1737 119.489 39.5034 112.439 35.6186 104.888C31.7213 97.3245 30.9531 89.9424 33.314 82.7419C34.6255 78.7347 36.8677 75.0155 40.0405 71.5843C43.2133 68.1406 47.1168 65.204 51.7511 62.7746C56.5852 60.2325 61.9252 58.3542 67.7711 57.1395C73.642 55.9123 79.8002 55.3926 86.2456 55.5804C101.972 56.0312 115.825 58.2164 127.804 62.136C137.922 65.4545 146.46 69.9188 153.417 75.5289Z" fill="#0D131A"/>
<path d="M151.132 128.33C151.831 128.756 152.512 129.67 153.174 131.073C153.899 132.576 154.067 133.715 153.68 134.492C152.568 136.721 148.615 138.086 141.82 138.586C136.274 138.987 130.865 138.806 125.593 138.042C121.646 137.478 118.224 136.62 115.326 135.468C113.639 134.805 111.722 133.822 109.573 132.519C108.162 131.68 107.138 131.148 106.501 130.923C105.439 130.559 104.352 130.491 103.24 130.716C91.8983 133.058 82.8422 133.828 76.0719 133.026C69.2892 132.212 62.6813 129.576 56.2483 125.118C47.0172 118.719 40.4968 111.857 36.687 104.531C32.8647 97.193 32.0902 90.0426 34.3636 83.08C37.0242 74.9403 43.1824 68.4161 52.8382 63.5072C62.4939 58.5984 73.6236 56.3255 86.2273 56.6887C108.549 57.3398 126.074 60.771 138.803 66.9822C151.532 73.206 160.844 82.8922 166.74 96.0409C169.45 102.064 168.264 108.62 163.18 115.708C161.318 118.3 159.101 120.717 156.528 122.958C154.367 124.837 152.493 126.164 150.907 126.94C148.684 128.042 147.884 128.637 148.509 128.725C148.921 128.788 149.795 128.656 151.132 128.33Z" fill="#5DC1CF"/>
<path d="M56.2479 125.118L53.8496 123.39C60.7698 123.403 68.7267 122.532 77.7204 120.779L101.385 115.463C102.684 120.66 104.358 125.807 106.407 130.904C105.37 130.553 104.314 130.491 103.24 130.716C91.898 133.058 82.8418 133.828 76.0716 133.026C69.2888 132.212 62.6809 129.576 56.2479 125.118Z" fill="#50A8B4"/>
<path d="M153.062 110.223C153.486 108.282 153.055 106.209 151.769 104.005C150.607 102.014 148.977 100.274 146.879 98.7834C144.805 97.2932 142.831 96.4416 140.958 96.2287C138.922 95.9908 137.441 96.5856 136.517 98.0132C136.779 97.5749 136.667 96.8611 136.18 95.8718C135.668 94.8325 134.831 93.7054 133.669 92.4907C130.759 89.4728 127.049 87.0747 122.539 85.2965C116.856 83.0424 110.804 82.2347 104.383 82.8734C96.5263 83.6623 88.5444 86.6051 80.4375 91.7018C77.2023 93.7305 73.7984 94.2877 70.2259 93.3736C67.353 92.6222 64.0865 90.8002 60.4266 87.9075C59.3898 87.081 56.1858 84.2509 50.8145 79.4172C46.9173 75.8983 43.7008 73.4188 41.165 71.9787C45.9242 66.9947 52.251 63.144 60.1455 60.4266C68.1774 57.6717 76.8713 56.4257 86.2273 56.6886C108.549 57.3398 126.074 60.771 138.803 66.9822C151.532 73.2059 160.844 82.8922 166.74 96.0409C169.45 102.064 168.264 108.62 163.18 115.708C161.318 118.3 159.101 120.717 156.528 122.958C154.367 124.837 152.493 126.164 150.907 126.94C148.684 128.042 147.884 128.637 148.509 128.725C148.921 128.787 149.795 128.656 151.132 128.33C151.831 128.756 152.512 129.67 153.174 131.073C153.899 132.576 154.067 133.715 153.68 134.492C153.118 135.631 151.756 136.552 149.595 137.253C147.697 137.879 145.261 138.311 142.288 138.549C142.226 136.445 141.751 134.573 140.864 132.932C140.127 131.593 139.296 130.66 138.372 130.134C146.966 122.32 151.863 115.683 153.062 110.223Z" fill="#50A8B4"/>
<path d="M147.591 135.205C148.827 136.658 149.383 137.697 149.258 138.323C149.071 139.188 148.765 140.108 148.34 141.085C147.778 142.337 147.266 142.957 146.804 142.944C145.567 142.919 144.218 142.594 142.757 141.968C141.445 141.417 140.19 140.69 138.99 139.789C138.803 139.663 138.691 139.519 138.653 139.357C138.578 139.056 138.759 138.611 139.197 138.023C142.132 134.191 143.999 132.425 144.799 132.726C145.486 132.989 146.416 133.815 147.591 135.205Z" fill="#0D131A"/>
<path d="M147.197 136.013C148.171 137.228 148.615 138.067 148.527 138.53C148.415 139.106 148.134 139.751 147.684 140.465C147.21 141.179 146.829 141.536 146.541 141.536C145.954 141.536 144.818 141.279 143.131 140.765C141.295 140.189 140.196 139.688 139.833 139.263C139.896 138.899 140.377 138.142 141.276 136.99C142.276 135.725 143.187 134.817 144.012 134.266C144.437 133.978 144.724 133.853 144.874 133.89C145.461 134.116 146.235 134.823 147.197 136.013Z" fill="white"/>
<path d="M144.892 133.909C145.479 134.147 146.254 134.855 147.215 136.032C148.177 137.247 148.614 138.079 148.527 138.53C148.415 139.044 148.171 139.613 147.796 140.239C147.247 138.098 146.279 135.988 144.892 133.909Z" fill="#DBDCDC"/>
<path d="M156.94 131.843C158.701 133.596 159.457 134.786 159.207 135.412C158.72 136.614 157.215 137.403 154.691 137.779C153.705 137.929 152.855 137.948 152.143 137.835C151.406 137.722 151.063 137.503 151.113 137.178C151.238 136.339 151.575 134.873 152.124 132.782C152.662 130.703 152.98 129.645 153.08 129.608C153.879 129.307 155.166 130.052 156.94 131.843Z" fill="#0D131A"/>
<path d="M152.275 136.408L152.237 136.069C152.237 135.456 152.456 134.441 152.893 133.026C153.28 131.749 153.599 130.891 153.849 130.453C154.311 130.729 155.06 131.48 156.097 132.707C157.184 133.997 157.727 134.842 157.727 135.243V135.262C157.702 135.512 157.315 135.813 156.566 136.163C155.754 136.552 154.917 136.796 154.055 136.896C153.006 137.021 152.412 136.858 152.275 136.408Z" fill="#DBDCDC"/>
<path d="M136.873 129.345L144.518 128.706C145.255 128.606 145.611 128.681 145.586 128.932C145.561 129.157 145.28 129.389 144.743 129.626C144.056 129.94 141.595 130.159 137.36 130.284C132.701 130.434 129.622 130.209 128.123 129.608L128.292 129.101C129.503 129.501 132.364 129.583 136.873 129.345Z" fill="#0D131A"/>
<path d="M137.473 89.3163C137.61 88.4773 137.785 88.0578 137.997 88.0578C138.222 88.0578 138.322 88.4773 138.297 89.3163C138.06 95.2645 136.73 100.161 134.306 104.005C131.721 108.1 127.705 111.287 122.258 113.566L121.94 112.796C126.824 110.755 130.596 107.33 133.257 102.521C135.206 99.0025 136.611 94.6008 137.473 89.3163Z" fill="#0D131A"/>
<path d="M77.8516 50.5651L78.2451 50.922L60.6887 63.263C60.3889 63.4508 57.341 64.4777 51.5451 66.3436C45.6867 68.2094 42.6263 69.1173 42.364 69.0672C42.1391 69.0171 41.5645 67.3579 40.6402 64.0895L38.7478 57.3085L36.5181 70.739C31.2717 72.3294 28.5362 73.0369 28.3113 72.8616C28.1864 72.7614 28.1239 71.5968 28.1239 69.3678L28.0865 63.3381L25.6694 74.4582L23.0463 75.3035C21.26 75.8419 20.2669 76.0298 20.0671 75.867C19.8672 75.7042 19.5987 74.6773 19.2614 72.7864L18.4745 68.4098L16.0574 76.9565C13.784 78.096 12.5036 78.5531 12.2163 78.3277C12.0539 78.2025 11.929 77.5012 11.8416 76.2239L11.598 72.9931L9.87422 79.1354C6.68895 79.8742 5.03386 80.1309 4.90895 79.9055C4.82151 79.7553 5.23997 78.4905 6.16432 76.1112L8.22538 70.7766L0.880517 78.1398C0.41834 78.5781 0.16227 78.6407 0.112305 78.3277L0.187252 77.7078L3.65358 67.6209L10.4551 63.9956L4.77779 65.5358L9.59317 59.2057L17.7812 55.5616L13.3031 56.4632C11.5918 56.8139 10.6924 56.9266 10.605 56.8013C10.505 56.6636 11.9478 55.3362 14.9332 52.8192C17.9061 50.3272 19.5612 49.0248 19.8985 48.9121L23.3648 48.6491L28.405 48.4049C26.9685 47.904 25.7693 47.3969 24.8075 46.8834L24.133 46.6017C24.108 46.5641 24.3453 46.4138 24.845 46.1509C34.6756 41.0291 44.2064 38.7751 53.4375 39.3887C63.0932 40.0273 71.2313 43.7528 77.8516 50.5651Z" fill="#0D131A"/>
<path d="M25.9693 46.5641C35.9499 42.0059 45.2558 40.09 53.8873 40.8163C62.5313 41.5301 70.2009 44.8673 76.8962 50.8281L59.4709 62.5868C48.6909 66.3185 43.1698 68.1281 42.9075 68.0154C42.7201 67.9277 42.0456 66.018 40.8839 62.2863C39.7222 58.542 39.0976 56.2441 39.0102 55.3926C38.9103 54.516 38.7729 54.1967 38.598 54.4346C38.3981 54.6725 38.1233 55.5679 37.7736 57.1207C37.2864 59.237 36.6244 63.551 35.7875 70.0628L29.1171 71.8097L28.8361 59.8444C28.7986 58.8426 28.7362 58.3166 28.6487 58.2665C28.5488 58.1914 28.3364 58.6923 28.0117 59.7692C27.5495 61.2845 26.5377 65.9554 24.9763 73.782L20.6855 74.8527C19.7487 71.0583 19.1616 68.3034 18.9243 66.5878C18.7619 65.4482 18.6182 64.9473 18.4933 65.0851L18.1186 66.569L15.4017 76.2427L12.9847 76.7311L12.5912 74.308C12.3664 72.8804 12.2102 71.7659 12.1228 70.9644C12.0228 70.0002 11.9354 69.5181 11.8605 69.5181C11.7855 69.5306 11.6044 69.9939 11.3171 70.9081C10.9548 72.1102 10.2553 74.6085 9.21856 78.4029L6.16445 78.8724L9.63077 69.2927C9.95555 68.4536 9.94306 68.1281 9.5933 68.3159L8.95625 68.8606L1.55518 76.2803L4.32824 68.2032C9.48712 65.348 12.7349 63.6199 14.0714 63.0188C16.2074 62.0421 16.1075 61.7854 13.7716 62.2487C12.7598 62.4491 11.5232 62.7621 10.0617 63.1879L6.91393 64.1083L10.1179 59.8819L14.9895 57.7218L21.154 54.9605C22.1782 54.4972 22.6966 54.228 22.7091 54.1528C22.7216 54.0401 22.1283 54.0464 20.9291 54.1716L17.0318 54.7915L13.4531 55.4677L20.2359 49.7198L25.0138 49.4569L30.5974 49.1188C31.2594 49.0561 31.5966 48.981 31.6091 48.8933C31.6091 48.8057 31.3094 48.6116 30.7098 48.311C30.335 48.1232 29.6168 47.8602 28.555 47.5221C27.4433 47.1715 26.5814 46.8522 25.9693 46.5641Z" fill="#00A63C"/>
<path d="M40.1719 50.9596C39.8346 50.9596 39.335 50.5902 38.6729 49.8513L36.5369 47.5033C34.3634 45.3119 32.1775 44.429 29.979 44.8548C39.1351 41.2733 47.6791 39.9898 55.6111 41.0041C63.5555 42.0059 70.6505 45.2806 76.8962 50.8281L60.033 62.2111C57.9219 59.2308 55.024 56.6761 51.3391 54.5473C47.5292 52.3308 43.8068 51.1349 40.1719 50.9596Z" fill="#009233"/>
<path d="M68.5022 46.8835L72.0059 49.964L70.6382 50.3209C69.5889 49.9703 68.1649 49.6447 66.3661 49.3442C62.8061 48.7681 59.0463 48.6053 55.0865 48.8558C42.5078 49.6447 30.3351 54.397 18.5684 63.1128L17.6128 63.8078C17.1506 64.0707 17.3567 63.7013 18.2311 62.6995C23.6523 56.4507 30.6599 51.8549 39.2539 48.9121C48.5599 45.7314 58.3093 45.0552 68.5022 46.8835Z" fill="#0D131A"/>
<path d="M70.1511 49.4569C62.9687 47.9541 56.5169 47.5785 50.7959 48.3298C41.8397 49.507 32.415 53.3076 22.522 59.7317C27.9432 54.6475 34.6135 51.0285 42.533 48.8746C50.7397 46.633 59.3962 46.2198 68.5023 47.6348L68.8208 48.2359C69.1206 48.6867 69.564 49.0937 70.1511 49.4569Z" fill="#00A63C"/>
<path d="M68.5019 47.6348L68.8204 48.2359C69.1202 48.6867 69.5636 49.0937 70.1507 49.4568C65.3541 48.4425 61.1133 47.9291 57.4284 47.9166C51.9322 47.879 46.3611 48.7994 40.7151 50.6778L39.5347 49.7762C43.8816 48.311 48.4722 47.3906 53.3063 47.0149C58.2778 46.6267 63.343 46.8334 68.5019 47.6348Z" fill="#009233"/>
<path d="M109.986 36.4208L110.117 36.4772L110.192 36.6087C111.141 38.0112 111.641 39.4951 111.691 41.0605C111.753 42.6383 111.36 44.1598 110.51 45.6249C108.811 48.5552 105.67 50.8469 101.086 52.4998C95.6269 54.4534 88.9128 55.1296 80.9434 54.5285C79.8816 54.4408 79.2133 53.9838 78.9385 53.1573C78.5763 52.0678 79.0135 50.515 80.2501 48.4989C81.4868 46.4953 83.2418 44.4854 85.5152 42.4692C88.4506 39.8645 91.5859 37.8797 94.9211 36.5147C100.405 34.2607 105.426 34.2294 109.986 36.4208Z" fill="#00A63C"/>
<path d="M109.367 37.36C110.191 38.6248 110.604 39.9522 110.604 41.3422C110.604 42.6195 110.254 43.8593 109.554 45.0614C107.955 47.8289 104.945 49.9891 100.523 51.5419C95.2643 53.3702 88.7626 53.9963 81.018 53.4203C80.4434 53.3827 80.0999 53.1761 79.9875 52.8004C79.7127 52.024 80.1311 50.7529 81.2428 48.9873C82.442 47.0963 84.1096 45.1992 86.2456 43.2957C89.0311 40.8288 92.004 38.9316 95.1643 37.6042C100.361 35.4378 105.095 35.3564 109.367 37.36Z" fill="#009233"/>
<path d="M93.9279 21.9009C95.6143 22.7775 96.726 23.892 97.2631 25.2444C99.1992 30.1783 100.261 34.6238 100.448 38.581C100.661 42.8762 99.9175 47.6348 98.2187 52.8567C97.819 54.0965 96.8634 55.2486 95.3519 56.313C93.778 57.44 91.8419 58.2853 89.5435 58.8488C86.3333 59.6377 83.2229 59.8005 80.2125 59.3372C76.5651 58.7737 73.792 57.3085 71.8934 54.9417C68.2334 50.346 66.9781 44.3539 68.1273 36.9656C68.527 34.3859 69.2015 31.825 70.1508 29.283C70.8628 27.3294 71.5374 25.8518 72.1744 24.85C73.2736 23.0843 75.4221 21.7757 78.6199 20.9241C81.4929 20.1602 84.4783 19.9223 87.5761 20.2103C90.1243 20.4608 92.2416 21.0243 93.9279 21.9009Z" fill="#0D131A"/>
<path d="M96.2323 25.6577C98.0935 30.3787 99.1053 34.8305 99.2677 39.013C99.4551 43.3834 98.7431 47.9166 97.1317 52.6125C96.782 53.6269 95.9201 54.6036 94.546 55.5428C93.097 56.5196 91.3358 57.2647 89.2622 57.7781C86.1519 58.5545 83.1977 58.7424 80.3997 58.3416C76.9021 57.8533 74.3477 56.482 72.7363 54.228C69.5885 49.82 68.5142 44.0784 69.5135 37.0031C69.8758 34.5111 70.4691 32.0567 71.2935 29.6398C71.9431 27.7239 72.5427 26.3214 73.0923 25.4322C74.0916 23.8419 76.0777 22.671 79.0506 21.9197C81.7487 21.2434 84.5593 21.0431 87.4822 21.3186C89.7806 21.5315 91.698 22.0198 93.2344 22.7837C94.7834 23.5601 95.7827 24.5181 96.2323 25.6577Z" fill="#C28600"/>
<path d="M96.2325 25.6577C97.8064 29.6774 98.7745 33.478 99.1367 37.0595C99.499 40.8037 99.2367 44.5918 98.3498 48.4237C93.4282 44.6795 88.4255 41.4299 83.3416 38.6749C76.6962 35.0934 72.2181 33.7786 69.9072 34.7303C70.3194 32.6891 70.8753 30.723 71.5748 28.8321C72.1369 27.3044 72.6428 26.1711 73.0925 25.4322C74.0918 23.8419 76.0779 22.671 79.0508 21.9197C81.7489 21.2434 84.5595 21.0431 87.4824 21.3186C89.7808 21.5315 91.6982 22.0198 93.2346 22.7837C94.7835 23.5601 95.7828 24.5181 96.2325 25.6577Z" fill="#986A00"/>
<path d="M91.6986 31.3679C91.8484 31.3179 92.448 31.9377 93.4973 33.2276L95.296 35.4628C96.4827 33.8224 97.4945 32.5388 98.3314 31.6121L98.7061 31.1989L98.7998 31.7624C99.1496 33.7034 99.5181 35.4002 99.9053 36.8528C100.055 37.7294 99.9803 39.1445 99.6805 41.098L99.7741 42.8825L99.287 43.615L98.2939 45.9818L96.7762 49.4568L96.4765 50.0391L94.1718 43.2206L90.9116 49.7386L88.1198 44.7045L84.8596 49.6259L81.5806 45.2492L78.7701 50.8844L75.9408 44.6857L72.9242 48.2171L72.3996 48.7243L71.8937 48.1044L68.6335 43.3145V43.2206C68.571 39.3762 69.0894 35.3439 70.1886 31.1238L70.3385 30.579L72.7743 33.8286L74.2358 32.232C75.0727 31.3304 75.5911 30.9046 75.7909 30.9547C75.9908 31.0048 76.3468 32.0943 76.8589 34.2231L77.7583 38.0362L79.8756 34.5236C81.0498 32.5451 81.7118 31.5495 81.8617 31.537C82.0116 31.5245 82.4613 32.2696 83.2107 33.7723L84.5411 36.4396L85.9838 33.8662C86.7832 32.4136 87.2579 31.6748 87.4078 31.6497C87.5702 31.6247 88.0011 32.4699 88.7007 34.1855L90.031 37.4539L90.8367 34.0728C91.2489 32.3197 91.5362 31.418 91.6986 31.3679Z" fill="#0D131A"/>
<path d="M98.3506 32.4386C98.8752 35.4065 99.1375 37.7607 99.1375 39.5014L99.0813 41.0229L98.8003 42.8074C98.7253 42.9201 98.413 43.7591 97.8634 45.3244L96.5893 48.6116L95.3902 44.4979C94.7406 42.2689 94.3784 41.1606 94.3034 41.1732C94.216 41.1732 93.6726 42.3002 92.6733 44.5543L90.8933 48.5552L89.4131 45.3807C88.6261 43.6401 88.1889 42.7948 88.1015 42.8449C88.0266 42.895 87.5019 43.8092 86.5276 45.5874L84.8226 48.6679L82.9676 45.7564C81.8933 44.1034 81.3125 43.3083 81.2251 43.3709C81.1376 43.4335 80.7566 44.3915 80.0821 46.2448L78.7893 49.6071L77.4027 45.9818C76.6408 43.9782 76.2098 42.9451 76.1099 42.8825C76.01 42.8199 75.4603 43.5337 74.461 45.0239L72.7185 47.5972L69.196 43.1267L69.1772 42.6383C69.1772 39.2572 69.6457 35.6569 70.5825 31.8376L71.4631 33.2463L72.2126 34.4861L72.5874 34.9745C72.6623 35.0246 72.806 34.9432 73.0183 34.7303C74.1425 33.6032 74.9232 32.8707 75.3604 32.5326L76.3722 36.0451C76.9843 38.0863 77.3902 39.1508 77.5901 39.2384C77.7775 39.3261 78.502 38.4307 79.7636 36.5523L81.9183 33.2651L83.2112 35.5943C83.9357 36.8466 84.3729 37.4665 84.5228 37.4539C84.6727 37.4414 85.1286 36.8529 85.8906 35.6883L87.2771 33.4718L88.8697 36.402L90.1626 38.8815L91.9613 32.927L95.3527 36.3081L95.54 36.0451L96.5144 34.7491L98.3506 32.4386Z" fill="#C28600"/>
<path d="M73.4487 34.317C74.423 33.3528 75.0601 32.758 75.3599 32.5326L76.0719 35.0684L73.4487 34.317Z" fill="#986A00"/>
<path d="M70.5818 31.8376C70.8566 32.2132 71.2876 32.9333 71.8747 33.9977L70.1509 33.7535L70.5818 31.8376Z" fill="#986A00"/>
<path d="M91.9602 32.927L95.3516 36.3081L95.539 36.0452L96.5133 34.7491L98.3495 32.4386C98.8741 35.4065 99.1364 37.7608 99.1364 39.5014L99.0802 41.0229L98.7992 42.8074L98.0684 44.7233L96.9817 47.71L96.1385 47.1277C95.0018 43.1455 94.3898 41.1606 94.3023 41.1732C94.2149 41.1732 93.659 42.319 92.6347 44.6106C89.9366 42.6571 87.8568 41.2045 86.3954 40.2527C84.0345 38.725 81.8298 37.4853 79.7812 36.5335L81.9173 33.2651L83.2101 35.5943C83.9346 36.8466 84.3718 37.4665 84.5217 37.4539C84.6716 37.4414 85.1275 36.8529 85.8895 35.6883L87.276 33.4718L88.8686 36.402L90.1615 38.8815L91.9602 32.927Z" fill="#986A00"/>
<path d="M96.5893 48.6116L96.1396 47.1277L96.9828 47.71L96.5893 48.6116Z" fill="#C28600"/>
<path d="M127.186 14.2558L127.748 15.0072L86.2084 21.3561L45.9429 11.3068L49.0907 7.81295C51.3141 5.6215 52.9255 4.60091 53.9248 4.75118C54.2246 4.80127 54.7804 5.00163 55.5924 5.35226L57.7284 6.25389L56.4355 4.82631C55.9983 4.31289 55.9109 3.99982 56.1732 3.88712C57.4848 3.26099 59.3273 2.64112 61.7006 2.02751C65.5854 1.00066 68.9455 0.668812 71.781 1.03197C75.5159 1.52035 80.475 5.30843 86.6581 12.3962C88.282 9.64125 89.4562 7.74408 90.1807 6.7047C92.1543 3.89964 93.8656 2.22788 95.3146 1.6894C97.0508 1.03823 99.4679 0.725164 102.566 0.750209C105.364 0.775254 106.856 0.938048 107.044 1.23859C107.144 1.41391 106.9 2.00873 106.313 3.02306L105.058 5.20199C108.393 3.31108 110.435 2.38441 111.185 2.42198C113.483 2.59729 116.793 4.5696 121.115 8.3389C124.126 10.9561 126.149 12.9284 127.186 14.2558Z" fill="#0D131A"/>
<path d="M118.585 7.81295C122.008 10.4803 124.381 12.6091 125.705 14.1995L86.2641 20.2291L47.6099 10.8559C48.3968 9.84161 49.2212 8.94624 50.0831 8.16984C51.3697 6.99272 52.5439 6.26014 53.6057 5.97213C54.58 6.24762 56.4224 6.91758 59.133 7.982L60.9693 8.71457L57.5966 4.26279C59.5453 3.58657 61.4814 3.05436 63.4051 2.66616C66.5903 2.00246 69.3322 1.82088 71.6305 2.12143C74.1288 2.44701 77.2828 4.36297 81.0927 7.8693C83.0038 9.62246 84.6777 11.3631 86.1142 13.0912L86.6388 13.7111L87.0323 13.0161L90.0302 8.3389C92.3036 5.15816 94.196 3.28603 95.7074 2.72251C97.2064 2.14647 99.0489 1.81462 101.235 1.72696C103.084 1.65183 104.607 1.74575 105.807 2.00872C105.145 2.81017 104.539 3.76189 103.989 4.86388L103.333 6.3478L102.846 7.77538L104.139 7.02402L107.043 5.23955C109.042 4.06243 110.266 3.44882 110.716 3.39873C112.027 3.27351 114.65 4.74491 118.585 7.81295Z" fill="#E85382"/>
<path d="M122.109 10.7245C123.858 12.2647 125.057 13.4231 125.706 14.1995L86.2651 20.2291L50.0654 11.457C55.724 11.3443 60.1396 11.3944 63.3124 11.6073C68.1965 11.9079 72.6184 12.6279 76.5781 13.7675C75.4539 10.6118 73.9362 7.94445 72.0251 5.76552C70.3637 3.86208 68.7086 2.64113 67.0598 2.10266C68.7336 1.93986 70.2575 1.94613 71.6316 2.12144C74.1298 2.44703 77.2839 4.36299 81.0937 7.86931C83.0049 9.62248 84.6787 11.3631 86.1152 13.0912L86.6398 13.7111L86.6586 13.6735C87.3331 14.6127 88.0139 15.195 88.7009 15.4204C90.662 15.9714 92.6169 15.9088 94.5655 15.2326C95.7772 14.8194 97.6321 13.8489 100.13 12.3211C102.891 10.6431 105.164 9.42838 106.951 8.67702C109.961 7.41224 113.165 6.61705 116.563 6.29147C118.336 7.55625 120.185 9.03392 122.109 10.7245Z" fill="#C94772"/>
<path d="M93.3654 7.0616C94.0025 7.41224 94.5646 7.87557 95.0518 8.45161C95.389 8.82729 95.6576 9.20923 95.8575 9.59743C96.0698 10.0232 96.1385 10.3363 96.0636 10.5366C95.9636 10.7871 95.389 11.0814 94.3398 11.4195C93.1531 11.7826 91.9852 11.9579 90.836 11.9454C89.4744 11.9204 88.3752 11.6261 87.5383 11.0626L87.3696 10.9499L87.4821 10.7808C88.3315 9.40333 89.2621 8.05715 90.2738 6.74228L90.3301 6.68593L90.3863 6.66714C91.3981 6.41669 92.3911 6.54818 93.3654 7.0616Z" fill="#0D131A"/>
<path d="M94.4149 8.35768C94.8021 8.74588 95.1207 9.15286 95.3705 9.57863C95.5704 9.94179 95.6703 10.1985 95.6703 10.3488V10.3676C95.6078 10.4677 95.358 10.6055 94.9208 10.7808L93.197 11.2692L90.8362 11.5134C89.662 11.4883 88.7002 11.2567 87.9507 10.8184C88.875 9.37827 89.7432 8.12601 90.5551 7.06159C91.3421 6.87375 92.1228 6.95515 92.8972 7.30578C93.4468 7.54371 93.9527 7.89434 94.4149 8.35768Z" fill="#FCEEF4"/>
<path d="M109.011 7.51241C109.223 7.38719 109.679 7.49363 110.379 7.83174C111.74 8.48292 113.121 9.46594 114.52 10.7808C116.306 12.4964 117.418 14.2183 117.855 15.9464L117.911 16.153L110.81 17.2425L110.735 17.2237C109.248 16.5099 108.099 15.5832 107.287 14.4437C106.675 13.6422 106.532 12.5528 106.856 11.1753C107.069 10.3613 107.412 9.56612 107.887 8.78972C108.324 8.08845 108.699 7.66269 109.011 7.51241Z" fill="#0D131A"/>
<path d="M109.18 7.8881C109.33 7.81296 109.767 7.96324 110.491 8.33891C111.866 9.0527 113.183 10.0295 114.445 11.2692C115.969 12.7844 116.949 14.2997 117.387 15.8149L110.866 16.8292C109.455 16.128 108.368 15.2514 107.606 14.1995C107.269 13.7487 107.1 13.1789 107.1 12.4902C107.1 12.1145 107.156 11.7138 107.269 11.288C107.469 10.4991 107.793 9.73518 108.243 8.99635C108.63 8.3577 108.943 7.98828 109.18 7.8881Z" fill="#D9CED4"/>
<path d="M106.819 4.69483L106.763 5.12686C106.626 5.92831 106.345 6.69845 105.92 7.43728C105.42 8.30134 104.839 8.8899 104.177 9.20296L101.273 9.2781C100.286 9.04017 99.4994 8.70832 98.9123 8.28255C98.6 8.04462 98.4501 7.81922 98.4626 7.60633C98.5376 7.04282 98.6625 6.48556 98.8374 5.93457C99.1621 4.83258 99.5494 4.26906 99.9991 4.24402L101.086 4.1501L104.796 3.92469H105.152L104.964 4.24402C104.527 4.9578 104.165 5.67159 103.878 6.38538L106.819 4.69483Z" fill="#0D131A"/>
<path d="M100.017 4.65726L101.123 4.56334L104.252 4.35672C104.015 4.79501 103.796 5.25209 103.596 5.72794L103.334 6.34781L102.847 7.77539L106.144 5.76551C105.957 6.40416 105.682 6.97394 105.32 7.47485C104.933 8.03836 104.489 8.43282 103.99 8.65823C103.378 8.94625 102.566 9.0026 101.554 8.82729C100.63 8.67702 99.8738 8.40778 99.2867 8.01958L98.8745 7.6439C98.937 7.06786 99.0806 6.44799 99.3055 5.7843C99.5678 5.04546 99.8051 4.66978 100.017 4.65726Z" fill="#FCEEF4"/>
<path d="M77.2893 4.20645L77.5329 4.3755L77.3081 4.56334C76.3338 5.30217 74.9472 6.1725 73.1485 7.1743C71.0125 8.37647 69.7321 8.8899 69.3074 8.71458C68.8702 8.53927 68.4955 8.00706 68.1832 7.11795C67.8335 6.11614 67.8709 5.27087 68.2956 4.58213C68.6579 4.00609 69.1825 3.46761 69.8695 2.96671C70.669 2.39067 71.5246 2.00873 72.4365 1.82089L72.474 1.80211L72.5302 1.82089C73.9292 2.20909 75.5156 3.00428 77.2893 4.20645Z" fill="#0D131A"/>
<path d="M69.5327 8.03837C69.2579 7.93819 69.0081 7.56877 68.7833 6.93012C68.6459 6.46678 68.5771 6.0598 68.5771 5.70916C68.5771 5.35853 68.6459 5.05799 68.7833 4.80754C69.0955 4.29411 69.5764 3.81199 70.226 3.36118C70.938 2.86027 71.6875 2.52216 72.4744 2.34685C73.7111 2.68496 75.1101 3.3737 76.6715 4.41308C75.6847 5.12686 74.3294 5.92831 72.6056 6.81741C70.8193 7.74409 69.795 8.15107 69.5327 8.03837Z" fill="#FCEEF4"/>
<path d="M74.2732 5.91579C72.8742 4.95155 71.4752 4.13758 70.0762 3.47388C70.8506 2.89784 71.6501 2.52216 72.4745 2.34685C73.7111 2.68496 75.1101 3.3737 76.6715 4.41308C76.022 4.88894 75.2226 5.38984 74.2732 5.91579Z" fill="#D9CED4"/>
<path d="M61.1571 4.39429C62.6685 4.29411 63.6241 4.41933 64.0238 4.76996C64.3486 5.05798 64.4548 5.59646 64.3424 6.38538C64.2299 7.14926 63.9426 7.9194 63.4805 8.6958C62.3188 10.6744 60.951 11.4007 59.3771 10.8747C57.9031 10.4991 56.8101 9.04017 56.0981 6.49808L56.2293 6.06605L58.74 7.02403L57.5409 5.44619L57.7095 5.3147C58.4215 4.78875 59.5707 4.48195 61.1571 4.39429Z" fill="#0D131A"/>
<path d="M61.5881 4.80753C62.7872 4.78248 63.5117 4.8764 63.7616 5.08929C63.8865 5.22704 63.849 5.67785 63.6491 6.44173C63.4243 7.30579 63.0808 8.08845 62.6186 8.78971C61.7192 10.1547 60.695 10.6431 59.5458 10.2549H59.527C58.4153 9.97936 57.5722 8.94625 56.9976 7.15551L60.9698 8.71458L58.459 5.38983C59.2335 5.0392 60.2765 4.8451 61.5881 4.80753Z" fill="#FCEEF4"/>
<path d="M83.398 17.8248L83.6978 17.975V25.5074L83.042 25.3759C76.8963 24.8249 69.7576 24.9752 61.6258 25.8267C45.4121 27.5423 31.9903 31.8626 21.3602 38.7876L19.5802 39.9522C19.218 40.1025 19.093 39.7894 19.2055 39.013C19.6676 35.9324 20.5733 32.3322 21.9223 28.2123C23.1215 24.5557 23.9022 22.5708 24.2644 22.2578C24.4768 22.0824 25.2887 21.6567 26.7002 20.9805L31.0284 18.8767L26.4941 20.0413C24.8703 20.4545 24.0958 20.5672 24.1707 20.3794C24.3456 19.9536 25.1825 18.6951 26.6815 16.6038C28.3428 14.2871 29.4358 12.9973 29.9604 12.7343C37.705 8.7271 47.8417 7.9006 60.3704 10.2549C64.9547 11.1189 69.5577 12.3587 74.1795 13.9741C77.8644 15.2639 80.9373 16.5475 83.398 17.8248Z" fill="#0D131A"/>
<path d="M82.5921 18.6513V24.1737C75.9592 23.0717 68.5082 22.959 60.239 23.8356C45.5243 25.4135 32.2773 30.1157 20.498 37.9423C20.9103 35.8636 21.7409 32.9458 22.9901 29.189C23.777 26.7847 24.4952 24.7435 25.1448 23.0655L29.3793 20.7551L34.6069 17.806L36.0684 16.848C36.1558 16.7353 35.8311 16.7353 35.0941 16.848L30.972 17.7121L26.5313 18.7264C28.1427 16.297 29.498 14.6065 30.5972 13.6547C40.7526 10.3738 51.3265 9.74143 62.3188 11.7576C69.4763 13.085 76.234 15.3829 82.5921 18.6513Z" fill="#E85382"/>
<path d="M71.9123 14.2371C75.6847 15.4643 79.2447 16.9357 82.5923 18.6513V24.1737C77.9706 23.4224 72.7055 23.1531 66.7971 23.366C65.9227 20.7238 64.4987 18.3006 62.5251 16.0967C60.6389 13.9803 58.4218 12.246 55.8735 10.8935C61.2448 11.3819 66.591 12.4964 71.9123 14.2371Z" fill="#C94772"/>
<path d="M56.4354 10.2549L56.5291 10.2736L56.5853 10.33L58.9649 13.3542C59.5394 14.1682 59.8018 14.7129 59.7518 14.9884L59.6206 15.2326C51.0641 18.1253 46.4174 19.4339 45.6804 19.1584C45.0933 18.9581 43.7817 18.1065 41.7457 16.6038C39.4598 14.9383 38.3855 13.8426 38.5229 13.3166C38.5979 13.0537 38.9539 12.7656 39.5909 12.4526L41.5958 11.5885C43.0073 11.025 44.0128 10.5366 44.6124 10.1234L44.6499 10.0858H44.7061C48.5659 9.79778 52.4756 9.85413 56.4354 10.2549Z" fill="#0D131A"/>
<path d="M56.1732 10.9123C58.0594 13.2039 59.0025 14.5251 59.0025 14.8757C58.5403 15.1387 56.3668 15.8149 52.482 16.9044C48.5223 18.0314 46.3676 18.5448 46.0178 18.4446C45.3933 18.2067 44.1691 17.4115 42.3454 16.0591C40.4592 14.6566 39.5161 13.7862 39.5161 13.4481V13.4293C39.5536 13.254 39.8284 13.0349 40.3405 12.7719L41.9519 12.0581C43.1011 11.5697 43.9443 11.169 44.4814 10.8559C48.2662 10.5304 52.1635 10.5491 56.1732 10.9123Z" fill="#FCEEF4"/>
<path d="M40.2469 21.4313C41.5086 21.7193 42.4766 21.9697 43.1512 22.1826C43.7757 22.3705 44.1942 22.7962 44.4065 23.4599C44.494 23.7354 44.5377 24.061 44.5377 24.4367C44.5377 24.9877 44.4378 25.5575 44.2379 26.146C44.0505 26.7095 43.8007 27.1854 43.4884 27.5736L43.4509 27.63L43.376 27.6487C40.553 28.5003 37.8236 29.4708 35.188 30.5602L34.8132 30.7669L32.1901 27.8178C30.4663 25.8017 29.6606 24.6872 29.773 24.4743C29.9979 24.0861 31.0784 23.3785 33.0145 22.3517C35.0631 21.2622 36.4371 20.7551 37.1366 20.8302L40.2469 21.4313Z" fill="#0D131A"/>
<path d="M43.0572 27.3294C40.2966 28.181 37.7047 29.1014 35.2814 30.0906L33.314 27.8929C31.6027 26.0521 30.7471 24.9877 30.7471 24.6997V24.6809C30.9219 24.3678 31.865 23.7542 33.5763 22.8401C35.3751 21.8758 36.568 21.425 37.1551 21.4876L40.1155 22.0511C41.3272 22.3392 42.2578 22.5834 42.9073 22.7837C43.382 22.934 43.6943 23.2596 43.8442 23.7605C43.9316 24.0109 43.9753 24.2864 43.9753 24.587C43.9753 25.0628 43.8879 25.5575 43.713 26.0709C43.5381 26.5593 43.3195 26.9788 43.0572 27.3294Z" fill="#FCEEF4"/>
<path d="M142.663 23.3472C143.238 26.5906 143.394 28.5128 143.132 29.1139C143.019 29.3769 142.345 29.1828 141.108 28.5316L137.717 26.7471L141.782 30.7481C143.381 32.3259 144.243 33.2964 144.368 33.6596C144.518 34.0854 144.349 35.2124 143.862 37.0407C143.4 38.8314 143.044 39.827 142.794 40.0273C142.47 40.3028 141.164 39.683 138.878 38.1677L140.939 40.929C141.639 41.8682 141.995 42.4129 142.007 42.5632C142.007 42.8011 141.014 43.5274 139.028 44.7421C134.531 40.1338 129.023 35.8886 122.502 32.0066C109.499 24.2676 97.6696 21.951 87.0146 25.0566L86.5462 25.1881L86.3588 24.7372C85.9466 23.7855 85.7592 22.5333 85.7967 20.9805L86.0028 18.8391L86.0403 18.6513L86.1902 18.5198C87.9264 16.967 90.4871 15.3891 93.8723 13.7862C98.0568 11.8077 102.398 10.3801 106.894 9.50351C119.323 7.0616 130.297 9.22175 139.815 15.984C141.052 17.1861 142.001 19.6406 142.663 23.3472Z" fill="#0D131A"/>
<path d="M136.254 36.402L140.564 42.4317L139.421 43.5775C134.087 38.318 128.01 33.7911 121.19 29.9967C108.836 23.0968 97.5189 21.0493 87.2386 23.8544C87.0138 23.0905 86.9014 22.2828 86.9014 21.4313C86.9014 20.6298 86.9513 19.8973 87.0513 19.2336C88.8125 17.7183 91.3857 16.1968 94.7709 14.6691C98.9055 12.7907 103.177 11.457 107.587 10.6681C119.703 8.48918 130.184 10.762 139.027 17.4867C139.827 18.501 140.501 20.1728 141.051 22.502C141.401 23.9796 141.676 25.595 141.875 27.3482L135.617 24.6245C134.58 24.1863 134.043 24.0548 134.006 24.2301C133.981 24.3678 134.312 24.7999 134.999 25.5262L143.131 33.9789L141.875 38.8252C141.476 38.5622 140.751 38.1677 139.702 37.6418L137.322 36.4396C136.523 35.9387 136.042 35.6507 135.88 35.5756C135.642 35.4628 135.767 35.7383 136.254 36.402Z" fill="#E85382"/>
<path d="M116.093 9.89797C113.533 11.3882 111.291 13.3479 109.367 15.7773C107.468 18.1817 106.069 20.8114 105.17 23.6666C98.8243 22.264 92.8472 22.3266 87.2386 23.8544C87.0138 23.0905 86.9014 22.2828 86.9014 21.4313C86.9014 20.6298 86.9513 19.8973 87.0513 19.2336C89.4871 17.1298 93.1158 15.17 97.9374 13.3542C104.058 11.0375 110.11 9.88544 116.093 9.89797Z" fill="#C94772"/>
<path d="M135.618 24.6245C134.581 24.1862 134.044 24.0548 134.007 24.2301C133.982 24.3678 134.313 24.7998 135 25.5262L136.986 27.5924C133.139 24.6621 129.354 22.0824 125.631 19.8534C130.815 19.4277 135.862 19.9473 140.771 21.4125C141.245 23.1281 141.614 25.1067 141.876 27.3482L135.618 24.6245Z" fill="#C94772"/>
<path d="M130.147 11.8891L130.259 11.9266L130.278 12.0393C130.453 12.7281 130.359 13.8175 129.997 15.3077L129.36 17.4303C129.21 17.8561 128.067 18.3257 125.931 18.8391C123.533 19.4151 121.584 19.4339 120.085 18.8955C119.523 18.6951 118.661 18.0377 117.5 16.9231C116.325 15.7961 115.688 15.0072 115.588 14.5564C115.551 14.3685 115.532 14.1807 115.532 13.9929C115.532 12.6279 116.581 11.1377 118.68 9.52229L118.736 9.48472H118.83C122.802 9.74769 126.574 10.5491 130.147 11.8891Z" fill="#0D131A"/>
<path d="M125.706 18.1817C123.52 18.645 121.734 18.6325 120.347 18.1441C119.823 17.9563 119.017 17.374 117.93 16.3972C116.856 15.433 116.281 14.788 116.206 14.4624L116.169 14.0116C116.169 12.822 117.106 11.5009 118.979 10.0482C122.739 10.3112 126.306 11.0626 129.678 12.3023L129.734 12.8846C129.734 13.4732 129.622 14.2308 129.397 15.1575L128.779 17.1861C128.429 17.4867 127.405 17.8185 125.706 18.1817Z" fill="#FCEEF4"/>
<path d="M131.121 28.0244C132.482 27.8741 133.338 27.9368 133.688 28.2123C134.087 28.5378 134.55 29.5522 135.074 31.2552C135.624 33.071 135.899 34.6426 135.899 35.97V36.233L135.636 36.1766C134.087 35.8761 132.457 36.1892 130.746 37.1158L130.634 37.1722L127.523 34.9181L127.542 34.7866C127.642 34.3358 127.623 33.5344 127.486 32.3823C127.386 31.5934 127.342 31.0298 127.355 30.6917C127.38 30.1282 127.529 29.6962 127.804 29.3956C128.466 28.6568 129.572 28.1997 131.121 28.0244Z" fill="#0D131A"/>
<path d="M128.16 33.9414L128.01 32.3447L127.898 30.9547C127.898 30.4162 128.004 30.0218 128.216 29.7713C128.791 29.1327 129.753 28.7633 131.102 28.6631C132.239 28.5754 132.951 28.638 133.238 28.8509C133.575 29.1139 133.987 29.9654 134.475 31.4055C135.012 32.9959 135.299 34.411 135.337 35.6507C133.85 35.4128 132.307 35.7196 130.708 36.5711L128.085 34.6739L128.16 33.9414Z" fill="#FCEEF4"/>
<path d="M110.51 15.3077C110.86 15.6083 111.41 16.3095 112.159 17.4115C113.034 18.6763 113.427 19.5153 113.34 19.9286C113.24 20.442 112.378 20.8552 110.754 21.1683C109.193 21.4814 107.587 21.5816 105.939 21.4689H105.845L103.559 19.0269C102.048 17.3489 101.323 16.3659 101.386 16.0779C101.411 15.9026 101.51 15.7836 101.685 15.721L106.032 15.2702C108.755 15.0823 110.248 15.0948 110.51 15.3077Z" fill="#0D131A"/>
<path d="M111.691 17.6933C112.453 18.8328 112.809 19.5404 112.759 19.8159C112.709 20.0914 112.022 20.3543 110.698 20.6048L106.089 20.8865L104.927 19.7407L103.016 17.806C102.304 17.0296 101.948 16.5162 101.948 16.2657L101.966 16.2281L102.004 16.1718L106.107 15.7585C108.568 15.6083 109.923 15.5957 110.173 15.721C110.486 15.9965 110.991 16.6539 111.691 17.6933Z" fill="#FCEEF4"/>
<path d="M109.78 15.6646L108.037 18.2756C107.263 19.3776 106.701 20.2479 106.351 20.8866H106.089L104.927 19.7407L103.016 17.806C102.304 17.0296 101.948 16.5162 101.948 16.2657L101.966 16.2281L102.004 16.1718L105.47 15.7961L109.78 15.6646Z" fill="#D9CED4"/>
<path d="M101.779 8.13228L101.385 9.80405C100.074 14.6252 98.837 18.8892 97.6753 22.5959C97.2631 23.9233 95.5643 24.9313 92.5789 25.6201C90.5178 26.0834 87.6761 26.4153 84.0536 26.6156L75.0599 26.3339C71.8372 25.858 69.9323 24.9376 69.3452 23.5726C68.2709 21.1057 67.2966 18.2443 66.4222 14.9884C65.5603 11.72 65.348 10.1296 65.7852 10.2173L69.2515 10.6681L72.8115 11.1565C72.9864 10.1171 73.2237 8.89616 73.5235 7.49363C73.9357 5.49001 74.2292 4.33167 74.4041 4.01861C74.579 3.71806 75.4659 4.38802 77.0648 6.02848L79.9877 9.12782C80.325 8.67701 81.1244 7.71277 82.386 6.23511L84.5595 3.77442C84.6969 3.67423 85.1216 4.25654 85.8336 5.52132L87.2764 8.13228L89.6934 5.57767C90.9425 4.27532 91.6171 3.63667 91.717 3.66171C91.8294 3.68676 92.1167 4.41933 92.5789 5.85943L93.572 8.90242L95.5768 6.46051C96.5386 5.32096 97.1132 4.78248 97.3006 4.8451C97.488 4.92023 97.7378 5.55889 98.0501 6.76105L98.6497 9.20296L99.9612 8.65823C100.598 8.40778 101.048 8.20741 101.31 8.05714C101.623 7.88183 101.779 7.90687 101.779 8.13228Z" fill="#0D131A"/>
<path d="M99.6236 9.99189L96.2322 21.5628C95.9199 22.527 94.6146 23.3848 92.3162 24.1362C90.0178 24.875 87.2448 25.3321 83.997 25.5074C80.6494 25.6952 77.7514 25.5262 75.3031 25.0002C72.8548 24.4868 71.4121 23.7354 70.9749 22.7462C69.6508 19.7407 68.3018 15.8274 66.9277 11.0062L73.6917 12.4714L74.1976 9.33445C74.5474 7.19309 74.766 6.0097 74.8534 5.7843C74.9409 5.54637 75.5654 6.02849 76.7271 7.23066L79.1254 9.87919L79.8562 10.7996L80.4932 10.2924C80.9929 9.75396 82.267 8.10724 84.3156 5.35227C84.4155 5.202 84.9089 5.85943 85.7958 7.32458L87.0886 9.55986L91.2669 5.69038C91.3544 5.60272 91.6916 6.46052 92.2787 8.26377L93.1406 11.0062L94.8457 9.05269C96.0074 7.73782 96.6632 7.05534 96.8131 7.00525C96.963 6.95516 97.2003 7.55624 97.5251 8.8085L97.956 10.7057L99.6236 9.99189Z" fill="#D7A400"/>
<path d="M100.036 9.65377L100.767 8.95876L100.486 9.93553L97.0192 21.8069C96.6195 23.0717 95.0831 24.1236 92.4099 24.9626C90.0491 25.7015 87.2635 26.1585 84.0533 26.3339C80.7431 26.5217 77.8326 26.3589 75.3219 25.8455C72.4739 25.2694 70.7688 24.349 70.2067 23.0843C68.9451 20.1915 67.5835 16.2281 66.1221 11.194L66.9278 10.7057C67.6148 11.4695 68.6016 12.4087 69.8882 13.5232L72.324 15.4956L74.4225 12.9785C75.6966 11.4382 76.3961 10.6493 76.521 10.6117C76.646 10.5867 77.6265 11.5697 79.4627 13.5608L82.5356 16.9607L83.8846 13.5796C84.6841 11.6386 85.1837 10.6493 85.3836 10.6117C85.5835 10.5867 86.0331 11.2629 86.7326 12.6404L88.1941 15.5143L90.2927 12.6968C91.5293 11.0813 92.2475 10.3049 92.4474 10.3676C92.6473 10.4302 93.0595 11.2316 93.684 12.7719L94.8082 15.4956C97.2066 12.6529 98.9491 10.7057 100.036 9.65377Z" fill="#0D131A"/>
<path d="M94.977 16.153C95.7015 15.5269 97.3253 13.8989 99.8486 11.2692L98.2934 16.1718L96.4947 21.6567C96.1199 22.8338 94.8271 23.9984 92.6161 25.1505C90.1054 26.4654 87.3011 27.2042 84.2033 27.367C80.9805 27.5423 77.9826 27.104 75.2096 26.0521C72.7238 25.1004 71.2249 24.036 70.7127 22.8589C69.5385 20.1665 68.2894 16.5725 66.9653 12.0769C68.2769 13.3041 69.9195 14.6628 71.8931 16.153C72.1679 16.3909 72.3928 16.4911 72.5677 16.4535C72.7176 16.4285 72.8987 16.2469 73.111 15.9088C73.2859 15.6333 73.8917 14.9258 74.9285 13.7862L76.7085 11.8891L79.6502 15.0448C81.4864 16.9607 82.5045 17.9124 82.7043 17.8999C82.9042 17.8874 83.3726 17.0108 84.1096 15.2702L85.4399 12.0769L86.7702 14.5188C87.4822 15.7961 87.9319 16.441 88.1193 16.4535C88.2942 16.4661 88.9624 15.7585 90.1241 14.331L92.129 11.7951L93.1782 13.7862L94.1526 15.8337C94.29 16.1968 94.3899 16.3909 94.4523 16.416C94.5398 16.4661 94.7147 16.3784 94.977 16.153Z" fill="#F9BE00"/>
<path d="M121.865 47.9166C127.836 49.6322 131.621 50.8406 133.22 51.5419C134.157 51.9426 134.544 52.2243 134.381 52.3871L133.032 52.8192L127.186 54.6036L132.995 53.6457L136.442 53.2136C136.892 53.2637 138.122 54.1153 140.134 55.7682C142.095 57.3711 143.063 58.2602 143.038 58.4356C143.025 58.5608 142.126 58.9302 140.34 59.5438L135.88 61.0841L141.483 61.1592L145.324 61.3471C145.561 61.4598 146.111 62.2111 146.973 63.6011C147.822 64.9786 148.228 65.7613 148.19 65.9491C148.153 66.0869 147.491 66.2622 146.204 66.4751L142.363 67.0949L146.579 67.1137L148.846 67.1889C149.071 67.264 149.777 67.9966 150.963 69.3866C152.175 70.7891 152.743 71.5968 152.669 71.8097C152.619 71.985 152.069 72.1228 151.02 72.2229L148.022 72.5423L151.601 72.824L153.549 73.087C153.724 73.2247 153.93 74.4394 154.167 76.7311C157.228 82.216 158.702 85.0649 158.589 85.2777C158.527 85.403 157.253 84.9709 154.767 83.9816L149.877 82.0093L153.212 88.0765C154.986 91.3324 155.816 93.0042 155.704 93.0918L152.575 92.8664C150.589 92.5784 149.483 92.3092 149.258 92.0587C149.071 91.8584 148.628 90.7689 147.928 88.7903L146.335 84.301L146.879 88.3583C147.066 89.8485 147.11 90.6625 147.01 90.8002C146.898 90.9755 145.686 90.7251 143.375 90.0488C141.089 89.3851 139.871 88.9406 139.721 88.7152L138.897 86.5926L137.567 82.8734L138.035 86.2545C138.21 87.4316 138.235 88.0578 138.11 88.1329C137.91 88.2706 135.306 86.9996 130.297 84.3198L130.259 84.1319L128.404 76.825L128.573 81.6337C128.635 83.4494 128.579 84.3886 128.404 84.4512C128.204 84.5013 127.467 84.1444 126.193 83.3806L124.188 82.1408L121.696 82.1596C120.098 82.1095 119.192 81.9405 118.98 81.6524C118.792 81.3769 118.48 80.037 118.043 77.6327L116.862 71.2462L116.881 77.3509C116.881 79.58 116.794 80.707 116.619 80.732C116.519 80.7446 115.114 80.2875 112.403 79.3608L104.571 76.7123L104.533 76.2239L101.404 75.0405L98.5939 74.0637C98.1442 73.9636 97.8757 73.7695 97.7882 73.4815C97.6758 73.1308 97.6633 72.3356 97.7507 71.0959C97.8257 70.0315 97.8444 68.917 97.8069 67.7524L97.6758 64.5215L96.0644 69.3678C95.4274 71.1836 94.9777 72.0852 94.7154 72.0727C94.2907 72.0601 91.4676 70.6513 86.2463 67.8463L87.8389 60.0322C85.4656 62.2362 83.4233 63.9768 81.712 65.2541C79.2012 67.0949 77.6086 67.7774 76.9341 67.3015C74.2984 65.5484 72.5746 63.7639 71.7627 61.9481C71.1506 60.5707 71.0882 59.2245 71.5753 57.9096C72.5746 55.2172 75.4539 53.007 80.213 51.2789C84.5974 49.6885 88.6384 49.1 92.3358 49.5132L94.0596 48.4801C95.1963 47.8164 96.3267 47.2404 97.4509 46.752C101.011 45.1992 104.421 44.523 107.681 44.7233C110.267 44.8861 114.995 45.9505 121.865 47.9166Z" fill="#0D131A"/>
<path d="M136.217 54.0965L141.37 58.1726C137.485 59.5375 134.893 60.4955 133.594 61.0465C132.62 61.4597 132.139 61.6914 132.151 61.7415L133.725 61.8542C135.124 61.8667 138.834 61.9732 144.855 62.1735L146.841 65.3668L142.682 66.0994C140.308 66.5126 138.865 66.8257 138.353 67.0386L137.135 67.5833C137.036 67.7085 137.466 67.8024 138.428 67.865C139.852 67.9652 143.194 68.0153 148.453 68.0153L151.113 71.2086L144.686 72.2417C143.812 72.4295 143.35 72.5798 143.3 72.6925C143.237 72.8177 143.712 72.943 144.724 73.0682L152.837 73.8383L153.38 77.0128L150.12 76.5432C147.959 76.2677 146.947 76.2615 147.085 76.5244C147.21 76.7749 148.359 77.0566 150.532 77.3697L153.811 77.8205L156.865 83.7562L148.134 80.4878L154.205 92.0211L149.877 91.3261C148.128 86.5676 146.985 83.5997 146.448 82.4226C146.073 81.5836 145.754 81.1954 145.492 81.258C145.405 81.283 145.455 82.4852 145.642 84.8645L146.073 89.6732L140.358 88.039C138.747 83.5433 137.698 80.6945 137.21 79.4923C136.811 78.5155 136.555 78.0146 136.442 77.9896C136.292 77.952 136.28 78.5155 136.405 79.6801L137.135 86.7429L131.008 83.7374C128.985 75.5602 127.961 72.1979 127.936 73.6505L127.748 78.2713L127.561 83.0049L124.132 81.0138C123.882 76.155 123.589 73.6881 123.251 73.6129C123.052 73.5754 122.989 74.79 123.064 77.257L123.139 80.9762L119.673 80.8447L118.68 75.2471C117.993 71.5154 117.418 68.942 116.956 67.5269C116.444 65.9616 116.1 65.2854 115.925 65.4983C115.813 65.6486 115.732 66.4563 115.682 67.9214C115.644 68.9107 115.663 71.027 115.738 74.2704L115.832 79.5299L105.02 75.341L104.814 70.9268C104.689 67.8964 104.546 66.1995 104.383 65.8364C104.221 65.4732 104.165 66.8946 104.215 70.1003L104.233 75.0405L98.7061 72.8991C98.4937 67.6772 98.3938 63.958 98.4063 61.7415V61.6288H98.3876C98.3251 61.1154 98.2439 60.7773 98.144 60.6145C97.9816 60.3265 97.7942 60.6708 97.5819 61.6476V61.7227C97.5819 62.1861 97.2071 63.4383 96.4577 65.4795C95.8581 67.1074 95.1336 68.9295 94.2842 70.9456L87.1829 67.3767L89.169 57.6278L83.548 62.3238C79.7506 65.4044 77.7021 66.8382 77.4023 66.6253C73.0428 63.7326 71.3627 60.9275 72.362 58.2101C73.174 55.9936 76.7777 54.0213 83.1732 52.2932C86.3585 51.4291 89.4688 50.7842 92.5042 50.3585L97.9754 47.8226C102.085 46.1697 105.308 45.412 107.644 45.5498C110.217 45.7126 114.183 46.5704 119.542 48.1232C124.501 49.5633 128.56 50.9658 131.72 52.3308C126.836 53.7458 123.682 54.7539 122.258 55.355C121.284 55.7557 120.841 56.0249 120.928 56.1627C121.003 56.2879 121.509 56.2879 122.446 56.1627L136.217 54.0965Z" fill="#00A63C"/>
<path d="M131.721 52.3308C126.836 53.7458 123.682 54.7539 122.258 55.355C121.284 55.7557 120.841 56.0249 120.928 56.1627C121.003 56.2879 121.509 56.2879 122.446 56.1627L136.217 54.0965L138.316 55.7494C134.818 55.9874 132.189 56.2629 130.428 56.5759C127.317 57.1144 124.9 58.2915 123.176 60.1073C109.723 54.8353 98.4813 57.6403 89.4501 68.5225L87.1829 67.3767L89.169 57.6278L83.548 62.3238C79.7506 65.4044 77.7021 66.8382 77.4023 66.6253C73.0428 63.7326 71.3627 60.9275 72.362 58.2101C73.174 55.9936 76.7777 54.0213 83.1732 52.2932C86.3585 51.4291 89.4688 50.7842 92.5042 50.3585L97.9754 47.8226C102.085 46.1697 105.308 45.412 107.644 45.5498C110.217 45.7126 114.183 46.5704 119.542 48.1232C124.501 49.5633 128.56 50.9658 131.721 52.3308Z" fill="#009233"/>
<path d="M140.938 73.782C141.988 75.0468 142.369 75.7167 142.081 75.7919C141.819 75.867 141.238 75.4788 140.339 74.6273C129.471 64.2961 117.592 57.4901 104.701 54.2092C100.642 53.1823 96.7256 52.5687 92.9533 52.3684L88.4002 52.3871L88.269 51.8612L89.1684 50.8844C90.0303 50.2082 91.0983 49.8388 92.3724 49.7762L94.3585 49.6259L94.2836 49.6071C102.715 49.8325 110.797 51.8612 118.529 55.6931C126.911 59.8381 134.381 65.8677 140.938 73.782Z" fill="#0D131A"/>
<path d="M88.344 51.1098C89.2684 50.5213 90.7923 50.2583 92.9158 50.3209C101.422 50.5964 109.454 52.4811 117.011 55.9749C124.431 59.406 130.983 64.1834 136.666 70.307C128.285 62.7057 118.66 57.3398 107.793 54.2092C104.008 53.1197 100.298 52.3746 96.6632 51.9739L90.3301 51.7297L88.2691 51.6546C87.9693 51.5293 87.9943 51.3478 88.344 51.1098Z" fill="#00A63C"/>
<path d="M122.932 59.1118L122.108 59.2245C121.783 59.262 121.558 59.4123 121.433 59.6753C115.1 56.3818 108.492 54.0714 101.61 52.744C96.8755 51.8299 93.1157 51.4918 90.3301 51.7297L88.2691 51.6546C87.9693 51.5293 87.9943 51.3478 88.344 51.1098C89.2684 50.5213 90.7923 50.2583 92.9158 50.3209C98.337 50.4962 103.602 51.3415 108.711 52.8567C113.72 54.3344 118.46 56.4194 122.932 59.1118Z" fill="#009233"/>
<path d="M2.94169 110.354C4.34071 108.488 5.72099 107.105 7.08254 106.203C9.13111 104.826 12.2851 104.951 16.5447 106.579C21.5911 108.507 26.8312 111.819 32.2649 116.515C37.6986 121.199 40.8214 125.1 41.6334 128.218L42.4765 129.27L43.582 133.815C43.8193 135.03 43.8381 135.975 43.6382 136.652C43.4383 137.365 42.9324 137.998 42.1205 138.549C41.4085 139.037 40.1969 139.638 38.4856 140.352C37.0366 140.953 34.6757 141.335 31.403 141.498C28.1928 141.648 24.8139 141.561 21.2664 141.235C12.5974 140.421 7.43854 138.774 5.7897 136.295C5.48991 135.831 5.34001 135.356 5.34001 134.867C5.60233 134.103 5.7897 133.383 5.90212 132.707C6.12696 131.405 5.87089 130.152 5.13391 128.95C3.41011 126.383 2.22969 124.53 1.59264 123.39C0.530878 121.487 0 119.608 0 117.755C0 115.401 0.980564 112.934 2.94169 110.354Z" fill="#0D131A"/>
<path d="M7.70056 107.123C9.43685 105.959 12.2536 106.122 16.1509 107.612C20.985 109.465 26.0752 112.677 31.4215 117.248C36.7552 121.819 39.8031 125.569 40.5651 128.499L40.7712 129.364C41.7455 133.108 42.1077 135.399 41.8579 136.238C41.683 136.802 41.2646 137.315 40.6025 137.779C40.1528 138.092 39.2035 138.611 37.7545 139.338C36.6553 139.889 34.5443 140.221 31.4215 140.333L21.6408 140.014C13.0718 139.213 8.09404 137.766 6.70751 135.675C6.1454 134.861 6.49516 133.909 7.75678 132.82C8.11902 132.507 8.144 131.987 7.83172 131.261C7.61937 130.785 7.02604 129.808 6.05172 128.33C4.20301 125.55 2.8602 123.215 2.02329 121.324C0.999006 119.02 1.45494 116.121 3.39108 112.627C4.0781 111.362 4.89003 110.166 5.82688 109.039C6.61383 108.075 7.23839 107.436 7.70056 107.123Z" fill="#5DC1CF"/>
<path d="M10.5117 106.391C12.0481 106.378 13.9281 106.785 16.1515 107.612C20.9856 109.465 26.0758 112.677 31.4221 117.248C36.7558 121.819 39.8037 125.569 40.5657 128.499L40.7718 129.364C41.7461 133.108 42.1083 135.399 41.8585 136.238C41.6836 136.802 41.2652 137.315 40.6032 137.779C40.1535 138.092 39.2041 138.611 37.7551 139.338C36.8308 139.801 35.1382 140.114 32.6775 140.277C30.3416 140.427 27.6872 140.421 24.7143 140.258C22.6033 140.108 20.9169 139.482 19.6553 138.38C17.8316 136.777 18.3999 134.717 21.3604 132.2C24.2958 129.708 23.9835 125.494 20.4235 119.558C19.2119 117.542 17.5131 115.144 15.3271 112.364L10.5117 106.391Z" fill="#50A8B4"/>
<path d="M15.477 130.866C15.352 130.641 15.5519 130.603 16.0765 130.754C17.3007 131.104 19.4554 131.524 22.5408 132.012C26.538 132.638 29.4609 132.864 31.3096 132.688C32.0341 132.626 32.2777 132.701 32.0404 132.914L31.4595 133.233C29.7482 133.684 26.894 133.59 22.8968 132.951C19.3867 132.388 17.0321 131.824 15.833 131.261L15.477 130.866Z" fill="#0D131A"/>
<path d="M10.4551 136.295C10.53 137.221 10.4176 137.998 10.1178 138.624L7.13865 139.488C5.33991 139.976 4.04707 140.239 3.26012 140.277C2.2858 140.315 1.68622 140.208 1.46138 139.958C1.22404 139.695 1.18657 139.05 1.34895 138.023C1.52383 136.971 2.09218 135.756 3.05401 134.379C4.01584 132.976 4.95893 132.018 5.88328 131.505C6.20805 131.33 6.54532 131.229 6.89507 131.204L7.5696 131.336C9.36834 132.788 10.3302 134.441 10.4551 136.295Z" fill="#0D131A"/>
<path d="M2.39812 138.943C2.01089 138.568 2.32941 137.478 3.3537 135.675C4.36549 133.859 5.28984 132.726 6.12676 132.275C6.50149 132.087 6.80128 132.056 7.02613 132.181C7.93799 132.983 8.61876 134.085 9.06845 135.487C9.45568 136.714 9.53062 137.503 9.29329 137.854C9.08094 138.167 7.98171 138.511 5.9956 138.887C3.95952 139.275 2.76036 139.294 2.39812 138.943Z" fill="white"/>
<path d="M7.70111 132.895C8.38813 133.734 8.88154 134.729 9.18133 135.882C9.45614 136.908 9.49361 137.566 9.29375 137.854C9.15635 138.054 8.48806 138.305 7.2889 138.605C6.05227 138.918 4.95304 139.1 3.99121 139.15C4.46588 137.973 5.02174 136.833 5.65879 135.731C6.38329 134.492 7.06406 133.546 7.70111 132.895Z" fill="#DBDCDC"/>
<path d="M15.0081 144.691C13.9464 144.04 13.6966 142.625 14.2587 140.446C14.7833 138.442 15.6452 136.802 16.8444 135.525C17.7062 134.61 18.4432 134.078 19.0553 133.928C19.6799 133.778 20.2857 133.991 20.8728 134.567C22.5716 136.232 23.6958 137.873 24.2454 139.488C24.5327 140.289 24.6451 140.928 24.5827 141.404C24.1455 141.892 22.5966 142.631 19.9359 143.62C17.1629 144.66 15.5203 145.017 15.0081 144.691Z" fill="#0D131A"/>
<path d="M19.6551 134.886C20.1672 134.986 20.9292 135.75 21.941 137.178C23.0028 138.668 23.5586 139.851 23.6086 140.728C23.1839 141.129 21.8661 141.773 19.6551 142.663C17.3567 143.577 15.9952 143.959 15.5705 143.808C15.3331 143.721 15.2394 143.22 15.2894 142.306C15.3394 141.366 15.5267 140.371 15.8515 139.319C16.7259 136.489 17.9938 135.011 19.6551 134.886Z" fill="white"/>
<path d="M19.7298 134.905C20.2794 135.093 21.0414 135.882 22.0157 137.272C23.0275 138.724 23.5584 139.876 23.6083 140.728C23.3085 141.003 22.4217 141.46 20.9477 142.099C19.4362 142.763 18.1496 143.251 17.0879 143.564C17.1628 141.874 17.3689 140.402 17.7062 139.15C18.1309 137.635 18.8054 136.22 19.7298 134.905Z" fill="#DBDCDC"/>
<path d="M32.7899 135.431C33.0772 135.168 33.4019 134.992 33.7642 134.905C34.064 134.83 34.345 134.83 34.6073 134.905C35.4068 135.143 36.4561 135.813 37.7551 136.915C39.1042 138.042 39.8412 138.931 39.9661 139.582C40.091 140.221 39.7038 141.329 38.8044 142.907C38.0175 144.322 37.293 145.355 36.6309 146.006C36.2937 146.344 35.9564 146.526 35.6191 146.551C35.3069 146.563 34.8822 146.451 34.345 146.213C32.7586 145.511 31.4595 144.466 30.4478 143.076L29.4172 141.216C29.3298 140.715 29.6858 139.789 30.4852 138.436C31.2722 137.109 32.0404 136.107 32.7899 135.431Z" fill="#0D131A"/>
<path d="M33.2019 136.295C33.6641 135.869 34.0326 135.694 34.3074 135.769C35.0319 135.982 35.9375 136.595 37.0243 137.61C38.1235 138.611 38.7231 139.382 38.823 139.92C38.9104 140.383 38.4795 141.348 37.5301 142.813C36.6308 144.178 35.9812 144.992 35.5815 145.255C35.3816 145.305 34.8945 145.104 34.12 144.654C33.2706 144.153 32.4837 143.57 31.7592 142.907C30.9722 142.193 30.5413 141.636 30.4663 141.235C30.3914 140.859 30.6475 140.114 31.2346 139C31.8591 137.835 32.5149 136.933 33.2019 136.295Z" fill="white"/>
<path d="M38.8231 139.92C38.9105 140.358 38.5295 141.241 37.6801 142.569C36.9182 143.771 36.2749 144.622 35.7502 145.123C35.7003 143.345 35.5754 141.786 35.3755 140.446C35.1382 138.768 34.7697 137.209 34.27 135.769H34.3075C35.032 135.982 35.9376 136.595 37.0243 137.61C38.1236 138.611 38.7232 139.382 38.8231 139.92Z" fill="#DBDCDC"/>
<path d="M9.81817 120.479C9.81817 120.579 9.65578 120.792 9.33101 121.117C8.73143 121.731 8.39416 122.232 8.31922 122.62C8.15683 123.409 8.73767 124.11 10.0617 124.724C10.449 124.899 10.5614 125.043 10.399 125.156C10.3241 125.219 10.2054 125.256 10.043 125.269C8.50659 125.206 7.63844 124.661 7.43858 123.634C7.33865 123.058 7.46357 122.464 7.81332 121.85C8.16308 121.249 8.59402 120.836 9.10617 120.61C9.58083 120.41 9.81817 120.366 9.81817 120.479Z" fill="#0D131A"/>
<path d="M124.769 132.763C124.882 132.626 124.994 132.576 125.106 132.613C126.118 132.814 127.105 133.365 128.067 134.266C129.266 135.393 130.215 136.921 130.915 138.849C129.866 139.601 128.754 140.277 127.58 140.878C125.231 142.093 123.751 142.349 123.139 141.648C122.777 141.235 122.889 139.713 123.476 137.084C124.026 134.629 124.457 133.189 124.769 132.763Z" fill="#0D131A"/>
<path d="M123.757 141.235C123.72 141.16 123.938 139.951 124.413 137.61C124.912 135.205 125.256 133.79 125.443 133.364L127.579 135.055C128.666 136.119 129.309 137.246 129.509 138.436C129.584 138.799 128.66 139.388 126.736 140.202C124.825 141.003 123.832 141.348 123.757 141.235Z" fill="#DBDCDC"/>
<path d="M127.973 104.08C129.06 107.224 129.734 110.279 129.997 113.247C130.709 121.512 128.385 130.478 123.027 140.146C122.889 140.396 122.696 141.329 122.446 142.944C122.221 144.372 121.74 145.536 121.003 146.438C118.642 149.306 112.827 150.927 103.559 151.303C98.0378 151.529 93.4972 150.633 89.9372 148.617C86.602 146.726 84.8533 144.316 84.6909 141.385C84.6284 140.308 84.2724 138.718 83.6229 136.614C82.6985 133.596 82.1427 131.693 81.9553 130.904C80.7561 125.932 81.1558 121.781 83.1544 118.45C84.3661 116.421 87.0954 113.767 91.3425 110.486C95.4896 107.292 99.9802 104.337 104.814 101.62C110.023 98.6769 114.401 96.7359 117.949 95.7967C122.021 94.7198 124.438 95.1393 125.2 97.0553L127.973 104.08Z" fill="#5DC1CF"/>
<path d="M125.2 97.0552L127.973 104.08C129.06 107.224 129.734 110.279 129.996 113.247C130.708 121.512 128.385 130.478 123.026 140.145C122.851 140.471 122.677 141.285 122.502 142.587C122.327 143.865 122.002 144.898 121.527 145.687C119.966 148.304 116.044 150.013 109.761 150.815L107.718 150.758C106.582 151.059 105.97 151.053 105.882 150.74C106.144 148.811 106.226 147.039 106.126 145.424C106.013 143.708 105.688 142.061 105.151 140.484C113.421 139.557 118.455 134.473 120.253 125.231C121.627 118.143 121.065 109.603 118.567 99.6098C117.48 95.2269 118.167 93.2734 120.628 93.7493C121.515 93.9246 122.458 94.3879 123.457 95.1393C124.394 95.8531 124.975 96.4917 125.2 97.0552Z" fill="#50A8B4"/>
<path d="M124.713 97.3182C124.126 96.0659 124.001 95.3897 124.338 95.2895C124.65 95.2019 125.1 95.7028 125.687 96.7923C128.997 102.978 130.596 109.772 130.484 117.173C130.346 125.438 128.023 133.183 123.514 140.408C123.239 140.859 123.101 141.467 123.101 142.231C123.089 143.57 122.927 144.647 122.614 145.461C122.177 146.626 121.378 147.609 120.216 148.41C117.343 150.376 111.797 151.529 103.578 151.867C97.4444 152.105 92.604 151.259 89.0565 149.331C85.559 147.427 83.9226 144.791 84.1475 141.423C84.1849 140.772 83.9414 139.789 83.4167 138.474L82.1613 135.28C81.0746 131.787 80.5437 128.813 80.5687 126.358C80.5937 123.653 81.2807 120.955 82.6298 118.262L83.6603 118.638C82.4486 121.894 81.9802 125.1 82.255 128.255C82.4174 130.109 82.9858 132.613 83.9601 135.769L84.7845 138.624C85.0468 139.651 85.1967 140.559 85.2342 141.348C85.3841 144.065 87.0142 146.319 90.1245 148.11C93.5596 150.101 98.0315 150.984 103.54 150.758C111.172 150.445 116.381 149.306 119.167 147.34C120.216 146.601 120.965 145.712 121.415 144.672C121.665 144.071 121.865 143.207 122.015 142.08C122.14 141.041 122.321 140.308 122.558 139.883C127.555 130.854 129.547 121.412 128.535 111.556C127.998 106.447 126.724 101.701 124.713 97.3182Z" fill="#0D131A"/>
<path d="M94.4527 138.004C93.7907 137.616 93.4534 137.359 93.4409 137.234C93.4409 137.084 93.8656 137.178 94.715 137.516C96.0141 138.029 98.0002 138.561 100.673 139.112C104.096 139.814 107.094 140.146 109.667 140.108C111.99 140.07 112.859 140.196 112.271 140.484C111.684 140.772 110.641 140.903 109.142 140.878C105.657 140.841 102.36 140.44 99.2494 139.676C97.0134 139.125 95.4145 138.568 94.4527 138.004Z" fill="#0D131A"/>
<path d="M84.3158 139.676L84.8029 139.62C86.3019 140.571 87.4011 142.174 88.1006 144.428C88.5378 145.818 88.7564 147.008 88.7564 147.997C88.7564 148.435 88.2006 148.748 87.0888 148.936L82.7419 149.387C79.8064 149.55 78.1826 149.325 77.8703 148.711C77.5705 148.11 78.2013 146.651 79.7627 144.334C81.2617 142.13 82.492 140.684 83.4539 139.995C83.6662 139.845 83.9535 139.738 84.3158 139.676Z" fill="#0D131A"/>
<path d="M79.1821 148.129C79.1821 147.515 79.7505 146.338 80.8872 144.597C82.0489 142.794 83.0669 141.586 83.9413 140.972C84.2161 140.772 84.3847 140.703 84.4472 140.765C85.2841 141.417 86.0773 142.638 86.8268 144.428C87.4139 145.818 87.7449 146.864 87.8198 147.565C87.3576 147.791 85.9087 147.991 83.4729 148.166C81.0246 148.342 79.5943 148.348 79.1821 148.185V148.129Z" fill="white"/>
<path d="M86.0211 142.756C86.4958 143.595 86.9205 144.56 87.2952 145.649C87.6075 146.538 87.7824 147.177 87.8198 147.565C87.3576 147.791 85.9087 147.991 83.4729 148.166C81.0246 148.342 79.5943 148.348 79.1821 148.185V148.129C79.1821 147.953 79.2258 147.753 79.3133 147.528C80.8247 145.674 83.0607 144.084 86.0211 142.756Z" fill="#DBDCDC"/>
<path d="M101.723 148.035C103.297 146.169 104.308 145.236 104.758 145.236C105.208 145.236 106.244 145.994 107.868 147.509C109.517 149.037 110.36 150.063 110.398 150.589C110.435 151.128 109.886 152.23 108.749 153.895C107.6 155.586 106.769 156.456 106.257 156.506C105.882 156.544 104.97 156.143 103.521 155.304C102.122 154.503 101.086 153.795 100.411 153.182C99.749 152.58 99.418 151.992 99.418 151.416C99.418 151.003 100.186 149.876 101.723 148.035Z" fill="#0D131A"/>
<path d="M104.851 146.664C105.189 146.689 105.976 147.271 107.212 148.41C108.461 149.562 109.099 150.326 109.123 150.702C109.161 151.153 108.724 152.029 107.812 153.332C106.925 154.609 106.325 155.26 106.013 155.285C105.776 155.31 105.158 155.01 104.158 154.384C103.096 153.733 102.216 153.088 101.516 152.449L100.804 151.679L100.692 151.435C100.729 151.097 101.354 150.232 102.566 148.842C103.777 147.452 104.539 146.726 104.851 146.664Z" fill="white"/>
<path d="M123.233 145.011C124.519 146.977 125.006 148.385 124.694 149.237C124.594 149.5 124.369 149.738 124.02 149.951C123.607 150.189 123.108 150.333 122.521 150.383C121.272 150.483 119.929 150.464 118.492 150.326C116.619 150.139 115.582 149.775 115.382 149.237L115.063 148.41C115.063 147.584 115.775 146.3 117.199 144.56C118.286 143.22 119.129 142.318 119.729 141.855C119.941 141.68 120.135 141.611 120.31 141.648L120.647 141.855C121.284 142.306 122.146 143.358 123.233 145.011Z" fill="#0D131A"/>
<path d="M123.738 149.199L119.822 149.331C117.724 149.143 116.519 148.867 116.206 148.504C115.919 148.166 116.412 147.158 117.686 145.48C118.923 143.827 119.748 142.969 120.16 142.907C120.559 142.844 121.371 143.808 122.596 145.799C123.832 147.803 124.213 148.936 123.738 149.199Z" fill="white"/>
<path d="M121.415 146.25C121.752 146.689 122.358 147.715 123.233 149.331C122.333 149.481 121.015 149.462 119.279 149.274C117.493 149.087 116.469 148.83 116.206 148.504C116.019 148.291 116.2 147.728 116.75 146.814C117.237 146.012 117.849 145.192 118.586 144.353C119.673 144.604 120.616 145.236 121.415 146.25Z" fill="#DBDCDC"/>
<path d="M119.204 121.418C119.791 121.405 120.335 121.637 120.834 122.113C121.346 122.601 121.627 123.171 121.677 123.822C121.715 124.361 121.502 124.893 121.04 125.419C120.441 126.108 119.591 126.408 118.492 126.321L118.099 126.058C117.911 125.882 118.024 125.788 118.436 125.776C119.123 125.751 119.697 125.269 120.16 124.329C120.659 123.315 120.347 122.532 119.223 121.981C118.798 121.769 118.667 121.612 118.829 121.512L119.204 121.418Z" fill="#0D131A"/>
<path d="M142.944 106.072C143.019 106.009 143.131 105.971 143.281 105.959C143.818 105.934 144.312 106.197 144.761 106.748C145.223 107.311 145.48 107.975 145.53 108.739C145.555 109.378 145.361 109.997 144.949 110.598C144.399 111.387 143.631 111.738 142.644 111.65L142.288 111.35C142.113 111.137 142.213 111.024 142.588 111.012C143.2 110.987 143.718 110.429 144.143 109.34C144.605 108.15 144.324 107.236 143.3 106.597C142.913 106.36 142.794 106.184 142.944 106.072Z" fill="#0D131A"/>
<path d="M157.802 92.904C158.326 92.8789 158.814 93.1106 159.263 93.599C159.713 94.0874 159.963 94.6634 160.013 95.3271C160.05 95.8781 159.863 96.4228 159.451 96.9613C158.914 97.6501 158.152 97.9568 157.165 97.8817L156.809 97.6187C156.646 97.4309 156.746 97.3307 157.109 97.3182C157.721 97.2932 158.233 96.7985 158.645 95.8343C159.095 94.8074 158.82 94.0122 157.821 93.4487C157.446 93.2484 157.333 93.0981 157.483 92.9979C157.546 92.9478 157.652 92.9165 157.802 92.904Z" fill="#0D131A"/>
<path d="M157.127 108.682C157.714 108.657 158.258 108.964 158.757 109.603C159.27 110.242 159.551 110.993 159.601 111.857C159.638 112.571 159.426 113.272 158.964 113.961C158.364 114.875 157.515 115.276 156.415 115.163L156.022 114.825C155.835 114.587 155.947 114.455 156.359 114.43C156.621 114.418 156.921 114.23 157.259 113.867C157.608 113.479 157.883 113.028 158.083 112.514C158.583 111.174 158.27 110.141 157.146 109.415C156.721 109.14 156.59 108.933 156.753 108.795L157.127 108.682Z" fill="#0D131A"/>
<path d="M107.1 121.211C107.55 121.625 107.712 122.307 107.587 123.259C107.512 123.872 107.188 124.386 106.613 124.799C106.038 125.212 105.37 125.419 104.608 125.419L104.252 125.25C104.09 125.112 104.209 124.987 104.608 124.874C105.595 124.611 106.195 124.073 106.407 123.259C106.644 122.357 106.101 121.65 104.777 121.136L104.121 120.761C104.121 120.66 104.383 120.61 104.908 120.61C105.945 120.598 106.676 120.798 107.1 121.211Z" fill="#0D131A"/>
<path d="M119.091 105.639C119.429 105.965 119.629 106.397 119.691 106.936C119.741 107.411 119.541 107.875 119.091 108.326C118.617 108.801 118.073 109.046 117.461 109.058C117.149 109.071 116.968 109.021 116.918 108.908C116.868 108.795 117.018 108.664 117.368 108.513C118.579 108.012 119.035 107.424 118.735 106.748C118.486 106.197 117.973 105.815 117.199 105.602C116.749 105.489 116.612 105.364 116.787 105.226L117.18 105.057C118.017 105.02 118.654 105.214 119.091 105.639Z" fill="#0D131A"/>
<path d="M83.4731 72.9179C90.1434 72.1415 94.5591 72.3106 96.7201 73.4251C97.3821 73.7757 97.8006 74.4144 97.9755 75.341L98.0691 77.3697C98.0691 80.6381 96.9074 85.4092 94.5841 91.683C98.0442 94.8387 100.524 97.4497 102.023 99.5159C103.784 101.945 104.665 104.199 104.665 106.278C104.665 106.942 104.596 107.731 104.458 108.645C104.296 109.684 104.109 110.448 103.896 110.937C102.472 114.217 101.061 116.565 99.6618 117.98C98.0879 119.583 95.8769 120.742 93.0289 121.455C90.6056 122.069 85.428 124.273 77.496 128.067L69.9638 131.749C67.2407 133.064 65.0922 134.041 63.5183 134.679C60.1082 136.069 54.8307 136.389 47.6857 135.637C40.3033 134.848 35.3318 133.289 32.7711 130.96C31.9217 130.171 28.1306 127.948 21.3978 124.292C16.089 121.399 12.2542 119.358 9.89336 118.168C8.39441 117.417 7.0516 115.169 5.86493 111.425C4.66577 107.656 4.4909 105.082 5.3403 103.705C6.46451 101.889 8.16332 99.6161 10.4367 96.8862C12.8226 94.0185 14.7462 91.9836 16.2077 90.7814C15.3333 89.5291 14.4464 87.4504 13.5471 84.5451C12.5977 81.4771 12.1231 78.9726 12.1231 77.0316C12.1231 76.6434 12.1418 76.299 12.1793 75.9985C12.3416 74.8714 12.7164 74.189 13.3035 73.951C15.5519 72.9868 19.6116 72.9868 25.4825 73.951C28.5303 74.4519 31.8655 75.1469 35.4879 76.036C38.8606 74.7587 44.0445 74.2328 51.0396 74.4582C56.9979 74.646 62.6377 75.2722 67.959 76.3366C71.9812 74.7838 77.1525 73.6442 83.4731 72.9179Z" fill="#0D131A"/>
<path d="M95.7457 74.5897C96.1829 74.7775 96.4515 74.9904 96.5514 75.2283C97.4882 77.833 96.4889 83.0425 93.5535 90.8566C93.2912 90.6437 92.7853 90.4809 92.0358 90.3682C91.5736 90.3056 91.6423 90.5936 92.2419 91.2322L93.2912 92.1902C97.7755 96.235 100.686 99.9166 102.023 103.235C103.034 105.765 103.116 108.013 102.266 109.979C100.967 112.959 99.6305 115.144 98.2564 116.534C96.8824 117.912 94.9837 118.982 92.5604 119.746C91.3613 120.122 89.3252 120.967 86.4522 122.282L77.6833 126.414C70.6757 129.796 65.8291 132.031 63.1435 133.12C59.4211 134.648 54.0436 134.93 47.0111 133.966C44.1256 133.565 41.4774 133.008 39.0666 132.294C36.6683 131.58 34.982 130.847 34.0077 130.096C33.0333 129.345 29.2985 127.222 22.803 123.728C15.7829 119.947 11.8856 117.811 11.1112 117.323C9.83707 116.534 8.71286 114.606 7.73854 111.538C6.81419 108.657 6.50816 106.516 6.82044 105.114C7.07026 103.974 8.59419 101.576 11.3922 97.9193C14.1028 94.3754 15.9453 92.2716 16.9196 91.6079C18.2062 90.7438 18.8308 90.0739 18.7933 89.598C18.7683 89.1222 18.2125 89.285 17.1257 90.0864C15.8891 88.0327 14.8898 85.6972 14.1278 83.08C13.3034 80.2624 13.0161 77.952 13.2659 76.1488C13.3783 75.4851 13.572 75.0718 13.8468 74.909C14.7087 74.4206 17.5879 74.477 22.4845 75.0781C26.4567 75.5539 30.7724 76.2427 35.4317 77.1443L35.5816 77.1631L35.7314 77.1067C38.9917 75.8294 44.1068 75.3097 51.077 75.5477C56.9978 75.748 62.6001 76.3804 67.8839 77.4448L68.0526 77.4824L68.2025 77.4261C72.0873 75.8983 77.14 74.8151 83.3606 74.1764C89.5813 73.5378 93.7096 73.6755 95.7457 74.5897Z" fill="#5DC1CF"/>
<path d="M19.7862 118.788C18.0999 118.575 16.7633 117.617 15.7765 115.914L14.4836 113.641C14.0215 112.915 13.5281 112.295 13.0034 111.782C13.9652 112.533 15.5267 113.103 17.6876 113.491L19.7862 113.81C20.5232 113.81 22.553 115.15 25.8757 117.83L30.6348 121.85L26.6439 120.516C23.6834 119.59 21.3975 119.014 19.7862 118.788Z" fill="#50A8B4"/>
<path d="M35.4319 77.1443L35.5818 77.1631L35.7317 77.1067C38.9919 75.8294 44.1071 75.3098 51.0772 75.5477C56.9981 75.748 62.6004 76.3804 67.8842 77.4449L68.0528 77.4824L68.2027 77.4261C70.4012 76.562 73.168 75.8107 76.5032 75.172C79.676 74.5584 82.8238 74.1514 85.9466 73.951C80.4629 74.8276 75.6788 76.6998 71.5941 79.5674C68.8335 81.521 66.8162 83.5371 65.5421 85.6158C60.5956 87.2814 55.1494 89.7045 49.2035 92.8852C41.3091 97.1053 36.2813 100.95 34.1204 104.419C33.9205 104.419 33.1148 104.005 31.7033 103.179C29.8921 102.102 28.6742 101.407 28.0496 101.094C28.7616 100.142 29.3674 98.9023 29.8671 97.3746L30.9538 93.2985C31.8157 89.9299 33.0523 87.7384 34.6637 86.7241C32.5402 84.1695 29.917 81.834 26.7942 79.7177C24.2585 78.0021 21.1857 76.3053 17.5757 74.6273C19.7492 74.7274 22.6222 75.0405 26.1946 75.5665C29.3175 76.0298 32.3966 76.5558 35.4319 77.1443Z" fill="#50A8B4"/>
<path d="M47.1606 121.512C50.0711 120.735 53.1377 119.396 56.3604 117.492C59.8455 115.438 62.1814 114.211 63.368 113.81L70.9565 112.42C74.6289 111.707 77.6518 111.287 80.0251 111.162C81.5865 111.162 83.2479 110.448 85.0091 109.021C86.7954 107.543 87.6136 106.147 87.4637 104.832C86.8766 103.304 85.2589 101.62 82.6108 99.7789C80.7371 98.464 78.8509 96.5481 76.9523 94.031C75.0911 91.5641 73.0175 89.5667 70.7316 88.039C72.1181 87.5881 74.0106 86.5613 76.4089 84.9584C79.5442 82.8796 81.3242 81.7213 81.7489 81.4834L89.1687 77.3885C91.8418 76.0736 94.2589 75.2909 96.4199 75.0405L96.551 75.2283C97.4879 77.833 96.4886 83.0424 93.5531 90.8565C93.2908 90.6437 92.7849 90.4809 92.0355 90.3682C91.5733 90.3055 91.642 90.5936 92.2416 91.2322L93.2908 92.1902C97.7752 96.235 100.686 99.9166 102.022 103.235C103.034 105.765 103.115 108.013 102.266 109.979C100.967 112.959 99.6301 115.144 98.2561 116.534C96.8821 117.912 94.9834 118.982 92.5601 119.746C91.3609 120.122 89.3249 120.967 86.4519 122.282L77.683 126.414C70.6754 129.796 65.8288 132.031 63.1432 133.12C59.4208 134.648 54.0433 134.93 47.0107 133.966C44.1252 133.565 41.4771 133.008 39.0663 132.294C36.668 131.58 34.9816 130.847 34.0073 130.096C35.856 130.109 38.4605 128.819 41.8206 126.227C43.6693 124.799 45.4493 123.227 47.1606 121.512Z" fill="#50A8B4"/>
<path d="M94.3774 76.8062C94.7022 76.9189 94.8645 77.1568 94.8645 77.52C94.8645 78.4341 94.3961 80.2499 93.4593 82.9673L91.7542 87.6069C91.5668 88.183 91.2983 88.496 90.9485 88.5461C90.5863 88.6087 89.9992 88.4272 89.1873 88.0014C85.0152 85.7598 82.4232 84.4137 81.4115 83.9629C80.9243 83.75 80.6432 83.5684 80.5683 83.4181C80.4684 83.2553 80.5558 83.0299 80.8306 82.7419C81.8924 81.6149 83.9472 80.275 86.995 78.7222C90.5051 76.9189 92.9659 76.2802 94.3774 76.8062Z" fill="#0D131A"/>
<path d="M94.303 77.52C94.303 78.8098 93.1163 82.1972 90.743 87.6821L86.9207 85.5783C84.7847 84.4513 83.1858 83.6936 82.124 83.3054C83.6979 81.8153 85.9339 80.3626 88.8318 78.9476C91.6673 77.5576 93.4473 77.0128 94.1718 77.3134C94.2593 77.3509 94.303 77.4198 94.303 77.52Z" fill="#C6000B"/>
<path d="M94.1718 77.3134C94.2593 77.3509 94.303 77.4198 94.303 77.52C94.303 78.3715 93.7534 80.2124 92.6541 83.0425C91.2551 82.6543 90.0247 82.504 88.963 82.5917C87.5889 82.7169 85.9713 83.2428 84.1101 84.1695C83.3731 83.8063 82.7111 83.5183 82.124 83.3054C83.6979 81.8152 85.9339 80.3626 88.8318 78.9476C91.6673 77.5576 93.4473 77.0128 94.1718 77.3134Z" fill="#A30000"/>
<path d="M27.15 83.7563C27.1874 83.8564 26.9876 84.0505 26.5504 84.3386L20.8169 88.471C20.0674 89.0095 19.5927 89.166 19.3929 88.9406L18.456 87.1374C17.7565 85.9352 17.1757 84.5702 16.7135 83.0425C16.1389 81.1265 16.0952 79.843 16.5824 79.1918C16.7822 78.9413 17.7253 79.0666 19.4116 79.5675C21.5976 80.2186 23.871 81.377 26.2318 83.0425L27.15 83.7563Z" fill="#0D131A"/>
<path d="M22.2028 81.7839C24.0016 82.673 25.2632 83.4181 25.9877 84.0192C24.9509 84.5076 23.8642 85.1525 22.7275 85.954C22.0529 86.4298 21.191 87.0935 20.1418 87.9451L19.8232 88.1892C19.3735 87.5631 18.8364 86.4486 18.2119 84.8457C17.5124 83.0675 17.1626 81.7714 17.1626 80.9574C17.1626 80.6694 17.2126 80.4691 17.3125 80.3563C17.3874 80.2687 17.5498 80.2311 17.7997 80.2437C18.699 80.2687 20.1667 80.7821 22.2028 81.7839Z" fill="#C6000B"/>
<path d="M17.7997 80.2437C18.6366 80.2562 20.0606 80.7508 22.0717 81.7276C21.1098 82.2911 20.4665 83.2303 20.1418 84.5452C19.9669 85.2965 19.817 86.4423 19.6921 87.9826C19.2049 87.1812 18.6803 86.0479 18.1182 84.5827C17.4811 82.9297 17.1626 81.7213 17.1626 80.9574C17.1626 80.6694 17.2126 80.4691 17.3125 80.3563C17.3874 80.2687 17.5498 80.2311 17.7997 80.2437Z" fill="#A30000"/>
<path d="M17.8743 113.378C20.6349 113.216 24.1887 113.61 28.5356 114.562L39.4405 117.323C41.6015 117.874 43.6438 118.312 45.5675 118.638C47.5411 118.976 48.8027 119.089 49.3523 118.976L50.6826 118.694C67.7582 115.15 79.4063 113.378 85.6269 113.378H86.3014L85.9829 113.98C84.5839 116.76 80.3306 120.266 73.2231 124.499C70.2877 126.239 67.4771 127.717 64.7915 128.932C62.0434 130.171 60.0136 130.866 58.702 131.017C56.0788 131.33 52.3065 131.261 47.3849 130.81C42.4759 130.347 39.4467 129.783 38.2975 129.119L34.0817 126.321L27.0179 121.587C22.4711 118.619 19.4545 116.565 17.968 115.426C16.9562 114.649 16.4816 114.13 16.544 113.867C16.569 113.804 16.7376 113.71 17.0499 113.585L17.8743 113.378Z" fill="#0D131A"/>
<path d="M29.3049 115.332C31.2535 115.72 34.8573 116.59 40.1161 117.943L46.0932 119.427C47.792 119.777 48.9349 119.896 49.522 119.784L50.8523 119.502L72.1187 115.088C78.5892 113.823 83.1797 113.159 85.8903 113.097C84.0666 115.802 79.4636 119.289 72.0812 123.559C65.0736 127.604 60.2645 129.783 57.6538 130.096C55.0931 130.397 51.5269 130.265 46.9551 129.702C42.5956 129.176 39.885 128.612 38.8232 128.011C36.6123 126.746 33.0898 124.486 28.2556 121.23C22.697 117.498 19.5243 115.144 18.7373 114.167C21.4729 114.055 24.9954 114.443 29.3049 115.332Z" fill="#922F00"/>
<path d="M27.0936 117.793C26.7438 117.154 26.6189 116.471 26.7189 115.745C26.7813 115.244 26.9375 114.787 27.1873 114.374C41.215 117.592 48.1601 119.252 48.0227 119.352L76.7463 114.374C77.3709 114.925 77.4708 115.676 77.0461 116.628C76.6964 117.417 75.9969 118.312 74.9476 119.314C72.4244 121.718 68.7394 123.766 63.8928 125.456C58.634 127.285 53.6063 128.074 48.8096 127.823L48.2663 127.786C43.5446 127.535 39.0227 126.302 34.7008 124.085C30.8035 122.094 28.2678 119.997 27.0936 117.793Z" fill="#0D131A"/>
<path d="M27.8238 115.069C30.4345 115.57 34.2256 116.465 39.1971 117.755L45.83 119.37C47.6912 119.771 48.9216 119.909 49.5212 119.784L51.4885 119.37C62.0311 117.129 70.2067 115.589 76.0151 114.75C75.8277 116.002 74.9846 117.348 73.4856 118.788C70.9999 121.155 67.5523 123.134 63.1429 124.724C58.2588 126.477 53.4934 127.235 48.8466 126.997C44.3498 126.746 39.9404 125.482 35.6184 123.202C31.7461 121.149 29.2541 119.076 28.1424 116.985C27.8551 116.459 27.7114 115.983 27.7114 115.557L27.8238 115.069Z" fill="#ED8599"/>
<path d="M33.52 103.085C34.4693 104.199 34.7441 104.713 34.3444 104.625L33.445 104.174C33.1452 105.351 32.2771 106.372 30.8406 107.236C29.3916 108.113 27.9801 108.457 26.606 108.269C25.0821 108.056 23.7455 107.286 22.5964 105.959C20.8476 103.918 19.9107 100.85 19.7858 96.7547C18.6616 96.5293 18.0058 96.2601 17.8184 95.947C17.6186 95.6089 18.4555 95.5588 20.3292 95.7967C22.8524 96.1348 25.0321 96.761 26.8684 97.6751C29.2167 98.8522 31.4339 100.655 33.52 103.085Z" fill="#0D131A"/>
<path d="M30.5035 106.015C29.2669 106.779 27.9927 107.086 26.6812 106.936C24.9449 106.76 23.5646 105.809 22.5403 104.08C21.4911 102.34 20.879 99.9479 20.7041 96.905C25.6381 98.032 29.6478 100.217 32.7332 103.461C32.3959 104.462 31.6527 105.314 30.5035 106.015Z" fill="white"/>
<path d="M31.1784 101.075L31.3283 101.206L31.3658 101.638C30.9786 102.64 30.379 103.41 29.567 103.949C28.7551 104.487 27.9432 104.656 27.1313 104.456C26.2319 104.256 25.4824 103.586 24.8828 102.446C24.1833 101.106 23.9148 99.4408 24.0771 97.4497L24.3582 97.1304L24.6955 97.2619C27.0438 98.2136 29.2048 99.4846 31.1784 101.075Z" fill="#0D131A"/>
<path d="M27.3562 103.611C26.5193 103.423 25.8697 102.722 25.4076 101.507C25.0079 100.48 24.8205 99.3782 24.8455 98.201C26.9315 99.0401 28.8427 100.142 30.5789 101.507C30.2167 102.283 29.7483 102.866 29.1737 103.254C28.5866 103.642 27.9808 103.761 27.3562 103.611Z" fill="#C6000B"/>
<path d="M29.1926 100.493C28.8928 101.282 28.4806 101.67 27.9559 101.657C27.3064 101.645 26.8754 100.762 26.6631 99.0087C27.525 99.4345 28.3681 99.9291 29.1926 100.493Z" fill="white"/>
<path d="M22.0529 93.336C22.59 92.7976 23.5706 92.1276 24.9946 91.3262C26.5435 90.4621 27.6989 89.9862 28.4609 89.8986C30.1347 89.7233 30.1909 89.9049 28.6295 90.4433C27.9675 90.6562 26.9932 91.1947 25.7066 92.0587L22.896 93.9559C22.1965 94.4067 21.7593 94.5382 21.5845 94.3504C21.3971 94.1625 21.5532 93.8244 22.0529 93.336Z" fill="#0D131A"/>
<path d="M33.3519 93.4299C33.2645 92.2778 33.3207 91.8082 33.5206 92.0211C33.7204 92.2215 33.9203 92.8226 34.1201 93.8244C34.32 94.7385 34.4761 95.8155 34.5886 97.0552C34.701 98.295 34.7322 99.2717 34.6822 99.9855C34.6323 100.674 34.4449 101.025 34.1201 101.037C33.7954 101.05 33.6267 100.749 33.6142 100.136L33.5393 97.2618L33.3519 93.4299Z" fill="#0D131A"/>
<path d="M70.0386 87.8699C70.5882 87.5318 71.2752 87.4128 72.0996 87.513C72.4868 87.5631 72.693 87.6821 72.7179 87.8699C72.7554 88.0577 72.5805 88.1955 72.1933 88.2832L71.1815 88.4522C70.8193 88.4898 70.5569 88.5587 70.3946 88.6588C69.5701 89.1472 68.7145 90.8691 67.8276 93.8244L66.3849 99.5535C66.16 100.418 66.0039 100.781 65.9164 100.643C65.8665 100.555 65.8352 100.167 65.8228 99.4784C65.8228 98.3638 66.1913 96.4917 66.9282 93.862C67.8526 90.5435 68.8894 88.5461 70.0386 87.8699Z" fill="#0D131A"/>
<path d="M76.9522 88.0953C77.8766 88.4835 78.7697 88.9719 79.6316 89.5605C80.531 90.1741 81.293 90.8253 81.9175 91.514C82.5421 92.2028 82.8231 92.5597 82.7607 92.5847L81.4678 91.8146C78.9821 90.1616 77.3457 89.166 76.5588 88.8279C76.0092 88.6025 75.7281 88.3333 75.7156 88.0202C75.7031 87.7197 76.1153 87.7447 76.9522 88.0953Z" fill="#0D131A"/>
<path d="M82.3864 93.2609C83.1234 93.2233 83.6355 93.3486 83.9228 93.6366C84.1977 93.9371 83.8417 94.1187 82.8548 94.1813C83.0672 98.5016 82.4426 101.895 80.9812 104.362C79.9444 106.103 78.6328 107.217 77.0464 107.706C75.4975 108.169 73.8237 107.994 72.0249 107.18C70.2886 106.403 68.9521 105.276 68.0152 103.799C67.1783 104.75 66.7286 105.114 66.6662 104.888C66.6037 104.663 66.9597 103.911 67.7342 102.634C69.1332 100.355 71.2192 98.2887 73.9923 96.4354C76.9527 94.4568 79.7508 93.3986 82.3864 93.2609Z" fill="#0D131A"/>
<path d="M68.6895 103.029C70.6131 100.649 73.1488 98.5079 76.2966 96.6044C79.1446 94.9014 81.0121 94.1625 81.899 94.3879V94.8763C81.899 98.1322 81.443 100.781 80.5312 102.822C79.6193 104.876 78.3265 106.153 76.6526 106.654C75.2786 107.055 73.8608 106.929 72.3994 106.278C70.9129 105.602 69.6763 104.519 68.6895 103.029Z" fill="white"/>
<path d="M73.0924 101.995C72.0806 101.432 71.4561 100.599 71.2188 99.4972L71.6497 98.7646C73.3735 97.3746 75.2409 96.2037 77.252 95.252L77.5143 95.1205L77.8516 95.0829C78.5136 96.6733 78.6573 98.1698 78.2825 99.5723C77.9078 100.925 77.1708 101.82 76.0716 102.258C75.0848 102.647 74.0917 102.559 73.0924 101.995Z" fill="#0D131A"/>
<path d="M74.1043 101.451C73.7421 101.35 73.3861 101.119 73.0363 100.756C72.6991 100.405 72.4243 99.9918 72.2119 99.5159C73.8732 98.1384 75.597 96.9613 77.3833 95.9846C77.5582 96.6858 77.6456 97.362 77.6456 98.0132C77.6456 99.0025 77.3583 99.829 76.7837 100.493C76.434 100.893 76.0155 101.181 75.5283 101.357L74.1043 101.451Z" fill="#C6000B"/>
<path d="M75.4536 97.1304C75.5785 98.6206 75.3349 99.4596 74.7228 99.6474C74.1482 99.8227 73.6736 99.4909 73.2988 98.6519L75.4536 97.1304Z" fill="white"/>
<path d="M19.5799 118.45C19.2426 118.337 18.5431 117.455 17.4814 115.802L15.9824 113.36L19.4113 113.378C21.6847 113.429 22.7714 113.56 22.6715 113.773L21.3037 116.497C20.5043 117.924 19.9297 118.575 19.5799 118.45Z" fill="#0D131A"/>
<path d="M17.1626 113.904L19.6921 113.98C21.0037 114.017 21.6345 114.086 21.5845 114.186C21.3597 114.7 20.9912 115.37 20.479 116.196C19.9294 117.085 19.5921 117.505 19.4672 117.455C19.2299 117.379 18.4617 116.196 17.1626 113.904Z" fill="white"/>
<path d="M87.8944 113.078C87.9444 113.566 87.5759 114.549 86.7889 116.027C85.9645 117.542 85.3275 118.294 84.8778 118.281C84.4781 118.269 83.8348 117.442 82.9479 115.802L81.73 113.36L84.7841 112.89C86.8327 112.652 87.8694 112.715 87.8944 113.078Z" fill="#0D131A"/>
<path d="M87.295 113.097C87.0702 113.898 86.6517 114.787 86.0396 115.764C85.4276 116.753 85.0029 117.21 84.7655 117.135C84.5282 117.06 84.1722 116.647 83.6975 115.895C83.2229 115.169 82.8294 114.418 82.5171 113.641L87.295 113.097Z" fill="white"/>
<path d="M34.7384 119.784C34.9008 119.796 35.0569 120.51 35.2068 121.925C35.3567 123.303 35.3879 124.073 35.3005 124.236C35.2131 124.448 34.9445 124.605 34.4948 124.705C33.9952 124.805 33.5517 124.749 33.1645 124.536C32.9397 124.398 32.746 124.11 32.5837 123.672C32.4213 123.246 32.3775 122.952 32.4525 122.789C32.6274 122.439 33.0084 121.862 33.5954 121.061C34.22 120.197 34.601 119.771 34.7384 119.784Z" fill="#0D131A"/>
<path d="M34.5699 120.498C34.6448 120.585 34.726 121.149 34.8134 122.188C34.9009 123.252 34.8884 123.81 34.776 123.86C34.6136 123.947 34.4012 124.01 34.1389 124.048L33.3894 123.954C33.1271 123.816 32.9835 123.447 32.9585 122.846L33.7642 121.587C34.2513 120.811 34.5199 120.447 34.5699 120.498Z" fill="white"/>
<path d="M39.4409 122.019C39.5908 122.069 39.7656 122.896 39.9655 124.499C40.1529 126.064 40.2091 126.903 40.1341 127.016C40.0592 127.166 39.7219 127.266 39.1223 127.316C38.4603 127.366 37.9482 127.26 37.5859 126.997C37.2736 126.771 37.0425 126.465 36.8926 126.076C36.7427 125.701 36.724 125.388 36.8364 125.137C36.9489 124.912 37.3548 124.348 38.0543 123.447C38.8288 122.445 39.291 121.969 39.4409 122.019Z" fill="#0D131A"/>
<path d="M39.1415 122.864C39.1914 122.927 39.2664 123.559 39.3663 124.761C39.4537 125.976 39.46 126.615 39.385 126.677L38.7667 126.771C38.392 126.759 38.1047 126.684 37.9048 126.546C37.5925 126.308 37.4239 125.863 37.3989 125.212L38.2608 123.935C38.7979 123.171 39.0915 122.814 39.1415 122.864Z" fill="white"/>
<path d="M66.7594 124.386C66.6845 124.173 66.7657 123.415 67.003 122.113C67.2278 120.786 67.4214 120.116 67.5838 120.103C67.7837 120.078 68.1897 120.516 68.8017 121.418L69.7948 122.996C69.9572 123.221 69.9447 123.528 69.7573 123.916C69.5699 124.304 69.2826 124.592 68.8954 124.78C68.4957 124.981 68.046 125.018 67.5464 124.893C67.1092 124.768 66.8468 124.599 66.7594 124.386Z" fill="#0D131A"/>
<path d="M69.2138 123.184C69.1639 123.722 68.9952 124.066 68.708 124.217L67.9585 124.273L67.3589 124.085C67.2465 124.023 67.2652 123.465 67.4151 122.413C67.5525 121.374 67.6587 120.817 67.7336 120.742C67.7836 120.692 68.0397 121.067 68.5018 121.869L69.2138 123.184Z" fill="white"/>
<path d="M62.1688 127.034C61.869 126.859 61.8128 125.995 62.0002 124.442C62.1876 122.889 62.4436 122.044 62.7684 121.906C62.9308 121.856 63.318 122.244 63.9301 123.071C64.5297 123.91 64.9481 124.617 65.1855 125.194C65.2729 125.406 65.2479 125.688 65.1105 126.039C64.9481 126.44 64.6921 126.759 64.3423 126.997C63.9676 127.235 63.5241 127.322 63.012 127.26C62.6372 127.222 62.3562 127.147 62.1688 127.034Z" fill="#0D131A"/>
<path d="M64.6233 125.231C64.5733 125.82 64.361 126.233 63.9862 126.471L63.1618 126.677L62.5435 126.565C62.4685 126.502 62.5185 125.87 62.6934 124.668C62.8558 123.478 62.9682 122.852 63.0307 122.789C63.0681 122.739 63.3367 123.115 63.8363 123.916L64.6233 125.231Z" fill="white"/>
<path d="M12.2915 111.538C12.1416 111.149 12.0729 110.755 12.0854 110.354C12.1104 109.703 12.2228 109.396 12.4227 109.434C12.5976 109.471 12.7412 109.722 12.8536 110.185C12.9411 110.486 13.066 110.793 13.2284 111.106L13.5844 111.632C14.2714 112.32 15.0958 112.765 16.0576 112.965L21.0604 113.209C24.1208 113.172 27.2311 113.497 30.3914 114.186C32.3025 114.599 34.8632 115.332 38.0735 116.384L43.0762 117.924C44.9374 118.425 46.5051 118.694 47.7792 118.732C48.3913 118.744 49.9901 118.488 52.5758 117.962L61.5883 116.083C71.2065 114.142 79.457 112.915 86.3397 112.402C88.6256 112.239 90.5492 111.826 92.1107 111.162C93.5222 110.561 94.4777 109.841 94.9774 109.002C95.4146 108.263 95.7831 108.019 96.0829 108.269C96.3827 108.52 96.3514 108.908 95.9892 109.434C94.9649 110.886 93.7782 111.888 92.4292 112.439C91.255 112.903 89.2626 113.259 86.4521 113.51C82.3925 113.861 74.9414 115.056 64.099 117.098C54.106 118.964 48.7223 119.878 47.9478 119.84C45.7119 119.702 42.308 118.901 37.7362 117.436C34.526 116.396 32.0152 115.676 30.204 115.276C27.1062 114.599 24.0645 114.28 21.0791 114.318C18.2436 114.355 16.27 114.217 15.1583 113.904C14.3838 113.692 13.6031 113.197 12.8162 112.42C12.5913 112.195 12.4164 111.901 12.2915 111.538Z" fill="#0D131A"/>
<path d="M40.7903 114.449C40.4656 114.274 40.3407 114.036 40.4156 113.735C40.503 113.435 40.7654 113.328 41.2026 113.416C41.6398 113.504 41.9833 113.641 42.2331 113.829L43.2261 114.844C43.5884 115.257 43.6259 115.52 43.3386 115.633L42.7765 115.67C42.1644 115.194 41.5023 114.787 40.7903 114.449Z" fill="#0D131A"/>
<path d="M50.2522 115.313C50.6519 114.825 51.0267 114.48 51.3764 114.28C51.6887 114.117 52.1509 113.98 52.763 113.867C53.3375 113.767 53.6436 113.898 53.6811 114.261C53.706 114.624 53.45 114.856 52.9128 114.956C52.4632 115.056 52.001 115.226 51.5263 115.463C51.1266 115.664 50.9267 115.783 50.9267 115.82L50.2897 115.952C49.9274 115.952 49.915 115.739 50.2522 115.313Z" fill="#0D131A"/>
<path d="M81.8992 48.8182C85.8839 48.7305 88.9068 49.2377 90.9678 50.3397L91.2676 50.5087L89.3939 55.8246C87.0456 55.4239 84.8221 55.1984 82.7236 55.1484C84.1976 55.7119 85.3405 56.338 86.1525 57.0267C86.4023 57.2522 86.6833 57.4337 86.9956 57.5715C87.183 57.7217 87.2329 58.0599 87.1455 58.5858L86.8457 62.1172C86.6833 63.9455 86.5085 65.0976 86.3211 65.5734C86.0962 66.1119 85.9339 66.3749 85.8339 66.3623C85.784 66.3498 85.6965 66.1432 85.5716 65.7425C85.4092 65.204 84.7909 64.4589 83.7167 63.5072C82.3551 62.2925 80.8749 61.4535 79.276 60.9901C81.2621 62.7057 83.3669 64.6781 85.5903 66.9071L81.3558 70.5699C78.4703 72.9868 76.859 74.1639 76.5217 74.1013C76.2094 74.0387 75.4912 73.4689 74.367 72.392L71.369 69.518L73.7112 73.5002C74.6105 75.0405 75.0477 75.9359 75.0227 76.1863C74.9728 76.5996 73.7611 77.2883 71.3878 78.2525L68.5398 80.5442C66.5911 82.0218 65.4669 82.673 65.1671 82.4977C64.8673 82.3224 64.1928 81.5585 63.1436 80.2061L60.5017 76.8062L62.0381 81.4458C62.6751 83.3492 62.9749 84.4387 62.9375 84.7142C62.9 85.0022 62.3441 85.5344 61.2699 86.3108L58.8528 87.945C58.2782 88.3207 57.8722 88.5273 57.6349 88.5649C57.3851 88.59 57.179 88.4522 57.0166 88.1517L54.8244 83.8689C55.0992 84.996 55.5426 86.5488 56.1547 88.5273C53.3692 90.7438 51.9202 91.7832 51.8077 91.6455C51.7453 91.5703 51.4767 90.8503 51.0021 89.4853L49.6717 85.6722L50.0277 92.4344C50.0277 92.522 49.2533 92.8915 47.7044 93.5426C46.118 94.2063 45.2373 94.4756 45.0625 94.3503C44.9126 94.2376 44.7627 93.6804 44.6128 92.6786L44.1631 89.6919L44.4067 93.3924C44.4816 94.5695 44.4629 95.1894 44.3505 95.252C40.2034 96.4541 37.9924 96.9237 37.7176 96.6608C37.5552 96.498 37.8175 95.0391 38.5045 92.2841L39.966 86.6114C39.4664 87.1123 38.2048 88.4772 36.1812 90.7063C34.345 92.6598 33.2957 93.5927 33.0334 93.5051C32.7711 93.4299 32.3276 92.2152 31.7031 89.861L30.8599 86.3484L33.4269 83.7187L31.2159 85.428C29.7544 86.5175 28.955 86.9871 28.8176 86.8368C28.6802 86.6865 28.7614 85.7849 29.0612 84.1319L29.5483 81.69L35.7128 77.2194L31.3096 79.2105C29.6982 79.9494 28.8176 80.2311 28.6677 80.0558C28.5178 79.8805 28.9487 78.6282 29.9605 76.299L31.5157 72.8616L36.9307 68.128L33.9702 69.6871C32.796 70.3007 32.1777 70.5512 32.1153 70.4384C32.0028 70.2381 33.914 67.552 37.8488 62.3802L44.7814 60.5581L42.3831 60.22L40.5843 59.8255C40.322 59.7504 40.2159 59.6127 40.2658 59.4123L40.4344 59.1305C41.9459 57.7405 43.4823 56.482 45.0437 55.355L45.1374 55.2798L47.8917 55.0357L52.4823 54.5661L48.4538 53.871L48.1728 53.6832C48.0978 53.4954 48.3039 53.2449 48.7911 52.9319L53.3254 49.6447C55.8487 47.8038 57.2852 46.8271 57.6349 46.7144C59.3712 46.4264 61.6321 46.658 64.4177 47.4094C67.2032 48.1607 69.8888 49.269 72.4745 50.7341C74.7854 49.5445 77.927 48.9058 81.8992 48.8182Z" fill="#0D131A"/>
<path d="M81.6924 55.5616C83.2538 56.05 84.7965 56.9391 86.3205 58.2289L86.0769 60.8775L85.6647 64.5215C84.9277 63.6199 83.8847 62.7308 82.5356 61.8542C80.8868 60.7648 79.3191 60.1073 77.8326 59.8819L76.7084 59.8068C76.6335 59.8944 76.9145 60.1637 77.5516 60.6145C78.1387 61.0403 79.2941 62.0734 81.0179 63.7138L84.1657 66.7568L81.3177 69.1048C81.2552 69.1549 80.3809 68.5726 78.6945 67.3579C76.9957 66.1432 76.0401 65.586 75.8278 65.6861C75.6154 65.7988 76.3025 66.5314 77.8889 67.8838L80.2872 69.9501L76.5398 73.0119L70.1318 67.3015C69.3198 66.5878 68.8577 66.2497 68.7453 66.2872C68.6078 66.3123 68.8577 66.8194 69.4947 67.8087C70.3816 69.1862 71.8431 71.8535 73.8792 75.8107L71.1061 77.1631L69.7196 75.0781C68.7577 73.7131 68.1956 73.0682 68.0333 73.1433C67.8958 73.206 68.2581 73.9761 69.12 75.4538L70.3754 77.689L65.2977 81.3707C62.2123 77.4135 60.3824 75.1783 59.8078 74.6648L58.8709 73.8759C58.7085 73.8509 58.7835 74.2391 59.0958 75.0405C59.5454 76.2552 60.501 79.3671 61.9625 84.3761L57.5968 87.3815L56.0979 84.0756L54.168 79.9995C53.7183 79.1354 53.456 78.7034 53.381 78.7034C53.2936 78.7159 53.2811 79.1479 53.3435 79.9995C53.3935 80.7884 53.6433 82.1534 54.093 84.0944C54.5052 85.8726 54.8675 87.2438 55.1797 88.208L52.2193 90.3306L51.0014 86.7617C50.2769 84.708 49.7773 83.368 49.5025 82.7419C49.1028 81.8653 48.8592 81.402 48.7717 81.3519C48.6218 81.2768 48.5969 81.7965 48.6968 82.911L49.1652 91.8709L45.6989 93.2045C44.8245 88.3082 44.2561 85.3842 43.9938 84.4325C43.8065 83.7062 43.6191 83.3367 43.4317 83.3242C43.2443 83.3242 43.1632 83.7249 43.1881 84.5264L43.5067 94.5758L38.8037 95.5901C40.6524 88.2644 41.5143 84.4137 41.3894 84.038C41.3144 83.8126 40.0716 84.9584 37.6608 87.4755L33.4262 91.9648L31.7961 86.6114L34.4005 84.038L37.1736 81.1265C37.6857 80.5379 37.8981 80.181 37.8107 80.0558C37.7357 79.9431 37.3984 80.0558 36.7989 80.3939C36.3617 80.6444 35.1688 81.4897 33.2201 82.9298L29.8662 85.3717L30.3159 82.1596C35.2874 78.6909 38.1604 76.6121 38.9349 75.9234C39.497 75.4225 39.7406 75.1219 39.6656 75.0217C39.5907 74.9215 39.2159 74.9842 38.5414 75.2096C38.0043 75.3849 36.624 75.9296 34.4005 76.8438L30.1473 78.5719L32.2083 73.35C36.2055 69.8061 38.7225 67.6146 39.7593 66.7756L41.202 65.5359C41.2645 65.4106 40.6337 65.5922 39.3096 66.0806C38.1354 66.5189 37.1986 66.9259 36.4991 67.3015L34.6441 68.2971L38.354 63.1127L42.4761 62.0796L47.4227 60.7084C48.1097 60.458 48.4407 60.2451 48.4157 60.0697C48.4032 59.907 48.041 59.8506 47.329 59.9007L44.7246 59.8068L41.558 59.2433C42.982 57.991 44.2749 56.9454 45.4366 56.1064L50.8515 55.5992L55.1235 55.0732C55.7856 54.9856 56.1166 54.8541 56.1166 54.6788C56.1166 54.5035 55.7918 54.3657 55.1423 54.2655L52.1256 53.6269L50.0458 53.1197C50.6454 52.744 52.0944 51.6921 54.3928 49.964C56.4414 48.4112 57.5843 47.5972 57.8216 47.5221C60.5323 47.2216 63.8175 47.8039 67.6773 49.269C69.6009 50.0078 71.256 50.7717 72.6425 51.5606C74.766 50.4086 77.714 49.7699 81.4863 49.6447C85.2462 49.5195 88.1692 49.9515 90.2552 50.9408L89.131 54.4909L84.7466 54.2467C81.8611 54.1215 79.8188 54.1027 78.6196 54.1904C77.3205 54.2906 76.7709 54.4408 76.9707 54.6412C77.1331 54.804 77.6765 54.9292 78.6009 55.0169C79.9624 55.1546 80.9929 55.3362 81.6924 55.5616Z" fill="#00A63C"/>
<path d="M78.6204 54.1904C77.3213 54.2906 76.7717 54.4408 76.9715 54.6412C77.1339 54.804 77.6773 54.9292 78.6016 55.0169C79.9632 55.1546 80.9937 55.3362 81.6932 55.5616C83.2546 56.05 84.7973 56.9391 86.3212 58.2289L86.0777 60.8775L85.6655 64.5215C84.9285 63.6199 83.8854 62.7308 82.5364 61.8542C80.8875 60.7647 79.3199 60.1073 77.8334 59.8819L76.7092 59.8068C76.6343 59.8944 76.9153 60.1637 77.5524 60.6145C78.1395 61.0402 79.2949 62.0734 81.0187 63.7138L84.1665 66.7568L81.3185 69.1048C81.256 69.1549 80.3816 68.5726 78.6953 67.3579C76.9965 66.1432 76.0409 65.5859 75.8286 65.6861C75.6162 65.7988 76.3033 66.5314 77.8896 67.8838L80.288 69.9501L77.4774 72.2605C74.6544 67.6772 70.9133 64.534 66.254 62.831C61.1826 60.9902 56.3048 61.4535 51.6205 64.221C49.8842 59.8381 47.2923 57.5339 43.8447 57.3085L45.4374 56.1063L50.8523 55.5992L55.1243 55.0732C55.7864 54.9856 56.1174 54.8541 56.1174 54.6788C56.1174 54.5035 55.7926 54.3657 55.1431 54.2655L52.1264 53.6269L50.0466 53.1197C50.6462 52.744 52.0952 51.6921 54.3936 49.964C56.4422 48.4112 57.5851 47.5972 57.8224 47.5221C60.533 47.2216 63.8182 47.8039 67.678 49.269C69.6017 50.0078 71.2568 50.7717 72.6433 51.5606C74.7668 50.4086 77.7148 49.7699 81.4871 49.6447C85.247 49.5195 88.1699 49.9515 90.256 50.9408L89.1318 54.4909L84.7473 54.2467C81.8619 54.1215 79.8195 54.1027 78.6204 54.1904Z" fill="#009233"/>
<path d="M70.938 50.6215H70.9943L73.3364 50.9784L74.0296 50.7905C74.2795 50.7905 73.861 51.1036 72.7743 51.7297C68.9145 53.3076 65.1234 55.3926 61.401 57.9847C54.1935 62.9813 48.1915 69.5494 43.3948 77.6891L43.0013 78.4028C42.9514 78.4404 42.9077 78.1649 42.8702 77.5764C42.7702 75.986 43.3636 73.8571 44.6502 71.1898C46.0242 68.3347 47.8854 65.5484 50.2338 62.831C56.2421 55.881 63.1435 51.8111 70.938 50.6215Z" fill="#0D131A"/>
<path d="M71.8558 51.4855C67.7337 52.6501 63.3805 54.9417 58.7962 58.3604C52.4756 63.0689 47.4604 68.9044 43.7505 75.867C44.1877 73.9886 45.1183 71.8284 46.5423 69.3865C48.1162 66.6942 50.0149 64.1584 52.2383 61.7791C57.8843 55.7807 64.1237 52.2494 70.9564 51.185L71.7434 51.2601C72.1556 51.3102 72.1931 51.3853 71.8558 51.4855Z" fill="#00A63C"/>
<path d="M70.9563 51.185L71.7432 51.2601C72.1554 51.3102 72.1929 51.3853 71.8556 51.4855C69.6946 52.0991 67.2901 53.1322 64.6419 54.5848C61.2943 56.4382 58.1402 58.686 55.1798 61.3283C54.6801 60.9776 54.1243 60.6959 53.5122 60.483C55.973 58.0786 58.5837 56.1063 61.3442 54.5661C64.467 52.8129 67.6711 51.6859 70.9563 51.185Z" fill="#009233"/>
<path d="M139.533 42.1499C139.596 42.6508 138.771 43.6652 137.06 45.1929C135.361 46.7081 134.368 47.3218 134.081 47.0337L131.364 43.8029L132.057 45.9067C132.37 46.9586 132.47 47.6599 132.357 48.0105C132.22 48.4363 131.239 48.9873 129.416 49.6635C127.604 50.3397 126.636 50.5275 126.511 50.227C126.424 50.0016 126.068 49.4944 125.443 48.7055L123.794 46.6768L123.757 49.532C123.745 50.6465 123.682 51.2538 123.57 51.354C123.307 51.592 121.452 51.7047 118.005 51.6921C114.008 51.6796 110.697 51.3352 108.074 50.659C107.4 50.4962 107 50.3647 106.875 50.2646C106.575 50.0266 106.282 49.4381 105.994 48.4989C105.307 46.2949 104.046 43.9093 102.21 41.3422C100.486 38.9504 98.4934 36.7214 96.2325 34.6551C93.9841 32.5889 91.8418 31.0299 89.8058 29.978C87.6448 28.8634 85.9272 28.5066 84.6531 28.9073L84.0161 28.8134C79.6816 26.7096 73.9169 29.9967 66.7219 38.6749C63.1244 43.0077 59.9579 47.5534 57.2223 52.312H49.6339L49.0718 48.6304L48.1162 49.7574L47.4979 50.9032L46.9545 51.8988C46.6922 52.024 46.0052 51.8675 44.8935 51.4292L40.1718 49.7762L36.4431 48.5928C35.8186 48.405 35.4438 48.167 35.3189 47.879C35.169 47.5284 35.2565 46.9148 35.5812 46.0382L36.312 43.8405L37.024 41.4925C36.5368 41.9057 35.6624 42.9701 34.4008 44.6857C33.2391 46.2636 32.5209 47.1214 32.2461 47.2591C31.8339 47.447 30.4286 46.8334 28.0303 45.4183C25.6319 44.0158 24.3329 43.0641 24.133 42.5632C24.0206 42.2877 24.7388 41.361 26.2877 39.7831C27.999 38.03 30.0726 36.1892 32.5084 34.2607C39.2661 28.8885 45.7866 25.1317 52.0697 22.9904C58.8025 20.6862 64.7421 19.8409 69.8885 20.4545C74.7975 21.0306 79.5692 23.0091 84.2034 26.3902C88.8752 23.0968 94.465 21.5753 100.973 21.8257C107.194 22.0637 113.67 23.8732 120.403 27.2543C125.1 29.6336 129.615 32.6641 133.95 36.3457C137.572 39.4388 139.434 41.3735 139.533 42.1499Z" fill="#0D131A"/>
<path d="M134.025 45.8503L132.901 44.1974C132.189 43.2081 131.396 42.3064 130.521 41.4925C129.559 40.5783 129.041 40.2402 128.966 40.4781C128.916 40.6535 129.122 41.1731 129.584 42.0372C129.909 42.6508 130.209 43.4022 130.484 44.2913L131.364 47.3531C130.415 48.0042 128.954 48.5615 126.98 49.0248L124.863 45.9255C123.614 44.1473 122.939 43.3771 122.839 43.6151C122.727 43.853 122.645 44.9487 122.595 46.9022L122.502 50.3773L116.319 50.659C112.809 50.6215 110.042 50.2332 108.018 49.4944C107.369 47.1151 106.151 44.5793 104.364 41.8869C102.641 39.2697 100.611 36.8529 98.275 34.6364C95.8642 32.3572 93.4596 30.6041 91.0613 29.3769C88.4756 28.0495 86.1647 27.4859 84.1286 27.6863C79.1446 25.7328 73.2862 28.6881 66.5534 36.5523C62.8685 40.835 59.5334 45.7251 56.5479 51.2225H50.5709C50.2586 49.8576 50.065 48.7305 49.99 47.8414L49.9338 46.5266C49.8714 46.3888 49.5841 46.5641 49.0719 47.0525L47.498 48.6867C46.9984 49.2878 46.6611 49.8701 46.4862 50.4336C44.8374 50.1331 41.4585 49.0686 36.3496 47.2403C37.3489 43.9219 38.0796 41.5864 38.5418 40.234C38.8666 39.2822 38.9852 38.7876 38.8978 38.75L37.7923 39.4638C36.9929 40.0148 36.0498 40.835 34.9631 41.9245C33.639 43.2644 32.6147 44.5355 31.8902 45.7376C30.6286 45.412 29.3795 44.8798 28.1428 44.141C27.2435 43.6151 26.4815 43.0703 25.8569 42.5068C28.63 39.7017 31.7653 36.9593 35.2628 34.2795C41.4085 29.5835 47.2232 26.2963 52.7069 24.4179C59.5146 22.1012 65.2731 21.1182 69.9823 21.4688C74.7914 21.832 79.3882 23.6415 83.7726 26.8974L84.3535 27.1604C88.5755 24.6934 93.1848 23.3598 98.1813 23.1594C104.764 22.8839 111.734 24.5995 119.092 28.3062C123.464 30.5102 127.711 33.2589 131.833 36.5523C134.618 38.7813 136.823 40.7849 138.447 42.5632C138.097 43.1517 137.416 43.7904 136.405 44.4791L134.025 45.8503Z" fill="#E85382"/>
<path d="M103.409 23.3472C98.8748 24.5619 95.1275 26.7722 92.167 29.9779C89.1441 28.2123 86.4648 27.4484 84.1289 27.6863C82.4801 27.0477 80.7063 26.9537 78.8076 27.4046C77.5835 25.2882 76.0096 23.5351 74.0859 22.1451C77.3462 22.9465 80.5751 24.5306 83.7729 26.8974L84.3538 27.1604C90.0623 23.8294 96.4141 22.5583 103.409 23.3472Z" fill="#C94772"/>
<path d="M122.108 29.9216C125.818 32.0379 129.39 34.5174 132.825 37.36C135.199 39.3135 137.072 41.0479 138.446 42.5632C138.097 43.1642 137.41 43.8092 136.385 44.4979C132.651 39.5515 127.891 34.6927 122.108 29.9216Z" fill="#C94772"/>
<path d="M59.4895 46.2448C58.3653 48.0355 57.3847 49.6948 56.5478 51.2225H51.2827C55.0676 45.7877 59.7268 41.4173 65.2604 38.1114C63.3118 40.5282 61.3881 43.2394 59.4895 46.2448Z" fill="#C94772"/>
<path d="M99.7927 27.0852C98.2188 26.0208 97.4318 25.3133 97.4318 24.9626C97.3819 24.4993 97.4318 24.0485 97.5817 23.6102C97.7316 23.1343 97.9814 22.79 98.3312 22.5771L98.3687 22.5395H98.4249C102.559 22.4644 106.888 23.1469 111.41 24.587L111.634 24.6621L111.372 25.282C110.76 26.672 110.254 27.6738 109.854 28.2874C108.967 29.6273 107.987 30.4538 106.913 30.7669C106.088 31.0048 103.715 29.7776 99.7927 27.0852Z" fill="#0D131A"/>
<path d="M98.6875 23.0655C102.535 23.0154 106.594 23.654 110.867 24.9814L110.792 25.1505C110.279 26.3151 109.805 27.2105 109.368 27.8366C108.568 28.9887 107.681 29.7087 106.707 29.9967C106.495 30.0594 106.039 29.9466 105.339 29.6586C104.527 29.3205 103.547 28.8134 102.397 28.1371C101.186 27.4233 100.143 26.7409 99.2684 26.0897C98.4939 25.5011 98.0879 25.1254 98.0505 24.9627L98.0317 24.6809C98.0317 23.917 98.2503 23.3785 98.6875 23.0655Z" fill="#FCEEF4"/>
<path d="M98.6875 23.0655L104.046 23.4224L101.236 23.9859C100.137 24.2363 99.1122 24.6245 98.1629 25.1505L98.0505 24.9626L98.0317 24.6809C98.0317 23.917 98.2503 23.3785 98.6875 23.0655Z" fill="#D9CED4"/>
<path d="M108.599 36.4584C110.897 35.5067 112.559 35.1561 113.583 35.4065C114.745 35.682 115.663 37.0971 116.337 39.6517C116.949 41.9809 117.074 43.6401 116.712 44.6294C116.4 45.506 115.219 46.201 113.171 46.7144L110.173 47.2028C109.186 47.4157 107.412 46.4827 104.852 44.404L104.814 44.3664L102.884 40.5533C104.083 38.9003 105.988 37.5354 108.599 36.4584Z" fill="#0D131A"/>
<path d="M109.123 36.8904C111.222 36.0389 112.696 35.7133 113.545 35.9136C113.77 35.9763 114.132 36.4646 114.632 37.3788C115.082 38.2053 115.438 39.0693 115.7 39.971C116 40.9603 116.15 41.8619 116.15 42.6758C116.15 43.2769 116.068 43.8029 115.906 44.2537C115.469 45.4559 113.72 46.2072 110.66 46.5078L110.248 46.5641C109.473 46.7394 107.987 45.9505 105.788 44.1973L104.196 41.6239L103.671 40.666C104.833 39.1257 106.65 37.8672 109.123 36.8904Z" fill="#FCEEF4"/>
<path d="M124.207 33.5469C127.005 35.0246 128.547 35.9951 128.835 36.4584C128.91 36.5961 128.91 36.7339 128.835 36.8716C128.585 37.3225 127.411 37.9924 125.312 38.8815C123.301 39.7331 122.052 40.1588 121.565 40.1588C121.065 40.1588 120.153 39.4763 118.829 38.1114C117.53 36.7715 116.799 35.7947 116.637 35.1811C116.475 34.5049 116.625 33.7848 117.087 33.0209C117.287 32.6954 117.605 32.3698 118.042 32.0442C118.467 31.7311 118.823 31.5433 119.11 31.4807C119.66 31.3554 121.359 32.0442 124.207 33.5469Z" fill="#0D131A"/>
<path d="M127.954 36.6838C127.854 36.9718 126.892 37.5103 125.068 38.2992C123.27 39.0631 122.133 39.445 121.658 39.445C121.321 39.445 120.547 38.8377 119.335 37.623C118.111 36.3958 117.424 35.5004 117.274 34.9369C117.124 34.3984 117.255 33.8036 117.667 33.1524C118.03 32.5764 118.436 32.2383 118.885 32.1381C119.347 32.0379 120.915 32.6828 123.588 34.0728C126.199 35.4128 127.654 36.2831 127.954 36.6838Z" fill="#FCEEF4"/>
<path d="M65.5415 21.0932L65.8788 21.0744L65.7664 21.3749L64.9232 24.6058C64.461 26.3339 64.1175 27.2606 63.8927 27.3858C63.493 27.5736 62.0627 27.6112 59.6019 27.4985C57.0912 27.3733 55.6047 27.1604 55.1426 26.8598L54.8615 26.6344L54.6929 26.4278C54.6929 26.2149 55.2362 25.4573 56.323 24.1549L57.9531 22.2578L58.4965 21.9009L62.1502 21.3374L65.5415 21.0932Z" fill="#0D131A"/>
<path d="M65.1483 21.5252L64.5487 24.0047L64.1365 25.7328C63.9741 26.2838 63.8117 26.6031 63.6493 26.6908C63.2996 26.8661 61.9942 26.8849 59.7333 26.7471C57.4724 26.6094 56.1858 26.4341 55.8735 26.2212C55.936 25.8956 56.5606 25.0127 57.7472 23.5726L58.4405 22.7086C60.8263 22.1075 63.0623 21.713 65.1483 21.5252Z" fill="#FCEEF4"/>
<path d="M48.8282 32.3259C52.3383 30.5102 54.2932 29.6336 54.6929 29.6962C55.1176 29.7713 55.9358 31.3053 57.1474 34.2982C58.3466 37.2536 58.9399 39.1194 58.9274 39.8958C58.9149 40.785 57.0662 41.5739 53.3813 42.2626C49.7338 42.9388 47.754 43.0328 47.4417 42.5444L45.1371 39.539C43.7006 37.598 43.026 36.4459 43.1135 36.0827C43.2759 35.4441 45.1808 34.1918 48.8282 32.3259Z" fill="#0D131A"/>
<path d="M43.938 36.2705C44.0504 35.8448 45.7117 34.7866 48.922 33.0961C52.0698 31.4431 53.9185 30.5978 54.4681 30.5602C54.8054 30.7856 55.5049 32.1819 56.5666 34.7491C57.6409 37.3538 58.178 39.013 58.178 39.7268V39.7456L57.897 40.1025C57.5597 40.3529 57.0038 40.6034 56.2294 40.8538C54.7055 41.3547 52.9817 41.7054 51.058 41.9057C49.2468 42.1061 48.2537 42.0873 48.0788 41.8494L46.8422 40.3842C44.9061 38.2429 43.938 36.9029 43.938 36.3645V36.2705Z" fill="#FCEEF4"/>
<path d="M63.9677 30.3348C64.4673 29.6085 64.8233 29.189 65.0357 29.0763C65.8976 28.6506 67.3216 28.3813 69.3077 28.2686C71.9059 28.1309 73.5672 28.6693 74.2917 29.884L74.4041 30.0719L74.2355 30.1846C72.3743 31.3993 70.4694 33.0272 68.5207 35.0684L68.4458 35.1435L68.3334 35.1247L65.3729 34.7303L62.6561 34.3734C62.1689 34.2732 61.8941 34.1417 61.8316 33.9789C61.7817 33.8913 61.7879 33.7973 61.8504 33.6972L62.4312 32.7768L63.9677 30.3348Z" fill="#0D131A"/>
<path d="M65.5788 29.4332C66.2159 29.1076 67.4275 28.876 69.2138 28.7382C71.4872 28.5754 73.0049 28.9261 73.7669 29.7901C72.093 30.9422 70.3005 32.5075 68.3894 34.4861L65.7475 34.148L62.6934 33.6784L63.1993 32.8707C64.4983 30.7168 65.2915 29.571 65.5788 29.4332Z" fill="#FCEEF4"/>
<path d="M105.301 146.889C105.95 147.29 106.731 147.935 107.643 148.824C108.617 149.763 109.111 150.389 109.123 150.702C109.161 151.065 108.855 151.748 108.205 152.749C107.605 153.689 107.043 154.415 106.519 154.928C106.594 153.225 106.569 151.842 106.444 150.777C106.269 149.287 105.888 147.991 105.301 146.889Z" fill="#DBDCDC"/>
</svg>
