<svg width="164" height="179" viewBox="0 0 164 179" fill="none" xmlns="http://www.w3.org/2000/svg">
<path d="M12.9456 16.3849C12.5523 8.04258 13.47 3.18352 15.6986 1.8077C17.381 0.759454 19.2491 1.5784 21.3029 4.26453C23.8374 7.51845 25.8694 11.8752 27.3988 17.3348C29.256 23.9956 30.13 31.5735 30.0207 40.0687C30.1081 42.056 30.0207 44.076 29.7585 46.1288L28.677 52.5821L27.3005 60.2474C26.8854 62.8025 25.8694 64.1892 24.2525 64.4076C22.2424 64.6697 19.8062 63.1847 16.944 59.9526C14.475 57.1573 12.2464 53.7723 10.2581 49.7977C8.72868 46.7621 8.25892 44.3272 8.84885 42.4927C9.48248 40.5054 11.1867 40.4181 13.9616 42.2307C12.0607 39.1296 10.7825 34.893 10.127 29.5207C9.36231 23.3186 10.3127 19.5187 12.9783 18.121L12.9456 16.3849Z" fill="#0D131A"/>
<path d="M19.6972 5.14897C25.0721 9.40747 28.1747 21.0583 29.005 40.1014C29.0924 42.045 29.005 44.0323 28.7428 46.0633L27.6612 52.4183L26.2847 60.0836C25.957 62.1582 25.236 63.2611 24.1217 63.3921C22.5048 63.5887 20.3636 62.2347 17.698 59.3302C15.229 56.6222 13.3609 53.8378 12.0937 50.977C10.2147 46.6529 9.71213 44.076 10.5861 43.2461L12.8803 43.3772L15.8627 44.1634C16.6055 44.4036 17.0753 44.3271 17.2719 43.9341C17.4904 43.5191 17.0535 43.1151 15.961 42.722C14.803 42.3071 13.6996 39.621 12.6508 34.6636C11.6021 29.75 11.3071 25.9392 11.766 23.2312C12.1374 20.9163 12.8038 19.4204 13.7652 18.7434L13.9946 18.6124V18.3176C13.8198 9.88791 14.6937 5.19265 16.6165 4.23175C17.3593 3.83866 18.3863 4.1444 19.6972 5.14897Z" fill="#AFCEE5"/>
<path d="M16.7146 9.96439C16.9549 9.24372 17.3373 9.24372 17.8617 9.96439L18.8776 11.3402C19.7516 12.8471 20.6584 15.3039 21.5979 18.7107C22.7777 22.9692 23.7719 27.7518 24.5803 33.0586C25.3887 38.3435 25.7492 42.4054 25.6618 45.2444C25.5526 48.4328 24.8752 49.1863 23.6298 47.5047C21.4449 44.5565 20.276 40.1015 20.123 34.1396L19.9592 27.7191C19.8062 25.5134 19.4348 23.8536 18.8449 22.7399C17.4902 20.2503 16.7036 17.1056 16.4852 13.3057C16.3978 11.7551 16.4742 10.6414 16.7146 9.96439Z" fill="#93AEC1"/>
<path d="M18.5827 11.4712C17.818 9.92069 17.5558 9.09083 17.7962 8.98164C18.0365 8.89429 18.5609 9.50576 19.3693 10.8161C20.5055 12.6505 21.7072 16.2866 22.9744 21.7244C24.5039 28.3414 25.0173 33.9648 24.5148 38.5946L23.2038 40.1997C23.6845 35.7447 23.2475 30.0994 21.8929 23.264C20.7786 17.6297 19.6752 13.6987 18.5827 11.4712Z" fill="#0D131A"/>
<path d="M39.82 74.4315C42.6167 75.851 45.0529 79.9129 47.1286 86.6173C49.1387 93.1034 49.827 98.6612 49.1933 103.291C48.7345 106.654 47.4891 108.554 45.4571 108.991C41.6554 109.711 36.5317 108.172 30.0862 104.372C24.6239 101.118 19.3801 97.0234 14.3548 92.0879C7.58157 85.4053 4.17309 79.4434 4.12939 74.2022C4.12939 72.8919 4.38066 71.6252 4.88319 70.4023C5.38572 69.1793 6.0849 68.1202 6.98071 67.2248C9.44967 64.757 15.0977 64.9645 23.9248 67.8472C28.8627 69.4414 34.1611 71.6362 39.82 74.4315Z" fill="#0D131A"/>
<path d="M46.244 87.1087C48.1449 93.42 48.7894 98.7704 48.1777 103.16C47.8062 106.064 46.8339 107.67 45.2608 107.975C41.8086 108.63 37.1766 107.233 31.3647 103.782C26.2083 100.747 21.0847 96.7285 15.9938 91.7275C12.7383 88.5391 10.2475 85.4271 8.52138 82.3916C6.77344 79.356 5.88855 76.6044 5.8667 74.1366C5.8667 71.7999 6.66419 69.8126 8.25919 68.1747C10.2256 66.2093 14.7812 66.2639 21.9259 68.3385C27.3226 69.9109 33.1345 72.2476 39.3615 75.3487C41.9616 76.659 44.2557 80.579 46.244 87.1087Z" fill="#88A3D4"/>
<path d="M34.2486 92.5137C35.6032 91.3344 37.2638 89.4891 39.2302 86.9776C41.5244 84.0294 43.1084 82.1077 43.9824 81.2123C45.5337 84.4444 46.7136 88.1678 47.522 92.3827C48.3741 96.6848 48.5926 100.277 48.1775 103.16C47.806 106.064 46.8337 107.67 45.2606 107.975C42.158 108.587 38.0613 107.506 32.9704 104.732C28.4913 102.308 23.8375 98.9233 19.0088 94.5774C24.9299 96.8486 30.0099 96.1607 34.2486 92.5137Z" fill="#778DB8"/>
<path d="M6.03056 65.6852C8.43397 65.1829 10.1054 65.2702 11.045 65.9472C11.2634 66.1001 11.3071 66.4495 11.176 66.9955L10.6189 68.7316C10.4004 69.4305 10.0945 70.1074 9.70123 70.7626C9.2424 71.5488 8.86003 71.9419 8.55415 71.9419C8.05161 71.9419 6.80621 71.5597 4.81793 70.7954C2.58932 69.9437 1.32206 69.2121 1.01618 68.6006C0.841382 68.2293 0.983402 67.8472 1.44224 67.4541C2.3162 66.7334 3.84565 66.1438 6.03056 65.6852Z" fill="#0D131A"/>
<path d="M8.55372 71.4178C8.11674 71.4178 7.01335 71.0465 5.24357 70.304C3.34269 69.5178 2.27208 68.8736 2.03174 68.3713V68.3058L2.3267 67.8472C3.09142 67.192 4.34775 66.7116 6.09569 66.4058C7.99657 66.0564 9.36214 66.1765 10.1924 66.7662C10.3235 66.8317 10.3891 67.0282 10.3891 67.3558L10.3563 67.7817C10.247 68.4805 9.95207 69.2667 9.47139 70.1402L8.55372 71.4178Z" fill="white"/>
<path d="M0.426095 71.1229C1.08157 70.7517 2.27235 70.4896 3.99844 70.3368C5.52788 70.2057 6.74051 70.1948 7.63633 70.304C7.85482 70.3258 8.02961 70.4569 8.16071 70.6971C8.4666 71.3304 8.3792 72.4005 7.89852 73.9073C7.35229 75.5671 6.55479 76.7136 5.50603 77.3469C5.06905 77.6308 3.39758 76.124 0.491643 72.8263C0.163905 72.4114 0.0109609 72.0511 0.0328101 71.7453C0.0328101 71.4614 0.163905 71.254 0.426095 71.1229Z" fill="#0D131A"/>
<path d="M1.24551 71.9091C1.22366 71.5597 2.10855 71.254 3.90019 70.9919L7.57085 70.7953L7.70195 70.9264L7.76749 71.385C7.76749 71.9746 7.49438 72.9464 6.94815 74.3004C6.38007 75.6981 5.93216 76.3969 5.60442 76.3969C5.23299 76.3969 4.42457 75.7527 3.17917 74.4642C1.91191 73.1757 1.26736 72.324 1.24551 71.9091Z" fill="white"/>
<path d="M1.31104 72.1712C3.36486 73.3942 5.14557 74.3441 6.65316 75.0211C6.19433 75.9383 5.84474 76.3969 5.6044 76.3969C5.25481 76.3969 4.52287 75.8401 3.40856 74.7263C2.2724 73.6125 1.57323 72.7608 1.31104 72.1712Z" fill="#DBDCDC"/>
<path d="M3.14627 67.3231L7.89847 67.5524L11.6675 68.4368C12.0607 68.5242 12.3339 68.8081 12.4868 69.2885C12.8582 70.5333 12.3339 71.9528 10.9137 73.547C9.55901 75.0975 8.59765 75.6872 8.02957 75.3159C7.04635 74.7045 5.9102 73.4269 4.6211 71.4833C3.37569 69.5833 2.79669 68.3385 2.88408 67.7489C2.88408 67.5742 2.97148 67.4323 3.14627 67.3231Z" fill="#0D131A"/>
<path d="M4.1949 68.4368C3.99825 68.0874 5.21088 68.0983 7.83278 68.4696C10.4328 68.8408 11.7656 69.2121 11.8312 69.5833C11.9841 70.435 11.5908 71.4833 10.6513 72.7281C9.73366 73.9292 8.95802 74.5188 8.32439 74.497C7.84371 74.4751 7.05714 73.5361 5.96468 71.6798L4.1949 68.4368Z" fill="white"/>
<path d="M8.3244 74.497C7.88741 74.4752 7.19916 73.6999 6.25965 72.1712L4.42432 68.8627L10.3891 73.0229C9.55887 74.0056 8.87063 74.497 8.3244 74.497Z" fill="#DBDCDC"/>
<path d="M42.2128 125.894C43.9826 124.518 46.7465 124.616 50.5045 126.189C54.787 127.979 59.561 131.201 64.8267 135.852C69.852 140.264 72.463 143.31 72.6596 144.992V145.155L72.9874 146.105L73.2168 146.76C66.8805 151.215 63.6359 153.836 63.483 154.622C64.1821 158.269 64.3897 160.715 64.1057 161.96C63.9746 162.484 62.0409 163.598 58.3047 165.301L52.6348 167.693C51.6298 168.064 50.6903 167.616 49.8163 166.35L48.3415 163.532L44.5397 165.432C42.5514 166.415 41.2405 166.928 40.6069 166.972C39.864 167.059 39.2085 166.502 38.6404 165.301L37.69 162.713L34.6748 163.303L31.3647 163.794C30.9714 163.794 30.6873 163.642 30.5125 163.336C30.4033 163.161 30.3487 162.943 30.3487 162.681C30.3487 161.632 30.7638 160.268 31.5941 158.586C31.7033 158.346 32.0638 157.8 32.6756 156.948L33.626 155.474C32.0529 153.181 30.9495 151.314 30.3159 149.872C29.5075 148.06 29.0596 146.16 28.9722 144.173V144.042C29.2125 140.94 31.2445 137.195 35.0681 132.806C37.5371 129.967 39.9186 127.663 42.2128 125.894Z" fill="#0D131A"/>
<path d="M47.6862 126.287C49.8274 126.855 52.3838 128.078 55.3553 129.956C59.3974 132.511 63.2319 135.557 66.8589 139.095C70.0488 142.24 71.6438 144.249 71.6438 145.123V145.155C70.311 146.116 68.5631 147.568 66.4 149.512C63.5378 152.111 62.1067 153.792 62.1067 154.557L62.5983 157.931C62.8605 159.962 62.8823 161.075 62.6638 161.272C62.3798 161.534 61.0033 162.244 58.5343 163.401C56.0217 164.559 54.088 165.378 52.7334 165.858C51.9249 166.142 51.1384 165.804 50.3736 164.843L49.0299 162.648C48.8114 162.277 47.566 162.517 45.2937 163.369C43.6113 163.98 42.202 164.57 41.0659 165.137C40.2356 165.552 39.3726 164.504 38.4768 161.993C38.3675 161.665 37.3188 161.643 35.3305 161.927L31.922 162.058C31.6598 161.752 31.8455 160.988 32.4792 159.765L34.4128 156.358C35.1338 157.035 35.9095 157.581 36.7397 157.996C37.5919 158.389 37.8322 158.313 37.4608 157.767L36.4776 156.522L34.6422 154.196C32.3918 151.248 31.1901 147.896 31.0371 144.14V144.009C31.0371 142.109 32.7304 138.899 36.117 134.378C39.023 130.469 41.2625 127.903 42.8357 126.68C43.9063 125.85 45.5231 125.719 47.6862 126.287Z" fill="#88A3D4"/>
<path d="M43.8188 126.189C46.2441 125.359 50.0896 126.614 55.3552 129.956C59.3973 132.511 63.2319 135.557 66.8588 139.095C70.0488 142.24 71.6438 144.249 71.6438 145.123V145.155C70.311 146.116 68.5631 147.568 66.4 149.512C63.5377 152.111 62.1066 153.792 62.1066 154.557L62.5982 157.931C62.8604 159.962 62.8823 161.076 62.6638 161.272C62.336 161.578 60.7192 162.429 57.8133 163.827C54.7981 165.247 53.1048 165.924 52.7333 165.858C53.1266 164.635 53.3451 162.866 53.3888 160.551C53.4106 159.023 54.0333 157.472 55.2569 155.9C57.0922 153.519 56.1964 148.551 52.5694 140.995C50.1223 135.907 47.2055 130.971 43.8188 126.189Z" fill="#778DB8"/>
<path d="M108.973 48.8477C111.18 45.3535 114.107 42.3508 117.756 39.8393C121.361 37.3498 125.043 35.7555 128.801 35.0567C134.525 34.0085 140.02 34.6745 145.286 37.0549C151.076 39.6755 154.845 43.7266 156.593 49.208C158.341 54.6458 158.166 59.0899 156.069 62.5404C154.605 64.9426 152.518 66.5805 149.809 67.4541C152.54 70.7735 153.851 74.5952 153.742 78.9192C153.698 80.2951 153.316 82.3916 152.595 85.2087C157.03 87.3926 160.078 90.7011 161.739 95.1343C163.246 99.1307 163.508 103.651 162.525 108.696C161.607 113.457 159.739 117.955 156.921 122.192C154.059 126.494 150.727 129.748 146.925 131.954C139.365 136.322 132.45 138.287 126.179 137.85C123.207 137.632 119.526 136.529 115.134 134.542C113.889 133.996 112.938 131.823 112.283 128.023C111.824 125.337 111.311 120.15 110.743 112.463C110.153 104.71 109.628 98.8687 109.169 94.9377C108.339 87.9494 107.279 81.9766 105.99 77.0193C104.439 71.1011 104.079 65.4777 104.909 60.1491C105.564 55.8251 106.919 52.0579 108.973 48.8477Z" fill="#0D131A"/>
<path d="M129.129 36.6619C134.547 35.6573 139.758 36.3561 144.762 38.7583C150.202 41.3571 153.753 45.288 155.413 50.5511C156.768 54.8314 156.648 58.4676 155.053 61.4594C154.332 62.8352 153.337 64.0145 152.07 64.9972C151 65.8053 149.918 66.3731 148.826 66.7006L148.596 67.5523C151.087 70.304 152.311 74.1257 152.267 79.0175C152.245 81.4634 151.972 83.6582 151.447 85.6018L151.71 85.9294L152.791 86.4863C153.665 86.9886 154.517 87.6437 155.348 88.4517C157.926 90.9632 159.739 94.37 160.788 98.6721C161.924 103.367 161.116 108.936 158.363 115.379C155.457 122.236 151.36 127.357 146.073 130.742C139.714 134.804 133.345 136.715 126.965 136.474C123.251 136.322 119.438 135.372 115.527 133.625C114.5 133.166 113.681 130.862 113.069 126.713C112.698 124.201 112.25 119.43 111.726 112.398C111.179 104.754 110.666 98.8905 110.185 94.8067C109.355 87.7966 108.284 81.791 106.973 76.79C105.488 71.0902 105.236 65.6852 106.22 60.575C106.941 56.6659 108.35 53.0735 110.447 49.7977C112.611 46.4127 115.364 43.5519 118.706 41.2152C122.049 38.8566 125.523 37.3388 129.129 36.6619Z" fill="#AFCEE5"/>
<path d="M117.691 127.892C119.788 129.399 122.17 130.229 124.836 130.382C127.13 130.534 130.036 130.174 133.553 129.301C139.606 127.619 145.505 124.813 151.251 120.882C154.157 118.895 156.572 116.962 158.494 115.084C157.162 118.294 155.468 121.22 153.414 123.863C151.208 126.724 148.76 129.017 146.073 130.742C139.715 134.804 133.346 136.715 126.966 136.475C123.252 136.322 119.439 135.372 115.528 133.625C115.288 133.515 115.266 133.33 115.462 133.068L116.38 132.085C117.472 130.84 117.909 129.443 117.691 127.892Z" fill="#93AEC1"/>
<path d="M131.357 94.2826C131.641 95.4401 132.373 96.7395 133.553 98.1808C134.864 99.8187 136.219 100.867 137.617 101.326C140.064 102.068 141.954 101.773 143.287 100.441C144.511 99.2181 145.057 97.3509 144.926 94.8395C146.805 96.259 147.449 98.1262 146.859 100.441C146.313 102.647 144.958 104.219 142.795 105.158C138.6 106.971 135.181 105.955 132.537 102.112C131.51 100.649 130.877 99.098 130.636 97.4601C130.396 95.8223 130.603 94.643 131.259 93.9223L131.325 94.1516L131.357 94.2826Z" fill="#93AEC1"/>
<path d="M141.976 67.5196C144.336 68 146.542 68.0109 148.596 67.5523C150.169 69.2994 151.229 71.4505 151.775 74.0056C149.852 75.3377 147.657 76.0147 145.188 76.0366C142.653 76.0584 140.239 75.3814 137.945 74.0056C135.869 72.7608 134.35 70.3367 133.389 66.7334C132.603 63.7634 132.384 61.2738 132.734 59.2646C134.176 63.8289 137.256 66.5805 141.976 67.5196Z" fill="#93AEC1"/>
<path d="M132.045 59.5595C131.871 58.1618 131.991 56.8079 132.406 55.4976C132.843 54.1654 133.542 52.9861 134.503 51.9597C135.377 51.0425 136.448 50.4638 137.715 50.2236C138.633 50.0489 139.54 50.0379 140.436 50.1908C141.55 50.3874 142.533 50.8241 143.385 51.5011C144.084 52.0689 144.565 52.7022 144.827 53.4011C145.199 54.4493 145.373 55.1154 145.352 55.3993C145.286 55.7705 144.893 55.3228 144.172 54.0562C143.385 52.6804 142.107 51.8724 140.337 51.6322C138.611 51.3919 137.049 51.785 135.651 52.8114C134.973 53.3137 134.394 54.1763 133.914 55.3993C133.411 56.7096 133.236 57.9544 133.389 59.1337C133.542 60.4003 133.979 61.5905 134.7 62.7042C135.421 63.7962 136.339 64.6915 137.453 65.3904C139.136 66.4168 141.025 67.0501 143.123 67.2903C145.133 67.4869 147.023 67.3012 148.793 66.7334L150.694 66.6352C150.781 66.9627 150.268 67.3122 149.153 67.6834C146.466 68.557 143.997 68.8081 141.747 68.4368C140.042 68.1311 138.24 67.3886 136.339 66.2093C133.848 64.6588 132.417 62.4422 132.045 59.5595Z" fill="#0D131A"/>
<path d="M144.401 97.4601C144.554 96.6084 144.511 95.8331 144.27 95.1343L143.943 94.3809C143.768 94.0751 143.473 93.7585 143.058 93.4309C142.642 93.0815 142.446 92.8413 142.468 92.7102L142.959 92.6775C143.571 92.8522 144.106 93.1579 144.565 93.5947C145.046 94.0533 145.385 94.5774 145.581 95.1671C145.865 95.9969 145.898 96.8814 145.68 97.8204C145.439 98.8468 144.937 99.7531 144.172 100.539C143.342 101.391 142.326 101.97 141.124 102.275C139.747 102.625 138.262 102.592 136.667 102.177C135.552 101.893 134.504 101.249 133.52 100.244C132.45 99.1744 131.729 97.9405 131.357 96.5429C130.352 92.8959 131.783 89.4017 135.651 86.0604C137.573 84.3789 140.228 83.4726 143.615 83.3415C146.848 83.2323 149.733 83.822 152.267 85.1104C153.731 85.853 154.386 86.3771 154.233 86.6828C154.059 86.9885 153.261 86.7702 151.841 86.0277C150.18 85.1541 147.744 84.7283 144.532 84.7501C140.905 84.7719 138.24 85.5035 136.536 86.9449C133.673 89.3471 132.614 92.1533 133.357 95.3636C134.012 98.2463 135.399 99.9606 137.519 100.507C140.163 101.184 142.063 100.932 143.221 99.7531C143.833 99.1417 144.227 98.3773 144.401 97.4601Z" fill="#0D131A"/>
<path d="M140.534 67.6179L141.091 67.1265C142.315 68.1529 142.992 69.7035 143.123 71.7781C143.211 73.547 142.916 75.4033 142.238 77.3469L141.517 79.2796C141.452 79.3015 141.528 78.6245 141.747 77.2486C142.468 72.7718 142.064 69.5615 140.534 67.6179Z" fill="#0D131A"/>
<path d="M135.257 64.899L135.978 64.6369C136.765 67.0173 136.525 70.8718 135.257 76.2004C133.837 82.2496 131.631 86.9012 128.637 90.1551L126.015 92.8085C125.862 92.8522 126.54 91.8039 128.047 89.6638C130.888 85.6455 133.007 80.8301 134.405 75.2176C135.629 70.2603 135.913 66.8207 135.257 64.899Z" fill="#0D131A"/>
<path d="M120.444 127.368L120.28 126.614C125.808 125.37 130.767 121.985 135.159 116.46C136.645 114.581 137.934 112.627 139.026 110.596C139.879 108.98 140.348 107.888 140.436 107.32C140.589 106.403 140.785 105.857 141.026 105.682C141.266 105.529 141.321 106.13 141.189 107.484C140.971 110.061 139.289 113.282 136.142 117.148C131.947 122.345 126.714 125.752 120.444 127.368Z" fill="#0D131A"/>
<path d="M120.28 129.726C122.115 130.207 124.857 130.196 128.506 129.694C132.395 129.17 135.683 128.274 138.371 127.008C139.878 126.309 140.632 126.068 140.632 126.287C140.654 126.505 140.031 126.964 138.764 127.663C135.246 129.606 131.587 130.731 127.785 131.037C125.076 131.277 122.508 131.091 120.083 130.48L120.28 129.726Z" fill="#0D131A"/>
<path d="M107.76 73.2522C114.818 78.7555 119.657 86.5846 122.279 96.7394C123.699 102.265 124.3 107.746 124.082 113.184C123.885 118.534 122.924 123.229 121.198 127.27L120.935 127.925L120.411 127.466C116.893 124.518 113.824 121.515 111.202 118.458C109.607 116.645 108.427 113.97 107.662 110.432C107.181 108.27 106.744 104.885 106.351 100.277C106.002 96.4992 105.696 93.824 105.433 92.2516C104.953 89.5218 104.275 87.3817 103.401 85.8311C102.331 83.953 100.823 82.206 98.8787 80.5899C97.7425 79.629 95.8963 78.3405 93.3399 76.7245C90.2592 74.7809 88.0633 73.1976 86.7524 71.9746C84.5675 69.8781 83.1036 67.465 82.3607 64.7352L82.1641 64.0145L82.9179 64.08C92.9903 65.1283 101.271 68.1857 107.76 73.2522Z" fill="#0D131A"/>
<path d="M111.955 117.77C110.448 116.066 109.333 113.5 108.612 110.072C108.175 108.019 107.76 104.721 107.367 100.179L106.417 91.9896C105.914 89.1943 105.204 86.9777 104.286 85.3398C103.172 83.3525 101.61 81.518 99.5996 79.8365C98.3979 78.8319 96.486 77.5107 93.8641 75.8728C91.0238 74.0821 88.9809 72.6189 87.7355 71.4833C85.769 69.6488 84.3925 67.5633 83.606 65.2266C92.8045 66.3403 100.692 69.8454 107.269 75.7418C113.867 81.66 118.412 89.3144 120.903 98.7049C122.257 103.815 122.934 108.576 122.934 112.987C122.934 117.792 122.126 122.203 120.509 126.221C117.276 123.448 114.424 120.631 111.955 117.77Z" fill="#B94100"/>
<path d="M120.902 98.7049C122.257 103.815 122.934 108.576 122.934 112.987C122.934 117.792 122.126 122.203 120.509 126.221C118.63 124.583 116.959 123.033 115.495 121.57C117.745 118.753 119.329 115.106 120.247 110.629C121.055 106.741 121.274 102.767 120.902 98.7049Z" fill="#922F00"/>
<path d="M105.761 74.4315C100.015 72.4878 94.6507 72.0292 89.6691 73.0556C88.1834 71.9419 86.9817 70.8281 86.064 69.7144C84.9497 68.3604 84.1303 66.8644 83.606 65.2266C92.0397 66.2311 99.4248 69.2994 105.761 74.4315Z" fill="#922F00"/>
<path d="M107.334 110.825C108.252 114.101 109.497 116.623 111.07 118.392L115.265 122.618L119.854 126.614L121.066 127.597L120.902 127.958C118.499 133.592 115.244 137.981 111.136 141.126C106.679 144.555 100.419 147.208 92.3565 149.086C87.2438 151.095 81.7269 151.794 75.8058 151.183C69.3603 150.484 63.8761 148.322 59.3533 144.697C53.4759 142.404 48.3851 138.647 44.0808 133.428C39.9731 128.449 36.9689 122.618 35.068 115.935C32.8831 108.816 32.4133 102.144 33.6587 95.9205C34.7075 90.6356 37.0453 85.5691 40.6723 80.721C43.5564 76.8774 47.2489 73.5798 51.7498 70.8281C56.2508 68.0547 61.3962 65.9254 67.1863 64.4404C69.5678 63.8289 71.9494 63.4795 74.331 63.3922L81.4429 63.7197L81.7706 63.7525L81.8689 64.1128C82.5681 66.6898 83.9118 69.1029 85.9001 71.3523C87.08 72.7063 89.1229 74.5844 92.0288 76.9866L97.2726 81.6382C99.1516 83.4944 100.637 85.4053 101.73 87.3708C102.669 89.0523 103.456 91.2362 104.09 93.9223C104.483 95.6039 104.942 98.1153 105.466 101.457C106.143 105.737 106.766 108.86 107.334 110.825Z" fill="#0D131A"/>
<path d="M119.821 127.892C117.548 133.068 113.867 137.381 108.776 140.831C103.707 144.304 97.1304 146.979 89.0462 148.857C84.1083 150.014 78.9082 150.036 73.4459 148.922C68.0054 147.83 62.7726 145.712 57.7472 142.567C52.1976 139.095 47.5328 134.782 43.7528 129.628C39.9729 124.474 37.4166 118.938 36.0838 113.02C33.44 101.336 34.8821 91.2798 40.4099 82.8502C45.9596 74.4424 54.9615 68.6334 67.4155 65.4231C69.6878 64.8335 71.9711 64.5059 74.2652 64.4404L81.0166 64.7024C81.8032 67.3449 83.1906 69.8017 85.1789 72.0729C86.4243 73.4924 88.5 75.3924 91.4059 77.7727L96.5186 82.2933C98.3321 84.1277 99.7742 85.984 100.845 87.8621C101.741 89.4782 102.494 91.5746 103.106 94.1516L104.483 101.62C105.16 105.966 105.794 109.166 106.384 111.218C107.345 114.603 108.645 117.224 110.284 119.08C111.42 120.39 112.862 121.832 114.61 123.404L119.198 127.368L119.821 127.892Z" fill="#FFF8B0"/>
<path d="M119.198 127.368L119.821 127.892C117.548 133.068 113.867 137.381 108.776 140.831C103.707 144.304 97.1304 146.979 89.0462 148.857C85.6814 149.621 82.0981 149.872 78.2964 149.61C82.2292 149.61 86.3369 147.525 90.6193 143.354C94.3555 139.728 97.4472 135.372 99.8943 130.283C100.834 128.405 101.118 126.167 100.746 123.568C100.288 120.445 98.8674 118.097 96.4858 116.525C94.8908 114.298 93.6782 111.186 92.8479 107.189L91.2748 97.5256C90.663 94.228 89.7672 92.066 88.5873 91.0396C87.0797 89.7293 84.7637 89.7948 81.6393 91.2362C75.1938 94.2499 68.8138 96.0843 62.4994 96.7394C52.121 97.8532 43.6326 95.4619 37.0342 89.5655C39.1972 83.7346 42.8461 78.7664 47.9806 74.6608C53.1589 70.5115 59.6372 67.4322 67.4155 65.4231C69.6878 64.8335 71.971 64.5059 74.2652 64.4404L81.0166 64.7024C81.8032 67.3449 83.1906 69.8017 85.1789 72.0729C86.4243 73.4924 88.4999 75.3924 91.4059 77.7727L96.5186 82.2933C98.3321 84.1277 99.7741 85.984 100.845 87.8621C101.741 89.4782 102.494 91.5746 103.106 94.1516L104.483 101.62C105.16 105.966 105.794 109.166 106.383 111.218C107.345 114.603 108.645 117.224 110.284 119.08C111.42 120.39 112.862 121.832 114.61 123.404L119.198 127.368Z" fill="#DDD698"/>
<path d="M47.7514 96.936L42.4748 93.1361L41.5571 91.793L42.016 91.1706L43.6874 92.5137C48.2758 96.1826 51.138 98.2572 52.2742 98.7377C54.3935 97.6021 57.6381 95.2763 62.008 91.7603C66.203 88.3753 69.3711 85.5581 71.5124 83.3088L72.0695 83.8329C68.4426 87.6328 65.9081 90.1661 64.466 91.4327C60.839 94.6211 56.8406 97.3182 52.4708 99.5238L52.3397 99.5894L52.1758 99.5238C51.3893 99.2399 49.9144 98.3773 47.7514 96.936Z" fill="#0D131A"/>
<path d="M51.8154 106.731C51.6406 104.852 51.5969 103.029 51.6843 101.26L51.8482 99.1307L52.602 99.229C52.4709 99.7968 52.5146 101.315 52.7331 103.782C53.0171 107.189 53.5961 110.607 54.4701 114.035C55.2567 117.137 56.3273 120.281 57.6819 123.47C60.6534 130.371 64.5316 136.092 69.3166 140.635L68.4973 140.962C65.6132 138.626 63.1224 135.929 61.0249 132.871C58.8181 129.661 57.3433 126.494 56.6004 123.371C53.9129 118.305 52.318 112.758 51.8154 106.731Z" fill="#0D131A"/>
<path d="M83.1144 143.223L90.554 143.91L90.4885 144.664C88.5876 144.795 86.2716 144.751 83.5404 144.533C78.1 144.074 73.2385 142.982 68.9561 141.257C66.4871 143.004 64.2913 144.096 62.3686 144.533L60.1399 144.664L57.6491 143.321C56.2726 142.535 56.2508 142.415 57.5836 142.961C59.1567 143.594 60.7189 143.725 62.2702 143.354C63.7123 143.026 65.8644 142.076 68.7267 140.504L68.8578 140.438L69.0216 140.471C72.7797 141.607 77.4773 142.524 83.1144 143.223Z" fill="#0D131A"/>
<path d="M36.9688 118.556L37.2637 117.868L38.0503 118.261C45.6538 122.149 52.4052 123.71 58.3045 122.946L58.4028 123.732C53.3775 124.496 48.7236 124.147 44.4412 122.684C41.5789 121.701 39.3285 120.445 37.6898 118.916L36.9688 118.556Z" fill="#0D131A"/>
<path d="M112.414 80.5571L113.069 81.0812C113.55 83.3743 113.222 86.5955 112.086 90.7448C110.71 95.7239 108.667 98.7049 105.957 99.6876L105.466 99.098C108.241 96.7831 110.262 93.4091 111.529 88.9758C112.534 85.438 112.829 82.6318 112.414 80.5571Z" fill="#0D131A"/>
<path d="M113.299 118.392C115.964 117.213 118.226 114.472 120.083 110.17C121.438 107.069 122.181 104.569 122.312 102.669L122.672 103.651C122.475 105.988 121.765 108.62 120.542 111.546C118.728 115.979 116.412 118.491 113.594 119.08L113.299 118.392Z" fill="#0D131A"/>
<path d="M107.17 85.8967C107.52 86.9231 107.847 88.6483 108.153 91.0724L108.973 97.5256C109.584 101.762 110.24 105.246 110.939 107.975C111.835 111.601 112.905 114.363 114.151 116.263L114.839 117.344L117.166 121.013C118.368 122.52 119.974 123.896 121.984 125.14C122.792 125.643 123.098 126.604 122.902 128.023C122.727 129.18 122.333 130.229 121.722 131.168C121.35 131.757 120.728 132.107 119.854 132.216C118.717 132.347 117.439 131.965 116.019 131.07L111.66 128.318C109.89 127.029 108.426 125.588 107.268 123.994C104.078 119.582 102.462 112.987 102.418 104.208C102.396 97.1325 101.216 91.9241 98.8783 88.5828C97.5674 86.7265 95.0219 84.7829 91.242 82.7519L89.0462 82.3261C85.5066 80.3825 83.136 77.8164 81.9343 74.628C81.541 73.6235 81.1586 71.5051 80.7872 68.273L80.6889 67.4541C80.5578 66.5587 80.6452 65.5978 80.9511 64.5714C81.2788 63.4358 81.7923 62.5623 82.4914 61.9508C83.9116 60.7497 85.0041 60.2692 85.7688 60.5095C87.1453 60.9462 88.1722 61.7543 88.8495 62.9335C89.1554 63.4577 89.5924 64.6151 90.1605 66.4058L91.0126 69.354C91.4278 70.5551 91.9631 71.4942 92.6185 72.1712L95.732 74.6608L102.254 79.5089C104.832 81.6709 106.471 83.8002 107.17 85.8967Z" fill="#0D131A"/>
<path d="M107.957 97.6566C108.678 102.636 109.301 106.283 109.825 108.598C110.699 112.529 111.759 115.444 113.004 117.344L113.692 118.425C114.632 119.976 115.484 121.177 116.249 122.028C117.516 123.47 119.187 124.9 121.263 126.32C121.438 126.472 121.493 126.898 121.427 127.597C121.34 128.405 121.077 129.126 120.64 129.759C119.701 131.179 118.335 131.332 116.544 130.218C113.026 128.012 110.284 125.293 108.318 122.061C105.543 117.497 103.915 111.524 103.434 104.143C102.975 96.7394 101.61 91.3453 99.3375 87.9604C97.9391 85.8857 95.4046 83.8547 91.734 81.8674L90.6524 81.2778C87.2658 79.3997 84.8515 77.0302 83.4094 74.1694C82.6229 72.5752 82.0876 70.577 81.8035 68.1747L81.7052 67.2903C81.5741 66.5696 81.6396 65.7616 81.9018 64.8662C82.1859 63.9053 82.601 63.1846 83.1472 62.7042C83.7372 62.2238 84.3927 62.0927 85.1137 62.3111C86.2935 62.7042 87.1784 63.3594 87.7683 64.2766C88.1398 64.8444 88.5549 65.8599 89.0138 67.323C89.3633 68.5241 89.6911 69.4523 89.997 70.1074C90.4995 71.1775 91.1331 72.0947 91.8978 72.8591C92.2693 73.2522 93.3399 74.1257 95.1097 75.4797C97.9064 77.5543 99.982 79.2468 101.337 80.5571C103.74 82.8502 105.28 85.0122 105.958 87.0432C106.329 88.1351 106.69 89.6856 107.039 91.6947L107.957 97.6566Z" fill="#EEEEEF"/>
<path d="M81.9018 64.8662C82.1859 63.9053 82.601 63.1846 83.1472 62.7042C83.7372 62.2238 84.3926 62.0927 85.1137 62.3111C86.2935 62.7042 87.1784 63.3594 87.7683 64.2766C88.1398 64.8444 88.5549 65.8599 89.0137 67.323C89.3633 68.5241 89.6911 69.4523 89.997 70.1074C90.4995 71.1775 91.1331 72.0947 91.8978 72.8591L92.0945 73.0884C89.4726 73.9619 87.7683 75.84 86.9818 78.7227C85.059 77.0411 83.6716 75.0866 82.8195 72.8591C82.3607 71.6361 82.022 70.0747 81.8035 68.1747L81.7052 67.2903C81.5741 66.5696 81.6396 65.7616 81.9018 64.8662Z" fill="#C8C9CA"/>
<path d="M121.263 126.32C121.438 126.472 121.492 126.898 121.427 127.597C121.339 128.405 121.077 129.126 120.64 129.759C119.701 131.179 118.335 131.332 116.543 130.218C114.795 129.104 113.266 127.914 111.955 126.647C113.157 126.844 113.976 126.145 114.413 124.551C114.872 122.913 114.708 121.002 113.922 118.818C114.752 120.194 115.593 121.34 116.445 122.258C117.669 123.59 119.275 124.944 121.263 126.32Z" fill="#C8C9CA"/>
<path d="M63.1876 114.298L63.5481 114.068L63.8759 119.441L63.7448 119.539L57.8127 122.061C57.3539 121.166 57.7253 119.899 58.927 118.261C60.0632 116.711 61.4834 115.389 63.1876 114.298Z" fill="#0D131A"/>
<path d="M58.698 121.111L58.5997 121.078L58.5342 120.849C58.5342 120.281 58.9493 119.419 59.7796 118.261C60.7191 116.973 61.8225 115.881 63.0897 114.985L63.3519 119.178L60.73 120.554C59.6813 121.013 59.0039 121.199 58.698 121.111Z" fill="white"/>
<path d="M65.0886 122.913L65.1869 122.88L65.2853 122.913C69.7862 124.9 72.0148 126.429 71.9711 127.499C71.9711 127.892 71.698 128.176 71.1518 128.351C69.5568 128.918 67.503 128.842 64.9903 128.121C62.4558 127.422 60.7406 126.429 59.8448 125.14C59.5608 124.747 59.528 124.343 59.7465 123.928C59.8994 123.644 60.3146 123.448 60.9919 123.339L63.0239 123.175L65.0886 122.913Z" fill="#0D131A"/>
<path d="M60.7626 124.846L60.5332 124.289L60.566 124.19C60.6971 123.95 61.5273 123.775 63.0568 123.666L65.1215 123.404C66.6728 124.059 68.0712 124.769 69.3166 125.533C70.7586 126.407 71.4797 127.051 71.4797 127.466V127.499L70.988 127.892L65.4165 127.663C63.1442 126.986 61.5929 126.047 60.7626 124.846Z" fill="white"/>
<path d="M68.8249 125.271C70.5947 126.276 71.4795 127.008 71.4795 127.466V127.499L70.9879 127.892L66.9895 128.023C65.4164 127.739 64.0071 127.248 62.7617 126.549L66.5962 126.123L68.8249 125.271Z" fill="#DBDCDC"/>
<path d="M62.86 117.672C63.4499 117.169 64.2474 117.213 65.2525 117.803C66.0391 118.261 66.6945 118.905 67.2189 119.735C67.787 120.609 68.0055 121.406 67.8744 122.127L67.4483 123.404C67.0988 123.928 66.5634 124.256 65.8424 124.387L59.8448 125.108C58.1624 125.129 57.0918 124.933 56.633 124.518C56.3708 124.256 56.2725 123.95 56.338 123.601C56.4036 122.989 57.0481 122.17 58.2717 121.144L61.5818 118.654L62.86 117.672Z" fill="#0D131A"/>
<path d="M57.4854 123.371C57.5727 122.563 59.0366 121.122 61.877 119.047L63.188 118.065C63.625 117.715 64.2258 117.77 64.9905 118.229C65.6897 118.643 66.2796 119.211 66.7603 119.932C67.2847 120.718 67.4923 121.417 67.383 122.028C67.2519 122.793 66.6183 123.273 65.4822 123.47C60.872 124.278 58.261 124.409 57.6492 123.863L57.4854 123.47V123.371Z" fill="white"/>
<path d="M57.6489 123.83C61.6473 123.459 64.8919 122.662 67.3827 121.439V122.028C67.2516 122.793 66.618 123.273 65.4819 123.47C60.8717 124.278 58.2607 124.409 57.6489 123.863V123.83Z" fill="#DBDCDC"/>
<path d="M81.6397 88.157C84.4801 83.3743 88.6314 80.852 94.0937 80.5899C96.6938 80.4371 99.1409 81.6819 101.435 84.3243C103.991 87.2725 105.674 91.2908 106.482 96.3791C107.378 101.992 106.002 107.582 102.353 113.151C98.8787 118.458 93.9954 122.804 87.7028 126.189C82.9834 128.722 78.1657 129.792 73.2496 129.399C68.7924 129.049 65.4167 127.674 63.1225 125.271C61.0031 123.088 59.9871 120.991 60.0745 118.982C60.1619 117.846 60.7082 116.656 61.7132 115.411C62.5435 114.385 63.8326 113.151 65.5805 111.71C66.7167 110.793 69.0655 107.691 72.6269 102.407C75.9698 97.4492 78.9741 92.6994 81.6397 88.157Z" fill="#0D131A"/>
<path d="M104.844 96.7395C105.674 101.959 104.155 107.342 100.288 112.889C96.814 117.846 92.3349 121.843 86.8508 124.878C82.3498 127.368 77.9254 128.536 73.5774 128.383C69.6008 128.231 66.5529 127.051 64.4335 124.846C62.5326 122.836 61.6259 120.936 61.7133 119.146C61.8444 117.071 63.352 114.854 66.2361 112.496C67.5252 111.448 69.9723 108.412 73.5774 103.389C77.0296 98.563 79.9901 94.1079 82.4591 90.0241C85.8894 84.3243 90.0626 81.791 94.9787 82.4243C97.1636 82.6864 99.0754 83.8548 100.714 85.9294C102.702 88.419 104.079 92.0223 104.844 96.7395Z" fill="#88A3D4"/>
<path d="M102.778 89.369C103.696 91.4873 104.384 93.9441 104.843 96.7394C105.673 101.959 104.155 107.342 100.288 112.889C96.8136 117.846 92.3345 121.843 86.8504 124.878C83.0268 126.997 79.2141 128.154 75.4123 128.351C71.9602 128.547 69.0215 127.936 66.5962 126.516C77.1057 125.468 85.889 121.712 92.9463 115.248C100.703 108.106 103.98 99.4802 102.778 89.369Z" fill="#778DB8"/>
<path d="M80.525 36.1705C81.6175 37.6118 82.7973 39.8175 84.0646 42.7875C86.1402 47.6138 87.3747 52.4729 87.768 57.3647C88.3142 64.0691 86.7411 70.3695 83.0486 76.2659C79.3561 82.1623 73.9812 87.0104 66.9239 90.8103C61.3086 93.824 54.5682 94.9268 46.7024 94.1188C39.5141 93.3981 32.6862 91.2798 26.2188 87.7638C22.7011 85.8639 20.5271 83.822 19.6968 81.6381C18.8884 79.5198 18.8338 75.9055 19.533 70.7953C19.6422 70.031 19.5439 69.0919 19.238 67.9782L18.3203 65.2593C17.5775 62.9226 17.1514 61.0336 17.0422 59.5922C16.78 56.7969 17.0968 53.4229 17.9926 49.4701C19.5002 42.7657 23.2692 37.0549 29.2996 32.3378C35.2862 27.6644 42.1687 25.0219 49.9471 24.4105C56.8077 23.8863 63.3734 25.1093 69.6441 28.0793C74.582 30.416 78.209 33.1131 80.525 36.1705Z" fill="#0D131A"/>
<path d="M85.8348 57.463C86.3592 63.9709 84.8843 70.031 81.4103 75.6435C77.9145 81.2342 72.7253 85.8748 65.8428 89.5655C60.009 92.7103 53.0392 93.7367 44.9331 92.6447C38.7279 91.8149 33.0253 90.046 27.8252 87.338C24.3512 85.5472 22.0898 83.4617 21.041 81.0813C20.0578 78.8756 19.8612 75.6763 20.4511 71.4833L20.5494 70.9264C20.6587 70.0092 20.6368 69.092 20.4839 68.1748L19.7956 65.6524C19.1183 63.5778 18.7141 61.7215 18.583 60.0836C18.3863 57.3538 18.725 54.0453 19.599 50.158C21.0629 43.6502 24.6352 38.1469 30.316 33.6482C35.9968 29.1713 42.5952 26.649 50.1114 26.0812C56.7535 25.5789 62.8713 26.6708 68.4647 29.3569C72.7253 31.4097 75.9699 33.9321 78.1985 36.9239C79.4876 38.6492 80.733 40.7784 81.9347 43.3117C84.1633 48.007 85.4633 52.7241 85.8348 57.463Z" fill="#88A3D4"/>
<path d="M62.9585 27.2604C66.4981 28.265 69.7208 29.7609 72.6268 31.7482C74.9865 33.3861 76.8437 35.1114 78.1983 36.924C79.4874 38.6492 80.7328 40.7784 81.9345 43.3117C84.1631 48.007 85.4632 52.7241 85.8346 57.463C86.3371 63.7525 84.9715 69.6161 81.7379 75.0539C78.4823 80.5135 73.6427 85.0996 67.2191 88.8121C68.8141 87.5237 70.2452 86.1369 71.5125 84.6519C78.1546 76.397 80.4597 66.5151 78.4277 55.0062C76.4831 44.0433 71.3267 34.7947 62.9585 27.2604Z" fill="#778DB8"/>
<path d="M23.7937 57.2992C27.53 61.8853 30.1191 64.8444 31.5611 66.1765C32.0637 68.011 32.3149 70.0419 32.3149 72.2695C32.3149 72.9683 32.162 74.0165 31.8561 75.4142C31.7687 75.7636 31.5284 76.1676 31.1351 76.6262L30.3157 77.2814C28.9829 77.1503 27.6829 76.5061 26.4156 75.3487C25.2795 74.3004 24.5257 73.2303 24.1543 72.1384C23.6954 70.7408 23.3131 69.0701 23.0072 67.1265C22.7013 65.2047 22.5483 63.545 22.5483 62.1473C22.5483 61.383 22.7231 60.4548 23.0727 59.3629L23.7937 57.2992Z" fill="white"/>
<path d="M54.3716 64.1783C60.0961 59.2865 63.4827 56.6549 64.5315 56.2837C65.0777 56.6113 65.5475 57.3429 65.9407 58.4785C66.334 59.7014 66.5307 61.0554 66.5307 62.5404C66.5307 65.8162 66.334 68.3167 65.9407 70.0419C65.4819 72.0947 64.6189 73.8418 63.3516 75.2831C62.5869 76.4187 61.1776 76.8773 59.1238 76.659C57.0918 76.4406 55.5733 75.709 54.5682 74.4642C53.9565 73.8527 53.4867 72.5861 53.159 70.6643C52.8749 69.0919 52.7329 67.5196 52.7329 65.9472L53.2901 65.2265L54.3716 64.1783Z" fill="white"/>
<path d="M34.2814 65.9472L33.462 63.818C33.3528 63.5123 33.4402 63.3266 33.7242 63.2611C34.0083 63.1956 34.194 63.3157 34.2814 63.6214L34.773 65.4886C34.8604 65.7944 34.8276 66.0128 34.6747 66.1438C34.5436 66.2967 34.4125 66.2311 34.2814 65.9472Z" fill="#0D131A"/>
<path d="M47.7515 63.818C47.7515 63.3812 47.8607 63.141 48.0792 63.0973C48.2977 63.0755 48.4288 63.2611 48.4725 63.6542C48.5162 64.1783 48.7019 65.0082 49.0296 66.1438V66.6679C48.9641 66.7552 48.8221 66.6679 48.6036 66.4058C48.0792 65.8599 47.7952 64.9972 47.7515 63.818Z" fill="#0D131A"/>
<path d="M26.7761 82.6864L28.8081 83.3743C30.1846 83.8548 31.1023 84.2697 31.5611 84.6191L31.725 84.7501L32.0855 84.9795L31.0695 86.4536C30.5233 87.0869 30.1081 87.3708 29.8241 87.3053C29.6056 87.2834 29.1468 86.9122 28.4476 86.1915C27.5955 85.2961 26.8089 84.2697 26.0879 83.1123L26.1534 82.4899L26.7761 82.6864Z" fill="#0D131A"/>
<path d="M27.3008 83.3743C29.1143 83.964 30.3706 84.4772 31.0698 84.9139C30.4143 86.0277 29.9773 86.6173 29.7588 86.6828L28.7756 85.5036L27.3008 83.3743Z" fill="white"/>
<path d="M63.0242 83.7019L65.4167 83.2433L65.515 83.3743L65.81 83.5381C65.9411 83.5818 65.9957 83.6582 65.9739 83.7674C65.7772 84.5099 65.3402 85.438 64.6629 86.5518C63.8763 87.8621 63.2318 88.5173 62.7293 88.5173C62.183 88.5173 61.2763 87.9495 60.009 86.8139C58.7636 85.7001 58.2065 84.9794 58.3376 84.6519L59.1569 84.357H59.3208L63.0242 83.7019Z" fill="#0D131A"/>
<path d="M63.1225 84.226L65.1217 83.8329C65.078 84.2042 64.7065 84.9249 64.0074 85.995C63.33 87.0214 62.8493 87.611 62.5653 87.7639C62.3468 87.742 61.8443 87.3489 61.0577 86.5846C60.293 85.7984 59.8232 85.2197 59.6484 84.8484L63.1225 84.226Z" fill="white"/>
<path d="M34.2157 82.5226C34.172 82.3042 34.2376 82.1295 34.4124 81.9985C34.5872 81.8675 34.7292 81.9221 34.8384 82.1623L35.2645 82.8502L35.6578 83.5054C35.7889 83.7674 35.778 83.9203 35.625 83.964L35.1006 83.8329L34.5107 83.2433L34.2157 82.5226Z" fill="#0D131A"/>
<path d="M41.0983 84.1605C41.295 83.418 41.7319 82.8611 42.4093 82.4899C42.8681 82.2496 43.1084 82.2496 43.1303 82.4899C43.1521 82.7082 43.0429 82.9376 42.8026 83.1778L42.2782 83.8002L41.7538 84.3898C41.5135 84.5864 41.3277 84.6519 41.1966 84.5864C41.0874 84.5208 41.0546 84.3789 41.0983 84.1605Z" fill="#0D131A"/>
<path d="M64.5316 56.2837C64.9467 56.109 65.3509 55.9234 65.7442 55.7268C66.9896 58.0198 67.6123 61.0117 67.6123 64.7024C67.6123 67.6506 66.9459 70.3476 65.6131 72.7936C64.3459 75.1521 63.024 76.3314 61.6475 76.3314C60.271 76.3314 59.0693 75.3487 58.0424 73.3832C56.9936 71.4177 56.4692 69.1465 56.4692 66.5696C56.4692 64.3857 56.7533 62.6824 57.3214 61.4594L58.1735 61.0008L60.9592 58.675C62.2046 57.6923 63.3954 56.8952 64.5316 56.2837Z" fill="#0D131A"/>
<path d="M64.5316 56.2837C64.9686 56.8515 65.3509 57.9434 65.6787 59.5595C65.9846 61.1755 66.1375 62.8898 66.1375 64.7024C66.1375 67.0828 65.6896 69.4741 64.7938 71.8764C63.8543 74.3441 62.882 75.578 61.8769 75.578C60.7845 75.578 59.8012 74.6498 58.9273 72.7936C58.0096 70.8718 57.5508 68.6115 57.5508 66.0127C57.5508 64.8553 57.7911 63.2938 58.2718 61.3284L61.0576 58.8388C62.3467 57.7032 63.5047 56.8515 64.5316 56.2837Z" fill="#BA5400"/>
<path d="M26.8745 61.1646L27.3661 61.1974L28.5132 62.4094L31.8233 66.111L32.1511 66.3403L32.5116 67.4213C32.7301 68.4696 32.8393 69.8782 32.8393 71.6471C32.8393 73.1539 32.6208 74.4533 32.1839 75.5452C31.725 76.6372 31.1679 77.2268 30.5124 77.3142C28.8082 77.5325 27.4863 75.4797 26.5468 71.1557C25.6072 66.8535 25.7165 63.5232 26.8745 61.1646Z" fill="#0D131A"/>
<path d="M28.1526 62.7697C29.5291 64.1892 30.5997 65.3903 31.3644 66.373L31.7905 68.4695L31.9871 71.516C31.9871 73.0447 31.8342 74.3113 31.5283 75.3159C31.2442 76.2768 30.8837 76.7791 30.4467 76.8227C29.8568 76.8883 29.245 76.2003 28.6114 74.759C27.9122 73.2303 27.4206 71.3304 27.1366 69.0592C27.0055 68.0109 26.9399 67.0173 26.9399 66.0782C26.9399 64.3967 27.1366 63.0645 27.5299 62.0818L28.1526 62.7697Z" fill="#BA5400"/>
<path d="M29.8898 64.5714L30.5781 64.768C30.9495 65.0519 31.2773 65.5978 31.5613 66.4058C31.8672 67.2139 32.0857 68.1529 32.2168 69.223C32.3697 70.5333 32.3588 71.6689 32.184 72.6298C31.9873 73.6999 31.6268 74.2786 31.1025 74.366C30.9058 74.4096 30.6764 74.3441 30.4142 74.1694C30.0428 73.8855 29.715 73.3505 29.431 72.5643C29.1251 71.7563 28.9066 70.8172 28.7755 69.7471C28.6226 68.4368 28.6335 67.3012 28.8083 66.3403C29.0049 65.2484 29.3654 64.6588 29.8898 64.5714Z" fill="#0D131A"/>
<path d="M59.6157 66.1765C59.6157 64.6041 59.8233 63.2392 60.2384 62.0818C60.6973 60.7933 61.2872 60.1491 62.0082 60.1491C62.7292 60.1491 63.3192 60.7933 63.778 62.0818C64.1713 63.2392 64.3679 64.6041 64.3679 66.1765C64.3679 67.7707 64.1713 69.1465 63.778 70.304C63.3192 71.5925 62.7292 72.2367 62.0082 72.2367C61.2872 72.2367 60.6973 71.5925 60.2384 70.304C59.8233 69.1465 59.6157 67.7707 59.6157 66.1765Z" fill="#0D131A"/>
<path d="M106.613 8.12996C108.252 9.02534 108.809 10.9799 108.285 13.9936C107.629 17.6843 106.711 21.2112 105.532 24.5743C107.148 27.4352 106.427 31.508 103.369 36.7929C100.856 41.1388 97.8407 44.7967 94.323 47.7668C94.5415 48.2254 94.5196 49.3828 94.2574 51.2391C93.9079 53.5758 93.1978 55.3884 92.1271 56.6768C91.2532 57.7469 90.1498 58.6751 88.817 59.4612C87.2439 60.4003 85.6598 60.9353 84.0648 61.0664C81.4647 61.2629 78.668 59.7342 75.6747 56.4803C72.4847 53.0298 71.72 47.7122 73.3805 40.5273C74.9318 33.9103 77.9361 27.8064 82.3933 22.2158C84.906 19.071 87.801 16.2429 91.0784 13.7315C94.2465 11.3075 97.2289 9.58222 100.026 8.55581C102.932 7.46389 105.127 7.32194 106.613 8.12996Z" fill="#0D131A"/>
<path d="M105.073 27.3587C104.832 30.1322 103.652 33.4625 101.533 37.3498C99.3264 41.3899 96.9229 44.4691 94.3229 46.5874C94.3229 45.5829 94.159 44.5237 93.8313 43.41C93.5691 42.5801 93.2851 42.2525 92.9792 42.4272C92.6733 42.6019 92.564 43.1479 92.6514 44.0651C93.1103 49.3063 92.5859 53.0516 91.0783 55.301C90.4447 56.2837 89.5379 57.1463 88.3581 57.8888C87.0034 58.7187 85.6051 59.1882 84.163 59.2974C81.3445 59.5158 78.7553 58.3475 76.3956 55.7924C73.4241 52.5384 72.8014 47.461 74.5275 40.56C76.1662 34.0522 79.1923 28.3087 83.6059 23.3295C87.8228 18.5906 92.2691 14.9435 96.9448 12.3884C101.118 10.0736 104.1 9.27645 105.892 9.99712C106.853 10.3902 107.094 12.3338 106.613 15.828C106.198 18.929 105.488 21.8117 104.483 24.476L104.384 24.7381L104.581 24.9674C104.974 25.426 105.138 26.2231 105.073 27.3587Z" fill="#AFCEE5"/>
<path d="M105.073 27.3587C104.832 30.1322 103.652 33.4625 101.533 37.3498C99.3264 41.3899 96.9229 44.4691 94.3229 46.5874C94.3229 45.5829 94.159 44.5237 93.8313 43.41C93.5691 42.5801 93.2851 42.2525 92.9792 42.4272C92.6733 42.6019 92.564 43.1479 92.6514 44.0651C93.1103 49.3063 92.5859 53.0516 91.0783 55.301C90.4447 56.2837 89.5379 57.1463 88.3581 57.8888C87.0034 58.7187 85.6051 59.1882 84.163 59.2974C81.3445 59.5158 78.7553 58.3475 76.3956 55.7924C73.4241 52.5384 72.8014 47.461 74.5275 40.56C76.1662 34.0522 79.1923 28.3087 83.6059 23.3295C87.8228 18.5906 92.2691 14.9435 96.9448 12.3884C101.118 10.0736 104.1 9.27645 105.892 9.99712C106.853 10.3902 107.094 12.3338 106.613 15.828C106.198 18.929 105.488 21.8117 104.483 24.476L104.384 24.7381L104.581 24.9674C104.974 25.426 105.138 26.2231 105.073 27.3587Z" fill="#AFCEE5"/>
<path d="M87.3095 28.3414C89.0356 25.7426 90.9692 23.2203 93.1104 20.7744C95.492 18.0446 97.7534 15.8389 99.8946 14.1573C101.206 14.2447 100.539 16.1774 97.8954 19.9555C94.5088 24.8036 92.6407 27.9265 92.2911 29.3242C91.4608 32.9057 89.8986 37.1314 87.6044 42.0014C84.8514 47.8322 82.7539 50.3327 81.3119 49.5029C79.8043 48.6293 79.7824 45.703 81.2463 40.7238C82.6884 35.8538 84.7094 31.7264 87.3095 28.3414Z" fill="#93AEC1"/>
<path d="M87.5061 26.7036C89.4944 23.9082 91.6356 21.2549 93.9297 18.7434C95.8962 16.6251 97.3382 15.2602 98.2559 14.6487C99.6542 13.7097 100.31 13.4476 100.222 13.8625C100.135 14.2556 99.6542 14.8016 98.7803 15.5004C96.6172 17.2257 93.5583 20.9054 89.6036 26.5398C84.1195 34.3361 81.1807 40.9968 80.7875 46.5219C80.6564 48.4437 80.4488 49.0334 80.1648 48.2909L79.7715 46.5875C79.3782 41.2152 81.9564 34.5872 87.5061 26.7036Z" fill="#0D131A"/>
<path d="M109.825 124.42C112.906 124.769 116.259 126.571 119.886 129.825C123.535 133.1 126.758 137.217 129.555 142.174C131.652 145.843 133.072 149.61 133.815 153.476C134.099 155.004 134.361 157.658 134.602 161.436L134.667 163.27L134.733 164.548L136.011 167.594L137.125 170.772C137.366 171.449 137.508 172.235 137.551 173.13C137.639 174.55 136.972 175.03 135.552 174.572L132.472 173.523C130.614 172.846 128.997 172.169 127.621 171.492L125.392 174.113L122.672 177.094C121.427 178.208 118.335 176.908 113.397 173.196L105.925 173.884C104.636 173.884 103.773 173.633 103.336 173.13C102.942 172.737 102.713 172.246 102.647 171.656C102.582 171.198 102.604 170.466 102.713 169.461L103.073 167.398C103.183 166.786 103.205 166.251 103.139 165.793C103.008 164.613 102.32 163.325 101.074 161.927L96.5842 157.243L91.2749 151.641C89.8984 150.069 89.2757 147.907 89.4067 145.155C89.5378 142.469 90.3572 139.685 91.8648 136.802C93.722 133.286 96.322 130.305 99.6649 127.859C103.27 125.217 106.657 124.07 109.825 124.42Z" fill="#0D131A"/>
<path d="M93.2743 137.687C95.0441 134.28 97.4038 131.43 100.353 129.137C103.609 126.582 106.712 125.468 109.661 125.796C112.633 126.145 116.063 128.372 119.952 132.478C123.251 135.95 125.83 139.488 127.687 143.092C131.073 149.687 133.073 156.653 133.684 163.991C133.728 164.45 134.209 166.098 135.126 168.937C135.935 171.449 136.23 172.825 136.011 173.065C135.64 173.48 133.029 172.694 128.178 170.706L128.113 170.215C127.96 169.975 127.632 170.084 127.13 170.542L124.77 172.999L121.984 175.718C121.569 176.089 120.356 175.795 118.346 174.834C116.598 173.982 115.287 173.196 114.413 172.475C113.911 172.06 112.939 171.951 111.496 172.148L106.417 172.639C105.477 172.639 104.843 172.464 104.516 172.115C104.319 171.918 104.221 170.936 104.221 169.167L104.155 165.662C103.98 164.242 103.369 162.801 102.32 161.338C101.621 160.355 100.179 158.706 97.9937 156.391L92.8154 150.691C91.57 149.272 90.991 147.405 91.0784 145.09C91.144 142.797 91.8759 140.329 93.2743 137.687Z" fill="#88A3D4"/>
<path d="M102.32 161.338C101.621 160.355 100.179 158.706 97.9938 156.391L92.8155 150.691C91.3516 149.032 90.7945 146.782 91.1441 143.943C94.6836 147.132 97.9938 150.637 101.075 154.458C104.33 158.52 106.067 161.403 106.286 163.106L106.744 168.282C106.941 169.833 107.4 170.641 108.121 170.706L111.398 170.608L114.184 170.706L117.724 172.213C119.603 172.999 120.772 173.392 121.23 173.392C121.624 173.392 122.694 172.737 124.442 171.427C126.19 170.117 127.206 169.461 127.49 169.461C127.643 169.461 128.779 169.898 130.899 170.772C133.149 171.689 134.875 172.235 136.077 172.41L136.011 173.065C135.64 173.48 133.029 172.694 128.178 170.706L128.113 170.215C127.96 169.975 127.632 170.084 127.13 170.542L124.77 172.999L121.984 175.718C121.569 176.089 120.356 175.795 118.346 174.834C116.598 173.982 115.287 173.196 114.413 172.475C113.911 172.06 112.939 171.951 111.497 172.148L106.417 172.639C105.477 172.639 104.843 172.464 104.516 172.115C104.319 171.918 104.221 170.936 104.221 169.167L104.155 165.662C103.98 164.242 103.369 162.801 102.32 161.338Z" fill="#778DB8"/>
<path d="M39.4596 88.8449C39.0663 89.0196 38.4545 88.7903 37.6242 88.1569L35.9856 86.7484C35.6578 86.4645 34.5217 85.9731 32.5771 85.2743C30.6543 84.5754 29.1249 84.095 27.9887 83.8329C26.8744 83.5709 26.0551 83.2651 25.5307 82.9157C25.0937 82.6318 24.7551 82.2169 24.5147 81.6709C24.2744 81.1686 24.2744 80.8957 24.5147 80.852C24.7769 80.7865 25.1047 80.9939 25.4979 81.4744C25.8257 81.8893 26.2845 82.2387 26.8744 82.5226L28.4476 83.1123C33.1015 84.6628 35.6906 85.6346 36.215 86.0277L37.4931 87.0104C38.0175 87.3817 38.4327 87.5673 38.7385 87.5673L40.8361 86.7484C42.0596 86.1806 42.9664 85.8857 43.5563 85.8639L53.2573 84.8484L63.8105 83.4398C64.9903 83.1996 66.1921 82.7082 67.4156 81.9657C68.4862 81.2887 69.2728 80.6336 69.7753 80.0003C70.2123 79.4543 70.5728 79.2469 70.8569 79.3779C71.119 79.5089 71.0863 79.8256 70.7585 80.3279C69.9501 81.5945 68.9232 82.5554 67.6778 83.2105C66.7601 83.7128 65.5475 84.1168 64.0399 84.4226L53.6179 85.7656L44.179 86.8139C43.7639 86.8794 42.9664 87.1851 41.7865 87.7311L39.4596 88.8449Z" fill="#0D131A"/>
<path d="M26.0882 76.659C26.5251 76.9866 26.7109 77.3251 26.6453 77.6745C26.5798 78.0239 26.2848 78.275 25.7604 78.4279L23.9251 78.4607C23.2259 78.3296 22.6578 78.1003 22.2209 77.7728C21.7839 77.467 21.5982 77.1394 21.6637 76.79C21.7293 76.4406 22.0242 76.2004 22.5486 76.0694L24.3839 76.0038C25.0831 76.113 25.6512 76.3314 26.0882 76.659Z" fill="#5084C4"/>
<path d="M73.1182 75.0538C73.2493 75.4688 72.9652 75.9383 72.2661 76.4624C71.5669 76.9865 70.6601 77.4124 69.5458 77.74L66.5962 78.1331C65.7222 78.0894 65.2306 77.8601 65.1214 77.4452C64.9903 77.0302 65.2743 76.5607 65.9735 76.0366C66.6727 75.5124 67.5685 75.0866 68.6609 74.759C69.7753 74.4314 70.7694 74.3004 71.6434 74.3659C72.5173 74.4096 73.0089 74.6389 73.1182 75.0538Z" fill="#5084C4"/>
<path d="M65.0558 62.5732C65.0558 63.3594 64.8154 64.0364 64.3348 64.6042C63.8541 65.1501 63.2751 65.4231 62.5977 65.4231C61.9204 65.4231 61.3305 65.1501 60.828 64.6042C60.3473 64.0364 60.1069 63.3594 60.1069 62.5732C60.1069 61.787 60.3473 61.1209 60.828 60.575C61.3086 60.029 61.8986 59.756 62.5977 59.756C63.2751 59.756 63.8541 60.029 64.3348 60.575C64.8154 61.1209 65.0558 61.787 65.0558 62.5732Z" fill="white"/>
<path d="M29.4635 65.3248C29.7475 65.6743 29.8895 66.0892 29.8895 66.5696C29.8895 67.0719 29.7475 67.4869 29.4635 67.8144C29.1794 68.1638 28.8298 68.3386 28.4147 68.3386C28.0214 68.3386 27.6828 68.1638 27.3987 67.8144C27.1147 67.465 26.9727 67.0501 26.9727 66.5696C26.9727 66.0892 27.1147 65.6743 27.3987 65.3248C27.6828 64.9754 28.0214 64.8007 28.4147 64.8007C28.8298 64.8007 29.1794 64.9754 29.4635 65.3248Z" fill="white"/>
<path d="M43.9824 93.3981L46.4732 93.5619L51.8481 93.693C54.3826 93.693 57.7146 93.3108 61.8441 92.5464C56.0104 96.9578 52.8095 99.1635 52.2414 99.1635C51.6952 99.1635 48.9422 97.2417 43.9824 93.3981Z" fill="#0D131A"/>
<path d="M23.9905 58.3147C23.4443 59.2974 23.1821 60.7934 23.2039 62.8025C23.2039 65.3139 23.63 68.4477 24.4821 72.204C24.6132 72.7499 24.5804 73.0338 24.3838 73.0557C24.209 73.0775 24.0451 72.8919 23.8922 72.4988C22.7123 69.4851 22.1005 66.3185 22.0568 62.999C22.0131 60.029 22.3627 58.1728 23.1056 57.4302L22.0896 55.6941C21.8711 55.3228 21.8274 55.0499 21.9585 54.8751C22.0896 54.6786 22.3736 54.8205 22.8106 55.301L32.4789 66.1765C32.9814 66.7662 33.1999 67.1593 33.1344 67.3558C33.0907 67.5305 32.8066 67.4541 32.2822 67.1265C28.699 63.6542 25.9351 60.7169 23.9905 58.3147Z" fill="#0D131A"/>
<path d="M53.6506 63.9163C55.6389 62.2347 58.0532 60.3457 60.8936 58.2492C63.4718 56.3274 65.2198 55.1045 66.1374 54.5803C66.8148 54.2091 67.2081 54.1108 67.3173 54.2855C67.4265 54.4602 67.2518 54.7769 66.7929 55.2355L59.8449 60.706L53.2246 65.9145C53.0716 67.1156 53.1699 68.5679 53.5195 70.2713C53.8254 71.8436 54.2515 73.1976 54.7977 74.3332C54.907 74.5735 54.8851 74.7045 54.7322 74.7263C54.5574 74.7482 54.3826 74.639 54.2078 74.3987C53.3775 73.3942 52.7657 72.0948 52.3725 70.5006C52.001 68.9937 51.9136 67.6179 52.1103 66.3731L50.7993 66.5369C50.6245 66.4714 50.7119 66.2967 51.0615 66.0128L53.6506 63.9163Z" fill="#0D131A"/>
</svg>
